<?xml version="1.0" standalone="no"?>
<!DOCTYPE svg PUBLIC "-//W3C//DTD SVG 1.1//EN" "http://www.w3.org/Graphics/SVG/1.1/DTD/svg11.dtd" >
<svg xmlns="http://www.w3.org/2000/svg" xmlns:xlink="http://www.w3.org/1999/xlink" version="1.1">
<metadata>
Created by FontForge 20170910 at Wed Oct 14 17:25:58 2015
 By Jimmy Wärting
Copyright (c) 2014 by Ariel A'lvares. All rights reserved.
</metadata>
<defs>
<font id="Polt-Book" horiz-adv-x="520" >
  <font-face 
    font-family="Polt Book"
    font-weight="400"
    font-stretch="normal"
    units-per-em="1000"
    panose-1="0 0 5 0 0 0 0 0 0 0"
    ascent="800"
    descent="-200"
    x-height="525"
    cap-height="700"
    bbox="-190 -323 1041 1085"
    underline-thickness="50"
    underline-position="-100"
    stemh="53"
    stemv="51"
    unicode-range="U+0020-F8FF"
  />
<missing-glyph horiz-adv-x="500" 
d="M0 0v700h500v-700h-500zM250 395l170 255h-340zM280 350l170 -255v510zM80 50h340l-170 255zM50 605v-510l170 255z" />
    <glyph glyph-name=".notdef" horiz-adv-x="500" 
d="M0 0v700h500v-700h-500zM250 395l170 255h-340zM280 350l170 -255v510zM80 50h340l-170 255zM50 605v-510l170 255z" />
    <glyph glyph-name="A" unicode="A" horiz-adv-x="617" 
d="M601 0h-61l-89 242h-289l-89 -242h-57l261 700h63zM305 635l-124 -343h252l-125 343h-3z" />
    <glyph glyph-name="Aacute" unicode="&#xc1;" horiz-adv-x="617" 
d="M292 766h37l120 146h-73zM601 0h-61l-89 242h-289l-89 -242h-57l261 700h63zM305 635l-124 -343h252l-125 343h-3z" />
    <glyph glyph-name="Abreve" unicode="&#x102;" horiz-adv-x="617" 
d="M366 858h46c0 -53 -32 -96 -99 -96s-99 43 -99 96h46c0 -36 18 -57 53 -57s53 21 53 57zM601 0h-61l-89 242h-289l-89 -242h-57l261 700h63zM305 635l-124 -343h252l-125 343h-3z" />
    <glyph glyph-name="Abreveacute" unicode="&#x1eae;" horiz-adv-x="617" 
d="M297 880h37l120 146h-73zM366 858h46c0 -53 -32 -96 -99 -96s-99 43 -99 96h46c0 -36 18 -57 53 -57s53 21 53 57zM601 0h-61l-89 242h-289l-89 -242h-57l261 700h63zM305 635l-124 -343h252l-125 343h-3z" />
    <glyph glyph-name="Abrevedotbelow" unicode="&#x1eb6;" horiz-adv-x="617" 
d="M366 858h46c0 -53 -32 -96 -99 -96s-99 43 -99 96h46c0 -36 18 -57 53 -57s53 21 53 57zM601 0h-61l-89 242h-289l-89 -242h-57l261 700h63zM305 635l-124 -343h252l-125 343h-3zM336 -147h-56v87h56v-87z" />
    <glyph glyph-name="Abrevegrave" unicode="&#x1eb0;" horiz-adv-x="617" 
d="M176 1026l120 -146h37l-84 146h-73zM366 858h46c0 -53 -32 -96 -99 -96s-99 43 -99 96h46c0 -36 18 -57 53 -57s53 21 53 57zM601 0h-61l-89 242h-289l-89 -242h-57l261 700h63zM305 635l-124 -343h252l-125 343h-3z" />
    <glyph glyph-name="Abrevehookabove" unicode="&#x1eb2;" horiz-adv-x="617" 
d="M347 967c0 -21 -21 -40 -63 -42l7 -48h39l-5 27c41 9 63 35 63 68c0 36 -28 61 -73 61c-48 0 -78 -23 -78 -72h39c0 21 12 35 35 35c22 0 36 -9 36 -29zM366 858h46c0 -53 -32 -96 -99 -96s-99 43 -99 96h46c0 -36 18 -57 53 -57s53 21 53 57zM601 0h-61l-89 242h-289
l-89 -242h-57l261 700h63zM305 635l-124 -343h252l-125 343h-3z" />
    <glyph glyph-name="Abrevetilde" unicode="&#x1eb4;" horiz-adv-x="617" 
d="M414 981h28c0 -58 -35 -92 -77 -92c-54 0 -64 52 -106 52c-30 0 -49 -25 -53 -49h-30c0 58 41 91 83 91c54 0 64 -52 106 -52c29 0 44 26 49 50zM366 858h46c0 -53 -32 -96 -99 -96s-99 43 -99 96h46c0 -36 18 -57 53 -57s53 21 53 57zM601 0h-61l-89 242h-289l-89 -242
h-57l261 700h63zM305 635l-124 -343h252l-125 343h-3z" />
    <glyph glyph-name="Acaron" unicode="&#x1cd;" horiz-adv-x="617" 
d="M350 763h-88l-90 132h42l91 -99h3l92 99h40zM601 0h-61l-89 242h-289l-89 -242h-57l261 700h63zM305 635l-124 -343h252l-125 343h-3z" />
    <glyph glyph-name="Acircumflex" unicode="&#xc2;" horiz-adv-x="617" 
d="M442 765h-41l-92 99h-2l-91 -99h-42l90 132h88zM601 0h-61l-89 242h-289l-89 -242h-57l261 700h63zM305 635l-124 -343h252l-125 343h-3z" />
    <glyph glyph-name="Acircumflexacute" unicode="&#x1ea4;" horiz-adv-x="617" 
d="M484 833h-38l84 146h73zM444 760h-41l-92 99h-2l-92 -99h-41l90 133h88zM601 0h-61l-89 242h-289l-89 -242h-57l261 700h63zM305 635l-124 -343h252l-125 343h-3z" />
    <glyph glyph-name="Acircumflexdotbelow" unicode="&#x1eac;" horiz-adv-x="617" 
d="M442 765h-41l-92 99h-2l-91 -99h-42l90 132h88zM601 0h-61l-89 242h-289l-89 -242h-57l261 700h63zM305 635l-124 -343h252l-125 343h-3zM336 -147h-56v87h56v-87z" />
    <glyph glyph-name="Acircumflexgrave" unicode="&#x1ea6;" horiz-adv-x="617" 
d="M504 833h-38l-119 146h73zM444 760h-41l-92 99h-2l-92 -99h-41l90 133h88zM601 0h-61l-89 242h-289l-89 -242h-57l261 700h63zM305 635l-124 -343h252l-125 343h-3z" />
    <glyph glyph-name="Acircumflexhookabove" unicode="&#x1ea8;" horiz-adv-x="617" 
d="M546 855c0 -21 -21 -40 -63 -42l7 -48h39l-5 27c41 9 63 35 63 68c0 36 -28 61 -73 61c-48 0 -78 -23 -78 -72h39c0 21 12 35 35 35c22 0 36 -9 36 -29zM444 765h-41l-92 99h-2l-91 -99h-42l90 132h88zM601 0h-61l-89 242h-289l-89 -242h-57l261 700h63zM305 635
l-124 -343h252l-125 343h-3z" />
    <glyph glyph-name="Acircumflextilde" unicode="&#x1eaa;" horiz-adv-x="617" 
d="M245 1038c54 0 64 -52 106 -52c29 0 44 26 49 50h28c0 -58 -35 -92 -77 -92c-54 0 -64 53 -106 53c-30 0 -49 -26 -53 -50h-30c0 58 41 91 83 91zM446 760h-41l-92 99h-2l-91 -99h-42l90 133h88zM601 0h-61l-89 242h-289l-89 -242h-57l261 700h63zM305 635l-124 -343h252
l-125 343h-3z" />
    <glyph glyph-name="Adieresis" unicode="&#xc4;" horiz-adv-x="617" 
d="M249 760h-56v87h56v-87zM424 760h-56v87h56v-87zM601 0h-61l-89 242h-289l-89 -242h-57l261 700h63zM305 635l-124 -343h252l-125 343h-3z" />
    <glyph glyph-name="Adieresismacron" unicode="&#x1de;" horiz-adv-x="617" 
d="M460 906h-301v42h301v-42zM249 760h-56v87h56v-87zM424 760h-56v87h56v-87zM601 0h-61l-89 242h-289l-89 -242h-57l261 700h63zM305 635l-124 -343h252l-125 343h-3z" />
    <glyph glyph-name="Adotbelow" unicode="&#x1ea0;" horiz-adv-x="617" 
d="M601 0h-61l-89 242h-289l-89 -242h-57l261 700h63zM305 635l-124 -343h252l-125 343h-3zM336 -147h-56v87h56v-87z" />
    <glyph glyph-name="Agrave" unicode="&#xc0;" horiz-adv-x="617" 
d="M170 912l120 -146h37l-84 146h-73zM601 0h-61l-89 242h-289l-89 -242h-57l261 700h63zM305 635l-124 -343h252l-125 343h-3z" />
    <glyph glyph-name="Ahookabove" unicode="&#x1ea2;" horiz-adv-x="617" 
d="M346 855c0 -21 -21 -40 -63 -42l7 -48h39l-5 27c41 9 63 35 63 68c0 36 -28 61 -73 61c-48 0 -78 -23 -78 -72h39c0 21 12 35 35 35c22 0 36 -9 36 -29zM601 0h-61l-89 242h-289l-89 -242h-57l261 700h63zM305 635l-124 -343h252l-125 343h-3z" />
    <glyph glyph-name="uni2C6D" unicode="&#x2c6d;" horiz-adv-x="654" 
d="M312 711c98 0 161 -60 192 -120h3v108h54v-698h-54v106h-3c-32 -59 -93 -118 -192 -118c-162 0 -257 106 -257 355c0 202 73 367 257 367zM312 660c-120 0 -203 -87 -203 -316c0 -218 83 -304 203 -304c114 0 199 90 195 305c-4 236 -84 315 -195 315z" />
    <glyph glyph-name="Amacron" unicode="&#x100;" horiz-adv-x="617" 
d="M460 763h-301v42h301v-42zM601 0h-61l-89 242h-289l-89 -242h-57l261 700h63zM305 635l-124 -343h252l-125 343h-3z" />
    <glyph glyph-name="Aogonek" unicode="&#x104;" horiz-adv-x="617" 
d="M340 700l261 -700c-123 -48 -144 -135 -117 -165c21 -24 84 -18 115 20l33 -17c-36 -64 -150 -77 -182 -27c-9 13 -13 29 -13 45c0 49 35 111 102 146l-88 240h-289l-89 -242h-57l261 700h63zM305 635l-124 -343h252l-125 343h-3z" />
    <glyph glyph-name="Aring" unicode="&#xc5;" horiz-adv-x="617" 
d="M308 715c-69 0 -109 41 -109 109c0 69 40 110 109 110s109 -41 109 -110c0 -68 -40 -109 -109 -109zM308 751c45 0 72 27 72 73c0 47 -27 74 -72 74c-46 0 -73 -27 -73 -74c0 -46 27 -73 73 -73zM601 0h-61l-89 242h-289l-89 -242h-57l261 700h63zM305 635l-124 -343h252
l-125 343h-3z" />
    <glyph glyph-name="Atilde" unicode="&#xc3;" horiz-adv-x="617" 
d="M422 852h28c0 -58 -35 -92 -77 -92c-54 0 -64 52 -106 52c-30 0 -49 -25 -53 -49h-30c0 58 41 91 83 91c54 0 64 -52 106 -52c29 0 44 26 49 50zM601 0h-61l-89 242h-289l-89 -242h-57l261 700h63zM305 635l-124 -343h252l-125 343h-3z" />
    <glyph glyph-name="AE" unicode="&#xc6;" horiz-adv-x="846" 
d="M790 651h-318v-260h298v-49h-298v-292h323v-50h-376v242h-217l-129 -242h-57l358 700h416v-49zM401 635l-180 -343h198v343h-18z" />
    <glyph glyph-name="B" unicode="B" horiz-adv-x="620" 
d="M93 700h213c71 0 234 -2 234 -182c0 -85 -43 -128 -93 -152v-3c69 -24 125 -73 125 -168c0 -162 -121 -195 -239 -195h-240v700zM147 650v-264h175c90 0 161 16 161 132c0 99 -68 132 -161 132h-175zM147 334v-283h181c82 0 189 20 189 144c0 130 -108 139 -189 139h-181
z" />
    <glyph glyph-name="Bdotbelow" unicode="&#x1e04;" horiz-adv-x="620" 
d="M93 700h213c71 0 234 -2 234 -182c0 -85 -43 -128 -93 -152v-3c69 -24 125 -73 125 -168c0 -162 -121 -195 -239 -195h-240v700zM147 650v-264h175c90 0 161 16 161 132c0 99 -68 132 -161 132h-175zM147 334v-283h181c82 0 189 20 189 144c0 130 -108 139 -189 139h-181
zM337 -147h-56v87h56v-87z" />
    <glyph glyph-name="Bhook" unicode="&#x181;" horiz-adv-x="751" 
d="M224 700h214c71 0 234 -2 234 -182c0 -85 -43 -128 -93 -152v-3c68 -24 125 -73 125 -168c0 -162 -122 -195 -239 -195h-241v649c-51 0 -107 -6 -135 -28c-20 -15 -31 -45 -16 -94h-55c-5 18 -7 34 -7 49c0 35 12 63 39 84c34 26 75 41 174 40zM279 650v-264h175
c89 0 161 16 161 132c0 99 -69 132 -161 132h-175zM279 334v-283h180c83 0 190 20 190 144c0 130 -109 139 -190 139h-180z" />
    <glyph glyph-name="uni0243" unicode="&#x243;" horiz-adv-x="655" 
d="M482 366v-3c69 -24 125 -73 125 -168c0 -162 -121 -195 -238 -195h-241v171h-120v43h120v486h213c71 0 235 -2 235 -182c0 -85 -43 -128 -94 -152zM182 386h175c90 0 162 16 162 132c0 99 -69 132 -162 132h-175v-264zM182 51h181c82 0 189 20 189 144
c0 130 -108 139 -189 139h-181v-120h126v-43h-126v-120z" />
    <glyph glyph-name="C" unicode="C" horiz-adv-x="644" 
d="M345 711c180 0 245 -158 245 -243h-53c0 104 -99 192 -192 192c-132 0 -232 -134 -233 -305c0 -165 83 -314 232 -314c77 0 163 52 206 134l43 -26c-54 -113 -158 -160 -248 -160c-201 0 -290 191 -290 366c0 178 102 356 290 356z" />
    <glyph glyph-name="Cacute" unicode="&#x106;" horiz-adv-x="644" 
d="M284 777h37l120 146h-73zM345 711c180 0 245 -158 245 -243h-53c0 104 -99 192 -192 192c-132 0 -232 -134 -233 -305c0 -165 83 -314 232 -314c77 0 163 52 206 134l43 -26c-54 -113 -158 -160 -248 -160c-201 0 -290 191 -290 366c0 178 102 356 290 356z" />
    <glyph glyph-name="Ccaron" unicode="&#x10c;" horiz-adv-x="644" 
d="M395 766h-88l-90 132h42l91 -99h3l92 99h40zM345 711c180 0 245 -158 245 -243h-53c0 104 -99 192 -192 192c-132 0 -232 -134 -233 -305c0 -165 83 -314 232 -314c77 0 163 52 206 134l43 -26c-54 -113 -158 -160 -248 -160c-201 0 -290 191 -290 366
c0 178 102 356 290 356z" />
    <glyph glyph-name="Ccedilla" unicode="&#xc7;" horiz-adv-x="644" 
d="M550 175l43 -26c-37 -77 -97 -124 -160 -145c15 -105 -47 -176 -167 -149l19 38c71 -16 119 20 110 101c-17 -3 -34 -5 -50 -5c-201 0 -290 191 -290 366c0 178 102 356 290 356c180 0 245 -158 245 -243h-53c0 104 -99 192 -192 192c-132 0 -232 -134 -233 -305
c0 -165 83 -314 232 -314c77 0 163 52 206 134z" />
    <glyph glyph-name="Cdotaccent" unicode="&#x10a;" horiz-adv-x="644" 
d="M368 763h-56v87h56v-87zM345 711c180 0 245 -158 245 -243h-53c0 104 -99 192 -192 192c-132 0 -232 -134 -233 -305c0 -165 83 -314 232 -314c77 0 163 52 206 134l43 -26c-54 -113 -158 -160 -248 -160c-201 0 -290 191 -290 366c0 178 102 356 290 356z" />
    <glyph glyph-name="Chook" unicode="&#x187;" horiz-adv-x="720" 
d="M720 799v-50c-49 15 -79 -1 -94 -21c-22 -28 -28 -83 -28 -134v-126h-53c0 104 -98 192 -192 192c-132 0 -232 -134 -233 -305c0 -165 83 -314 232 -314c79 0 161 51 206 134l43 -26c-54 -113 -158 -160 -248 -160c-201 0 -290 191 -290 366c0 178 102 356 290 356
c92 0 153 -47 190 -98h3c3 89 16 124 39 154c21 26 49 39 84 39c16 0 33 -2 51 -7z" />
    <glyph glyph-name="D" unicode="D" horiz-adv-x="655" 
d="M93 700h166c106 0 176 -22 230 -61c82 -60 112 -159 112 -280c0 -123 -25 -228 -107 -290c-52 -44 -127 -69 -235 -69h-166v700zM147 649v-598h127c64 0 128 15 176 56c63 47 94 130 94 252c0 106 -30 184 -86 233c-45 38 -104 57 -184 57h-127z" />
    <glyph glyph-name="Dafrican" unicode="&#x189;" horiz-adv-x="645" 
d="M479 639c81 -60 112 -159 112 -280c0 -123 -25 -228 -107 -290c-52 -44 -127 -69 -235 -69h-166v361h-72v42h72v297h166c106 0 176 -22 230 -61zM440 107c63 47 94 130 94 252c0 106 -30 184 -86 233c-46 38 -104 57 -184 57h-127v-246h174v-42h-174v-310h127
c64 0 128 15 176 56z" />
    <glyph glyph-name="Eth" unicode="&#xd0;" horiz-adv-x="645" 
d="M479 639c81 -60 112 -159 112 -280c0 -123 -25 -228 -107 -290c-52 -44 -127 -69 -235 -69h-166v361h-72v42h72v297h166c106 0 176 -22 230 -61zM440 107c63 47 94 130 94 252c0 106 -30 184 -86 233c-46 38 -104 57 -184 57h-127v-246h174v-42h-174v-310h127
c64 0 128 15 176 56z" />
    <glyph glyph-name="Dcaron" unicode="&#x10e;" horiz-adv-x="655" 
d="M356 763h-88l-90 132h42l91 -99h3l92 99h40zM93 700h166c106 0 176 -22 230 -61c82 -60 112 -159 112 -280c0 -123 -25 -228 -107 -290c-52 -44 -127 -69 -235 -69h-166v700zM147 649v-598h127c64 0 128 15 176 56c63 47 94 130 94 252c0 106 -30 184 -86 233
c-45 38 -104 57 -184 57h-127z" />
    <glyph glyph-name="Dcircumflexbelow" unicode="&#x1e12;" horiz-adv-x="655" 
d="M93 700h166c106 0 176 -22 230 -61c82 -60 112 -159 112 -280c0 -123 -25 -228 -107 -290c-52 -44 -127 -69 -235 -69h-166v700zM147 649v-598h127c64 0 128 15 176 56c63 47 94 130 94 252c0 106 -30 184 -86 233c-45 38 -104 57 -184 57h-127zM424 -192h-41l-92 99h-2
l-91 -99h-42l90 132h88z" />
    <glyph glyph-name="Dcroat" unicode="&#x110;" horiz-adv-x="645" 
d="M479 639c81 -60 112 -159 112 -280c0 -123 -25 -228 -107 -290c-52 -44 -127 -69 -235 -69h-166v361h-72v42h72v297h166c106 0 176 -22 230 -61zM440 107c63 47 94 130 94 252c0 106 -30 184 -86 233c-46 38 -104 57 -184 57h-127v-246h174v-42h-174v-310h127
c64 0 128 15 176 56z" />
    <glyph glyph-name="Ddotbelow" unicode="&#x1e0c;" horiz-adv-x="655" 
d="M93 700h166c106 0 176 -22 230 -61c82 -60 112 -159 112 -280c0 -123 -25 -228 -107 -290c-52 -44 -127 -69 -235 -69h-166v700zM147 649v-598h127c64 0 128 15 176 56c63 47 94 130 94 252c0 106 -30 184 -86 233c-45 38 -104 57 -184 57h-127zM317 -147h-56v87h56v-87z
" />
    <glyph glyph-name="Dhook" unicode="&#x18a;" horiz-adv-x="857" 
d="M227 700h166c106 0 176 -22 230 -61c82 -60 112 -159 112 -280c0 -123 -25 -228 -107 -290c-52 -44 -127 -69 -235 -69h-166v650c-51 0 -107 -7 -135 -29c-20 -15 -31 -45 -16 -94h-55c-5 18 -7 35 -7 50c0 35 13 63 39 83c34 26 75 41 174 40zM281 650v-599h127
c64 0 128 15 176 56c63 47 94 130 94 252c0 106 -30 184 -86 233c-45 38 -104 58 -184 58h-127z" />
    <glyph glyph-name="Dlinebelow" unicode="&#x1e0e;" horiz-adv-x="655" 
d="M93 700h166c106 0 176 -22 230 -61c82 -60 112 -159 112 -280c0 -123 -25 -228 -107 -290c-52 -44 -127 -69 -235 -69h-166v700zM147 649v-598h127c64 0 128 15 176 56c63 47 94 130 94 252c0 106 -30 184 -86 233c-45 38 -104 57 -184 57h-127zM469 -102h-301v42h301
v-42z" />
    <glyph glyph-name="E" unicode="E" horiz-adv-x="522" 
d="M466 651h-318v-260h297v-49h-297v-292h323v-50h-378v700h373v-49z" />
    <glyph glyph-name="Eacute" unicode="&#xc9;" horiz-adv-x="522" 
d="M219 765h37l120 146h-73zM466 651h-318v-260h297v-49h-297v-292h323v-50h-378v700h373v-49z" />
    <glyph glyph-name="Ecaron" unicode="&#x11a;" horiz-adv-x="522" 
d="M328 763h-88l-90 132h42l91 -99h3l92 99h40zM466 651h-318v-260h297v-49h-297v-292h323v-50h-378v700h373v-49z" />
    <glyph glyph-name="uni0228" unicode="&#x228;" horiz-adv-x="522" 
d="M471 0h-108c14 -103 -48 -174 -167 -147l19 38c74 -16 123 22 108 109h-230v700h373v-49h-318v-260h297v-49h-297v-292h323v-50z" />
    <glyph glyph-name="Ecircumflex" unicode="&#xca;" horiz-adv-x="522" 
d="M416 763h-41l-92 99h-2l-91 -99h-42l90 132h88zM466 651h-318v-260h297v-49h-297v-292h323v-50h-378v700h373v-49z" />
    <glyph glyph-name="Ecircumflexacute" unicode="&#x1ebe;" horiz-adv-x="522" 
d="M451 833h-38l84 146h73zM411 760h-41l-92 99h-2l-92 -99h-41l90 133h88zM466 651h-318v-260h297v-49h-297v-292h323v-50h-378v700h373v-49z" />
    <glyph glyph-name="Ecircumflexdotbelow" unicode="&#x1ec6;" horiz-adv-x="522" 
d="M416 763h-41l-92 99h-2l-91 -99h-42l90 132h88zM466 651h-318v-260h297v-49h-297v-292h323v-50h-378v700h373v-49zM308 -147h-56v87h56v-87z" />
    <glyph glyph-name="Ecircumflexgrave" unicode="&#x1ec0;" horiz-adv-x="522" 
d="M473 833h-38l-119 146h73zM413 760h-41l-92 99h-2l-92 -99h-41l90 133h88zM466 651h-318v-260h297v-49h-297v-292h323v-50h-378v700h373v-49z" />
    <glyph glyph-name="Ecircumflexhookabove" unicode="&#x1ec2;" horiz-adv-x="522" 
d="M496 855c0 -21 -21 -40 -63 -42l7 -48h39l-5 27c41 9 63 35 63 68c0 36 -28 61 -73 61c-48 0 -78 -23 -78 -72h39c0 21 12 35 35 35c22 0 36 -9 36 -29zM394 765h-41l-92 99h-2l-91 -99h-42l90 132h88zM466 651h-318v-260h297v-49h-297v-292h323v-50h-378v700h373v-49z
" />
    <glyph glyph-name="Ecircumflextilde" unicode="&#x1ec4;" horiz-adv-x="522" 
d="M216 1038c54 0 64 -52 106 -52c29 0 44 26 49 50h28c0 -58 -35 -92 -77 -92c-54 0 -64 53 -106 53c-30 0 -49 -26 -53 -50h-30c0 58 41 91 83 91zM417 760h-41l-92 99h-2l-91 -99h-42l90 133h88zM466 651h-318v-260h297v-49h-297v-292h323v-50h-378v700h373v-49z" />
    <glyph glyph-name="Edieresis" unicode="&#xcb;" horiz-adv-x="522" 
d="M222 760h-56v87h56v-87zM397 760h-56v87h56v-87zM466 651h-318v-260h297v-49h-297v-292h323v-50h-378v700h373v-49z" />
    <glyph glyph-name="Edotaccent" unicode="&#x116;" horiz-adv-x="522" 
d="M310 763h-56v87h56v-87zM466 651h-318v-260h297v-49h-297v-292h323v-50h-378v700h373v-49z" />
    <glyph glyph-name="Edotbelow" unicode="&#x1eb8;" horiz-adv-x="522" 
d="M466 651h-318v-260h297v-49h-297v-292h323v-50h-378v700h373v-49zM310 -147h-56v87h56v-87z" />
    <glyph glyph-name="Egrave" unicode="&#xc8;" horiz-adv-x="522" 
d="M147 912l120 -146h37l-84 146h-73zM466 651h-318v-260h297v-49h-297v-292h323v-50h-378v700h373v-49z" />
    <glyph glyph-name="Ehookabove" unicode="&#x1eba;" horiz-adv-x="522" 
d="M312 855c0 -21 -21 -40 -63 -42l7 -48h39l-5 27c41 9 63 35 63 68c0 36 -28 61 -73 61c-48 0 -78 -23 -78 -72h39c0 21 12 35 35 35c22 0 36 -9 36 -29zM466 651h-318v-260h297v-49h-297v-292h323v-50h-378v700h373v-49z" />
    <glyph glyph-name="Emacron" unicode="&#x112;" horiz-adv-x="522" 
d="M436 763h-301v42h301v-42zM466 651h-318v-260h297v-49h-297v-292h323v-50h-378v700h373v-49z" />
    <glyph glyph-name="Eogonek" unicode="&#x118;" horiz-adv-x="522" 
d="M471 0h-53c-112 -47 -137 -135 -110 -165c21 -24 84 -18 115 20l33 -17c-36 -64 -149 -77 -182 -27c-9 13 -13 29 -13 45c0 49 35 109 101 144h-269v700h373v-49h-318v-260h297v-49h-297v-292h323v-50z" />
    <glyph glyph-name="Eopen" unicode="&#x190;" horiz-adv-x="508" 
d="M263 711c133 0 174 -92 178 -153h-57c0 62 -55 102 -121 102c-104 0 -136 -67 -136 -134c0 -109 90 -111 171 -111v-51c-122 3 -182 -57 -182 -163c0 -101 52 -161 139 -161c79 -1 138 45 161 121l44 -27c-26 -91 -102 -145 -204 -145c-124 0 -197 76 -197 204
c0 95 40 164 107 189v2c-65 17 -96 72 -96 139c0 118 72 188 193 188z" />
    <glyph glyph-name="Ereversed" unicode="&#x18e;" 
d="M428 0h-376v50h322v292h-297v49h297v260h-317v49h371v-700z" />
    <glyph glyph-name="Esh" unicode="&#x1a9;" horiz-adv-x="516" 
d="M465 650h-318v-3l213 -278l-243 -313v-3h346v-53h-411v50l243 317v3l-217 286v44h387v-50z" />
    <glyph glyph-name="Etilde" unicode="&#x1ebc;" horiz-adv-x="522" 
d="M378 855h28c0 -58 -35 -92 -77 -92c-54 0 -64 52 -106 52c-30 0 -49 -25 -53 -49h-30c0 58 41 91 83 91c54 0 64 -52 106 -52c29 0 44 26 49 50zM466 651h-318v-260h297v-49h-297v-292h323v-50h-378v700h373v-49z" />
    <glyph glyph-name="Ezh" unicode="&#x1b7;" horiz-adv-x="577" 
d="M502 656l-244 -218v-3c173 4 271 -54 271 -221c0 -138 -94 -225 -232 -225c-96 0 -191 44 -245 160l43 26c44 -86 121 -134 203 -134c105 0 174 70 174 183c0 145 -150 182 -295 152v57l234 214v3h-306v50h397v-44z" />
    <glyph glyph-name="Ezhcaron" unicode="&#x1ee;" horiz-adv-x="577" 
d="M345 763h-88l-90 132h42l91 -99h3l92 99h40zM502 656l-244 -218v-3c173 4 271 -54 271 -221c0 -138 -94 -225 -232 -225c-96 0 -191 44 -245 160l43 26c44 -86 121 -134 203 -134c105 0 174 70 174 183c0 145 -150 182 -295 152v57l234 214v3h-306v50h397v-44z" />
    <glyph glyph-name="Ezhreversed" unicode="&#x1b8;" horiz-adv-x="577" 
d="M472 700v-50h-306v-3l234 -214v-57c-145 30 -295 -7 -295 -152c0 -113 69 -183 174 -183c82 0 159 48 203 134l43 -26c-54 -116 -149 -160 -245 -160c-138 0 -232 87 -232 225c0 167 98 225 271 221v3l-244 218v44h397z" />
    <glyph glyph-name="F" unicode="F" horiz-adv-x="513" 
d="M461 648h-315v-241h295v-52h-295v-355h-53v700h368v-52z" />
    <glyph glyph-name="Fhook" unicode="&#x191;" 
d="M467 648h-314v-241h295v-52h-295v-355c0 -96 -20 -171 -71 -199c-25 -16 -59 -21 -102 -10l18 44c35 -10 69 7 88 38c20 34 20 92 14 127v700h367v-52z" />
    <glyph glyph-name="G" unicode="G" horiz-adv-x="678" 
d="M342 711c180 0 246 -158 246 -244h-54c-3 105 -98 192 -192 192c-132 0 -232 -133 -233 -304c0 -165 92 -314 242 -314c90 0 147 33 190 69v182h-198l33 48h216v-257c-87 -78 -169 -94 -241 -94c-201 0 -299 191 -299 366c0 178 102 356 290 356z" />
    <glyph glyph-name="Gammaafrican" unicode="&#x194;" horiz-adv-x="599" 
d="M329 127v-3c75 -71 98 -134 98 -195c0 -94 -48 -149 -130 -149c-83 0 -131 55 -131 149c0 61 24 124 99 195v3l-249 573h63l218 -512h3l221 512h63zM299 83h-3c-46 -51 -73 -107 -73 -154c0 -64 27 -101 74 -101c46 0 73 37 73 101c0 47 -26 104 -71 154z" />
    <glyph glyph-name="Gbreve" unicode="&#x11e;" horiz-adv-x="678" 
d="M385 861h46c0 -53 -32 -96 -99 -96s-99 43 -99 96h46c0 -36 18 -57 53 -57s53 21 53 57zM342 711c180 0 246 -158 246 -244h-54c-3 105 -98 192 -192 192c-132 0 -232 -133 -233 -304c0 -165 92 -314 242 -314c90 0 147 33 190 69v182h-198l33 48h216v-257
c-87 -78 -169 -94 -241 -94c-201 0 -299 191 -299 366c0 178 102 356 290 356z" />
    <glyph glyph-name="Gcaron" unicode="&#x1e6;" horiz-adv-x="678" 
d="M392 763h-88l-90 132h42l91 -99h3l92 99h40zM342 711c180 0 246 -158 246 -244h-54c-3 105 -98 192 -192 192c-132 0 -232 -133 -233 -304c0 -165 92 -314 242 -314c90 0 147 33 190 69v182h-198l33 48h216v-257c-87 -78 -169 -94 -241 -94c-201 0 -299 191 -299 366
c0 178 102 356 290 356z" />
    <glyph glyph-name="Gcommaaccent" unicode="&#x122;" horiz-adv-x="678" 
d="M342 711c180 0 246 -158 246 -244h-54c-3 105 -98 192 -192 192c-132 0 -232 -133 -233 -304c0 -165 92 -314 242 -314c90 0 147 33 190 69v182h-198l33 48h216v-257c-87 -78 -169 -94 -241 -94c-201 0 -299 191 -299 366c0 178 102 356 290 356zM435 -60v-72
c0 -48 -19 -68 -65 -68v30c20 0 29 17 29 34h-36v76h72z" />
    <glyph glyph-name="Gdotaccent" unicode="&#x120;" horiz-adv-x="678" 
d="M366 763h-56v87h56v-87zM342 711c180 0 246 -158 246 -244h-54c-3 105 -98 192 -192 192c-132 0 -232 -133 -233 -304c0 -165 92 -314 242 -314c90 0 147 33 190 69v182h-198l33 48h216v-257c-87 -78 -169 -94 -241 -94c-201 0 -299 191 -299 366c0 178 102 356 290 356z
" />
    <glyph glyph-name="Ghook" unicode="&#x193;" horiz-adv-x="710" 
d="M710 799v-55c-50 15 -80 4 -95 -16c-21 -28 -27 -83 -27 -134v-127h-54c-3 105 -98 192 -192 192c-132 0 -232 -133 -233 -304c0 -165 92 -314 242 -314c90 0 147 33 190 69v182h-198l33 48h216v-257c-87 -78 -169 -94 -241 -94c-201 0 -299 191 -299 366
c0 178 102 356 290 356c92 0 153 -46 190 -98h3c3 89 16 124 39 154c30 38 78 47 136 32z" />
    <glyph glyph-name="uni0241" unicode="&#x241;" horiz-adv-x="479" 
d="M229 713c125 0 196 -71 196 -190c0 -129 -69 -171 -116 -221c-88 -94 -71 -180 -71 -302h-55c0 128 -23 230 97 352c29 29 90 76 90 172c0 85 -47 139 -141 139c-59 0 -123 -40 -126 -132h-55c0 64 43 182 181 182z" />
    <glyph glyph-name="H" unicode="H" horiz-adv-x="635" 
d="M542 0h-54v343h-341v-343h-54v700h54v-309h341v309h54v-700z" />
    <glyph glyph-name="Hbar" unicode="&#x126;" horiz-adv-x="657" 
d="M553 573h92v-41h-92v-532h-55v343h-341v-343h-54v532h-91v41h91v138h54v-138h341v138h55v-138zM157 532v-141h341v141h-341z" />
    <glyph glyph-name="Hdotbelow" unicode="&#x1e24;" horiz-adv-x="635" 
d="M542 0h-54v343h-341v-343h-54v700h54v-309h341v309h54v-700zM345 -147h-56v87h56v-87z" />
    <glyph glyph-name="I" unicode="I" horiz-adv-x="240" 
d="M147 0h-54v700h54v-700z" />
    <glyph glyph-name="IJ" unicode="&#x132;" horiz-adv-x="782" 
d="M147 0h-54v700h54v-700zM689 700v-455c0 -115 -20 -256 -217 -256c-148 0 -196 79 -211 167l44 27c9 -85 58 -143 167 -143c139 0 163 103 163 190v470h54z" />
    <glyph glyph-name="Iacute" unicode="&#xcd;" horiz-adv-x="240" 
d="M79 769h37l120 146h-73zM147 0h-54v700h54v-700z" />
    <glyph glyph-name="Icaron" unicode="&#x1cf;" horiz-adv-x="240" 
d="M164 763h-88l-90 132h42l91 -99h3l92 99h40zM147 0h-54v700h54v-700z" />
    <glyph glyph-name="Icircumflex" unicode="&#xce;" horiz-adv-x="240" 
d="M253 763h-41l-92 99h-2l-91 -99h-42l90 132h88zM147 0h-54v700h54v-700z" />
    <glyph glyph-name="Idieresis" unicode="&#xcf;" horiz-adv-x="240" 
d="M58 760h-56v87h56v-87zM233 760h-56v87h56v-87zM147 0h-54v700h54v-700z" />
    <glyph glyph-name="Idieresisacute" unicode="&#x1e2e;" horiz-adv-x="240" 
d="M96 904h37l120 146h-73zM58 760h-56v87h56v-87zM233 760h-56v87h56v-87zM147 0h-54v700h54v-700z" />
    <glyph glyph-name="Idotaccent" unicode="&#x130;" horiz-adv-x="240" 
d="M146 760h-56v87h56v-87zM147 0h-54v700h54v-700z" />
    <glyph glyph-name="Idotbelow" unicode="&#x1eca;" horiz-adv-x="240" 
d="M147 0h-54v700h54v-700zM150 -147h-56v87h56v-87z" />
    <glyph glyph-name="Igrave" unicode="&#xcc;" horiz-adv-x="240" 
d="M-11 912l120 -146h37l-84 146h-73zM147 0h-54v700h54v-700z" />
    <glyph glyph-name="Ihookabove" unicode="&#x1ec8;" horiz-adv-x="240" 
d="M151 856c0 -21 -21 -40 -63 -42l7 -48h39l-5 27c41 9 63 35 63 68c0 36 -28 61 -73 61c-48 0 -78 -23 -78 -72h39c0 21 12 35 35 35c22 0 36 -9 36 -29zM147 0h-54v700h54v-700z" />
    <glyph glyph-name="Imacron" unicode="&#x12a;" horiz-adv-x="240" 
d="M273 763h-301v42h301v-42zM147 0h-54v700h54v-700z" />
    <glyph glyph-name="Iogonek" unicode="&#x12e;" horiz-adv-x="240" 
d="M147 700v-700c-112 -47 -138 -135 -111 -165c22 -24 85 -18 116 20l33 -17c-37 -64 -150 -77 -183 -27c-9 13 -13 29 -13 45c0 49 36 110 104 145v699h54z" />
    <glyph glyph-name="Iotaafrican" unicode="&#x196;" horiz-adv-x="277" 
d="M147 700v-495c-8 -26 -8 -55 -2 -82c12 -60 49 -97 104 -83l18 -44c-43 -11 -78 -6 -102 10c-51 28 -72 105 -72 201v493h54z" />
    <glyph glyph-name="Istroke" unicode="&#x197;" horiz-adv-x="331" 
d="M316 390h-123v-390h-55v390h-123v42h123v268h55v-268h123v-42z" />
    <glyph glyph-name="Itilde" unicode="&#x128;" horiz-adv-x="240" 
d="M223 855h28c0 -58 -35 -92 -77 -92c-54 0 -64 52 -106 52c-30 0 -49 -25 -53 -49h-30c0 58 41 91 83 91c54 0 64 -52 106 -52c29 0 44 26 49 50zM147 0h-54v700h54v-700z" />
    <glyph glyph-name="J" unicode="J" horiz-adv-x="542" 
d="M449 700v-455c0 -115 -20 -256 -217 -256c-148 0 -196 79 -211 167l44 27c9 -85 58 -143 167 -143c139 0 163 103 163 190v470h54z" />
    <glyph glyph-name="K" unicode="K" horiz-adv-x="556" 
d="M285 409v-3l256 -406h-66l-225 361h-3l-101 -129v-232h-53v700h53v-381h3l296 381h70z" />
    <glyph glyph-name="Kcommaaccent" unicode="&#x136;" horiz-adv-x="556" 
d="M285 409v-3l256 -406h-66l-225 361h-3l-101 -129v-232h-53v700h53v-381h3l296 381h70zM308 -60v-72c0 -48 -19 -68 -65 -68v30c20 0 29 17 29 34h-36v76h72z" />
    <glyph glyph-name="Khook" unicode="&#x198;" horiz-adv-x="596" 
d="M591 692v-50c-29 19 -55 19 -81 9c-58 -22 -128 -127 -183 -200l-31 -42v-3l256 -406h-66l-225 361h-3l-101 -129v-232h-53v700h53v-381h3l126 162c123 157 174 262 305 211z" />
    <glyph glyph-name="Klinebelow" unicode="&#x1e34;" horiz-adv-x="556" 
d="M285 409v-3l256 -406h-66l-225 361h-3l-101 -129v-232h-53v700h53v-381h3l296 381h70zM447 -102h-301v42h301v-42z" />
    <glyph glyph-name="L" unicode="L" horiz-adv-x="510" 
d="M147 50h348v-50h-402v700h54v-650z" />
    <glyph glyph-name="Lacute" unicode="&#x139;" horiz-adv-x="510" 
d="M84 766h37l120 146h-73zM147 50h348v-50h-402v700h54v-650z" />
    <glyph glyph-name="Lcaron" unicode="&#x13d;" horiz-adv-x="510" 
d="M147 50h348v-50h-402v700h54v-650zM447 699v-95c0 -58 -15 -118 -83 -135v35c54 17 49 69 50 95h-40v100h73z" />
    <glyph glyph-name="Lcircumflexbelow" unicode="&#x1e3c;" horiz-adv-x="510" 
d="M147 50h348v-50h-402v700h54v-650zM412 -192h-41l-92 99h-2l-91 -99h-42l90 132h88z" />
    <glyph glyph-name="Lcommaaccent" unicode="&#x13b;" horiz-adv-x="510" 
d="M147 50h348v-50h-402v700h54v-650zM293 -60v-72c0 -48 -19 -68 -65 -68v30c20 0 29 17 29 34h-36v76h72z" />
    <glyph glyph-name="Ldot" unicode="&#x13f;" horiz-adv-x="510" 
d="M147 50h348v-50h-402v700h54v-650zM407 417h-56v87h56v-87z" />
    <glyph glyph-name="Ldotbelow" unicode="&#x1e36;" horiz-adv-x="510" 
d="M147 50h348v-50h-402v700h54v-650zM318 -147h-56v87h56v-87z" />
    <glyph glyph-name="Ldotbelowmacron" unicode="&#x1e38;" horiz-adv-x="510" 
d="M394 761h-301v42h301v-42zM147 50h348v-50h-402v700h54v-650zM318 -147h-56v87h56v-87z" />
    <glyph glyph-name="Llinebelow" unicode="&#x1e3a;" horiz-adv-x="510" 
d="M147 50h348v-50h-402v700h54v-650zM412 -102h-301v42h301v-42z" />
    <glyph glyph-name="Lslash" unicode="&#x141;" horiz-adv-x="510" 
d="M495 50v-50h-402v198l-79 -57v50l79 57v452h54v-413l226 163v-50l-226 -163v-187h348z" />
    <glyph glyph-name="M" unicode="M" horiz-adv-x="747" 
d="M654 0h-51v647h-3l-190 -647h-81l-189 647h-2v-647h-52v700h94l189 -647h3l189 647h93v-700z" />
    <glyph glyph-name="Macute" unicode="&#x1e3e;" horiz-adv-x="747" 
d="M338 766h37l120 146h-73zM654 0h-51v647h-3l-190 -647h-81l-189 647h-2v-647h-52v700h94l189 -647h3l189 647h93v-700z" />
    <glyph glyph-name="N" unicode="N" horiz-adv-x="606" 
d="M521 0h-90l-291 647h-2v-647h-52v700h90l291 -647h2v647h52v-700z" />
    <glyph glyph-name="Nacute" unicode="&#x143;" horiz-adv-x="606" 
d="M294 766h37l120 146h-73zM521 0h-90l-291 647h-2v-647h-52v700h90l291 -647h2v647h52v-700z" />
    <glyph glyph-name="Ncaron" unicode="&#x147;" horiz-adv-x="606" 
d="M352 763h-88l-90 132h42l91 -99h3l92 99h40zM521 0h-90l-291 647h-2v-647h-52v700h90l291 -647h2v647h52v-700z" />
    <glyph glyph-name="Ncircumflexbelow" unicode="&#x1e4a;" horiz-adv-x="606" 
d="M521 0h-90l-291 647h-2v-647h-52v700h90l291 -647h2v647h52v-700zM426 -192h-41l-92 99h-2l-91 -99h-42l90 132h88z" />
    <glyph glyph-name="Ncommaaccent" unicode="&#x145;" horiz-adv-x="606" 
d="M521 0h-90l-291 647h-2v-647h-52v700h90l291 -647h2v647h52v-700zM300 -60v-72c0 -48 -19 -68 -65 -68v30c20 0 29 17 29 34h-36v76h72z" />
    <glyph glyph-name="Ndotaccent" unicode="&#x1e44;" horiz-adv-x="606" 
d="M338 767h-56v87h56v-87zM521 0h-90l-291 647h-2v-647h-52v700h90l291 -647h2v647h52v-700z" />
    <glyph glyph-name="Ndotbelow" unicode="&#x1e46;" horiz-adv-x="606" 
d="M521 0h-90l-291 647h-2v-647h-52v700h90l291 -647h2v647h52v-700zM312 -147h-56v87h56v-87z" />
    <glyph glyph-name="Eng" unicode="&#x14a;" horiz-adv-x="606" 
d="M521 700v-700c0 -97 -14 -139 -41 -173c-30 -39 -75 -46 -133 -46l19 44c36 2 61 13 75 34c25 32 29 114 -10 141l-291 647h-2v-647h-52v700h90l291 -647h2v647h52z" />
    <glyph glyph-name="Nhookleft" unicode="&#x19d;" horiz-adv-x="572" 
d="M486 0h-92l-290 647h-3v-647c0 -96 -20 -171 -71 -199c-25 -16 -59 -21 -102 -10l18 44c35 -10 69 7 87 38c21 34 21 92 14 127v700h93l290 -647h3v647h53v-700z" />
    <glyph glyph-name="Ntilde" unicode="&#xd1;" horiz-adv-x="606" 
d="M408 855h28c0 -58 -35 -92 -77 -92c-54 0 -64 52 -106 52c-30 0 -49 -25 -53 -49h-30c0 58 41 91 83 91c54 0 64 -52 106 -52c29 0 44 26 49 50zM521 0h-90l-291 647h-2v-647h-52v700h90l291 -647h2v647h52v-700z" />
    <glyph glyph-name="O" unicode="O" horiz-adv-x="677" 
d="M341 711c188 -1 281 -165 281 -354c0 -175 -80 -368 -281 -368s-286 195 -286 368c0 189 98 355 286 354zM341 660c-132 0 -228 -123 -229 -303c-1 -163 83 -317 229 -317s224 154 224 317c0 178 -91 303 -224 303z" />
    <glyph glyph-name="Oacute" unicode="&#xd3;" horiz-adv-x="677" 
d="M298 777h37l120 146h-73zM341 711c188 -1 281 -165 281 -354c0 -175 -80 -368 -281 -368s-286 195 -286 368c0 189 98 355 286 354zM341 660c-132 0 -228 -123 -229 -303c-1 -163 83 -317 229 -317s224 154 224 317c0 178 -91 303 -224 303z" />
    <glyph glyph-name="Ocaron" unicode="&#x1d1;" horiz-adv-x="677" 
d="M387 766h-88l-90 132h42l91 -99h3l92 99h40zM341 711c188 -1 281 -165 281 -354c0 -175 -80 -368 -281 -368s-286 195 -286 368c0 189 98 355 286 354zM341 660c-132 0 -228 -123 -229 -303c-1 -163 83 -317 229 -317s224 154 224 317c0 178 -91 303 -224 303z" />
    <glyph glyph-name="Ocircumflex" unicode="&#xd4;" horiz-adv-x="677" 
d="M468 766h-41l-92 99h-2l-91 -99h-42l90 132h88zM341 711c188 -1 281 -165 281 -354c0 -175 -80 -368 -281 -368s-286 195 -286 368c0 189 98 355 286 354zM341 660c-132 0 -228 -123 -229 -303c-1 -163 83 -317 229 -317s224 154 224 317c0 178 -91 303 -224 303z" />
    <glyph glyph-name="Ocircumflexacute" unicode="&#x1ed0;" horiz-adv-x="677" 
d="M519 836h-38l84 146h73zM479 763h-41l-92 99h-2l-92 -99h-41l90 133h88zM341 711c188 -1 281 -165 281 -354c0 -175 -80 -368 -281 -368s-286 195 -286 368c0 189 98 355 286 354zM341 660c-132 0 -228 -123 -229 -303c-1 -163 83 -317 229 -317s224 154 224 317
c0 178 -91 303 -224 303z" />
    <glyph glyph-name="Ocircumflexdotbelow" unicode="&#x1ed8;" horiz-adv-x="677" 
d="M468 766h-41l-92 99h-2l-91 -99h-42l90 132h88zM341 711c188 -1 281 -165 281 -354c0 -175 -80 -368 -281 -368s-286 195 -286 368c0 189 98 355 286 354zM341 660c-132 0 -228 -123 -229 -303c-1 -163 83 -317 229 -317s224 154 224 317c0 178 -91 303 -224 303z
M369 -147h-56v87h56v-87z" />
    <glyph glyph-name="Ocircumflexgrave" unicode="&#x1ed2;" horiz-adv-x="677" 
d="M539 833h-38l-119 146h73zM479 760h-41l-92 99h-2l-92 -99h-41l90 133h88zM341 711c188 -1 281 -165 281 -354c0 -175 -80 -368 -281 -368s-286 195 -286 368c0 189 98 355 286 354zM341 660c-132 0 -228 -123 -229 -303c-1 -163 83 -317 229 -317s224 154 224 317
c0 178 -91 303 -224 303z" />
    <glyph glyph-name="Ocircumflexhookabove" unicode="&#x1ed4;" horiz-adv-x="677" 
d="M585 856c0 -21 -21 -40 -63 -42l7 -48h39l-5 27c41 9 63 35 63 68c0 36 -28 61 -73 61c-48 0 -78 -23 -78 -72h39c0 21 12 35 35 35c22 0 36 -9 36 -29zM483 766h-41l-92 99h-2l-91 -99h-42l90 132h88zM341 711c188 -1 281 -165 281 -354c0 -175 -80 -368 -281 -368
s-286 195 -286 368c0 189 98 355 286 354zM341 660c-132 0 -228 -123 -229 -303c-1 -163 83 -317 229 -317s224 154 224 317c0 178 -91 303 -224 303z" />
    <glyph glyph-name="Ocircumflextilde" unicode="&#x1ed6;" horiz-adv-x="677" 
d="M289 1041c54 0 64 -52 106 -52c29 0 44 26 49 50h28c0 -58 -35 -92 -77 -92c-54 0 -64 53 -106 53c-30 0 -49 -26 -53 -50h-30c0 58 41 91 83 91zM490 763h-41l-92 99h-2l-91 -99h-42l90 133h88zM341 711c188 -1 281 -165 281 -354c0 -175 -80 -368 -281 -368
s-286 195 -286 368c0 189 98 355 286 354zM341 660c-132 0 -228 -123 -229 -303c-1 -163 83 -317 229 -317s224 154 224 317c0 178 -91 303 -224 303z" />
    <glyph glyph-name="Odieresis" unicode="&#xd6;" horiz-adv-x="677" 
d="M279 763h-56v87h56v-87zM454 763h-56v87h56v-87zM341 711c188 -1 281 -165 281 -354c0 -175 -80 -368 -281 -368s-286 195 -286 368c0 189 98 355 286 354zM341 660c-132 0 -228 -123 -229 -303c-1 -163 83 -317 229 -317s224 154 224 317c0 178 -91 303 -224 303z" />
    <glyph glyph-name="uni022A" unicode="&#x22a;" horiz-adv-x="677" 
d="M490 904h-301v42h301v-42zM279 763h-56v87h56v-87zM454 763h-56v87h56v-87zM341 711c188 -1 281 -165 281 -354c0 -175 -80 -368 -281 -368s-286 195 -286 368c0 189 98 355 286 354zM341 660c-132 0 -228 -123 -229 -303c-1 -163 83 -317 229 -317s224 154 224 317
c0 178 -91 303 -224 303z" />
    <glyph glyph-name="Odotbelow" unicode="&#x1ecc;" horiz-adv-x="677" 
d="M341 711c188 -1 281 -165 281 -354c0 -175 -80 -368 -281 -368s-286 195 -286 368c0 189 98 355 286 354zM341 660c-132 0 -228 -123 -229 -303c-1 -163 83 -317 229 -317s224 154 224 317c0 178 -91 303 -224 303zM366 -147h-56v87h56v-87z" />
    <glyph glyph-name="Ograve" unicode="&#xd2;" horiz-adv-x="677" 
d="M203 923l120 -146h37l-84 146h-73zM341 711c188 -1 281 -165 281 -354c0 -175 -80 -368 -281 -368s-286 195 -286 368c0 189 98 355 286 354zM341 660c-132 0 -228 -123 -229 -303c-1 -163 83 -317 229 -317s224 154 224 317c0 178 -91 303 -224 303z" />
    <glyph glyph-name="Ohookabove" unicode="&#x1ece;" horiz-adv-x="677" 
d="M372 859c0 -21 -21 -40 -63 -42l7 -48h39l-5 27c41 9 63 35 63 68c0 36 -28 61 -73 61c-48 0 -78 -23 -78 -72h39c0 21 12 35 35 35c22 0 36 -9 36 -29zM341 711c188 -1 281 -165 281 -354c0 -175 -80 -368 -281 -368s-286 195 -286 368c0 189 98 355 286 354zM341 660
c-132 0 -228 -123 -229 -303c-1 -163 83 -317 229 -317s224 154 224 317c0 178 -91 303 -224 303z" />
    <glyph glyph-name="Ohorn" unicode="&#x1a0;" horiz-adv-x="695" 
d="M631 736h50c0 -85 -52 -134 -119 -147c40 -63 60 -145 60 -232c0 -175 -80 -368 -281 -368s-286 195 -286 368c0 189 98 355 286 354c87 0 154 -36 201 -94c52 10 89 68 89 119zM341 660c-132 0 -228 -123 -229 -303c-1 -163 83 -317 229 -317s224 154 224 317
c0 178 -91 303 -224 303z" />
    <glyph glyph-name="Ohornacute" unicode="&#x1eda;" horiz-adv-x="695" 
d="M300 777h37l120 146h-73zM631 736h50c0 -85 -52 -134 -119 -147c40 -63 60 -145 60 -232c0 -175 -80 -368 -281 -368s-286 195 -286 368c0 189 98 355 286 354c87 0 154 -36 201 -94c52 10 89 68 89 119zM341 660c-132 0 -228 -123 -229 -303c-1 -163 83 -317 229 -317
s224 154 224 317c0 178 -91 303 -224 303z" />
    <glyph glyph-name="Ohorndotbelow" unicode="&#x1ee2;" horiz-adv-x="695" 
d="M631 736h50c0 -85 -52 -134 -119 -147c40 -63 60 -145 60 -232c0 -175 -80 -368 -281 -368s-286 195 -286 368c0 189 98 355 286 354c87 0 154 -36 201 -94c52 10 89 68 89 119zM341 660c-132 0 -228 -123 -229 -303c-1 -163 83 -317 229 -317s224 154 224 317
c0 178 -91 303 -224 303zM366 -147h-56v87h56v-87z" />
    <glyph glyph-name="Ohorngrave" unicode="&#x1edc;" horiz-adv-x="695" 
d="M214 923l120 -146h37l-84 146h-73zM631 736h50c0 -85 -52 -134 -119 -147c40 -63 60 -145 60 -232c0 -175 -80 -368 -281 -368s-286 195 -286 368c0 189 98 355 286 354c87 0 154 -36 201 -94c52 10 89 68 89 119zM341 660c-132 0 -228 -123 -229 -303
c-1 -163 83 -317 229 -317s224 154 224 317c0 178 -91 303 -224 303z" />
    <glyph glyph-name="Ohornhookabove" unicode="&#x1ede;" horiz-adv-x="695" 
d="M380 859c0 -21 -21 -40 -63 -42l7 -48h39l-5 27c41 9 63 35 63 68c0 36 -28 61 -73 61c-48 0 -78 -23 -78 -72h39c0 21 12 35 35 35c22 0 36 -9 36 -29zM631 736h50c0 -85 -52 -134 -119 -147c40 -63 60 -145 60 -232c0 -175 -80 -368 -281 -368s-286 195 -286 368
c0 189 98 355 286 354c87 0 154 -36 201 -94c52 10 89 68 89 119zM341 660c-132 0 -228 -123 -229 -303c-1 -163 83 -317 229 -317s224 154 224 317c0 178 -91 303 -224 303z" />
    <glyph glyph-name="Ohorntilde" unicode="&#x1ee0;" horiz-adv-x="695" 
d="M448 865h28c0 -58 -35 -92 -77 -92c-54 0 -64 52 -106 52c-30 0 -49 -25 -53 -49h-30c0 58 41 91 83 91c54 0 64 -52 106 -52c29 0 44 26 49 50zM631 736h50c0 -85 -52 -134 -119 -147c40 -63 60 -145 60 -232c0 -175 -80 -368 -281 -368s-286 195 -286 368
c0 189 98 355 286 354c87 0 154 -36 201 -94c52 10 89 68 89 119zM341 660c-132 0 -228 -123 -229 -303c-1 -163 83 -317 229 -317s224 154 224 317c0 178 -91 303 -224 303z" />
    <glyph glyph-name="Ohungarumlaut" unicode="&#x150;" horiz-adv-x="677" 
d="M420 767h-35l84 146h71zM336 767h-35l84 145h71zM341 711c188 -1 281 -165 281 -354c0 -175 -80 -368 -281 -368s-286 195 -286 368c0 189 98 355 286 354zM341 660c-132 0 -228 -123 -229 -303c-1 -163 83 -317 229 -317s224 154 224 317c0 178 -91 303 -224 303z" />
    <glyph glyph-name="Omacron" unicode="&#x14c;" horiz-adv-x="677" 
d="M490 763h-301v42h301v-42zM341 711c188 -1 281 -165 281 -354c0 -175 -80 -368 -281 -368s-286 195 -286 368c0 189 98 355 286 354zM341 660c-132 0 -228 -123 -229 -303c-1 -163 83 -317 229 -317s224 154 224 317c0 178 -91 303 -224 303z" />
    <glyph glyph-name="Omacronacute" unicode="&#x1e52;" horiz-adv-x="677" 
d="M302 854h37l120 146h-73zM490 763h-301v42h301v-42zM341 711c188 -1 281 -165 281 -354c0 -175 -80 -368 -281 -368s-286 195 -286 368c0 189 98 355 286 354zM341 660c-132 0 -228 -123 -229 -303c-1 -163 83 -317 229 -317s224 154 224 317c0 178 -91 303 -224 303z
" />
    <glyph glyph-name="Omacrongrave" unicode="&#x1e50;" horiz-adv-x="677" 
d="M214 997l120 -146h37l-84 146h-73zM490 763h-301v42h301v-42zM341 711c188 -1 281 -165 281 -354c0 -175 -80 -368 -281 -368s-286 195 -286 368c0 189 98 355 286 354zM341 660c-132 0 -228 -123 -229 -303c-1 -163 83 -317 229 -317s224 154 224 317
c0 178 -91 303 -224 303z" />
    <glyph glyph-name="Oopen" unicode="&#x186;" horiz-adv-x="644" 
d="M299 711c189 0 291 -178 291 -356c0 -175 -89 -366 -291 -366c-90 0 -193 47 -247 160l43 26c45 -83 126 -134 205 -134c150 0 232 149 232 314c0 171 -100 305 -233 305c-93 0 -191 -88 -191 -192h-54c0 85 66 243 245 243z" />
    <glyph glyph-name="Oslash" unicode="&#xd8;" horiz-adv-x="704" 
d="M649 696l-85 -110c39 -63 58 -143 58 -229c0 -175 -80 -368 -281 -368c-76 0 -135 28 -180 72l-57 -75l-26 18l62 81c-59 72 -85 175 -85 272c0 189 98 355 286 354c90 0 158 -38 205 -98l77 101zM112 357c-1 -84 21 -166 63 -226l334 435c-40 59 -98 94 -168 94
c-132 0 -228 -123 -229 -303zM565 357c0 69 -14 131 -38 179l-331 -430c37 -41 86 -66 145 -66c146 0 224 154 224 317z" />
    <glyph glyph-name="Oslashacute" unicode="&#x1fe;" horiz-adv-x="704" 
d="M323 768h-37l84 146h73zM649 696l-85 -110c39 -63 58 -143 58 -229c0 -175 -80 -368 -281 -368c-76 0 -135 28 -180 72l-57 -75l-26 18l62 81c-59 72 -85 175 -85 272c0 189 98 355 286 354c90 0 158 -38 205 -98l77 101zM112 357c-1 -84 21 -166 63 -226l334 435
c-40 59 -98 94 -168 94c-132 0 -228 -123 -229 -303zM565 357c0 69 -14 131 -38 179l-331 -430c37 -41 86 -66 145 -66c146 0 224 154 224 317z" />
    <glyph glyph-name="Otilde" unicode="&#xd5;" horiz-adv-x="760" 
d="M453 865h28c0 -58 -35 -92 -77 -92c-54 0 -64 52 -106 52c-30 0 -49 -25 -53 -49h-30c0 58 41 91 83 91c54 0 64 -52 106 -52c30 0 45 26 49 50zM341 711c188 -1 281 -165 281 -354c0 -175 -80 -368 -281 -368s-286 195 -286 368c0 189 98 355 286 354zM341 660
c-132 0 -228 -123 -229 -303c-1 -163 83 -317 229 -317s224 154 224 317c0 178 -91 303 -224 303z" />
    <glyph glyph-name="Otildeacute" unicode="&#x1e4c;" horiz-adv-x="677" 
d="M357 939h-37l84 146h73zM296 864c54 0 64 -51 106 -51c29 0 44 25 49 49h28c0 -58 -35 -92 -77 -92c-54 0 -64 53 -106 53c-30 0 -49 -26 -53 -50h-30c0 58 41 91 83 91zM341 711c188 -1 281 -165 281 -354c0 -175 -80 -368 -281 -368s-286 195 -286 368
c0 189 98 355 286 354zM341 660c-132 0 -228 -123 -229 -303c-1 -163 83 -317 229 -317s224 154 224 317c0 178 -91 303 -224 303z" />
    <glyph glyph-name="OE" unicode="&#x152;" horiz-adv-x="955" 
d="M341 711c103 0 155 -51 183 -108h3v97h371v-49h-318v-260h298v-49h-298v-292h323v-50h-376v105h-3c-28 -57 -80 -116 -183 -116c-188 0 -286 183 -286 368c0 189 98 354 286 354zM341 660c-132 0 -228 -123 -229 -303c-1 -178 98 -317 229 -317c111 0 167 80 186 173v272
c-19 93 -75 175 -186 175z" />
    <glyph glyph-name="P" unicode="P" horiz-adv-x="588" 
d="M93 700h190c114 0 260 -17 260 -211s-145 -212 -260 -212h-137v-277h-53v700zM146 650v-323h153c103 0 187 32 187 162s-84 161 -187 161h-153z" />
    <glyph glyph-name="Phook" unicode="&#x1a4;" horiz-adv-x="732" 
d="M227 700h190c114 0 260 -17 260 -211s-145 -212 -260 -212h-137v-277h-53v650c-51 0 -107 -7 -135 -29c-20 -15 -31 -45 -16 -94h-55c-5 18 -7 35 -7 51c0 34 12 61 39 82c34 26 75 41 174 40zM280 650v-323h153c103 0 187 32 187 162s-84 161 -187 161h-153z" />
    <glyph glyph-name="Thorn" unicode="&#xde;" horiz-adv-x="598" 
d="M146 561h137c114 0 260 -17 260 -211s-145 -211 -260 -211h-137v-139h-53v700h53v-139zM146 511v-323h153c103 0 187 33 187 162c0 130 -84 161 -187 161h-153z" />
    <glyph glyph-name="Q" unicode="Q" horiz-adv-x="698" 
d="M341 711c188 -1 281 -165 281 -354c0 -111 -35 -228 -110 -298v-3c38 1 84 1 150 -6l20 -50c-188 21 -245 -11 -341 -11c-201 0 -286 195 -286 368c0 189 98 355 286 354zM341 660c-132 0 -228 -123 -229 -303c-1 -163 83 -317 229 -317s224 154 224 317
c0 178 -91 303 -224 303z" />
    <glyph glyph-name="R" unicode="R" horiz-adv-x="608" 
d="M93 700h207c113 0 265 -17 265 -194c0 -103 -55 -148 -107 -170v-3c45 -21 69 -43 80 -77c18 -61 9 -106 17 -162c5 -36 13 -68 37 -94h-70c-8 9 -12 19 -16 34c-15 66 8 179 -46 241c-24 24 -63 37 -121 37h-193v-312h-53v700zM146 650v-287h183c87 0 179 31 179 143
s-90 144 -192 144h-170z" />
    <glyph glyph-name="Racute" unicode="&#x154;" horiz-adv-x="608" 
d="M234 766h37l120 146h-73zM93 700h207c113 0 265 -17 265 -194c0 -103 -55 -148 -107 -170v-3c45 -21 69 -43 80 -77c18 -61 9 -106 17 -162c5 -36 13 -68 37 -94h-70c-8 9 -12 19 -16 34c-15 66 8 179 -46 241c-24 24 -63 37 -121 37h-193v-312h-53v700zM146 650v-287
h183c87 0 179 31 179 143s-90 144 -192 144h-170z" />
    <glyph glyph-name="Rcaron" unicode="&#x158;" horiz-adv-x="608" 
d="M335 766h-88l-90 132h42l91 -99h3l92 99h40zM93 700h207c113 0 265 -17 265 -194c0 -103 -55 -148 -107 -170v-3c45 -21 69 -43 80 -77c18 -61 9 -106 17 -162c5 -36 13 -68 37 -94h-70c-8 9 -12 19 -16 34c-15 66 8 179 -46 241c-24 24 -63 37 -121 37h-193v-312h-53
v700zM146 650v-287h183c87 0 179 31 179 143s-90 144 -192 144h-170z" />
    <glyph glyph-name="Rcommaaccent" unicode="&#x156;" horiz-adv-x="608" 
d="M93 700h207c113 0 265 -17 265 -194c0 -103 -55 -148 -107 -170v-3c45 -21 69 -43 80 -77c18 -61 9 -106 17 -162c5 -36 13 -68 37 -94h-70c-8 9 -12 19 -16 34c-15 66 8 179 -46 241c-24 24 -63 37 -121 37h-193v-312h-53v700zM146 650v-287h183c87 0 179 31 179 143
s-90 144 -192 144h-170zM380 -60v-72c0 -48 -19 -68 -65 -68v30c20 0 29 17 29 34h-36v76h72z" />
    <glyph glyph-name="uni024C" unicode="&#x24c;" horiz-adv-x="647" 
d="M133 700h207c113 0 265 -17 265 -194c0 -103 -55 -148 -107 -170v-3c45 -21 68 -43 79 -77c18 -61 10 -106 18 -162c5 -36 13 -68 37 -94h-70c-8 9 -12 19 -16 34c-15 66 8 179 -47 241c-23 24 -63 37 -120 37h-193v-312h-53v312h-120v51h120v337zM186 650v-287h183
c87 0 179 31 179 143s-90 144 -192 144h-170z" />
    <glyph glyph-name="uni2C64" unicode="&#x2c64;" horiz-adv-x="608" 
d="M93 700h207c113 0 265 -17 265 -194c0 -103 -55 -148 -107 -170v-3c45 -21 69 -43 80 -77c18 -61 9 -106 17 -162c5 -36 13 -68 37 -94h-70c-8 9 -12 19 -16 34c-15 66 8 179 -46 241c-24 24 -63 37 -121 37h-193v-312c-6 -35 -6 -93 14 -127c19 -31 53 -48 88 -38
l18 -44c-43 -11 -77 -6 -102 10c-51 28 -71 103 -71 199v700zM146 650v-287h183c87 0 179 31 179 143s-90 144 -192 144h-170z" />
    <glyph glyph-name="S" unicode="S" horiz-adv-x="552" 
d="M266 711c141 0 222 -84 222 -178h-55c0 70 -72 127 -157 127c-81 0 -146 -46 -146 -126c0 -97 101 -112 199 -142c86 -28 176 -68 176 -204c0 -92 -62 -199 -230 -199c-126 0 -199 67 -227 145l44 26c17 -49 77 -121 183 -121c117 0 172 78 172 149
c0 108 -91 137 -175 160c-97 26 -200 50 -200 186c0 139 127 177 194 177z" />
    <glyph glyph-name="Sacute" unicode="&#x15a;" horiz-adv-x="552" 
d="M223 777h37l120 146h-73zM266 711c141 0 222 -84 222 -178h-55c0 70 -72 127 -157 127c-81 0 -146 -46 -146 -126c0 -97 101 -112 199 -142c86 -28 176 -68 176 -204c0 -92 -62 -199 -230 -199c-126 0 -199 67 -227 145l44 26c17 -49 77 -121 183 -121
c117 0 172 78 172 149c0 108 -91 137 -175 160c-97 26 -200 50 -200 186c0 139 127 177 194 177z" />
    <glyph glyph-name="Scaron" unicode="&#x160;" horiz-adv-x="552" 
d="M319 766h-88l-90 132h42l91 -99h3l92 99h40zM266 711c141 0 222 -84 222 -178h-55c0 70 -72 127 -157 127c-81 0 -146 -46 -146 -126c0 -97 101 -112 199 -142c86 -28 176 -68 176 -204c0 -92 -62 -199 -230 -199c-126 0 -199 67 -227 145l44 26c17 -49 77 -121 183 -121
c117 0 172 78 172 149c0 108 -91 137 -175 160c-97 26 -200 50 -200 186c0 139 127 177 194 177z" />
    <glyph glyph-name="Scedilla" unicode="&#x15e;" horiz-adv-x="552" 
d="M505 188c0 -79 -46 -169 -165 -193c16 -105 -46 -177 -166 -150l19 38c73 -16 122 22 109 107c-9 -1 -18 -1 -27 -1c-126 0 -199 67 -227 145l44 26c17 -49 77 -121 183 -121c117 0 172 78 172 149c0 108 -91 137 -175 160c-97 26 -200 50 -200 186
c0 139 127 177 194 177c141 0 222 -84 222 -178h-55c0 70 -72 127 -157 127c-81 0 -146 -46 -146 -126c0 -97 101 -112 199 -142c86 -28 176 -68 176 -204z" />
    <glyph glyph-name="Scommaaccent" unicode="&#x218;" horiz-adv-x="552" 
d="M266 711c141 0 222 -84 222 -178h-55c0 70 -72 127 -157 127c-81 0 -146 -46 -146 -126c0 -97 101 -112 199 -142c86 -28 176 -68 176 -204c0 -92 -62 -199 -230 -199c-126 0 -199 67 -227 145l44 26c17 -49 77 -121 183 -121c117 0 172 78 172 149
c0 108 -91 137 -175 160c-97 26 -200 50 -200 186c0 139 127 177 194 177zM331 -60v-72c0 -48 -19 -68 -65 -68v30c20 0 29 17 29 34h-36v76h72z" />
    <glyph glyph-name="Sdotbelow" unicode="&#x1e62;" horiz-adv-x="552" 
d="M266 711c141 0 222 -84 222 -178h-55c0 70 -72 127 -157 127c-81 0 -146 -46 -146 -126c0 -97 101 -112 199 -142c86 -28 176 -68 176 -204c0 -92 -62 -199 -230 -199c-126 0 -199 67 -227 145l44 26c17 -49 77 -121 183 -121c117 0 172 78 172 149
c0 108 -91 137 -175 160c-97 26 -200 50 -200 186c0 139 127 177 194 177zM303 -147h-56v87h56v-87z" />
    <glyph glyph-name="uni1E9E" unicode="&#x1e9e;" horiz-adv-x="633" 
d="M285 711c136 0 230 -59 253 -159l-107 -169v-3c97 -44 154 -106 154 -201c0 -117 -70 -187 -193 -187c-74 0 -151 43 -181 115l44 25c26 -56 76 -89 138 -89c86 0 135 52 135 137c0 79 -67 134 -179 179l127 198v3c-21 63 -90 100 -190 100c-96 0 -139 -57 -139 -156
v-504h-54v500c0 133 63 211 192 211z" />
    <glyph glyph-name="Schwa" unicode="&#x18f;" horiz-adv-x="615" 
d="M295 711c169 0 269 -143 269 -385c0 -225 -95 -337 -257 -337c-169 0 -260 141 -254 321h458c0 223 -74 350 -216 350c-73 0 -158 -34 -192 -154h-58c47 149 144 205 250 205zM505 261h-396c6 -130 85 -221 198 -221c119 0 198 91 198 221z" />
    <glyph glyph-name="T" unicode="T" horiz-adv-x="468" 
d="M453 649h-191v-649h-53v649h-193v51h437v-51z" />
    <glyph glyph-name="Tbar" unicode="&#x166;" horiz-adv-x="468" 
d="M262 649v-225h123v-42h-123v-382h-53v382h-125v42h125v225h-193v51h437v-51h-191z" />
    <glyph glyph-name="Tcaron" unicode="&#x164;" horiz-adv-x="468" 
d="M278 766h-88l-90 132h42l91 -99h3l92 99h40zM453 649h-191v-649h-53v649h-193v51h437v-51z" />
    <glyph glyph-name="Tcedilla" unicode="&#x162;" horiz-adv-x="468" 
d="M453 649h-191v-649c23 -111 -39 -187 -164 -159l19 38c77 -17 112 26 92 121v649h-193v51h437v-51z" />
    <glyph glyph-name="Tcircumflexbelow" unicode="&#x1e70;" horiz-adv-x="468" 
d="M453 649h-191v-649h-53v649h-193v51h437v-51zM368 -192h-41l-92 99h-2l-91 -99h-42l90 132h88z" />
    <glyph glyph-name="uni021A" unicode="&#x21a;" horiz-adv-x="468" 
d="M453 649h-191v-649h-53v649h-193v51h437v-51zM270 -60v-72c0 -48 -19 -68 -65 -68v30c20 0 29 17 29 34h-36v76h72z" />
    <glyph glyph-name="Tdotbelow" unicode="&#x1e6c;" horiz-adv-x="468" 
d="M453 649h-191v-649h-53v649h-193v51h437v-51zM262 -147h-56v87h56v-87z" />
    <glyph glyph-name="Thook" unicode="&#x1ac;" horiz-adv-x="530" 
d="M514 649h-190v-649h-55v649h-40c-51 0 -107 -6 -135 -28c-20 -15 -31 -45 -16 -94h-55c-4 17 -7 33 -7 48c0 35 12 64 39 85c34 26 75 41 174 40h285v-51z" />
    <glyph glyph-name="Tlinebelow" unicode="&#x1e6e;" horiz-adv-x="468" 
d="M453 649h-191v-649h-53v649h-193v51h437v-51zM430 -102h-301v42h301v-42z" />
    <glyph glyph-name="Tretroflexhook" unicode="&#x1ae;" horiz-adv-x="468" 
d="M453 649h-191v-649c-7 -35 -6 -93 14 -127c19 -31 53 -48 88 -38l18 -44c-43 -11 -77 -6 -102 10c-51 28 -71 103 -71 199v649h-193v51h437v-51z" />
    <glyph glyph-name="U" unicode="U" horiz-adv-x="637" 
d="M552 700v-455c0 -128 -33 -256 -230 -256s-229 128 -229 256v455h54v-471c0 -100 33 -189 175 -189s176 89 176 189v471h54z" />
    <glyph glyph-name="Uacute" unicode="&#xda;" horiz-adv-x="637" 
d="M268 770h37l120 146h-73zM552 700v-455c0 -128 -33 -256 -230 -256s-229 128 -229 256v455h54v-471c0 -100 33 -189 175 -189s176 89 176 189v471h54z" />
    <glyph glyph-name="uni0244" unicode="&#x244;" horiz-adv-x="672" 
d="M565 478h91v-41h-91v-192c0 -128 -33 -256 -230 -256s-229 128 -229 256v192h-90v41h90v222h55v-222h350v222h54v-222zM161 437v-208c0 -100 33 -189 174 -189c143 0 176 89 176 189v208h-350z" />
    <glyph glyph-name="Ucaron" unicode="&#x1d3;" horiz-adv-x="637" 
d="M366 763h-88l-90 132h42l91 -99h3l92 99h40zM552 700v-455c0 -128 -33 -256 -230 -256s-229 128 -229 256v455h54v-471c0 -100 33 -189 175 -189s176 89 176 189v471h54z" />
    <glyph glyph-name="Ucircumflex" unicode="&#xdb;" horiz-adv-x="637" 
d="M456 763h-41l-92 99h-2l-91 -99h-42l90 132h88zM552 700v-455c0 -128 -33 -256 -230 -256s-229 128 -229 256v455h54v-471c0 -100 33 -189 175 -189s176 89 176 189v471h54z" />
    <glyph glyph-name="Udieresis" unicode="&#xdc;" horiz-adv-x="637" 
d="M263 763h-56v87h56v-87zM438 763h-56v87h56v-87zM552 700v-455c0 -128 -33 -256 -230 -256s-229 128 -229 256v455h54v-471c0 -100 33 -189 175 -189s176 89 176 189v471h54z" />
    <glyph glyph-name="Udieresisacute" unicode="&#x1d7;" horiz-adv-x="637" 
d="M303 902h37l120 146h-73zM263 763h-56v87h56v-87zM438 763h-56v87h56v-87zM552 700v-455c0 -128 -33 -256 -230 -256s-229 128 -229 256v455h54v-471c0 -100 33 -189 175 -189s176 89 176 189v471h54z" />
    <glyph glyph-name="Udieresiscaron" unicode="&#x1d9;" horiz-adv-x="637" 
d="M366 902h-88l-90 132h42l91 -99h3l92 99h40zM263 763h-56v87h56v-87zM438 763h-56v87h56v-87zM552 700v-455c0 -128 -33 -256 -230 -256s-229 128 -229 256v455h54v-471c0 -100 33 -189 175 -189s176 89 176 189v471h54z" />
    <glyph glyph-name="Udieresisgrave" unicode="&#x1db;" horiz-adv-x="637" 
d="M187 1048l120 -146h37l-84 146h-73zM263 763h-56v87h56v-87zM438 763h-56v87h56v-87zM552 700v-455c0 -128 -33 -256 -230 -256s-229 128 -229 256v455h54v-471c0 -100 33 -189 175 -189s176 89 176 189v471h54z" />
    <glyph glyph-name="Udieresismacron" unicode="&#x1d5;" horiz-adv-x="637" 
d="M473 905h-301v42h301v-42zM263 763h-56v87h56v-87zM438 763h-56v87h56v-87zM552 700v-455c0 -128 -33 -256 -230 -256s-229 128 -229 256v455h54v-471c0 -100 33 -189 175 -189s176 89 176 189v471h54z" />
    <glyph glyph-name="Udotbelow" unicode="&#x1ee4;" horiz-adv-x="637" 
d="M552 700v-455c0 -128 -33 -256 -230 -256s-229 128 -229 256v455h54v-471c0 -100 33 -189 175 -189s176 89 176 189v471h54zM350 -147h-56v87h56v-87z" />
    <glyph glyph-name="Ugrave" unicode="&#xd9;" horiz-adv-x="637" 
d="M179 912l120 -146h37l-84 146h-73zM552 700v-455c0 -128 -33 -256 -230 -256s-229 128 -229 256v455h54v-471c0 -100 33 -189 175 -189s176 89 176 189v471h54z" />
    <glyph glyph-name="Uhookabove" unicode="&#x1ee6;" horiz-adv-x="637" 
d="M357 852c0 -21 -21 -40 -63 -42l7 -48h39l-5 27c41 9 63 35 63 68c0 36 -28 61 -73 61c-48 0 -78 -23 -78 -72h39c0 21 12 35 35 35c22 0 36 -9 36 -29zM552 700v-455c0 -128 -33 -256 -230 -256s-229 128 -229 256v455h54v-471c0 -100 33 -189 175 -189s176 89 176 189
v471h54z" />
    <glyph glyph-name="Uhorn" unicode="&#x1af;" horiz-adv-x="709" 
d="M644 739h51c0 -92 -61 -142 -143 -152v-342c0 -128 -33 -256 -230 -256s-229 128 -229 256v455h54v-471c0 -100 33 -189 175 -189s176 89 176 189v471h54v-80c54 6 92 66 92 119z" />
    <glyph glyph-name="Uhornacute" unicode="&#x1ee8;" horiz-adv-x="709" 
d="M283 767h37l120 146h-73zM644 739h51c0 -92 -61 -142 -143 -152v-342c0 -128 -33 -256 -230 -256s-229 128 -229 256v455h54v-471c0 -100 33 -189 175 -189s176 89 176 189v471h54v-80c54 6 92 66 92 119z" />
    <glyph glyph-name="Uhorndotbelow" unicode="&#x1ef0;" horiz-adv-x="709" 
d="M644 739h51c0 -92 -61 -142 -143 -152v-342c0 -128 -33 -256 -230 -256s-229 128 -229 256v455h54v-471c0 -100 33 -189 175 -189s176 89 176 189v471h54v-80c54 6 92 66 92 119zM343 -147h-56v87h56v-87z" />
    <glyph glyph-name="Uhorngrave" unicode="&#x1eea;" horiz-adv-x="709" 
d="M188 912l120 -146h37l-84 146h-73zM644 739h51c0 -92 -61 -142 -143 -152v-342c0 -128 -33 -256 -230 -256s-229 128 -229 256v455h54v-471c0 -100 33 -189 175 -189s176 89 176 189v471h54v-80c54 6 92 66 92 119z" />
    <glyph glyph-name="Uhornhookabove" unicode="&#x1eec;" horiz-adv-x="709" 
d="M353 852c0 -21 -21 -40 -63 -42l7 -48h39l-5 27c41 9 63 35 63 68c0 36 -28 61 -73 61c-48 0 -78 -23 -78 -72h39c0 21 12 35 35 35c22 0 36 -9 36 -29zM644 739h51c0 -92 -61 -142 -143 -152v-342c0 -128 -33 -256 -230 -256s-229 128 -229 256v455h54v-471
c0 -100 33 -189 175 -189s176 89 176 189v471h54v-80c54 6 92 66 92 119z" />
    <glyph glyph-name="Uhorntilde" unicode="&#x1eee;" horiz-adv-x="709" 
d="M431 855h28c0 -58 -35 -92 -77 -92c-54 0 -64 52 -106 52c-30 0 -49 -25 -53 -49h-30c0 58 41 91 83 91c54 0 64 -52 106 -52c29 0 44 26 49 50zM644 739h51c0 -92 -61 -142 -143 -152v-342c0 -128 -33 -256 -230 -256s-229 128 -229 256v455h54v-471
c0 -100 33 -189 175 -189s176 89 176 189v471h54v-80c54 6 92 66 92 119z" />
    <glyph glyph-name="Uhungarumlaut" unicode="&#x170;" horiz-adv-x="637" 
d="M385 767h-35l84 146h71zM301 767h-35l84 145h71zM552 700v-455c0 -128 -33 -256 -230 -256s-229 128 -229 256v455h54v-471c0 -100 33 -189 175 -189s176 89 176 189v471h54z" />
    <glyph glyph-name="Umacron" unicode="&#x16a;" horiz-adv-x="637" 
d="M473 761h-301v42h301v-42zM552 700v-455c0 -128 -33 -256 -230 -256s-229 128 -229 256v455h54v-471c0 -100 33 -189 175 -189s176 89 176 189v471h54z" />
    <glyph glyph-name="Uogonek" unicode="&#x172;" horiz-adv-x="637" 
d="M552 700v-455c0 -103 -21 -205 -131 -242c-101 -48 -123 -130 -97 -159c21 -24 84 -18 115 20l33 -17c-36 -64 -149 -77 -182 -27c-9 13 -13 29 -13 45c0 41 24 89 71 125l-26 -1c-197 0 -229 128 -229 256v455h54v-471c0 -100 33 -189 175 -189s176 89 176 189v471h54z
" />
    <glyph glyph-name="Upsilonafrican" unicode="&#x1b1;" horiz-adv-x="747" 
d="M693 650h-140v-3c60 -50 112 -157 112 -308c0 -220 -108 -350 -291 -350s-291 130 -291 350c0 150 52 257 112 308v3h-140v50h221v-50c-91 -47 -139 -161 -139 -313c0 -189 88 -300 237 -300c148 0 236 111 236 300c0 152 -48 266 -138 313v50h221v-50z" />
    <glyph glyph-name="Uring" unicode="&#x16e;" horiz-adv-x="637" 
d="M322 715c-69 0 -109 41 -109 109c0 69 40 110 109 110s109 -41 109 -110c0 -68 -40 -109 -109 -109zM322 751c45 0 72 27 72 73c0 47 -27 74 -72 74c-46 0 -73 -27 -73 -74c0 -46 27 -73 73 -73zM552 700v-455c0 -128 -33 -256 -230 -256s-229 128 -229 256v455h54v-471
c0 -100 33 -189 175 -189s176 89 176 189v471h54z" />
    <glyph glyph-name="Utilde" unicode="&#x168;" horiz-adv-x="637" 
d="M421 855h28c0 -58 -35 -92 -77 -92c-54 0 -64 52 -106 52c-30 0 -49 -25 -53 -49h-30c0 58 41 91 83 91c54 0 64 -52 106 -52c29 0 44 26 49 50zM552 700v-455c0 -128 -33 -256 -230 -256s-229 128 -229 256v455h54v-471c0 -100 33 -189 175 -189s176 89 176 189v471h54z
" />
    <glyph glyph-name="V" unicode="V" horiz-adv-x="597" 
d="M326 0h-62l-248 700h63l215 -630h3l222 630h62z" />
    <glyph glyph-name="Vhook" unicode="&#x1b2;" horiz-adv-x="654" 
d="M439 712c101 0 160 -149 160 -306c0 -124 -53 -417 -338 -417c-114 0 -168 57 -168 153v558h54v-537c0 -85 42 -123 114 -123c227 0 282 249 282 381c0 113 -38 216 -102 238c-27 9 -63 2 -97 -22v50c28 19 58 25 95 25z" />
    <glyph glyph-name="W" unicode="W" horiz-adv-x="823" 
d="M635 0h-76l-144 638h-3l-139 -638h-74l-183 700h57l162 -639h2l137 639h78l144 -639h3l154 639h55z" />
    <glyph glyph-name="Wacute" unicode="&#x1e82;" horiz-adv-x="823" 
d="M387 766h37l120 146h-73zM635 0h-76l-144 638h-3l-139 -638h-74l-183 700h57l162 -639h2l137 639h78l144 -639h3l154 639h55z" />
    <glyph glyph-name="Wcircumflex" unicode="&#x174;" horiz-adv-x="823" 
d="M544 766h-41l-92 99h-2l-91 -99h-42l90 132h88zM635 0h-76l-144 638h-3l-139 -638h-74l-183 700h57l162 -639h2l137 639h78l144 -639h3l154 639h55z" />
    <glyph glyph-name="Wdieresis" unicode="&#x1e84;" horiz-adv-x="823" 
d="M352 763h-56v87h56v-87zM527 763h-56v87h56v-87zM635 0h-76l-144 638h-3l-139 -638h-74l-183 700h57l162 -639h2l137 639h78l144 -639h3l154 639h55z" />
    <glyph glyph-name="Wgrave" unicode="&#x1e80;" horiz-adv-x="823" 
d="M271 912l120 -146h37l-84 146h-73zM635 0h-76l-144 638h-3l-139 -638h-74l-183 700h57l162 -639h2l137 639h78l144 -639h3l154 639h55z" />
    <glyph glyph-name="uni2C72" unicode="&#x2c72;" horiz-adv-x="904" 
d="M845 706c23 10 50 6 86 -8v-49c-28 18 -53 26 -74 11c-38 -27 -70 -150 -90 -231l-106 -429h-75l-145 638h-2l-140 -638h-73l-184 700h58l161 -639h3l137 639h77l145 -639h2l103 399c36 144 62 227 117 246z" />
    <glyph glyph-name="X" unicode="X" horiz-adv-x="562" 
d="M319 379v-3l228 -376h-67l-194 318h-2l-208 -318h-60l237 372v2l-212 326h64l181 -275h3l178 275h61z" />
    <glyph glyph-name="Y" unicode="Y" horiz-adv-x="578" 
d="M320 299v-299h-54v299l-250 401h64l213 -352h2l206 352h62z" />
    <glyph glyph-name="Yacute" unicode="&#xdd;" horiz-adv-x="578" 
d="M242 766h37l120 146h-73zM320 299v-299h-54v299l-250 401h64l213 -352h2l206 352h62z" />
    <glyph glyph-name="Ycircumflex" unicode="&#x176;" horiz-adv-x="578" 
d="M423 763h-41l-92 99h-2l-91 -99h-42l90 132h88zM320 299v-299h-54v299l-250 401h64l213 -352h2l206 352h62z" />
    <glyph glyph-name="Ydieresis" unicode="&#x178;" horiz-adv-x="578" 
d="M230 763h-56v87h56v-87zM405 763h-56v87h56v-87zM320 299v-299h-54v299l-250 401h64l213 -352h2l206 352h62z" />
    <glyph glyph-name="Ydotbelow" unicode="&#x1ef4;" horiz-adv-x="578" 
d="M320 299v-299h-54v299l-250 401h64l213 -352h2l206 352h62zM322 -148h-56v87h56v-87z" />
    <glyph glyph-name="Ygrave" unicode="&#x1ef2;" horiz-adv-x="578" 
d="M160 912l120 -146h37l-84 146h-73zM320 299v-299h-54v299l-250 401h64l213 -352h2l206 352h62z" />
    <glyph glyph-name="Yhook" unicode="&#x1b3;" horiz-adv-x="656" 
d="M640 738v-51c-40 13 -63 6 -82 -9c-29 -25 -39 -49 -146 -227l-92 -152v-299h-54v299l-250 401h64l213 -352h2l77 132c103 177 124 218 161 244c26 20 60 27 107 14z" />
    <glyph glyph-name="Yhookabove" unicode="&#x1ef6;" horiz-adv-x="578" 
d="M324 852c0 -21 -21 -40 -63 -42l7 -48h39l-5 27c41 9 63 35 63 68c0 36 -28 61 -73 61c-48 0 -78 -23 -78 -72h39c0 21 12 35 35 35c22 0 36 -9 36 -29zM320 299v-299h-54v299l-250 401h64l213 -352h2l206 352h62z" />
    <glyph glyph-name="Ytilde" unicode="&#x1ef8;" horiz-adv-x="578" 
d="M404 855h28c0 -58 -35 -92 -77 -92c-54 0 -64 52 -106 52c-30 0 -49 -25 -53 -49h-30c0 58 41 91 83 91c54 0 64 -52 106 -52c29 0 44 26 49 50zM320 299v-299h-54v299l-250 401h64l213 -352h2l206 352h62z" />
    <glyph glyph-name="Z" unicode="Z" horiz-adv-x="579" 
d="M531 656l-419 -601v-2h419v-53h-483v51l414 596v3h-393v50h462v-44z" />
    <glyph glyph-name="Zacute" unicode="&#x179;" horiz-adv-x="579" 
d="M211 766h37l120 146h-73zM531 656l-419 -601v-2h419v-53h-483v51l414 596v3h-393v50h462v-44z" />
    <glyph glyph-name="Zcaron" unicode="&#x17d;" horiz-adv-x="579" 
d="M333 763h-88l-90 132h42l91 -99h3l92 99h40zM531 656l-419 -601v-2h419v-53h-483v51l414 596v3h-393v50h462v-44z" />
    <glyph glyph-name="Zdotaccent" unicode="&#x17b;" horiz-adv-x="579" 
d="M318 760h-56v87h56v-87zM531 656l-419 -601v-2h419v-53h-483v51l414 596v3h-393v50h462v-44z" />
    <glyph glyph-name="Zdotbelow" unicode="&#x1e92;" horiz-adv-x="579" 
d="M531 656l-419 -601v-2h419v-53h-483v51l414 596v3h-393v50h462v-44zM317 -147h-56v87h56v-87z" />
    <glyph glyph-name="a" unicode="a" 
d="M247 537c141 0 189 -54 189 -200v-204c0 -69 20 -95 57 -95l23 -38c-69 -5 -111 20 -127 78h-3c-3 -14 -37 -89 -166 -89c-96 0 -180 51 -180 156c0 213 344 162 344 202c0 56 -14 94 -41 115c-22 19 -53 28 -94 28c-59 0 -136 -37 -136 -127h-51c0 56 36 174 185 174z
M386 205v82c-47 -4 -130 -12 -195 -34c-57 -18 -98 -51 -98 -102c0 -67 52 -115 124 -115c112 0 169 60 169 169z" />
    <glyph glyph-name="aacute" unicode="&#xe1;" 
d="M226 599h37l120 146h-73zM247 537c141 0 189 -54 189 -200v-204c0 -69 20 -95 57 -95l23 -38c-69 -5 -111 20 -127 78h-3c-3 -14 -37 -89 -166 -89c-96 0 -180 51 -180 156c0 213 344 162 344 202c0 56 -14 94 -41 115c-22 19 -53 28 -94 28c-59 0 -136 -37 -136 -127
h-51c0 56 36 174 185 174zM386 205v82c-47 -4 -130 -12 -195 -34c-57 -18 -98 -51 -98 -102c0 -67 52 -115 124 -115c112 0 169 60 169 169z" />
    <glyph glyph-name="abreve" unicode="&#x103;" 
d="M312 691h46c0 -53 -32 -96 -99 -96s-99 43 -99 96h46c0 -36 18 -57 53 -57s53 21 53 57zM247 537c141 0 189 -54 189 -200v-204c0 -69 20 -95 57 -95l23 -38c-69 -5 -111 20 -127 78h-3c-3 -14 -37 -89 -166 -89c-96 0 -180 51 -180 156c0 213 344 162 344 202
c0 56 -14 94 -41 115c-22 19 -53 28 -94 28c-59 0 -136 -37 -136 -127h-51c0 56 36 174 185 174zM386 205v82c-47 -4 -130 -12 -195 -34c-57 -18 -98 -51 -98 -102c0 -67 52 -115 124 -115c112 0 169 60 169 169z" />
    <glyph glyph-name="abreveacute" unicode="&#x1eaf;" 
d="M238 713h37l120 146h-73zM312 691h46c0 -53 -32 -96 -99 -96s-99 43 -99 96h46c0 -36 18 -57 53 -57s53 21 53 57zM247 537c141 0 189 -54 189 -200v-204c0 -69 20 -95 57 -95l23 -38c-69 -5 -111 20 -127 78h-3c-3 -14 -37 -89 -166 -89c-96 0 -180 51 -180 156
c0 213 344 162 344 202c0 56 -14 94 -41 115c-22 19 -53 28 -94 28c-59 0 -136 -37 -136 -127h-51c0 56 36 174 185 174zM386 205v82c-47 -4 -130 -12 -195 -34c-57 -18 -98 -51 -98 -102c0 -67 52 -115 124 -115c112 0 169 60 169 169z" />
    <glyph glyph-name="abrevedotbelow" unicode="&#x1eb7;" 
d="M312 691h46c0 -53 -32 -96 -99 -96s-99 43 -99 96h46c0 -36 18 -57 53 -57s53 21 53 57zM247 537c141 0 189 -54 189 -200v-204c0 -69 20 -95 57 -95l23 -38c-69 -5 -111 20 -127 78h-3c-3 -14 -37 -89 -166 -89c-96 0 -180 51 -180 156c0 213 344 162 344 202
c0 56 -14 94 -41 115c-22 19 -53 28 -94 28c-59 0 -136 -37 -136 -127h-51c0 56 36 174 185 174zM386 205v82c-47 -4 -130 -12 -195 -34c-57 -18 -98 -51 -98 -102c0 -67 52 -115 124 -115c112 0 169 60 169 169zM289 -147h-56v87h56v-87z" />
    <glyph glyph-name="abrevegrave" unicode="&#x1eb1;" 
d="M116 859l120 -146h37l-84 146h-73zM312 691h46c0 -53 -32 -96 -99 -96s-99 43 -99 96h46c0 -36 18 -57 53 -57s53 21 53 57zM247 537c141 0 189 -54 189 -200v-204c0 -69 20 -95 57 -95l23 -38c-69 -5 -111 20 -127 78h-3c-3 -14 -37 -89 -166 -89
c-96 0 -180 51 -180 156c0 213 344 162 344 202c0 56 -14 94 -41 115c-22 19 -53 28 -94 28c-59 0 -136 -37 -136 -127h-51c0 56 36 174 185 174zM386 205v82c-47 -4 -130 -12 -195 -34c-57 -18 -98 -51 -98 -102c0 -67 52 -115 124 -115c112 0 169 60 169 169z" />
    <glyph glyph-name="abrevehookabove" unicode="&#x1eb3;" 
d="M293 812c0 -21 -21 -40 -63 -42l7 -48h39l-5 27c41 9 63 35 63 68c0 36 -28 61 -73 61c-48 0 -78 -23 -78 -72h39c0 21 12 35 35 35c22 0 36 -9 36 -29zM312 691h46c0 -53 -32 -96 -99 -96s-99 43 -99 96h46c0 -36 18 -57 53 -57s53 21 53 57zM247 537
c141 0 189 -54 189 -200v-204c0 -69 20 -95 57 -95l23 -38c-69 -5 -111 20 -127 78h-3c-3 -14 -37 -89 -166 -89c-96 0 -180 51 -180 156c0 213 344 162 344 202c0 56 -14 94 -41 115c-22 19 -53 28 -94 28c-59 0 -136 -37 -136 -127h-51c0 56 36 174 185 174zM386 205v82
c-47 -4 -130 -12 -195 -34c-57 -18 -98 -51 -98 -102c0 -67 52 -115 124 -115c112 0 169 60 169 169z" />
    <glyph glyph-name="abrevetilde" unicode="&#x1eb5;" 
d="M352 829h28c0 -58 -35 -92 -77 -92c-54 0 -64 52 -106 52c-30 0 -49 -25 -53 -49h-30c0 58 41 91 83 91c54 0 64 -52 106 -52c29 0 44 26 49 50zM312 691h46c0 -53 -32 -96 -99 -96s-99 43 -99 96h46c0 -36 18 -57 53 -57s53 21 53 57zM247 537c141 0 189 -54 189 -200
v-204c0 -69 20 -95 57 -95l23 -38c-69 -5 -111 20 -127 78h-3c-3 -14 -37 -89 -166 -89c-96 0 -180 51 -180 156c0 213 344 162 344 202c0 56 -14 94 -41 115c-22 19 -53 28 -94 28c-59 0 -136 -37 -136 -127h-51c0 56 36 174 185 174zM386 205v82c-47 -4 -130 -12 -195 -34
c-57 -18 -98 -51 -98 -102c0 -67 52 -115 124 -115c112 0 169 60 169 169z" />
    <glyph glyph-name="acaron" unicode="&#x1ce;" 
d="M313 596h-88l-90 132h42l91 -99h3l92 99h40zM247 537c141 0 189 -54 189 -200v-204c0 -69 20 -95 57 -95l23 -38c-69 -5 -111 20 -127 78h-3c-3 -14 -37 -89 -166 -89c-96 0 -180 51 -180 156c0 213 344 162 344 202c0 56 -14 94 -41 115c-22 19 -53 28 -94 28
c-59 0 -136 -37 -136 -127h-51c0 56 36 174 185 174zM386 205v82c-47 -4 -130 -12 -195 -34c-57 -18 -98 -51 -98 -102c0 -67 52 -115 124 -115c112 0 169 60 169 169z" />
    <glyph glyph-name="acircumflex" unicode="&#xe2;" 
d="M401 596h-41l-92 99h-2l-91 -99h-42l90 132h88zM247 537c141 0 189 -54 189 -200v-204c0 -69 20 -95 57 -95l23 -38c-69 -5 -111 20 -127 78h-3c-3 -14 -37 -89 -166 -89c-96 0 -180 51 -180 156c0 213 344 162 344 202c0 56 -14 94 -41 115c-22 19 -53 28 -94 28
c-59 0 -136 -37 -136 -127h-51c0 56 36 174 185 174zM386 205v82c-47 -4 -130 -12 -195 -34c-57 -18 -98 -51 -98 -102c0 -67 52 -115 124 -115c112 0 169 60 169 169z" />
    <glyph glyph-name="acircumflexacute" unicode="&#x1ea5;" 
d="M439 667h-38l84 146h73zM399 594h-41l-92 99h-2l-92 -99h-41l90 133h88zM247 537c141 0 189 -54 189 -200v-204c0 -69 20 -95 57 -95l23 -38c-69 -5 -111 20 -127 78h-3c-3 -14 -37 -89 -166 -89c-96 0 -180 51 -180 156c0 213 344 162 344 202c0 56 -14 94 -41 115
c-22 19 -53 28 -94 28c-59 0 -136 -37 -136 -127h-51c0 56 36 174 185 174zM386 205v82c-47 -4 -130 -12 -195 -34c-57 -18 -98 -51 -98 -102c0 -67 52 -115 124 -115c112 0 169 60 169 169z" />
    <glyph glyph-name="acircumflexdotbelow" unicode="&#x1ead;" 
d="M401 596h-41l-92 99h-2l-91 -99h-42l90 132h88zM247 537c141 0 189 -54 189 -200v-204c0 -69 20 -95 57 -95l23 -38c-69 -5 -111 20 -127 78h-3c-3 -14 -37 -89 -166 -89c-96 0 -180 51 -180 156c0 213 344 162 344 202c0 56 -14 94 -41 115c-22 19 -53 28 -94 28
c-59 0 -136 -37 -136 -127h-51c0 56 36 174 185 174zM386 205v82c-47 -4 -130 -12 -195 -34c-57 -18 -98 -51 -98 -102c0 -67 52 -115 124 -115c112 0 169 60 169 169zM280 -147h-56v87h56v-87z" />
    <glyph glyph-name="acircumflexgrave" unicode="&#x1ea7;" 
d="M448 666h-38l-119 146h73zM388 593h-41l-92 99h-2l-92 -99h-41l90 133h88zM247 537c141 0 189 -54 189 -200v-204c0 -69 20 -95 57 -95l23 -38c-69 -5 -111 20 -127 78h-3c-3 -14 -37 -89 -166 -89c-96 0 -180 51 -180 156c0 213 344 162 344 202c0 56 -14 94 -41 115
c-22 19 -53 28 -94 28c-59 0 -136 -37 -136 -127h-51c0 56 36 174 185 174zM386 205v82c-47 -4 -130 -12 -195 -34c-57 -18 -98 -51 -98 -102c0 -67 52 -115 124 -115c112 0 169 60 169 169z" />
    <glyph glyph-name="acircumflexhookabove" unicode="&#x1ea9;" 
d="M497 683c0 -21 -21 -40 -63 -42l7 -48h39l-5 27c41 9 63 35 63 68c0 36 -28 61 -73 61c-48 0 -78 -23 -78 -72h39c0 21 12 35 35 35c22 0 36 -9 36 -29zM395 593h-41l-92 99h-2l-91 -99h-42l90 132h88zM247 537c141 0 189 -54 189 -200v-204c0 -69 20 -95 57 -95l23 -38
c-69 -5 -111 20 -127 78h-3c-3 -14 -37 -89 -166 -89c-96 0 -180 51 -180 156c0 213 344 162 344 202c0 56 -14 94 -41 115c-22 19 -53 28 -94 28c-59 0 -136 -37 -136 -127h-51c0 56 36 174 185 174zM386 205v82c-47 -4 -130 -12 -195 -34c-57 -18 -98 -51 -98 -102
c0 -67 52 -115 124 -115c112 0 169 60 169 169z" />
    <glyph glyph-name="acircumflextilde" unicode="&#x1eab;" 
d="M200 871c54 0 64 -52 106 -52c29 0 44 26 49 50h28c0 -58 -35 -92 -77 -92c-54 0 -64 53 -106 53c-30 0 -49 -26 -53 -50h-30c0 58 41 91 83 91zM401 593h-41l-92 99h-2l-91 -99h-42l90 133h88zM247 537c141 0 189 -54 189 -200v-204c0 -69 20 -95 57 -95l23 -38
c-69 -5 -111 20 -127 78h-3c-3 -14 -37 -89 -166 -89c-96 0 -180 51 -180 156c0 213 344 162 344 202c0 56 -14 94 -41 115c-22 19 -53 28 -94 28c-59 0 -136 -37 -136 -127h-51c0 56 36 174 185 174zM386 205v82c-47 -4 -130 -12 -195 -34c-57 -18 -98 -51 -98 -102
c0 -67 52 -115 124 -115c112 0 169 60 169 169z" />
    <glyph glyph-name="adieresis" unicode="&#xe4;" 
d="M203 593h-56v87h56v-87zM378 593h-56v87h56v-87zM247 537c141 0 189 -54 189 -200v-204c0 -69 20 -95 57 -95l23 -38c-69 -5 -111 20 -127 78h-3c-3 -14 -37 -89 -166 -89c-96 0 -180 51 -180 156c0 213 344 162 344 202c0 56 -14 94 -41 115c-22 19 -53 28 -94 28
c-59 0 -136 -37 -136 -127h-51c0 56 36 174 185 174zM386 205v82c-47 -4 -130 -12 -195 -34c-57 -18 -98 -51 -98 -102c0 -67 52 -115 124 -115c112 0 169 60 169 169z" />
    <glyph glyph-name="adieresismacron" unicode="&#x1df;" 
d="M417 727h-301v42h301v-42zM203 593h-56v87h56v-87zM378 593h-56v87h56v-87zM247 537c141 0 189 -54 189 -200v-204c0 -69 20 -95 57 -95l23 -38c-69 -5 -111 20 -127 78h-3c-3 -14 -37 -89 -166 -89c-96 0 -180 51 -180 156c0 213 344 162 344 202c0 56 -14 94 -41 115
c-22 19 -53 28 -94 28c-59 0 -136 -37 -136 -127h-51c0 56 36 174 185 174zM386 205v82c-47 -4 -130 -12 -195 -34c-57 -18 -98 -51 -98 -102c0 -67 52 -115 124 -115c112 0 169 60 169 169z" />
    <glyph glyph-name="adotbelow" unicode="&#x1ea1;" 
d="M247 537c141 0 189 -54 189 -200v-204c0 -69 20 -95 57 -95l23 -38c-69 -5 -111 20 -127 78h-3c-3 -14 -37 -89 -166 -89c-96 0 -180 51 -180 156c0 213 344 162 344 202c0 56 -14 94 -41 115c-22 19 -53 28 -94 28c-59 0 -136 -37 -136 -127h-51c0 56 36 174 185 174z
M386 205v82c-47 -4 -130 -12 -195 -34c-57 -18 -98 -51 -98 -102c0 -67 52 -115 124 -115c112 0 169 60 169 169zM285 -147h-56v87h56v-87z" />
    <glyph glyph-name="agrave" unicode="&#xe0;" 
d="M116 745l120 -146h37l-84 146h-73zM247 537c141 0 189 -54 189 -200v-204c0 -69 20 -95 57 -95l23 -38c-69 -5 -111 20 -127 78h-3c-3 -14 -37 -89 -166 -89c-96 0 -180 51 -180 156c0 213 344 162 344 202c0 56 -14 94 -41 115c-22 19 -53 28 -94 28
c-59 0 -136 -37 -136 -127h-51c0 56 36 174 185 174zM386 205v82c-47 -4 -130 -12 -195 -34c-57 -18 -98 -51 -98 -102c0 -67 52 -115 124 -115c112 0 169 60 169 169z" />
    <glyph glyph-name="ahookabove" unicode="&#x1ea3;" 
d="M292 685c0 -21 -21 -40 -63 -42l7 -48h39l-5 27c41 9 63 35 63 68c0 36 -28 61 -73 61c-48 0 -78 -23 -78 -72h39c0 21 12 35 35 35c22 0 36 -9 36 -29zM247 537c141 0 189 -54 189 -200v-204c0 -69 20 -95 57 -95l23 -38c-69 -5 -111 20 -127 78h-3
c-3 -14 -37 -89 -166 -89c-96 0 -180 51 -180 156c0 213 344 162 344 202c0 56 -14 94 -41 115c-22 19 -53 28 -94 28c-59 0 -136 -37 -136 -127h-51c0 56 36 174 185 174zM386 205v82c-47 -4 -130 -12 -195 -34c-57 -18 -98 -51 -98 -102c0 -67 52 -115 124 -115
c112 0 169 60 169 169z" />
    <glyph glyph-name="amacron" unicode="&#x101;" 
d="M412 600h-301v42h301v-42zM247 537c141 0 189 -54 189 -200v-204c0 -69 20 -95 57 -95l23 -38c-69 -5 -111 20 -127 78h-3c-3 -14 -37 -89 -166 -89c-96 0 -180 51 -180 156c0 213 344 162 344 202c0 56 -14 94 -41 115c-22 19 -53 28 -94 28c-59 0 -136 -37 -136 -127
h-51c0 56 36 174 185 174zM386 205v82c-47 -4 -130 -12 -195 -34c-57 -18 -98 -51 -98 -102c0 -67 52 -115 124 -115c112 0 169 60 169 169z" />
    <glyph glyph-name="aogonek" unicode="&#x105;" 
d="M487 -142l33 -17c-36 -64 -149 -77 -182 -27c-9 13 -13 29 -13 45c0 53 40 118 116 152c-26 12 -43 34 -52 67h-3c-3 -14 -37 -89 -166 -89c-96 0 -180 51 -180 156c0 213 344 162 344 202c0 56 -14 94 -41 115c-22 19 -53 28 -94 28c-59 0 -136 -37 -136 -127h-51
c0 56 36 174 185 174c141 0 189 -54 189 -200v-204c0 -69 20 -95 57 -95l23 -38c-14 -1 -27 -1 -39 1c-108 -48 -132 -133 -105 -163c21 -24 84 -18 115 20zM386 205v82c-47 -4 -130 -12 -195 -34c-57 -18 -98 -51 -98 -102c0 -67 52 -115 124 -115c112 0 169 60 169 169z
" />
    <glyph glyph-name="aring" unicode="&#xe5;" 
d="M253 581c-69 0 -109 41 -109 109c0 69 40 110 109 110s109 -41 109 -110c0 -68 -40 -109 -109 -109zM253 617c45 0 72 27 72 73c0 47 -27 74 -72 74c-46 0 -73 -27 -73 -74c0 -46 27 -73 73 -73zM247 537c141 0 189 -54 189 -200v-204c0 -69 20 -95 57 -95l23 -38
c-69 -5 -111 20 -127 78h-3c-3 -14 -37 -89 -166 -89c-96 0 -180 51 -180 156c0 213 344 162 344 202c0 56 -14 94 -41 115c-22 19 -53 28 -94 28c-59 0 -136 -37 -136 -127h-51c0 56 36 174 185 174zM386 205v82c-47 -4 -130 -12 -195 -34c-57 -18 -98 -51 -98 -102
c0 -67 52 -115 124 -115c112 0 169 60 169 169z" />
    <glyph glyph-name="ascript" unicode="&#x251;" horiz-adv-x="529" 
d="M253 537c74 0 118 -40 145 -87h2v75h50v-525h-50v74h-2c-28 -45 -70 -85 -145 -85c-146 0 -202 135 -202 269c0 132 58 279 202 279zM253 489c-105 0 -148 -103 -148 -231c0 -134 45 -222 148 -222c139 0 146 108 147 256c-1 72 -15 197 -147 197z" />
    <glyph glyph-name="atilde" unicode="&#xe3;" 
d="M364 693h28c0 -58 -35 -92 -77 -92c-54 0 -64 52 -106 52c-30 0 -49 -25 -53 -49h-30c0 58 41 91 83 91c54 0 64 -52 106 -52c29 0 44 26 49 50zM247 537c141 0 189 -54 189 -200v-204c0 -69 20 -95 57 -95l23 -38c-69 -5 -111 20 -127 78h-3c-3 -14 -37 -89 -166 -89
c-96 0 -180 51 -180 156c0 213 344 162 344 202c0 56 -14 94 -41 115c-22 19 -53 28 -94 28c-59 0 -136 -37 -136 -127h-51c0 56 36 174 185 174zM386 205v82c-47 -4 -130 -12 -195 -34c-57 -18 -98 -51 -98 -102c0 -67 52 -115 124 -115c112 0 169 60 169 169z" />
    <glyph glyph-name="ae" unicode="&#xe6;" horiz-adv-x="833" 
d="M605 537c56 0 94 -19 122 -48c51 -54 61 -141 58 -195h-343c-4 -85 7 -169 64 -221c25 -23 56 -36 99 -36c44 0 106 25 143 98l44 -27c-43 -87 -129 -119 -187 -119c-56 0 -99 19 -131 49c-21 19 -39 46 -50 73h-3c-6 -23 -55 -122 -193 -122c-97 0 -181 51 -181 156
c0 213 346 157 346 197c0 55 -15 99 -42 120c-23 19 -54 28 -94 28c-59 0 -137 -37 -137 -127h-50c0 56 36 174 185 174c104 0 152 -28 169 -109h3c34 61 91 109 178 109zM604 490c-47 0 -86 -19 -114 -55c-22 -26 -35 -60 -43 -98h287c-3 91 -44 153 -130 153zM395 205v77
c-47 -4 -133 -10 -198 -31c-56 -19 -96 -48 -96 -100c0 -67 52 -115 124 -115c112 0 170 60 170 169z" />
    <glyph glyph-name="b" unicode="b" horiz-adv-x="529" 
d="M129 450h3c27 45 69 87 144 87c144 0 202 -147 202 -279c0 -134 -56 -269 -202 -269c-75 0 -117 40 -144 85h-3v-74h-50v745h50v-295zM276 489c-132 0 -146 -125 -147 -197c1 -148 9 -256 147 -256c104 0 148 88 148 222c0 128 -43 231 -148 231z" />
    <glyph glyph-name="bdotbelow" unicode="&#x1e05;" horiz-adv-x="529" 
d="M129 450h3c27 45 69 87 144 87c144 0 202 -147 202 -279c0 -134 -56 -269 -202 -269c-75 0 -117 40 -144 85h-3v-74h-50v745h50v-295zM276 489c-132 0 -146 -125 -147 -197c1 -148 9 -256 147 -256c104 0 148 88 148 222c0 128 -43 231 -148 231zM291 -147h-56v87h56v-87
z" />
    <glyph glyph-name="bhook" unicode="&#x253;" horiz-adv-x="529" 
d="M410 700v-44c-183 140 -281 -60 -281 -131v-75h3c27 45 69 87 144 87c144 0 202 -147 202 -279c0 -134 -56 -269 -202 -269c-75 0 -117 40 -144 85h-3v-74h-50v525c4 135 164 308 331 175zM276 489c-132 0 -146 -125 -147 -197c1 -148 9 -256 147 -256
c104 0 148 88 148 222c0 128 -43 231 -148 231z" />
    <glyph glyph-name="c" unicode="c" horiz-adv-x="507" 
d="M269 537c133 0 182 -109 185 -182h-51c-1 82 -65 135 -134 135c-105 0 -163 -91 -164 -223c0 -127 60 -231 164 -231c59 0 118 31 146 89l45 -26c-44 -82 -121 -110 -191 -110c-149 0 -218 147 -218 278c0 136 69 270 218 270z" />
    <glyph glyph-name="cacute" unicode="&#x107;" horiz-adv-x="507" 
d="M204 599h37l120 146h-73zM269 537c133 0 182 -109 185 -182h-51c-1 82 -65 135 -134 135c-105 0 -163 -91 -164 -223c0 -127 60 -231 164 -231c59 0 118 31 146 89l45 -26c-44 -82 -121 -110 -191 -110c-149 0 -218 147 -218 278c0 136 69 270 218 270z" />
    <glyph glyph-name="ccaron" unicode="&#x10d;" horiz-adv-x="507" 
d="M311 596h-88l-90 132h42l91 -99h3l92 99h40zM269 537c133 0 182 -109 185 -182h-51c-1 82 -65 135 -134 135c-105 0 -163 -91 -164 -223c0 -127 60 -231 164 -231c59 0 118 31 146 89l45 -26c-44 -82 -121 -110 -191 -110c-149 0 -218 147 -218 278c0 136 69 270 218 270
z" />
    <glyph glyph-name="ccedilla" unicode="&#xe7;" horiz-adv-x="507" 
d="M415 125l45 -26c-33 -62 -86 -94 -140 -105c14 -103 -48 -173 -167 -146l19 38c72 -16 120 21 109 103h-12c-149 0 -218 147 -218 278c0 136 69 270 218 270c133 0 182 -109 185 -182h-51c-1 82 -65 135 -134 135c-105 0 -163 -91 -164 -223c0 -127 60 -231 164 -231
c59 0 118 31 146 89z" />
    <glyph glyph-name="cdotaccent" unicode="&#x10b;" horiz-adv-x="507" 
d="M299 593h-56v87h56v-87zM269 537c133 0 182 -109 185 -182h-51c-1 82 -65 135 -134 135c-105 0 -163 -91 -164 -223c0 -127 60 -231 164 -231c59 0 118 31 146 89l45 -26c-44 -82 -121 -110 -191 -110c-149 0 -218 147 -218 278c0 136 69 270 218 270z" />
    <glyph glyph-name="chook" unicode="&#x188;" horiz-adv-x="581" 
d="M581 719v-43c-51 49 -83 15 -98 -5c-22 -27 -29 -94 -29 -171v-145h-51c-1 82 -65 135 -134 135c-105 0 -163 -91 -164 -223c0 -127 60 -231 164 -231c59 0 118 31 146 89l45 -26c-44 -82 -121 -110 -191 -110c-149 0 -218 147 -218 278c0 136 69 270 218 270
c61 0 104 -25 132 -60h3l-1 38c0 99 15 150 41 184c30 39 82 70 137 20z" />
    <glyph glyph-name="d" unicode="d" horiz-adv-x="529" 
d="M450 0h-50v74h-2c-28 -45 -70 -85 -145 -85c-146 0 -202 135 -202 269c0 132 58 279 202 279c74 0 118 -40 145 -87h2v295h50v-745zM253 489c-105 0 -148 -103 -148 -231c0 -134 45 -222 148 -222c139 0 146 108 147 256c-1 72 -15 197 -147 197z" />
    <glyph glyph-name="eth" unicode="&#xf0;" horiz-adv-x="534" 
d="M128 707l24 38c42 -16 81 -37 115 -60l129 59l22 -37l-112 -52c115 -93 177 -229 177 -388c0 -131 -65 -278 -214 -278s-218 147 -218 278c0 136 69 271 218 270c42 0 77 -12 105 -33h2c-25 47 -64 92 -115 130l-144 -66l-22 37l125 58v3c-22 12 -55 27 -92 41zM269 490
c-105 0 -163 -91 -164 -223c0 -127 60 -231 164 -231s160 104 160 231c0 130 -54 223 -160 223z" />
    <glyph glyph-name="dcaron" unicode="&#x10f;" horiz-adv-x="626" 
d="M459 0h-50v74h-3c-27 -45 -70 -85 -145 -85c-146 0 -202 135 -202 269c0 132 58 279 202 279c74 0 119 -40 145 -87h3v295h50v-745zM610 745v-95c0 -58 -16 -118 -84 -135v35c54 17 50 69 50 95h-40v100h74zM261 489c-104 0 -148 -103 -148 -231c0 -134 45 -222 148 -222
c139 0 146 108 148 256c-2 72 -15 197 -148 197z" />
    <glyph glyph-name="dcircumflexbelow" unicode="&#x1e13;" horiz-adv-x="529" 
d="M450 0h-50v74h-2c-28 -45 -70 -85 -145 -85c-146 0 -202 135 -202 269c0 132 58 279 202 279c74 0 118 -40 145 -87h2v295h50v-745zM253 489c-105 0 -148 -103 -148 -231c0 -134 45 -222 148 -222c139 0 146 108 147 256c-1 72 -15 197 -147 197zM405 -192h-41l-92 99h-2
l-91 -99h-42l90 132h88z" />
    <glyph glyph-name="dcroat" unicode="&#x111;" horiz-adv-x="523" 
d="M509 614h-59v-614h-50v74h-2c-28 -45 -70 -85 -145 -85c-146 0 -202 135 -202 269c0 132 58 279 202 279c74 0 118 -40 145 -87h2v164h-191v42h191v89h50v-89h59v-42zM253 36c139 0 146 108 147 256c-1 72 -15 197 -147 197c-105 0 -148 -103 -148 -231
c0 -134 45 -222 148 -222z" />
    <glyph glyph-name="ddotbelow" unicode="&#x1e0d;" horiz-adv-x="529" 
d="M450 0h-50v74h-2c-28 -45 -70 -85 -145 -85c-146 0 -202 135 -202 269c0 132 58 279 202 279c74 0 118 -40 145 -87h2v295h50v-745zM253 489c-105 0 -148 -103 -148 -231c0 -134 45 -222 148 -222c139 0 146 108 147 256c-1 72 -15 197 -147 197zM290 -147h-56v87h56v-87
z" />
    <glyph glyph-name="dhook" unicode="&#x257;" horiz-adv-x="594" 
d="M580 722v-44c-53 43 -86 13 -101 -7c-22 -27 -29 -95 -29 -171v-500h-50v74h-2c-28 -45 -70 -85 -145 -85c-146 0 -202 135 -202 269c0 132 58 279 202 279c74 0 118 -40 145 -87h2v65c0 100 15 150 41 184c30 39 76 64 139 23zM253 489c-105 0 -148 -103 -148 -231
c0 -134 45 -222 148 -222c139 0 146 108 147 256c-1 72 -15 197 -147 197z" />
    <glyph glyph-name="dlinebelow" unicode="&#x1e0f;" horiz-adv-x="529" 
d="M450 0h-50v74h-2c-28 -45 -70 -85 -145 -85c-146 0 -202 135 -202 269c0 132 58 279 202 279c74 0 118 -40 145 -87h2v295h50v-745zM253 489c-105 0 -148 -103 -148 -231c0 -134 45 -222 148 -222c139 0 146 108 147 256c-1 72 -15 197 -147 197zM498 -103h-301v42h301
v-42z" />
    <glyph glyph-name="dtail" unicode="&#x256;" horiz-adv-x="529" 
d="M450 745v-728c0 -79 6 -134 28 -162c15 -20 59 -44 83 -10l18 -43c-47 -41 -109 -14 -139 25c-26 34 -40 90 -40 193v54h-2c-28 -45 -70 -85 -145 -85c-146 0 -202 135 -202 269c0 132 58 279 202 279c74 0 118 -40 145 -87h2v295h50zM253 489
c-105 0 -148 -103 -148 -231c0 -134 45 -222 148 -222c139 0 146 108 147 256c-1 72 -15 197 -147 197z" />
    <glyph glyph-name="e" unicode="e" horiz-adv-x="500" 
d="M249 537c127 0 206 -108 201 -243h-354c0 -162 65 -258 167 -258c65 0 126 37 157 99l45 -27c-39 -74 -117 -119 -202 -119c-133 0 -217 111 -217 298c0 169 87 250 203 250zM249 490c-91 0 -150 -69 -150 -153h299c0 84 -59 153 -149 153z" />
    <glyph glyph-name="eacute" unicode="&#xe9;" horiz-adv-x="500" 
d="M205 599h37l120 146h-73zM249 537c127 0 206 -108 201 -243h-354c0 -162 65 -258 167 -258c65 0 126 37 157 99l45 -27c-39 -74 -117 -119 -202 -119c-133 0 -217 111 -217 298c0 169 87 250 203 250zM249 490c-91 0 -150 -69 -150 -153h299c0 84 -59 153 -149 153z" />
    <glyph glyph-name="ecaron" unicode="&#x11b;" horiz-adv-x="500" 
d="M302 596h-88l-90 132h42l91 -99h3l92 99h40zM249 537c127 0 206 -108 201 -243h-354c0 -162 65 -258 167 -258c65 0 126 37 157 99l45 -27c-39 -74 -117 -119 -202 -119c-133 0 -217 111 -217 298c0 169 87 250 203 250zM249 490c-91 0 -150 -69 -150 -153h299
c0 84 -59 153 -149 153z" />
    <glyph glyph-name="uni0229" unicode="&#x229;" horiz-adv-x="500" 
d="M420 135l45 -27c-30 -57 -83 -97 -145 -112c14 -104 -48 -175 -167 -148l19 38c72 -16 121 21 109 104l-18 -1c-133 0 -217 111 -217 298c0 169 87 250 203 250c127 0 206 -108 201 -243h-354c0 -162 65 -258 167 -258c65 0 126 37 157 99zM249 490
c-91 0 -150 -69 -150 -153h299c0 84 -59 153 -149 153z" />
    <glyph glyph-name="ecircumflex" unicode="&#xea;" horiz-adv-x="500" 
d="M389 596h-41l-92 99h-2l-91 -99h-42l90 132h88zM249 537c127 0 206 -108 201 -243h-354c0 -162 65 -258 167 -258c65 0 126 37 157 99l45 -27c-39 -74 -117 -119 -202 -119c-133 0 -217 111 -217 298c0 169 87 250 203 250zM249 490c-91 0 -150 -69 -150 -153h299
c0 84 -59 153 -149 153z" />
    <glyph glyph-name="ecircumflexacute" unicode="&#x1ebf;" horiz-adv-x="500" 
d="M429 666h-38l84 146h73zM389 593h-41l-92 99h-2l-92 -99h-41l90 133h88zM249 537c127 0 206 -108 201 -243h-354c0 -162 65 -258 167 -258c65 0 126 37 157 99l45 -27c-39 -74 -117 -119 -202 -119c-133 0 -217 111 -217 298c0 169 87 250 203 250zM249 490
c-91 0 -150 -69 -150 -153h299c0 84 -59 153 -149 153z" />
    <glyph glyph-name="ecircumflexdotbelow" unicode="&#x1ec7;" horiz-adv-x="500" 
d="M389 596h-41l-92 99h-2l-91 -99h-42l90 132h88zM249 537c127 0 206 -108 201 -243h-354c0 -162 65 -258 167 -258c65 0 126 37 157 99l45 -27c-39 -74 -117 -119 -202 -119c-133 0 -217 111 -217 298c0 169 87 250 203 250zM249 490c-91 0 -150 -69 -150 -153h299
c0 84 -59 153 -149 153zM290 -147h-56v87h56v-87z" />
    <glyph glyph-name="ecircumflexgrave" unicode="&#x1ec1;" horiz-adv-x="500" 
d="M444 666h-38l-119 146h73zM384 593h-41l-92 99h-2l-92 -99h-41l90 133h88zM249 537c127 0 206 -108 201 -243h-354c0 -162 65 -258 167 -258c65 0 126 37 157 99l45 -27c-39 -74 -117 -119 -202 -119c-133 0 -217 111 -217 298c0 169 87 250 203 250zM249 490
c-91 0 -150 -69 -150 -153h299c0 84 -59 153 -149 153z" />
    <glyph glyph-name="ecircumflexhookabove" unicode="&#x1ec3;" horiz-adv-x="500" 
d="M497 683c0 -21 -21 -40 -63 -42l7 -48h39l-5 27c41 9 63 35 63 68c0 36 -28 61 -73 61c-48 0 -78 -23 -78 -72h39c0 21 12 35 35 35c22 0 36 -9 36 -29zM395 593h-41l-92 99h-2l-91 -99h-42l90 132h88zM249 537c127 0 206 -108 201 -243h-354c0 -162 65 -258 167 -258
c65 0 126 37 157 99l45 -27c-39 -74 -117 -119 -202 -119c-133 0 -217 111 -217 298c0 169 87 250 203 250zM249 490c-91 0 -150 -69 -150 -153h299c0 84 -59 153 -149 153z" />
    <glyph glyph-name="ecircumflextilde" unicode="&#x1ec5;" horiz-adv-x="500" 
d="M193 871c54 0 64 -52 106 -52c29 0 44 26 49 50h28c0 -58 -35 -92 -77 -92c-54 0 -64 53 -106 53c-30 0 -49 -26 -53 -50h-30c0 58 41 91 83 91zM394 593h-41l-92 99h-2l-91 -99h-42l90 133h88zM249 537c127 0 206 -108 201 -243h-354c0 -162 65 -258 167 -258
c65 0 126 37 157 99l45 -27c-39 -74 -117 -119 -202 -119c-133 0 -217 111 -217 298c0 169 87 250 203 250zM249 490c-91 0 -150 -69 -150 -153h299c0 84 -59 153 -149 153z" />
    <glyph glyph-name="edieresis" unicode="&#xeb;" horiz-adv-x="500" 
d="M196 593h-56v87h56v-87zM371 593h-56v87h56v-87zM249 537c127 0 206 -108 201 -243h-354c0 -162 65 -258 167 -258c65 0 126 37 157 99l45 -27c-39 -74 -117 -119 -202 -119c-133 0 -217 111 -217 298c0 169 87 250 203 250zM249 490c-91 0 -150 -69 -150 -153h299
c0 84 -59 153 -149 153z" />
    <glyph glyph-name="edotaccent" unicode="&#x117;" horiz-adv-x="500" 
d="M283 593h-56v87h56v-87zM249 537c127 0 206 -108 201 -243h-354c0 -162 65 -258 167 -258c65 0 126 37 157 99l45 -27c-39 -74 -117 -119 -202 -119c-133 0 -217 111 -217 298c0 169 87 250 203 250zM249 490c-91 0 -150 -69 -150 -153h299c0 84 -59 153 -149 153z" />
    <glyph glyph-name="edotbelow" unicode="&#x1eb9;" horiz-adv-x="500" 
d="M249 537c127 0 206 -108 201 -243h-354c0 -162 65 -258 167 -258c65 0 126 37 157 99l45 -27c-39 -74 -117 -119 -202 -119c-133 0 -217 111 -217 298c0 169 87 250 203 250zM249 490c-91 0 -150 -69 -150 -153h299c0 84 -59 153 -149 153zM290 -147h-56v87h56v-87z" />
    <glyph glyph-name="egrave" unicode="&#xe8;" horiz-adv-x="500" 
d="M117 745l120 -146h37l-84 146h-73zM249 537c127 0 206 -108 201 -243h-354c0 -162 65 -258 167 -258c65 0 126 37 157 99l45 -27c-39 -74 -117 -119 -202 -119c-133 0 -217 111 -217 298c0 169 87 250 203 250zM249 490c-91 0 -150 -69 -150 -153h299
c0 84 -59 153 -149 153z" />
    <glyph glyph-name="ehookabove" unicode="&#x1ebb;" horiz-adv-x="500" 
d="M287 686c0 -21 -21 -40 -63 -42l7 -48h39l-5 27c41 9 63 35 63 68c0 36 -28 61 -73 61c-48 0 -78 -23 -78 -72h39c0 21 12 35 35 35c22 0 36 -9 36 -29zM249 537c127 0 206 -108 201 -243h-354c0 -162 65 -258 167 -258c65 0 126 37 157 99l45 -27
c-39 -74 -117 -119 -202 -119c-133 0 -217 111 -217 298c0 169 87 250 203 250zM249 490c-91 0 -150 -69 -150 -153h299c0 84 -59 153 -149 153z" />
    <glyph glyph-name="emacron" unicode="&#x113;" horiz-adv-x="500" 
d="M407 596h-301v42h301v-42zM249 537c127 0 206 -108 201 -243h-354c0 -162 65 -258 167 -258c65 0 126 37 157 99l45 -27c-39 -74 -117 -119 -202 -119c-133 0 -217 111 -217 298c0 169 87 250 203 250zM249 490c-91 0 -150 -69 -150 -153h299c0 84 -59 153 -149 153z" />
    <glyph glyph-name="eogonek" unicode="&#x119;" horiz-adv-x="500" 
d="M342 3c-88 -49 -107 -125 -82 -152c21 -24 84 -18 115 20l33 -17c-36 -64 -149 -77 -182 -27c-9 13 -13 29 -13 45c0 38 21 83 61 117h-11c-133 0 -217 111 -217 298c0 169 87 250 203 250c127 0 206 -108 201 -243h-354c0 -162 65 -258 167 -258c65 0 126 37 157 99
l45 -27c-26 -50 -71 -87 -123 -105zM249 490c-91 0 -150 -69 -150 -153h299c0 84 -59 153 -149 153z" />
    <glyph glyph-name="eopen" unicode="&#x25b;" horiz-adv-x="392" 
d="M200 538c78 0 129 -43 135 -117h-57c0 42 -29 67 -78 67c-58 0 -93 -35 -93 -92c0 -82 65 -87 122 -87v-39c-82 0 -132 -40 -132 -120c0 -72 36 -115 97 -115c53 0 95 35 110 91l45 -27c-20 -70 -78 -111 -155 -111c-95 0 -151 58 -151 156c0 71 31 124 82 142v3
c-46 12 -72 51 -72 105c0 89 55 144 147 144z" />
    <glyph glyph-name="esh" unicode="&#x283;" horiz-adv-x="204" 
d="M194 750v-44c-82 0 -94 -90 -94 -173l1 -513c0 -103 -14 -159 -40 -193c-30 -39 -76 -46 -133 -46l18 43c36 2 62 11 76 31c23 28 28 83 28 162v516c3 124 27 217 144 217z" />
    <glyph glyph-name="etilde" unicode="&#x1ebd;" horiz-adv-x="500" 
d="M346 685h28c0 -58 -35 -92 -77 -92c-54 0 -64 52 -106 52c-30 0 -49 -25 -53 -49h-30c0 58 41 91 83 91c54 0 64 -52 106 -52c29 0 44 26 49 50zM249 537c127 0 206 -108 201 -243h-354c0 -162 65 -258 167 -258c65 0 126 37 157 99l45 -27c-39 -74 -117 -119 -202 -119
c-133 0 -217 111 -217 298c0 169 87 250 203 250zM249 490c-91 0 -150 -69 -150 -153h299c0 84 -59 153 -149 153z" />
    <glyph glyph-name="eturned" unicode="&#x1dd;" horiz-adv-x="500" 
d="M251 -12c-127 0 -206 108 -201 243h354c0 162 -65 258 -167 258c-65 0 -126 -37 -157 -99l-45 27c39 74 117 119 202 119c133 0 217 -111 217 -298c0 -169 -87 -250 -203 -250zM251 35c91 0 150 69 150 153h-299c0 -84 59 -153 149 -153z" />
    <glyph glyph-name="ezh" unicode="&#x292;" horiz-adv-x="516" 
d="M455 483l-230 -221v-3c159 0 248 -87 248 -248c0 -139 -89 -231 -240 -231c-70 0 -145 28 -190 110l45 26c28 -58 87 -89 146 -89c115 0 185 78 185 194c0 142 -94 209 -265 190v47l229 217v3h-291v47h363v-42z" />
    <glyph glyph-name="ezhcaron" unicode="&#x1ef;" horiz-adv-x="516" 
d="M313 594h-88l-90 132h42l91 -99h3l92 99h40zM455 483l-230 -221v-3c159 0 248 -87 248 -248c0 -139 -89 -231 -240 -231c-70 0 -145 28 -190 110l45 26c28 -58 87 -89 146 -89c115 0 185 78 185 194c0 142 -94 209 -265 190v47l229 217v3h-291v47h363v-42z" />
    <glyph glyph-name="ezhreversed" unicode="&#x1b9;" horiz-adv-x="516" 
d="M424 525v-47h-291v-3l229 -217v-47c-171 19 -265 -48 -265 -190c0 -116 70 -194 185 -194c59 0 118 31 146 89l45 -26c-45 -82 -120 -110 -190 -110c-151 0 -240 92 -240 231c0 161 89 248 248 248v3l-230 221v42h363z" />
    <glyph glyph-name="f" unicode="f" horiz-adv-x="226" 
d="M215 750v-44c-90 0 -93 -96 -93 -181h87v-43h-87v-482h-50v482h-58v43h58c3 123 27 225 143 225z" />
    <glyph glyph-name="g" unicode="g" horiz-adv-x="529" 
d="M252 537c75 0 118 -40 146 -85h2v73h50l-1 -511c0 -211 -129 -233 -192 -233c-56 0 -143 28 -190 115l39 24c39 -73 108 -92 151 -92c63 0 141 30 141 186v60h-3c-27 -46 -69 -85 -143 -85c-144 0 -201 147 -201 278c0 134 55 270 201 270zM252 489
c-103 0 -147 -88 -147 -222c0 -127 43 -231 147 -231c133 0 143 107 147 228c-2 120 -13 225 -147 225z" />
    <glyph glyph-name="gammalatinsmall" unicode="&#x263;" horiz-adv-x="492" 
d="M275 61v-3c60 -57 78 -106 78 -158c0 -84 -45 -120 -110 -120c-64 0 -109 36 -109 120c0 52 19 101 79 158v3l-199 464h55l175 -404h2l177 404h56zM246 16h-3c-34 -36 -55 -73 -55 -115c0 -48 20 -71 55 -71c36 0 56 23 56 71c0 42 -20 78 -53 115z" />
    <glyph glyph-name="gbreve" unicode="&#x11f;" horiz-adv-x="529" 
d="M306 691h46c0 -53 -32 -96 -99 -96s-99 43 -99 96h46c0 -36 18 -57 53 -57s53 21 53 57zM252 537c75 0 118 -40 146 -85h2v73h50l-1 -511c0 -211 -129 -233 -192 -233c-56 0 -143 28 -190 115l39 24c39 -73 108 -92 151 -92c63 0 141 30 141 186v60h-3
c-27 -46 -69 -85 -143 -85c-144 0 -201 147 -201 278c0 134 55 270 201 270zM252 489c-103 0 -147 -88 -147 -222c0 -127 43 -231 147 -231c133 0 143 107 147 228c-2 120 -13 225 -147 225z" />
    <glyph glyph-name="gcaron" unicode="&#x1e7;" horiz-adv-x="529" 
d="M301 596h-88l-90 132h42l91 -99h3l92 99h40zM252 537c75 0 118 -40 146 -85h2v73h50l-1 -511c0 -211 -129 -233 -192 -233c-56 0 -143 28 -190 115l39 24c39 -73 108 -92 151 -92c63 0 141 30 141 186v60h-3c-27 -46 -69 -85 -143 -85c-144 0 -201 147 -201 278
c0 134 55 270 201 270zM252 489c-103 0 -147 -88 -147 -222c0 -127 43 -231 147 -231c133 0 143 107 147 228c-2 120 -13 225 -147 225z" />
    <glyph glyph-name="gcommaaccent" unicode="&#x123;" horiz-adv-x="529" 
d="M213 593v72c0 48 19 68 65 68v-30c-20 0 -29 -17 -29 -34h36v-76h-72zM252 537c75 0 118 -40 146 -85h2v73h50l-1 -511c0 -211 -129 -233 -192 -233c-56 0 -143 28 -190 115l39 24c39 -73 108 -92 151 -92c63 0 141 30 141 186v60h-3c-27 -46 -69 -85 -143 -85
c-144 0 -201 147 -201 278c0 134 55 270 201 270zM252 489c-103 0 -147 -88 -147 -222c0 -127 43 -231 147 -231c133 0 143 107 147 228c-2 120 -13 225 -147 225z" />
    <glyph glyph-name="gdotaccent" unicode="&#x121;" horiz-adv-x="529" 
d="M291 593h-56v87h56v-87zM252 537c75 0 118 -40 146 -85h2v73h50l-1 -511c0 -211 -129 -233 -192 -233c-56 0 -143 28 -190 115l39 24c39 -73 108 -92 151 -92c63 0 141 30 141 186v60h-3c-27 -46 -69 -85 -143 -85c-144 0 -201 147 -201 278c0 134 55 270 201 270z
M252 489c-103 0 -147 -88 -147 -222c0 -127 43 -231 147 -231c133 0 143 107 147 228c-2 120 -13 225 -147 225z" />
    <glyph glyph-name="ghook" unicode="&#x260;" horiz-adv-x="574" 
d="M577 729v-44c-48 34 -83 6 -98 -14c-22 -27 -29 -95 -29 -146l-1 -511c0 -211 -129 -233 -192 -233c-56 0 -143 28 -190 115l39 24c39 -73 108 -92 151 -92c63 0 141 30 141 186v60h-3c-27 -46 -69 -85 -143 -85c-144 0 -201 147 -201 278c0 134 55 270 201 270
c75 0 118 -40 146 -85h2v73c0 99 15 140 41 174c30 39 80 64 136 30zM252 489c-103 0 -147 -88 -147 -222c0 -127 43 -231 147 -231c133 0 143 107 147 228c-2 120 -13 225 -147 225z" />
    <glyph glyph-name="glottalstop" unicode="&#x294;" horiz-adv-x="472" 
d="M225 713c125 0 195 -71 195 -190c0 -129 -68 -171 -115 -221c-88 -94 -72 -180 -72 -302h-55c0 128 -22 230 98 352c29 29 89 76 89 172c0 85 -46 139 -140 139c-59 0 -123 -40 -127 -132h-55c0 64 44 182 182 182z" />
    <glyph glyph-name="glottalstopinverted" unicode="&#x296;" horiz-adv-x="478" 
d="M185 700h55c0 -122 -17 -208 72 -302c46 -50 115 -92 115 -221c0 -119 -70 -190 -195 -190c-138 0 -182 118 -182 182h55c4 -92 68 -132 127 -132c93 0 140 54 140 139c0 96 -60 143 -89 172c-121 122 -98 224 -98 352z" />
    <glyph glyph-name="glottalstopreversed" unicode="&#x295;" horiz-adv-x="472" 
d="M246 713c138 0 182 -118 182 -182h-55c-3 92 -68 132 -127 132c-93 0 -140 -54 -140 -139c0 -96 60 -143 89 -172c121 -122 98 -224 98 -352h-55c0 122 17 208 -72 302c-46 50 -115 92 -115 221c0 119 70 190 195 190z" />
    <glyph glyph-name="uni0242" unicode="&#x242;" horiz-adv-x="469" 
d="M225 537c125 0 193 -71 193 -190c0 -129 -69 -168 -115 -218c-30 -33 -33 -60 -33 -129h-50c0 57 -5 114 57 176c28 28 91 76 91 172c0 85 -49 142 -143 142c-59 0 -124 -43 -127 -135h-55c0 64 44 182 182 182z" />
    <glyph glyph-name="h" unicode="h" horiz-adv-x="523" 
d="M134 438h3c24 46 58 98 145 98c105 0 176 -58 176 -244v-292h-50v302c0 124 -42 187 -126 187c-110 0 -148 -97 -148 -210v-279h-50v745h50v-307z" />
    <glyph glyph-name="hbar" unicode="&#x127;" horiz-adv-x="536" 
d="M288 536c105 0 176 -58 176 -244v-292h-50v302c0 124 -42 187 -126 187c-110 0 -149 -97 -149 -210v-279h-50v614h-70v42h70v89h50v-89h191v-42h-191v-176h3c24 46 59 98 146 98z" />
    <glyph glyph-name="hdotbelow" unicode="&#x1e25;" horiz-adv-x="523" 
d="M134 438h3c24 46 58 98 145 98c105 0 176 -58 176 -244v-292h-50v302c0 124 -42 187 -126 187c-110 0 -148 -97 -148 -210v-279h-50v745h50v-307zM299 -147h-56v87h56v-87z" />
    <glyph glyph-name="hhook" unicode="&#x266;" horiz-adv-x="531" 
d="M415 700v-44c-183 140 -281 -60 -281 -131v-87h3c24 46 58 98 145 98c105 0 176 -58 176 -244v-292h-50v302c0 124 -42 187 -126 187c-110 0 -148 -97 -148 -210v-279h-50v525c4 135 164 308 331 175z" />
    <glyph glyph-name="i" unicode="i" horiz-adv-x="213" 
d="M134 657h-50v88h50v-88zM134 0h-50v525h50v-525z" />
    <glyph glyph-name="dotlessi" unicode="&#x131;" horiz-adv-x="211" 
d="M133 0v525h-50v-525h50z" />
    <glyph glyph-name="iacute" unicode="&#xed;" horiz-adv-x="260" 
d="M62 599h37l120 146h-73zM147 0v525h-50v-525h50z" />
    <glyph glyph-name="icaron" unicode="&#x1d0;" horiz-adv-x="211" 
d="M149 595h-88l-90 132h42l91 -99h3l92 99h40zM133 0v525h-50v-525h50z" />
    <glyph glyph-name="icircumflex" unicode="&#xee;" horiz-adv-x="260" 
d="M240 596h-41l-92 99h-3l-91 -99h-41l90 132h88zM133 0v525h-50v-525h50z" />
    <glyph glyph-name="idieresis" unicode="&#xef;" horiz-adv-x="211" 
d="M46 593h-56v87h56v-87zM221 593h-56v87h56v-87zM133 0v525h-50v-525h50z" />
    <glyph glyph-name="idieresisacute" unicode="&#x1e2f;" horiz-adv-x="211" 
d="M79 727h37l120 146h-73zM46 593h-56v87h56v-87zM221 593h-56v87h56v-87zM133 0v525h-50v-525h50z" />
    <glyph glyph-name="i.loclTRK" horiz-adv-x="211" 
d="M133 593h-56v87h56v-87zM133 0v525h-50v-525h50z" />
    <glyph glyph-name="idotbelow" unicode="&#x1ecb;" horiz-adv-x="213" 
d="M134 657h-50v88h50v-88zM134 0h-50v525h50v-525zM138 -147h-56v87h56v-87z" />
    <glyph glyph-name="igrave" unicode="&#xec;" horiz-adv-x="202" 
d="M10 745l119 -146h38l-84 146h-73zM146 0v525h-50v-525h50z" />
    <glyph glyph-name="ihookabove" unicode="&#x1ec9;" horiz-adv-x="211" 
d="M142 683c0 -21 -21 -40 -63 -42l7 -48h39l-5 27c41 9 63 35 63 68c0 36 -28 61 -73 61c-48 0 -78 -23 -78 -72h39c0 21 12 35 35 35c22 0 36 -9 36 -29zM133 0v525h-50v-525h50z" />
    <glyph glyph-name="ij" unicode="&#x133;" horiz-adv-x="381" 
d="M134 657h-50v88h50v-88zM314 657h-51v88h51v-88zM134 0h-50v525h50v-525zM314 525v-505c0 -103 -14 -159 -40 -193c-30 -39 -76 -46 -133 -46l18 43c36 2 62 11 76 31c23 28 28 83 28 162v508h51z" />
    <glyph glyph-name="imacron" unicode="&#x12b;" horiz-adv-x="211" 
d="M255 595h-301v42h301v-42zM133 0v525h-50v-525h50z" />
    <glyph glyph-name="iogonek" unicode="&#x12f;" horiz-adv-x="213" 
d="M134 657h-50v88h50v-88zM134 525v-525c-112 -47 -137 -135 -110 -165c21 -24 84 -18 115 20l33 -17c-36 -64 -150 -77 -182 -27c-9 13 -13 29 -13 45c0 50 37 112 107 147v522h50z" />
    <glyph glyph-name="iotalatin" unicode="&#x269;" horiz-adv-x="269" 
d="M135 525v-300c0 -79 5 -134 28 -162c14 -20 40 -29 76 -31l18 -43c-57 0 -103 7 -133 46c-26 34 -40 90 -40 193v297h51z" />
    <glyph glyph-name="istroke" unicode="&#x268;" horiz-adv-x="325" 
d="M188 657h-50v88h50v-88zM313 280h-125v-280h-50v280h-126v41h126v204h50v-204h125v-41z" />
    <glyph glyph-name="itilde" unicode="&#x129;" horiz-adv-x="211" 
d="M207 685h28c0 -58 -35 -92 -77 -92c-54 0 -64 52 -106 52c-30 0 -49 -25 -53 -49h-30c0 58 41 91 83 91c54 0 64 -52 106 -52c29 0 44 26 49 50zM133 0v525h-50v-525h50z" />
    <glyph glyph-name="j" unicode="j" horiz-adv-x="169" 
d="M101 657h-51v88h51v-88zM101 525v-505c0 -103 -14 -159 -40 -193c-30 -39 -76 -46 -133 -46l18 43c36 2 62 11 76 31c23 28 28 83 28 162v508h51z" />
    <glyph glyph-name="dotlessj" unicode="&#x237;" horiz-adv-x="169" 
d="M101 525v-505c0 -103 -14 -159 -40 -193c-30 -39 -76 -46 -133 -46l18 43c36 2 62 11 76 31c23 28 28 83 28 162v508h51z" />
    <glyph glyph-name="k" unicode="k" horiz-adv-x="444" 
d="M134 296h3l212 229h64l-181 -188v-4l198 -333h-54l-177 299h-4l-61 -66v-233h-50v745h50v-449z" />
    <glyph glyph-name="kcommaaccent" unicode="&#x137;" horiz-adv-x="444" 
d="M134 296h3l212 229h64l-181 -188v-4l198 -333h-54l-177 299h-4l-61 -66v-233h-50v745h50v-449zM249 -60v-72c0 -48 -19 -68 -65 -68v30c20 0 29 17 29 34h-36v76h72z" />
    <glyph glyph-name="khook" unicode="&#x199;" horiz-adv-x="444" 
d="M415 700v-44c-183 140 -281 -60 -281 -131v-229h3l211 229h65l-182 -188v-4l199 -333h-54l-178 299h-4l-60 -66v-233h-50v525c4 135 164 308 331 175z" />
    <glyph glyph-name="klinebelow" unicode="&#x1e35;" horiz-adv-x="444" 
d="M134 296h3l212 229h64l-181 -188v-4l198 -333h-54l-177 299h-4l-61 -66v-233h-50v745h50v-449zM372 -102h-301v42h301v-42z" />
    <glyph glyph-name="l" unicode="l" horiz-adv-x="214" 
d="M134 0v745h-50v-745h50z" />
    <glyph glyph-name="lacute" unicode="&#x13a;" horiz-adv-x="214" 
d="M61 787h37l120 146h-73zM134 0v745h-50v-745h50z" />
    <glyph glyph-name="lcaron" unicode="&#x13e;" horiz-adv-x="298" 
d="M134 0h-50v745h50v-745zM285 745v-95c0 -58 -15 -118 -84 -135v35c54 17 50 69 50 95h-40v100h74z" />
    <glyph glyph-name="lcircumflexbelow" unicode="&#x1e3d;" horiz-adv-x="214" 
d="M134 0v745h-50v-745h50zM240 -192h-41l-92 99h-2l-91 -99h-42l90 132h88z" />
    <glyph glyph-name="lcommaaccent" unicode="&#x13c;" horiz-adv-x="214" 
d="M134 0v745h-50v-745h50zM159 -60v-72c0 -48 -19 -68 -65 -68v30c20 0 29 17 29 34h-36v76h72z" />
    <glyph glyph-name="ldot" unicode="&#x140;" horiz-adv-x="330" 
d="M134 0v745h-50v-745h50zM325 409h-56v87h56v-87z" />
    <glyph glyph-name="ldotbelow" unicode="&#x1e37;" horiz-adv-x="214" 
d="M134 0v745h-50v-745h50zM137 -147h-56v87h56v-87z" />
    <glyph glyph-name="ldotbelowmacron" unicode="&#x1e39;" horiz-adv-x="214" 
d="M277 793h-301v42h301v-42zM134 0v745h-50v-745h50zM137 -147h-56v87h56v-87z" />
    <glyph glyph-name="llinebelow" unicode="&#x1e3b;" horiz-adv-x="214" 
d="M134 0v745h-50v-745h50zM279 -102h-301v42h301v-42z" />
    <glyph glyph-name="lslash" unicode="&#x142;" horiz-adv-x="326" 
d="M312 456l-124 -64v-392h-50v367l-124 -64v49l124 64v329h50v-304l124 64v-49z" />
    <glyph glyph-name="m" unicode="m" horiz-adv-x="831" 
d="M590 537c110 0 168 -75 168 -246v-291h-50v299c0 114 -30 191 -118 191c-114 0 -147 -112 -147 -228v-262h-51v302c0 104 -31 188 -120 188c-106 0 -143 -99 -143 -212v-278h-50v525h50v-86h3c11 33 64 98 140 98s132 -37 157 -124h3c11 41 64 124 158 124z" />
    <glyph glyph-name="macute" unicode="&#x1e3f;" horiz-adv-x="831" 
d="M384 599h37l120 146h-73zM590 537c110 0 168 -75 168 -246v-291h-50v299c0 114 -30 191 -118 191c-114 0 -147 -112 -147 -228v-262h-51v302c0 104 -31 188 -120 188c-106 0 -143 -99 -143 -212v-278h-50v525h50v-86h3c11 33 64 98 140 98s132 -37 157 -124h3
c11 41 64 124 158 124z" />
    <glyph glyph-name="n" unicode="n" horiz-adv-x="526" 
d="M277 536c104 0 176 -58 176 -244v-292h-50v302c0 70 -13 123 -42 154c-21 22 -48 33 -84 33c-110 0 -148 -97 -148 -210v-279h-50v525h50v-87h3c24 46 58 98 145 98z" />
    <glyph glyph-name="nacute" unicode="&#x144;" horiz-adv-x="526" 
d="M196 599h37l120 146h-73zM277 536c104 0 176 -58 176 -244v-292h-50v302c0 70 -13 123 -42 154c-21 22 -48 33 -84 33c-110 0 -148 -97 -148 -210v-279h-50v525h50v-87h3c24 46 58 98 145 98z" />
    <glyph glyph-name="ncaron" unicode="&#x148;" horiz-adv-x="526" 
d="M303 596h-88l-90 132h42l91 -99h3l92 99h40zM277 536c104 0 176 -58 176 -244v-292h-50v302c0 70 -13 123 -42 154c-21 22 -48 33 -84 33c-110 0 -148 -97 -148 -210v-279h-50v525h50v-87h3c24 46 58 98 145 98z" />
    <glyph glyph-name="ncircumflexbelow" unicode="&#x1e4b;" horiz-adv-x="526" 
d="M277 536c104 0 176 -58 176 -244v-292h-50v302c0 70 -13 123 -42 154c-21 22 -48 33 -84 33c-110 0 -148 -97 -148 -210v-279h-50v525h50v-87h3c24 46 58 98 145 98zM395 -192h-41l-92 99h-2l-91 -99h-42l90 132h88z" />
    <glyph glyph-name="ncommaaccent" unicode="&#x146;" horiz-adv-x="526" 
d="M277 536c104 0 176 -58 176 -244v-292h-50v302c0 70 -13 123 -42 154c-21 22 -48 33 -84 33c-110 0 -148 -97 -148 -210v-279h-50v525h50v-87h3c24 46 58 98 145 98zM282 -60v-72c0 -48 -19 -68 -65 -68v30c20 0 29 17 29 34h-36v76h72z" />
    <glyph glyph-name="ndotaccent" unicode="&#x1e45;" horiz-adv-x="526" 
d="M301 593h-56v87h56v-87zM277 536c104 0 176 -58 176 -244v-292h-50v302c0 70 -13 123 -42 154c-21 22 -48 33 -84 33c-110 0 -148 -97 -148 -210v-279h-50v525h50v-87h3c24 46 58 98 145 98z" />
    <glyph glyph-name="ndotbelow" unicode="&#x1e47;" horiz-adv-x="526" 
d="M277 536c104 0 176 -58 176 -244v-292h-50v302c0 70 -13 123 -42 154c-21 22 -48 33 -84 33c-110 0 -148 -97 -148 -210v-279h-50v525h50v-87h3c24 46 58 98 145 98zM294 -147h-56v87h56v-87z" />
    <glyph glyph-name="eng" unicode="&#x14b;" horiz-adv-x="526" 
d="M277 536c104 0 176 -58 176 -244v-272c0 -103 -13 -159 -39 -193c-30 -39 -76 -46 -133 -46l18 43c36 2 62 11 76 31c23 28 28 83 28 162v285c0 71 -13 123 -41 154c-21 22 -49 33 -85 33c-110 0 -148 -97 -148 -210v-279h-50v525h50v-87h3c24 46 58 98 145 98z" />
    <glyph glyph-name="nhookleft" unicode="&#x272;" horiz-adv-x="497" 
d="M249 536c103 0 176 -58 176 -244v-292h-50v302c0 71 -14 123 -42 154c-21 22 -49 33 -84 33c-110 0 -149 -97 -149 -210v-259c0 -103 -13 -159 -39 -193c-30 -39 -76 -46 -133 -46l18 43c36 2 62 11 76 31c23 28 28 83 28 162v508h50v-87h3c24 46 59 98 146 98z" />
    <glyph glyph-name="ntilde" unicode="&#xf1;" horiz-adv-x="526" 
d="M361 690h28c0 -58 -35 -92 -77 -92c-54 0 -64 52 -106 52c-30 0 -49 -25 -53 -49h-30c0 58 41 91 83 91c54 0 64 -52 106 -52c29 0 44 26 49 50zM277 536c104 0 176 -58 176 -244v-292h-50v302c0 70 -13 123 -42 154c-21 22 -48 33 -84 33c-110 0 -148 -97 -148 -210
v-279h-50v525h50v-87h3c24 46 58 98 145 98z" />
    <glyph glyph-name="o" unicode="o" horiz-adv-x="534" 
d="M269 537c149 -1 214 -134 214 -270c0 -131 -65 -278 -214 -278s-218 147 -218 278c0 136 69 271 218 270zM269 490c-105 0 -163 -91 -164 -223c0 -127 60 -231 164 -231s160 104 160 231c0 130 -54 223 -160 223z" />
    <glyph glyph-name="oacute" unicode="&#xf3;" horiz-adv-x="534" 
d="M217 599h37l120 146h-73zM269 537c149 -1 214 -134 214 -270c0 -131 -65 -278 -214 -278s-218 147 -218 278c0 136 69 271 218 270zM269 490c-105 0 -163 -91 -164 -223c0 -127 60 -231 164 -231s160 104 160 231c0 130 -54 223 -160 223z" />
    <glyph glyph-name="ocaron" unicode="&#x1d2;" horiz-adv-x="534" 
d="M311 596h-88l-90 132h42l91 -99h3l92 99h40zM269 537c149 -1 214 -134 214 -270c0 -131 -65 -278 -214 -278s-218 147 -218 278c0 136 69 271 218 270zM269 490c-105 0 -163 -91 -164 -223c0 -127 60 -231 164 -231s160 104 160 231c0 130 -54 223 -160 223z" />
    <glyph glyph-name="ocircumflex" unicode="&#xf4;" horiz-adv-x="534" 
d="M409 596h-41l-92 99h-2l-91 -99h-42l90 132h88zM269 537c149 -1 214 -134 214 -270c0 -131 -65 -278 -214 -278s-218 147 -218 278c0 136 69 271 218 270zM269 490c-105 0 -163 -91 -164 -223c0 -127 60 -231 164 -231s160 104 160 231c0 130 -54 223 -160 223z" />
    <glyph glyph-name="ocircumflexacute" unicode="&#x1ed1;" horiz-adv-x="534" 
d="M452 666h-38l84 146h73zM412 593h-41l-92 99h-2l-92 -99h-41l90 133h88zM269 537c149 -1 214 -134 214 -270c0 -131 -65 -278 -214 -278s-218 147 -218 278c0 136 69 271 218 270zM269 490c-105 0 -163 -91 -164 -223c0 -127 60 -231 164 -231s160 104 160 231
c0 130 -54 223 -160 223z" />
    <glyph glyph-name="ocircumflexdotbelow" unicode="&#x1ed9;" horiz-adv-x="534" 
d="M409 596h-41l-92 99h-2l-91 -99h-42l90 132h88zM269 537c149 -1 214 -134 214 -270c0 -131 -65 -278 -214 -278s-218 147 -218 278c0 136 69 271 218 270zM269 490c-105 0 -163 -91 -164 -223c0 -127 60 -231 164 -231s160 104 160 231c0 130 -54 223 -160 223zM296 -147
h-56v87h56v-87z" />
    <glyph glyph-name="ocircumflexgrave" unicode="&#x1ed3;" horiz-adv-x="534" 
d="M463 666h-38l-119 146h73zM403 593h-41l-92 99h-2l-92 -99h-41l90 133h88zM269 537c149 -1 214 -134 214 -270c0 -131 -65 -278 -214 -278s-218 147 -218 278c0 136 69 271 218 270zM269 490c-105 0 -163 -91 -164 -223c0 -127 60 -231 164 -231s160 104 160 231
c0 130 -54 223 -160 223z" />
    <glyph glyph-name="ocircumflexhookabove" unicode="&#x1ed5;" horiz-adv-x="534" 
d="M505 685c0 -21 -21 -40 -63 -42l7 -48h39l-5 27c41 9 63 35 63 68c0 36 -28 61 -73 61c-48 0 -78 -23 -78 -72h39c0 21 12 35 35 35c22 0 36 -9 36 -29zM403 595h-41l-92 99h-2l-91 -99h-42l90 132h88zM269 537c149 -1 214 -134 214 -270c0 -131 -65 -278 -214 -278
s-218 147 -218 278c0 136 69 271 218 270zM269 490c-105 0 -163 -91 -164 -223c0 -127 60 -231 164 -231s160 104 160 231c0 130 -54 223 -160 223z" />
    <glyph glyph-name="ocircumflextilde" unicode="&#x1ed7;" horiz-adv-x="534" 
d="M205 871c54 0 64 -52 106 -52c29 0 44 26 49 50h28c0 -58 -35 -92 -77 -92c-54 0 -64 53 -106 53c-30 0 -49 -26 -53 -50h-30c0 58 41 91 83 91zM406 593h-41l-92 99h-2l-91 -99h-42l90 133h88zM269 537c149 -1 214 -134 214 -270c0 -131 -65 -278 -214 -278
s-218 147 -218 278c0 136 69 271 218 270zM269 490c-105 0 -163 -91 -164 -223c0 -127 60 -231 164 -231s160 104 160 231c0 130 -54 223 -160 223z" />
    <glyph glyph-name="odieresis" unicode="&#xf6;" horiz-adv-x="534" 
d="M211 593h-56v87h56v-87zM386 593h-56v87h56v-87zM269 537c149 -1 214 -134 214 -270c0 -131 -65 -278 -214 -278s-218 147 -218 278c0 136 69 271 218 270zM269 490c-105 0 -163 -91 -164 -223c0 -127 60 -231 164 -231s160 104 160 231c0 130 -54 223 -160 223z" />
    <glyph glyph-name="uni022B" unicode="&#x22b;" horiz-adv-x="534" 
d="M419 714h-301v42h301v-42zM211 593h-56v87h56v-87zM386 593h-56v87h56v-87zM269 537c149 -1 214 -134 214 -270c0 -131 -65 -278 -214 -278s-218 147 -218 278c0 136 69 271 218 270zM269 490c-105 0 -163 -91 -164 -223c0 -127 60 -231 164 -231s160 104 160 231
c0 130 -54 223 -160 223z" />
    <glyph glyph-name="odotbelow" unicode="&#x1ecd;" horiz-adv-x="534" 
d="M269 537c149 -1 214 -134 214 -270c0 -131 -65 -278 -214 -278s-218 147 -218 278c0 136 69 271 218 270zM269 490c-105 0 -163 -91 -164 -223c0 -127 60 -231 164 -231s160 104 160 231c0 130 -54 223 -160 223zM295 -147h-56v87h56v-87z" />
    <glyph glyph-name="ograve" unicode="&#xf2;" horiz-adv-x="534" 
d="M142 745l120 -146h37l-84 146h-73zM269 537c149 -1 214 -134 214 -270c0 -131 -65 -278 -214 -278s-218 147 -218 278c0 136 69 271 218 270zM269 490c-105 0 -163 -91 -164 -223c0 -127 60 -231 164 -231s160 104 160 231c0 130 -54 223 -160 223z" />
    <glyph glyph-name="ohookabove" unicode="&#x1ecf;" horiz-adv-x="534" 
d="M308 683c0 -21 -21 -40 -63 -42l7 -48h39l-5 27c41 9 63 35 63 68c0 36 -28 61 -73 61c-48 0 -78 -23 -78 -72h39c0 21 12 35 35 35c22 0 36 -9 36 -29zM269 537c149 -1 214 -134 214 -270c0 -131 -65 -278 -214 -278s-218 147 -218 278c0 136 69 271 218 270zM269 490
c-105 0 -163 -91 -164 -223c0 -127 60 -231 164 -231s160 104 160 231c0 130 -54 223 -160 223z" />
    <glyph glyph-name="ohorn" unicode="&#x1a1;" horiz-adv-x="579" 
d="M514 566h51c0 -82 -51 -132 -115 -146c22 -45 33 -98 33 -153c0 -131 -65 -278 -214 -278s-218 147 -218 278c0 136 69 271 218 270c77 -1 131 -36 165 -88c48 14 80 69 80 117zM269 490c-105 0 -163 -91 -164 -223c0 -127 60 -231 164 -231s160 104 160 231
c0 130 -54 223 -160 223z" />
    <glyph glyph-name="ohornacute" unicode="&#x1edb;" horiz-adv-x="579" 
d="M231 599h37l120 146h-73zM514 566h51c0 -82 -51 -132 -115 -146c22 -45 33 -98 33 -153c0 -131 -65 -278 -214 -278s-218 147 -218 278c0 136 69 271 218 270c77 -1 131 -36 165 -88c48 14 80 69 80 117zM269 490c-105 0 -163 -91 -164 -223c0 -127 60 -231 164 -231
s160 104 160 231c0 130 -54 223 -160 223z" />
    <glyph glyph-name="ohorndotbelow" unicode="&#x1ee3;" horiz-adv-x="579" 
d="M514 566h51c0 -82 -51 -132 -115 -146c22 -45 33 -98 33 -153c0 -131 -65 -278 -214 -278s-218 147 -218 278c0 136 69 271 218 270c77 -1 131 -36 165 -88c48 14 80 69 80 117zM269 490c-105 0 -163 -91 -164 -223c0 -127 60 -231 164 -231s160 104 160 231
c0 130 -54 223 -160 223zM300 -147h-56v87h56v-87z" />
    <glyph glyph-name="ohorngrave" unicode="&#x1edd;" horiz-adv-x="579" 
d="M133 742l120 -146h37l-84 146h-73zM514 566h51c0 -82 -51 -132 -115 -146c22 -45 33 -98 33 -153c0 -131 -65 -278 -214 -278s-218 147 -218 278c0 136 69 271 218 270c77 -1 131 -36 165 -88c48 14 80 69 80 117zM269 490c-105 0 -163 -91 -164 -223
c0 -127 60 -231 164 -231s160 104 160 231c0 130 -54 223 -160 223z" />
    <glyph glyph-name="ohornhookabove" unicode="&#x1edf;" horiz-adv-x="579" 
d="M306 688c0 -21 -21 -40 -63 -42l7 -48h39l-5 27c41 9 63 35 63 68c0 36 -28 61 -73 61c-48 0 -78 -23 -78 -72h39c0 21 12 35 35 35c22 0 36 -9 36 -29zM514 566h51c0 -82 -51 -132 -115 -146c22 -45 33 -98 33 -153c0 -131 -65 -278 -214 -278s-218 147 -218 278
c0 136 69 271 218 270c77 -1 131 -36 165 -88c48 14 80 69 80 117zM269 490c-105 0 -163 -91 -164 -223c0 -127 60 -231 164 -231s160 104 160 231c0 130 -54 223 -160 223z" />
    <glyph glyph-name="ohorntilde" unicode="&#x1ee1;" horiz-adv-x="579" 
d="M368 693h28c0 -58 -35 -92 -77 -92c-54 0 -64 52 -106 52c-30 0 -49 -25 -53 -49h-30c0 58 41 91 83 91c54 0 64 -52 106 -52c29 0 44 26 49 50zM514 566h51c0 -82 -51 -132 -115 -146c22 -45 33 -98 33 -153c0 -131 -65 -278 -214 -278s-218 147 -218 278
c0 136 69 271 218 270c77 -1 131 -36 165 -88c48 14 80 69 80 117zM269 490c-105 0 -163 -91 -164 -223c0 -127 60 -231 164 -231s160 104 160 231c0 130 -54 223 -160 223z" />
    <glyph glyph-name="ohungarumlaut" unicode="&#x151;" horiz-adv-x="534" 
d="M312 596h-35l84 146h71zM228 596h-35l84 145h71zM269 537c149 -1 214 -134 214 -270c0 -131 -65 -278 -214 -278s-218 147 -218 278c0 136 69 271 218 270zM269 490c-105 0 -163 -91 -164 -223c0 -127 60 -231 164 -231s160 104 160 231c0 130 -54 223 -160 223z" />
    <glyph glyph-name="omacron" unicode="&#x14d;" horiz-adv-x="534" 
d="M418 596h-301v42h301v-42zM269 537c149 -1 214 -134 214 -270c0 -131 -65 -278 -214 -278s-218 147 -218 278c0 136 69 271 218 270zM269 490c-105 0 -163 -91 -164 -223c0 -127 60 -231 164 -231s160 104 160 231c0 130 -54 223 -160 223z" />
    <glyph glyph-name="omacronacute" unicode="&#x1e53;" horiz-adv-x="534" 
d="M241 683h37l120 146h-73zM418 596h-301v42h301v-42zM269 537c149 -1 214 -134 214 -270c0 -131 -65 -278 -214 -278s-218 147 -218 278c0 136 69 271 218 270zM269 490c-105 0 -163 -91 -164 -223c0 -127 60 -231 164 -231s160 104 160 231c0 130 -54 223 -160 223z" />
    <glyph glyph-name="omacrongrave" unicode="&#x1e51;" horiz-adv-x="534" 
d="M144 839l120 -146h37l-84 146h-73zM418 596h-301v42h301v-42zM269 537c149 -1 214 -134 214 -270c0 -131 -65 -278 -214 -278s-218 147 -218 278c0 136 69 271 218 270zM269 490c-105 0 -163 -91 -164 -223c0 -127 60 -231 164 -231s160 104 160 231
c0 130 -54 223 -160 223z" />
    <glyph glyph-name="oopen" unicode="&#x254;" horiz-adv-x="504" 
d="M235 537c149 0 218 -134 218 -270c0 -131 -69 -278 -218 -278c-70 0 -146 28 -191 110l45 26c29 -58 87 -89 146 -89c104 0 165 104 164 231c-1 132 -59 223 -164 223c-69 0 -132 -53 -134 -135h-51c3 73 53 182 185 182z" />
    <glyph glyph-name="oslash" unicode="&#xf8;" horiz-adv-x="545" 
d="M494 523l-58 -76c32 -50 47 -115 47 -180c0 -131 -65 -278 -214 -278c-58 0 -105 23 -139 58l-46 -60l-23 15l51 66c-41 55 -61 129 -61 199c0 136 69 271 218 270c66 0 115 -27 150 -67l53 69zM105 267c0 -60 14 -115 39 -157l244 319c-27 38 -67 61 -119 61
c-105 0 -163 -91 -164 -223zM429 267c0 53 -9 99 -26 136l-242 -316c27 -32 64 -51 108 -51c104 0 160 104 160 231z" />
    <glyph glyph-name="oslashacute" unicode="&#x1ff;" horiz-adv-x="545" 
d="M251 596h-37l84 146h73zM494 523l-58 -76c32 -50 47 -115 47 -180c0 -131 -65 -278 -214 -278c-58 0 -105 23 -139 58l-46 -60l-23 15l51 66c-41 55 -61 129 -61 199c0 136 69 271 218 270c66 0 115 -27 150 -67l53 69zM105 267c0 -60 14 -115 39 -157l244 319
c-27 38 -67 61 -119 61c-105 0 -163 -91 -164 -223zM429 267c0 53 -9 99 -26 136l-242 -316c27 -32 64 -51 108 -51c104 0 160 104 160 231z" />
    <glyph glyph-name="otilde" unicode="&#xf5;" horiz-adv-x="519" 
d="M375 693h29c0 -58 -36 -92 -78 -92c-54 0 -64 52 -105 52c-31 0 -50 -25 -54 -49h-30c0 58 42 91 84 91c54 0 63 -52 105 -52c30 0 45 26 49 50zM269 537c149 -1 214 -134 214 -270c0 -131 -65 -278 -214 -278s-218 147 -218 278c0 136 69 271 218 270zM269 490
c-105 0 -163 -91 -164 -223c0 -127 60 -231 164 -231s160 104 160 231c0 130 -54 223 -160 223z" />
    <glyph glyph-name="otildeacute" unicode="&#x1e4d;" horiz-adv-x="534" 
d="M287 767h-37l84 146h73zM226 692c54 0 64 -51 106 -51c29 0 44 25 49 49h28c0 -58 -35 -92 -77 -92c-54 0 -64 53 -106 53c-30 0 -49 -26 -53 -50h-30c0 58 41 91 83 91zM269 537c149 -1 214 -134 214 -270c0 -131 -65 -278 -214 -278s-218 147 -218 278
c0 136 69 271 218 270zM269 490c-105 0 -163 -91 -164 -223c0 -127 60 -231 164 -231s160 104 160 231c0 130 -54 223 -160 223z" />
    <glyph glyph-name="oe" unicode="&#x153;" horiz-adv-x="876" 
d="M647 537c56 0 95 -19 122 -48c51 -54 62 -141 59 -195h-344c-2 -61 1 -164 65 -221c24 -23 56 -36 98 -36c45 0 107 25 144 98l44 -27c-43 -87 -129 -119 -188 -119c-55 0 -98 19 -131 49c-26 23 -44 58 -57 93h-3c-31 -79 -91 -142 -187 -142c-149 0 -218 147 -218 278
c0 136 69 271 218 270c96 -1 156 -58 186 -134h3c31 76 91 134 189 134zM269 490c-105 0 -164 -91 -164 -223c0 -127 60 -231 164 -231c130 0 160 147 160 231c0 122 -57 223 -160 223zM646 490c-46 0 -85 -19 -114 -55c-22 -27 -35 -66 -43 -98h288c-3 91 -44 153 -131 153
z" />
    <glyph glyph-name="p" unicode="p" horiz-adv-x="534" 
d="M281 536c146 0 202 -135 202 -269c0 -132 -58 -279 -202 -279c-75 0 -117 42 -144 87h-3v-295h-50v745h50v-74h3c27 45 69 85 144 85zM281 489c-138 0 -146 -108 -147 -256c1 -72 15 -197 147 -197c105 0 148 103 148 231c0 134 -44 222 -148 222z" />
    <glyph glyph-name="phook" unicode="&#x1a5;" horiz-adv-x="534" 
d="M415 700v-44c-183 140 -281 -60 -281 -131v-74h3c27 45 69 85 144 85c146 0 202 -135 202 -269c0 -132 -58 -279 -202 -279c-75 0 -117 42 -144 87h-3v-295h-50v745c4 135 164 308 331 175zM281 489c-138 0 -146 -108 -147 -256c1 -72 15 -197 147 -197
c105 0 148 103 148 231c0 134 -44 222 -148 222z" />
    <glyph glyph-name="thorn" unicode="&#xfe;" horiz-adv-x="534" 
d="M281 536c146 0 202 -135 202 -269c0 -132 -58 -279 -202 -279c-75 0 -117 42 -144 87h-3v-295h-50v965h50v-294h3c27 45 69 85 144 85zM281 489c-138 0 -146 -108 -147 -256c1 -72 15 -197 147 -197c105 0 148 103 148 231c0 134 -44 222 -148 222z" />
    <glyph glyph-name="q" unicode="q" horiz-adv-x="529" 
d="M253 536c75 0 117 -40 145 -85h2v74h50v-745h-50v295h-2c-27 -45 -70 -87 -145 -87c-144 0 -202 147 -202 279c0 134 56 269 202 269zM253 489c-103 0 -148 -88 -148 -222c0 -128 43 -231 148 -231c132 0 146 125 147 197c-1 148 -8 256 -147 256z" />
    <glyph glyph-name="uni024B" unicode="&#x24b;" horiz-adv-x="524" 
d="M253 536c75 0 117 -40 145 -85h2v74h50v-508c0 -79 6 -134 28 -162c15 -20 59 -44 83 -10l18 -43c-47 -41 -109 -14 -139 25c-26 34 -40 90 -40 193v55h-2c-27 -45 -70 -87 -145 -87c-144 0 -202 147 -202 279c0 134 56 269 202 269zM253 489c-103 0 -148 -88 -148 -222
c0 -128 43 -231 148 -231c132 0 146 125 147 197c-1 148 -8 256 -147 256z" />
    <glyph glyph-name="r" unicode="r" horiz-adv-x="305" 
d="M292 536v-47c-100 0 -169 -79 -169 -185v-304h-50v525h50v-86h2c26 46 77 97 167 97z" />
    <glyph glyph-name="racute" unicode="&#x155;" horiz-adv-x="305" 
d="M121 599h37l120 146h-73zM292 536v-47c-100 0 -169 -79 -169 -185v-304h-50v525h50v-86h2c26 46 77 97 167 97z" />
    <glyph glyph-name="rcaron" unicode="&#x159;" horiz-adv-x="305" 
d="M223 597h-88l-90 132h42l91 -99h3l92 99h40zM292 536v-47c-100 0 -169 -79 -169 -185v-304h-50v525h50v-86h2c26 46 77 97 167 97z" />
    <glyph glyph-name="rcommaaccent" unicode="&#x157;" horiz-adv-x="305" 
d="M292 536v-47c-100 0 -169 -79 -169 -185v-304h-50v525h50v-86h2c26 46 77 97 167 97zM157 -60v-72c0 -48 -19 -68 -65 -68v30c20 0 29 17 29 34h-36v76h72z" />
    <glyph glyph-name="rfishhook" unicode="&#x27e;" horiz-adv-x="405" 
d="M364 490v-44c-192 108 -239 -41 -239 -127v-319h-50v319c3 135 92 281 289 171z" />
    <glyph glyph-name="rhook" unicode="&#x27d;" horiz-adv-x="342" 
d="M304 536v-47c-100 0 -169 -79 -169 -185c0 -377 -2 -411 28 -449c15 -20 50 -45 82 -7l18 -44c-56 -33 -101 -16 -131 16c-34 37 -47 89 -47 251v454h50v-86h2c26 46 77 97 167 97z" />
    <glyph glyph-name="s" unicode="s" horiz-adv-x="445" 
d="M216 537c108 0 166 -64 166 -136h-50c0 55 -45 88 -106 89c-60 0 -107 -28 -107 -89c0 -135 279 -49 279 -258c0 -63 -41 -154 -176 -154c-99 0 -150 56 -171 111l43 26c12 -35 46 -90 128 -90c94 0 124 59 124 107c0 164 -278 64 -278 258c0 105 94 136 148 136z" />
    <glyph glyph-name="sacute" unicode="&#x15b;" horiz-adv-x="445" 
d="M257 744l-84 -146h37l120 146h-73zM216 537c108 0 166 -64 166 -136h-50c0 55 -45 88 -106 89c-60 0 -107 -28 -107 -89c0 -135 279 -49 279 -258c0 -63 -41 -154 -176 -154c-99 0 -150 56 -171 111l43 26c12 -35 46 -90 128 -90c94 0 124 59 124 107
c0 164 -278 64 -278 258c0 105 94 136 148 136z" />
    <glyph glyph-name="scaron" unicode="&#x161;" horiz-adv-x="445" 
d="M358 728l-90 -132h-88l-90 132h42l91 -99h3l92 99h40zM216 537c108 0 166 -64 166 -136h-50c0 55 -45 88 -106 89c-60 0 -107 -28 -107 -89c0 -135 279 -49 279 -258c0 -63 -41 -154 -176 -154c-99 0 -150 56 -171 111l43 26c12 -35 46 -90 128 -90c94 0 124 59 124 107
c0 164 -278 64 -278 258c0 105 94 136 148 136z" />
    <glyph glyph-name="scedilla" unicode="&#x15f;" horiz-adv-x="445" 
d="M398 143c0 -55 -31 -132 -129 -150c14 -104 -48 -175 -167 -148l19 38c73 -16 122 22 109 106h-8c-99 0 -150 56 -171 111l43 26c12 -35 46 -90 128 -90c94 0 124 59 124 107c0 164 -278 64 -278 258c0 105 94 136 148 136c108 0 166 -64 166 -136h-50
c0 55 -45 88 -106 89c-60 0 -107 -28 -107 -89c0 -135 279 -49 279 -258z" />
    <glyph glyph-name="scommaaccent" unicode="&#x219;" horiz-adv-x="445" 
d="M216 537c108 0 166 -64 166 -136h-50c0 55 -45 88 -106 89c-60 0 -107 -28 -107 -89c0 -135 279 -49 279 -258c0 -63 -41 -154 -176 -154c-99 0 -150 56 -171 111l43 26c12 -35 46 -90 128 -90c94 0 124 59 124 107c0 164 -278 64 -278 258c0 105 94 136 148 136z
M273 -60v-72c0 -48 -19 -68 -65 -68v30c20 0 29 17 29 34h-36v76h72z" />
    <glyph glyph-name="sdotbelow" unicode="&#x1e63;" horiz-adv-x="445" 
d="M216 537c108 0 166 -64 166 -136h-50c0 55 -45 88 -106 89c-60 0 -107 -28 -107 -89c0 -135 279 -49 279 -258c0 -63 -41 -154 -176 -154c-99 0 -150 56 -171 111l43 26c12 -35 46 -90 128 -90c94 0 124 59 124 107c0 164 -278 64 -278 258c0 105 94 136 148 136z
M264 -60v-87h-56v87h56z" />
    <glyph glyph-name="germandbls" unicode="&#xdf;" horiz-adv-x="519" 
d="M232 712c98 -2 148 -57 148 -137c0 -129 -90 -126 -90 -202s140 -63 140 -232c0 -114 -88 -173 -177 -148l17 41c59 -17 106 41 106 108c0 142 -140 119 -140 232c0 108 90 97 90 201c0 56 -31 90 -94 90c-89 0 -97 -92 -97 -175v-490h-49v486c0 131 30 226 146 226z" />
    <glyph glyph-name="schwa" unicode="&#x259;" horiz-adv-x="495" 
d="M244 536c125 0 199 -111 199 -298c0 -169 -81 -250 -197 -250c-127 0 -201 108 -196 243h344c0 162 -56 258 -150 258c-77 0 -132 -42 -149 -113h-54c17 97 94 160 203 160zM390 188h-288c0 -82 54 -153 144 -153s144 71 144 153z" />
    <glyph glyph-name="t" unicode="t" horiz-adv-x="273" 
d="M144 525h91v-43h-91v-259c0 -67 5 -121 22 -153c15 -31 44 -46 87 -48l13 -37c-61 0 -109 9 -138 56c-23 35 -34 89 -34 185v256h-80v43h80v131h50v-131z" />
    <glyph glyph-name="tbar" unicode="&#x167;" horiz-adv-x="273" 
d="M253 22l13 -37c-61 0 -109 9 -138 56c-23 35 -34 89 -34 185v96h-69v41h69v119h-80v43h80v131h50v-131h93v-43h-93v-119h82v-41h-82v-99c0 -67 5 -121 22 -153c15 -31 44 -46 87 -48z" />
    <glyph glyph-name="tcaron" unicode="&#x165;" horiz-adv-x="326" 
d="M326 821v-95c0 -57 -15 -117 -83 -134v34c54 17 49 70 50 95h-40v100h73zM144 525h91v-43h-91v-259c0 -67 5 -121 22 -153c15 -31 44 -46 87 -48l13 -37c-61 0 -109 9 -138 56c-23 35 -34 89 -34 185v256h-80v43h80v131h50v-131z" />
    <glyph glyph-name="tcedilla" unicode="&#x163;" horiz-adv-x="273" 
d="M253 22l13 -37c-36 0 -68 3 -94 16c-6 -80 -66 -128 -168 -105l19 38c71 -16 119 20 110 100l-5 7c-23 35 -34 89 -34 185v256h-80v43h80v131h50v-131h91v-43h-91v-259c0 -67 5 -121 22 -153c15 -31 44 -46 87 -48z" />
    <glyph glyph-name="tcircumflexbelow" unicode="&#x1e71;" horiz-adv-x="273" 
d="M144 525h91v-43h-91v-259c0 -67 5 -121 22 -153c15 -31 44 -46 87 -48l13 -37c-61 0 -109 9 -138 56c-23 35 -34 89 -34 185v256h-80v43h80v131h50v-131zM213 -147h-56v87h56v-87z" />
    <glyph glyph-name="uni021B" unicode="&#x21b;" horiz-adv-x="273" 
d="M144 525h91v-43h-91v-259c0 -67 5 -121 22 -153c15 -31 44 -46 87 -48l13 -37c-61 0 -109 9 -138 56c-23 35 -34 89 -34 185v256h-80v43h80v131h50v-131zM220 -60v-72c0 -48 -19 -68 -65 -68v30c20 0 29 17 29 34h-36v76h72z" />
    <glyph glyph-name="tdotbelow" unicode="&#x1e6d;" horiz-adv-x="273" 
d="M144 525h91v-43h-91v-259c0 -67 5 -121 22 -153c15 -31 44 -46 87 -48l13 -37c-61 0 -109 9 -138 56c-23 35 -34 89 -34 185v256h-80v43h80v131h50v-131zM214 -147h-56v87h56v-87z" />
    <glyph glyph-name="thook" unicode="&#x1ad;" horiz-adv-x="277" 
d="M269 729v-44c-47 34 -82 6 -97 -14c-22 -27 -29 -95 -29 -146h92v-43h-91v-259c0 -67 5 -121 22 -153c15 -31 44 -46 87 -48l13 -37c-61 0 -109 9 -138 56c-23 35 -34 89 -34 185v256h-80v43h80c-1 99 13 140 39 174c30 39 81 64 136 30z" />
    <glyph glyph-name="tlinebelow" unicode="&#x1e6f;" horiz-adv-x="273" 
d="M144 525h91v-43h-91v-259c0 -67 5 -121 22 -153c15 -31 44 -46 87 -48l13 -37c-61 0 -109 9 -138 56c-23 35 -34 89 -34 185v256h-80v43h80v131h50v-131zM322 -115h-301v42h301v-42z" />
    <glyph glyph-name="tretroflexhook" unicode="&#x288;" horiz-adv-x="285" 
d="M144 525h91v-43h-91v-464c0 -67 5 -121 22 -153c15 -31 56 -64 93 -30l19 -38c-61 -42 -121 -8 -150 39c-23 35 -34 89 -34 185v461h-80v43h80v131h50v-131z" />
    <glyph glyph-name="u" unicode="u" horiz-adv-x="505" 
d="M440 0h-50v87h-3c-24 -46 -59 -98 -146 -98c-105 0 -176 58 -176 244v292h50v-302c0 -124 42 -187 126 -187c110 0 149 97 149 210v279h50v-525z" />
    <glyph glyph-name="uacute" unicode="&#xfa;" horiz-adv-x="505" 
d="M183 599h37l120 146h-73zM440 0h-50v87h-3c-24 -46 -59 -98 -146 -98c-105 0 -176 58 -176 244v292h50v-302c0 -124 42 -187 126 -187c110 0 149 97 149 210v279h50v-525z" />
    <glyph glyph-name="ubar" unicode="&#x289;" horiz-adv-x="549" 
d="M462 334h73v-41h-73v-293h-50v87h-3c-24 -46 -59 -98 -146 -98c-105 0 -176 58 -176 244v60h-73v41h73v191h50v-191h275v191h50v-191zM137 293v-70c0 -124 42 -187 126 -187c110 0 149 97 149 210v47h-275z" />
    <glyph glyph-name="ucaron" unicode="&#x1d4;" horiz-adv-x="505" 
d="M296 596h-88l-90 132h42l91 -99h3l92 99h40zM440 0h-50v87h-3c-24 -46 -59 -98 -146 -98c-105 0 -176 58 -176 244v292h50v-302c0 -124 42 -187 126 -187c110 0 149 97 149 210v279h50v-525z" />
    <glyph glyph-name="ucircumflex" unicode="&#xfb;" horiz-adv-x="505" 
d="M385 596h-41l-92 99h-2l-91 -99h-42l90 132h88zM440 0h-50v87h-3c-24 -46 -59 -98 -146 -98c-105 0 -176 58 -176 244v292h50v-302c0 -124 42 -187 126 -187c110 0 149 97 149 210v279h50v-525z" />
    <glyph glyph-name="udieresis" unicode="&#xfc;" horiz-adv-x="505" 
d="M201 593h-56v87h56v-87zM376 593h-56v87h56v-87zM440 0h-50v87h-3c-24 -46 -59 -98 -146 -98c-105 0 -176 58 -176 244v292h50v-302c0 -124 42 -187 126 -187c110 0 149 97 149 210v279h50v-525z" />
    <glyph glyph-name="udieresisacute" unicode="&#x1d8;" horiz-adv-x="505" 
d="M243 748h37l120 146h-73zM201 593h-56v87h56v-87zM376 593h-56v87h56v-87zM440 0h-50v87h-3c-24 -46 -59 -98 -146 -98c-105 0 -176 58 -176 244v292h50v-302c0 -124 42 -187 126 -187c110 0 149 97 149 210v279h50v-525z" />
    <glyph glyph-name="udieresiscaron" unicode="&#x1da;" horiz-adv-x="505" 
d="M296 739h-88l-90 132h42l91 -99h3l92 99h40zM201 593h-56v87h56v-87zM376 593h-56v87h56v-87zM440 0h-50v87h-3c-24 -46 -59 -98 -146 -98c-105 0 -176 58 -176 244v292h50v-302c0 -124 42 -187 126 -187c110 0 149 97 149 210v279h50v-525z" />
    <glyph glyph-name="udieresisgrave" unicode="&#x1dc;" horiz-adv-x="505" 
d="M131 896l120 -146h37l-84 146h-73zM201 593h-56v87h56v-87zM376 593h-56v87h56v-87zM440 0h-50v87h-3c-24 -46 -59 -98 -146 -98c-105 0 -176 58 -176 244v292h50v-302c0 -124 42 -187 126 -187c110 0 149 97 149 210v279h50v-525z" />
    <glyph glyph-name="udieresismacron" unicode="&#x1d6;" horiz-adv-x="505" 
d="M413 729h-301v42h301v-42zM201 593h-56v87h56v-87zM376 593h-56v87h56v-87zM440 0h-50v87h-3c-24 -46 -59 -98 -146 -98c-105 0 -176 58 -176 244v292h50v-302c0 -124 42 -187 126 -187c110 0 149 97 149 210v279h50v-525z" />
    <glyph glyph-name="udotbelow" unicode="&#x1ee5;" horiz-adv-x="505" 
d="M440 0h-50v87h-3c-24 -46 -59 -98 -146 -98c-105 0 -176 58 -176 244v292h50v-302c0 -124 42 -187 126 -187c110 0 149 97 149 210v279h50v-525zM279 -147h-56v87h56v-87z" />
    <glyph glyph-name="ugrave" unicode="&#xf9;" horiz-adv-x="505" 
d="M157 745l120 -146h37l-84 146h-73zM440 0h-50v87h-3c-24 -46 -59 -98 -146 -98c-105 0 -176 58 -176 244v292h50v-302c0 -124 42 -187 126 -187c110 0 149 97 149 210v279h50v-525z" />
    <glyph glyph-name="uhookabove" unicode="&#x1ee7;" horiz-adv-x="505" 
d="M287 683c0 -21 -21 -40 -63 -42l7 -48h39l-5 27c41 9 63 35 63 68c0 36 -28 61 -73 61c-48 0 -78 -23 -78 -72h39c0 21 12 35 35 35c22 0 36 -9 36 -29zM440 0h-50v87h-3c-24 -46 -59 -98 -146 -98c-105 0 -176 58 -176 244v292h50v-302c0 -124 42 -187 126 -187
c110 0 149 97 149 210v279h50v-525z" />
    <glyph glyph-name="uhorn" unicode="&#x1b0;" horiz-adv-x="595" 
d="M531 565h51c0 -92 -61 -142 -142 -153v-412h-50v87h-3c-24 -46 -59 -98 -146 -98c-105 0 -176 58 -176 244v292h50v-302c0 -124 42 -187 126 -187c110 0 149 97 149 210v279h50v-80c53 8 91 67 91 120z" />
    <glyph glyph-name="uhornacute" unicode="&#x1ee9;" horiz-adv-x="595" 
d="M228 598h37l120 146h-73zM531 565h51c0 -92 -61 -142 -142 -153v-412h-50v87h-3c-24 -46 -59 -98 -146 -98c-105 0 -176 58 -176 244v292h50v-302c0 -124 42 -187 126 -187c110 0 149 97 149 210v279h50v-80c53 8 91 67 91 120z" />
    <glyph glyph-name="uhorndotbelow" unicode="&#x1ef1;" horiz-adv-x="595" 
d="M531 565h51c0 -92 -61 -142 -142 -153v-412h-50v87h-3c-24 -46 -59 -98 -146 -98c-105 0 -176 58 -176 244v292h50v-302c0 -124 42 -187 126 -187c110 0 149 97 149 210v279h50v-80c53 8 91 67 91 120zM280 -147h-56v87h56v-87z" />
    <glyph glyph-name="uhorngrave" unicode="&#x1eeb;" horiz-adv-x="595" 
d="M134 744l120 -146h37l-84 146h-73zM531 565h51c0 -92 -61 -142 -142 -153v-412h-50v87h-3c-24 -46 -59 -98 -146 -98c-105 0 -176 58 -176 244v292h50v-302c0 -124 42 -187 126 -187c110 0 149 97 149 210v279h50v-80c53 8 91 67 91 120z" />
    <glyph glyph-name="uhornhookabove" unicode="&#x1eed;" horiz-adv-x="595" 
d="M280 683c0 -21 -21 -40 -63 -42l7 -48h39l-5 27c41 9 63 35 63 68c0 36 -28 61 -73 61c-48 0 -78 -23 -78 -72h39c0 21 12 35 35 35c22 0 36 -9 36 -29zM531 565h51c0 -92 -61 -142 -142 -153v-412h-50v87h-3c-24 -46 -59 -98 -146 -98c-105 0 -176 58 -176 244v292h50
v-302c0 -124 42 -187 126 -187c110 0 149 97 149 210v279h50v-80c53 8 91 67 91 120z" />
    <glyph glyph-name="uhorntilde" unicode="&#x1eef;" horiz-adv-x="595" 
d="M371 692h28c0 -58 -35 -92 -77 -92c-54 0 -64 52 -106 52c-30 0 -49 -25 -53 -49h-30c0 58 41 91 83 91c54 0 64 -52 106 -52c29 0 44 26 49 50zM531 565h51c0 -92 -61 -142 -142 -153v-412h-50v87h-3c-24 -46 -59 -98 -146 -98c-105 0 -176 58 -176 244v292h50v-302
c0 -124 42 -187 126 -187c110 0 149 97 149 210v279h50v-80c53 8 91 67 91 120z" />
    <glyph glyph-name="uhungarumlaut" unicode="&#x171;" horiz-adv-x="505" 
d="M316 596h-35l84 146h71zM232 596h-35l84 145h71zM440 0h-50v87h-3c-24 -46 -59 -98 -146 -98c-105 0 -176 58 -176 244v292h50v-302c0 -124 42 -187 126 -187c110 0 149 97 149 210v279h50v-525z" />
    <glyph glyph-name="umacron" unicode="&#x16b;" horiz-adv-x="505" 
d="M413 596h-301v42h301v-42zM440 0h-50v87h-3c-24 -46 -59 -98 -146 -98c-105 0 -176 58 -176 244v292h50v-302c0 -124 42 -187 126 -187c110 0 149 97 149 210v279h50v-525z" />
    <glyph glyph-name="uogonek" unicode="&#x173;" horiz-adv-x="505" 
d="M440 525v-525c-112 -47 -137 -135 -110 -165c21 -24 84 -18 115 20l33 -17c-36 -64 -150 -77 -183 -27c-8 13 -12 29 -12 45c0 50 37 112 107 147v84h-3c-24 -46 -59 -98 -146 -98c-105 0 -176 58 -176 244v292h50v-302c0 -124 42 -187 126 -187c110 0 149 97 149 210
v279h50z" />
    <glyph glyph-name="upsilonlatin" unicode="&#x28a;" horiz-adv-x="585" 
d="M533 478h-100v-3c59 -45 87 -129 87 -222c0 -160 -85 -264 -228 -264s-228 104 -228 264c0 93 29 177 88 222v3h-101v47h168v-47c-57 -28 -101 -110 -101 -226c0 -130 66 -216 174 -216c109 0 174 86 174 216c0 116 -43 198 -100 226v47h167v-47z" />
    <glyph glyph-name="uring" unicode="&#x16f;" horiz-adv-x="505" 
d="M252 581c-69 0 -109 41 -109 109c0 69 40 110 109 110s109 -41 109 -110c0 -68 -40 -109 -109 -109zM252 617c45 0 72 27 72 73c0 47 -27 74 -72 74c-46 0 -73 -27 -73 -74c0 -46 27 -73 73 -73zM440 0h-50v87h-3c-24 -46 -59 -98 -146 -98c-105 0 -176 58 -176 244v292
h50v-302c0 -124 42 -187 126 -187c110 0 149 97 149 210v279h50v-525z" />
    <glyph glyph-name="utilde" unicode="&#x169;" horiz-adv-x="505" 
d="M368 692h28c0 -58 -35 -92 -77 -92c-54 0 -64 52 -106 52c-30 0 -49 -25 -53 -49h-30c0 58 41 91 83 91c54 0 64 -52 106 -52c29 0 44 26 49 50zM440 0h-50v87h-3c-24 -46 -59 -98 -146 -98c-105 0 -176 58 -176 244v292h50v-302c0 -124 42 -187 126 -187
c110 0 149 97 149 210v279h50v-525z" />
    <glyph glyph-name="v" unicode="v" horiz-adv-x="463" 
d="M262 0h-64l-184 525h55l163 -467h3l161 467h54z" />
    <glyph glyph-name="vhook" unicode="&#x28b;" horiz-adv-x="517" 
d="M334 537c78 0 132 -97 132 -235c0 -96 -46 -313 -266 -313c-88 0 -135 43 -135 126v410h50v-399c0 -64 23 -91 85 -91c178 0 213 183 213 275c0 89 -26 165 -72 179c-24 8 -50 2 -78 -18v47c23 15 43 19 71 19z" />
    <glyph glyph-name="vturned" unicode="&#x28c;" horiz-adv-x="463" 
d="M450 0h-54l-161 467h-3l-163 -467h-55l184 525h64z" />
    <glyph glyph-name="w" unicode="w" horiz-adv-x="660" 
d="M508 0h-57l-119 456h-2l-119 -456h-58l-139 525h59l109 -444h2l118 444h57l119 -444h2l111 444h56z" />
    <glyph glyph-name="wacute" unicode="&#x1e83;" horiz-adv-x="660" 
d="M292 599h37l120 146h-73zM508 0h-57l-119 456h-2l-119 -456h-58l-139 525h59l109 -444h2l118 444h57l119 -444h2l111 444h56z" />
    <glyph glyph-name="wcircumflex" unicode="&#x175;" horiz-adv-x="660" 
d="M464 596h-41l-92 99h-2l-91 -99h-42l90 132h88zM508 0h-57l-119 456h-2l-119 -456h-58l-139 525h59l109 -444h2l118 444h57l119 -444h2l111 444h56z" />
    <glyph glyph-name="wdieresis" unicode="&#x1e85;" horiz-adv-x="660" 
d="M267 593h-56v87h56v-87zM442 593h-56v87h56v-87zM508 0h-57l-119 456h-2l-119 -456h-58l-139 525h59l109 -444h2l118 444h57l119 -444h2l111 444h56z" />
    <glyph glyph-name="wgrave" unicode="&#x1e81;" horiz-adv-x="660" 
d="M222 745l120 -146h37l-84 146h-73zM508 0h-57l-119 456h-2l-119 -456h-58l-139 525h59l109 -444h2l118 444h57l119 -444h2l111 444h56z" />
    <glyph glyph-name="uni2C73" unicode="&#x2c73;" horiz-adv-x="798" 
d="M656 528c34 14 73 13 129 -16v-47c-42 31 -81 34 -110 19c-34 -18 -54 -60 -72 -121l-95 -363h-57l-119 456h-2l-119 -456h-58l-139 525h59l109 -444h2l118 444h57l119 -444h2l58 237c42 176 77 192 118 210z" />
    <glyph glyph-name="x" unicode="x" horiz-adv-x="451" 
d="M253 282v-2l184 -280h-63l-149 236h-2l-151 -236h-58l178 279v3l-160 243h62l129 -200h2l126 200h58z" />
    <glyph glyph-name="y" unicode="y" horiz-adv-x="456" 
d="M443 525l-192 -525c-51 -140 -125 -218 -241 -218l15 41c55 4 90 38 113 68c38 49 56 107 48 131l-170 503h56l150 -444h3l166 444h52z" />
    <glyph glyph-name="yacute" unicode="&#xfd;" horiz-adv-x="456" 
d="M167 599h37l120 146h-73zM443 525l-192 -525c-51 -140 -125 -218 -241 -218l15 41c55 4 90 38 113 68c38 49 56 107 48 131l-170 503h56l150 -444h3l166 444h52z" />
    <glyph glyph-name="ycircumflex" unicode="&#x177;" horiz-adv-x="456" 
d="M352 596h-41l-92 99h-2l-91 -99h-42l90 132h88zM443 525l-192 -525c-51 -140 -125 -218 -241 -218l15 41c55 4 90 38 113 68c38 49 56 107 48 131l-170 503h56l150 -444h3l166 444h52z" />
    <glyph glyph-name="ydieresis" unicode="&#xff;" horiz-adv-x="456" 
d="M161 593h-56v87h56v-87zM336 593h-56v87h56v-87zM443 525l-192 -525c-51 -140 -125 -218 -241 -218l15 41c55 4 90 38 113 68c38 49 56 107 48 131l-170 503h56l150 -444h3l166 444h52z" />
    <glyph glyph-name="ydotbelow" unicode="&#x1ef5;" horiz-adv-x="445" 
d="M432 525l-192 -525c-51 -140 -126 -218 -241 -218l14 41c56 4 91 38 114 68c38 49 56 107 48 131l-170 503h56l150 -444h3l166 444h52zM368 -147h-56v87h56v-87z" />
    <glyph glyph-name="ygrave" unicode="&#x1ef3;" horiz-adv-x="456" 
d="M144 745l120 -146h37l-84 146h-73zM443 525l-192 -525c-51 -140 -125 -218 -241 -218l15 41c55 4 90 38 113 68c38 49 56 107 48 131l-170 503h56l150 -444h3l166 444h52z" />
    <glyph glyph-name="yhook" unicode="&#x1b4;" horiz-adv-x="631" 
d="M487 690c34 14 73 12 129 -16v-47c-41 31 -81 33 -110 18c-33 -17 -54 -63 -74 -120l-192 -525c-53 -145 -112 -218 -241 -218l14 41c56 4 91 38 114 68c38 49 56 107 48 131l-170 503h56l150 -444h3l166 444c37 97 66 147 107 165z" />
    <glyph glyph-name="yhookabove" unicode="&#x1ef7;" horiz-adv-x="456" 
d="M255 683c0 -21 -21 -40 -63 -42l7 -48h39l-5 27c41 9 63 35 63 68c0 36 -28 61 -73 61c-48 0 -78 -23 -78 -72h39c0 21 12 35 35 35c22 0 36 -9 36 -29zM443 525l-192 -525c-51 -140 -125 -218 -241 -218l15 41c55 4 90 38 113 68c38 49 56 107 48 131l-170 503h56
l150 -444h3l166 444h52z" />
    <glyph glyph-name="ytilde" unicode="&#x1ef9;" horiz-adv-x="456" 
d="M323 703h28c0 -58 -35 -92 -77 -92c-54 0 -64 52 -106 52c-30 0 -49 -25 -53 -49h-30c0 58 41 91 83 91c54 0 64 -52 106 -52c29 0 44 26 49 50zM443 525l-192 -525c-51 -140 -125 -218 -241 -218l15 41c55 4 90 38 113 68c38 49 56 107 48 131l-170 503h56l150 -444h3
l166 444h52z" />
    <glyph glyph-name="z" unicode="z" horiz-adv-x="470" 
d="M422 483l-312 -433v-3h312v-47h-378v46l312 429v3h-296v47h362v-42z" />
    <glyph glyph-name="zacute" unicode="&#x17a;" horiz-adv-x="470" 
d="M155 599h37l120 146h-73zM422 483l-312 -433v-3h312v-47h-378v46l312 429v3h-296v47h362v-42z" />
    <glyph glyph-name="zcaron" unicode="&#x17e;" horiz-adv-x="470" 
d="M277 596h-88l-90 132h42l91 -99h3l92 99h40zM422 483l-312 -433v-3h312v-47h-378v46l312 429v3h-296v47h362v-42z" />
    <glyph glyph-name="zdotaccent" unicode="&#x17c;" horiz-adv-x="470" 
d="M261 593h-56v87h56v-87zM422 483l-312 -433v-3h312v-47h-378v46l312 429v3h-296v47h362v-42z" />
    <glyph glyph-name="zdotbelow" unicode="&#x1e93;" horiz-adv-x="470" 
d="M422 483l-312 -433v-3h312v-47h-378v46l312 429v3h-296v47h362v-42zM261 -147h-56v87h56v-87z" />
    <glyph glyph-name="x.denom" horiz-adv-x="418" 
d="M232 228v-3l148 -224h-52l-119 189h-2l-121 -189h-48l144 224v2l-129 197h50l104 -162h2l101 162h48z" />
    <glyph glyph-name="y.denom" horiz-adv-x="406" 
d="M368 424l-146 -397c-40 -110 -87 -164 -184 -164l10 35c43 4 69 25 85 47c30 38 41 81 35 99l-129 380h47l111 -331h3l121 331h47z" />
    <glyph glyph-name="x.inferior" horiz-adv-x="413" 
d="M229 65v-3l149 -224h-52l-120 190h-2l-121 -190h-48l144 224v3l-129 196h50l104 -162h2l102 162h47z" />
    <glyph glyph-name="y.inferior" horiz-adv-x="401" 
d="M366 261l-146 -397c-41 -110 -88 -164 -185 -164l11 35c42 4 68 25 85 47c29 38 40 81 34 99l-129 380h48l111 -331h2l122 331h47z" />
    <glyph glyph-name="x.num" horiz-adv-x="416" 
d="M229 549v-3l149 -224h-52l-120 189h-2l-121 -189h-48l144 224v2l-129 197h50l104 -162h2l102 162h47z" />
    <glyph glyph-name="y.num" horiz-adv-x="403" 
d="M366 745l-146 -397c-41 -110 -88 -164 -185 -164l11 35c42 4 68 25 85 47c29 38 40 81 34 99l-129 380h48l111 -331h2l122 331h47z" />
    <glyph glyph-name="x.superior" horiz-adv-x="412" 
d="M229 631v-3l149 -224h-52l-120 190h-2l-121 -190h-48l144 224v3l-129 196h50l104 -162h2l102 162h47z" />
    <glyph glyph-name="y.superior" horiz-adv-x="401" 
d="M366 827l-146 -397c-41 -110 -88 -164 -185 -164l11 35c42 4 68 24 85 47c29 37 40 80 34 98l-129 381h48l111 -331h2l122 331h47z" />
    <glyph glyph-name="A.sc" horiz-adv-x="476" 
d="M463 0h-53l-67 181h-208l-66 -181h-55l194 525h63zM237 476l-89 -252h183l-92 252h-2z" />
    <glyph glyph-name="B.sc" horiz-adv-x="504" 
d="M85 525h165c58 0 181 -1 181 -140c0 -63 -30 -94 -66 -111v-3c48 -12 92 -52 92 -124c0 -124 -94 -147 -187 -147h-185v525zM135 477v-184h126c71 0 116 20 116 92c0 73 -45 92 -116 92h-126zM135 248v-200h130c63 0 137 7 137 99c0 95 -77 101 -140 101h-127z" />
    <glyph glyph-name="C.sc" horiz-adv-x="516" 
d="M274 537c135 0 192 -109 195 -188h-51c-1 86 -75 141 -144 141c-105 0 -173 -91 -174 -223c-1 -127 70 -231 174 -231c61 0 125 31 154 90l44 -25c-44 -83 -124 -112 -198 -112c-149 0 -228 147 -228 278c0 136 75 270 228 270z" />
    <glyph glyph-name="D.sc" horiz-adv-x="495" 
d="M56 526h134c77 0 131 -15 174 -45c59 -40 89 -110 89 -211c0 -104 -24 -180 -86 -224c-41 -31 -99 -46 -177 -46h-134v526zM106 478v-431h95c52 0 94 11 125 35c49 33 73 95 73 188c0 80 -23 137 -64 170c-33 27 -78 38 -134 38h-95z" />
    <glyph glyph-name="E.sc" horiz-adv-x="422" 
d="M374 479h-239v-181h224v-43h-224v-206h243v-49h-293v525h289v-46z" />
    <glyph glyph-name="F.sc" horiz-adv-x="416" 
d="M372 479h-237v-173h223v-44h-223v-262h-50v525h287v-46z" />
    <glyph glyph-name="G.sc" horiz-adv-x="541" 
d="M271 537c137 0 192 -120 192 -185h-53c-3 78 -69 139 -139 139c-94 0 -171 -98 -172 -224c0 -126 71 -232 178 -232c68 0 104 21 134 46v132h-151l27 43h174v-195c-66 -60 -129 -72 -183 -72c-153 0 -232 145 -232 278c0 135 82 270 225 270z" />
    <glyph glyph-name="H.sc" horiz-adv-x="508" 
d="M427 0h-50v246h-242v-246h-50v525h50v-236h242v236h50v-525z" />
    <glyph glyph-name="I.sc" horiz-adv-x="217" 
d="M135 525v-525h-50v525h50z" />
    <glyph glyph-name="J.sc" horiz-adv-x="426" 
d="M345 525v-343c0 -92 -21 -193 -169 -193c-111 0 -152 60 -162 126l44 20c8 -64 42 -99 118 -99c106 0 119 71 119 134v355h50z" />
    <glyph glyph-name="K.sc" horiz-adv-x="445" 
d="M245 304v-3l186 -301h-53l-168 267h-1l-74 -93v-174h-50v525h50v-281h2l217 281h57z" />
    <glyph glyph-name="L.sc" horiz-adv-x="406" 
d="M135 45h258v-46h-308v526h50v-480z" />
    <glyph glyph-name="M.sc" horiz-adv-x="586" 
d="M505 0h-39v485h-2l-142 -485h-62l-141 485h-2v-485h-39v525h71l141 -485h3l142 485h70v-525z" />
    <glyph glyph-name="N.sc" horiz-adv-x="509" 
d="M427 0h-84l-213 474h-2v-474h-50v525h84l212 -474h3v474h50v-525z" />
    <glyph glyph-name="O.sc" horiz-adv-x="544" 
d="M274 537c149 -1 224 -130 224 -270c0 -135 -75 -278 -224 -278s-228 143 -228 278c0 140 79 271 228 270zM274 490c-101 0 -173 -91 -174 -223c-1 -131 74 -231 174 -231s170 100 170 231c0 130 -67 223 -170 223z" />
    <glyph glyph-name="P.sc" horiz-adv-x="482" 
d="M85 525h152c86 0 199 -17 199 -162c0 -146 -112 -164 -199 -164h-102v-199h-50v525zM135 478v-232h108c76 0 143 20 143 117c0 96 -68 115 -143 115h-108z" />
    <glyph glyph-name="Q.sc" horiz-adv-x="550" 
d="M274 537c149 -1 224 -130 224 -270c0 -80 -30 -162 -83 -216v-3c28 1 60 0 105 -5l16 -43c-142 15 -201 -12 -262 -11c-149 0 -228 143 -228 278c0 140 79 271 228 270zM274 490c-101 0 -173 -91 -174 -223c-1 -131 74 -231 174 -231s170 100 170 231
c0 130 -67 223 -170 223z" />
    <glyph glyph-name="R.sc" horiz-adv-x="487" 
d="M85 525h165c85 0 201 -14 201 -146c0 -77 -43 -111 -82 -128v-1c31 -9 56 -33 64 -58c14 -46 6 -80 12 -122c4 -27 9 -51 28 -70h-60c-5 6 -8 14 -12 25c-11 50 3 136 -34 179c-18 18 -44 31 -101 31h-131v-235h-50v525zM135 477v-195h128c74 0 134 15 134 97
c0 80 -59 98 -134 98h-128z" />
    <glyph glyph-name="S.sc" horiz-adv-x="448" 
d="M217 537c108 0 175 -64 175 -136h-50c0 48 -36 88 -115 89c-72 0 -118 -29 -118 -89c0 -135 299 -49 299 -258c0 -63 -51 -154 -185 -154c-100 0 -161 56 -181 111l42 26c16 -44 59 -90 139 -90c92 0 133 49 133 107c0 164 -298 64 -298 258c0 105 104 136 159 136z" />
    <glyph glyph-name="T.sc" horiz-adv-x="374" 
d="M361 477h-149v-477h-50v477h-148v47h347v-47z" />
    <glyph glyph-name="U.sc" horiz-adv-x="519" 
d="M438 525v-342c0 -97 -29 -194 -179 -194c-149 0 -178 97 -178 194v342h50v-338c0 -87 32 -151 128 -151c93 0 129 59 129 151v338h50z" />
    <glyph glyph-name="V.sc" horiz-adv-x="461" 
d="M260 0h-62l-184 525h54l163 -467h3l162 467h52z" />
    <glyph glyph-name="W.sc" horiz-adv-x="633" 
d="M496 0h-81l-96 470h-2l-93 -470h-79l-131 525h55l115 -472h2l95 472h72l102 -472h3l108 472h53z" />
    <glyph glyph-name="X.sc" horiz-adv-x="468" 
d="M261 282v-2l193 -280h-63l-157 236h-3l-159 -236h-58l186 279v3l-168 243h62l137 -200h3l134 200h58z" />
    <glyph glyph-name="Y.sc" horiz-adv-x="437" 
d="M247 224v-224h-50v224l-183 301h55l152 -257h2l147 257h54z" />
    <glyph glyph-name="Z.sc" horiz-adv-x="443" 
d="M419 483l-329 -433v-3h327v-47h-393v46l329 429v3h-310v47h376v-42z" />
    <glyph glyph-name="ordfeminine" unicode="&#xaa;" horiz-adv-x="353" 
d="M159 700c83 0 112 -31 112 -119v-121c0 -41 11 -56 33 -56l14 -23c-41 -3 -66 13 -76 47h-2c-1 -8 -22 -53 -97 -53c-58 0 -108 30 -108 92c0 127 204 97 204 120c0 33 -8 56 -23 69c-14 11 -33 15 -56 15c-36 0 -81 -21 -81 -75h-31c0 34 22 104 111 104zM240 503v49
c-28 -3 -76 -8 -115 -21c-34 -11 -58 -30 -58 -60c0 -40 30 -68 74 -68c66 0 99 36 99 100z" />
    <glyph glyph-name="ordmasculine" unicode="&#xba;" horiz-adv-x="320" 
d="M161 701c88 -1 126 -79 126 -159c0 -78 -38 -165 -126 -165c-87 0 -128 87 -128 165c0 80 41 159 128 159zM161 672c-61 0 -96 -53 -96 -130c0 -74 35 -136 96 -136s94 62 94 136c0 76 -32 130 -94 130z" />
    <glyph glyph-name="Delta" unicode="&#x394;" horiz-adv-x="756" 
d="M700 55v-55h-643v55l291 645h59zM376 642l-255 -587v-3h515v3l-257 587h-3z" />
    <glyph glyph-name="Omega" unicode="&#x3a9;" horiz-adv-x="774" 
d="M485 0v50c90 47 138 161 138 313c0 189 -88 300 -236 300s-237 -111 -237 -300c0 -152 48 -266 139 -313v-50h-221v50h141v3c-60 51 -113 158 -113 308c0 220 108 350 291 350s291 -130 291 -350c0 -151 -52 -258 -112 -308v-3h140v-50h-221z" />
    <glyph glyph-name="alpha" unicode="&#x3b1;" horiz-adv-x="533" 
d="M253 537c74 0 118 -40 145 -87h2v75h50v-392c0 -69 21 -95 57 -95l23 -38c-81 -7 -118 29 -130 74h-2c-28 -45 -70 -85 -145 -85c-146 0 -202 135 -202 269c0 132 58 279 202 279zM253 489c-105 0 -148 -103 -148 -231c0 -134 45 -222 148 -222c139 0 146 108 147 256
c-1 72 -15 197 -147 197z" />
    <glyph glyph-name="beta" unicode="&#x3b2;" horiz-adv-x="519" 
d="M259 710c134 0 192 -72 192 -188c0 -69 -45 -126 -97 -138v-3c85 -29 108 -114 108 -188c0 -125 -77 -204 -196 -204c-55 0 -98 15 -129 40h-3v-249h-50v777c0 60 42 153 175 153zM259 663c-67 0 -125 -49 -125 -106v-456c24 -36 67 -66 133 -65c79 0 141 53 141 165
c0 105 -49 168 -184 165v46c82 0 173 4 173 113c0 67 -33 138 -138 138z" />
    <glyph glyph-name="mu" unicode="&#x3bc;" 
d="M455 0h-50v87h-3c-24 -46 -59 -98 -146 -98c-52 0 -94 15 -123 57h-3v-266h-50v745h50v-313c3 -118 45 -176 126 -176c110 0 149 97 149 210v279h50v-525z" />
    <glyph glyph-name="pi" unicode="&#x3c0;" horiz-adv-x="591" 
d="M531 38l23 -38c-92 -13 -130 43 -130 131v353c-46 2 -92 3 -136 3c-48 0 -95 -1 -143 -3v-484h-50v483l-58 -3v45c88 5 171 7 251 7c81 0 159 -3 244 -7v-45l-58 3v-350c0 -69 21 -95 57 -95z" />
    <glyph glyph-name="phi" unicode="&#x3c6;" horiz-adv-x="637" 
d="M591 263c0 -119 -92 -192 -248 -198v-194h-50v194c-156 7 -247 79 -247 198c0 118 91 190 247 197v194h50v-194c156 -6 248 -79 248 -197zM343 413v-301c122 6 194 62 194 151s-72 144 -194 150zM100 263c0 -89 71 -144 193 -151v301c-122 -6 -193 -61 -193 -150z" />
    <glyph glyph-name="zero" unicode="0" horiz-adv-x="533" 
d="M267 687c189 0 215 -171 215 -343c0 -168 -26 -356 -215 -356c-190 0 -216 188 -216 356c0 172 26 344 216 343zM267 637c-126 0 -160 -107 -161 -293c-1 -165 27 -306 161 -306s160 141 160 306c0 184 -33 293 -160 293z" />
    <glyph glyph-name="one" unicode="1" horiz-adv-x="278" 
d="M202 0h-50l3 579h-3c-33 -43 -91 -62 -138 -62v40c73 4 136 68 142 121h46v-678z" />
    <glyph glyph-name="two" unicode="2" horiz-adv-x="494" 
d="M262 687c116 0 178 -82 178 -196c0 -125 -83 -170 -168 -229c-25 -18 -56 -41 -84 -70c-13 -13 -26 -29 -37 -46c-25 -35 -42 -70 -42 -101l330 2v-47h-388c7 76 25 125 58 169c16 24 34 44 52 63c28 28 53 50 82 71c61 44 144 87 144 189c0 89 -41 146 -130 146
c-72 0 -127 -66 -134 -153h-52c1 63 53 202 191 202z" />
    <glyph glyph-name="three" unicode="3" horiz-adv-x="486" 
d="M241 687c130 0 186 -70 186 -183c0 -66 -42 -121 -92 -133v-3c81 -28 103 -110 103 -182c0 -121 -75 -197 -190 -197c-112 0 -173 56 -197 140l43 22c14 -53 56 -114 155 -113c77 0 136 48 136 156c0 102 -45 162 -177 159v46c78 0 166 3 166 109c0 65 -31 130 -133 130
c-33 0 -65 -11 -86 -30c-20 -16 -32 -41 -32 -69h-51c4 58 40 148 169 148z" />
    <glyph glyph-name="four" unicode="4" horiz-adv-x="460" 
d="M353 237h93v-47h-93v-190h-50v190h-289v47l289 441h50v-441zM300 598l-235 -358v-3h238v361h-3z" />
    <glyph glyph-name="five" unicode="5" horiz-adv-x="532" 
d="M423 629h-275l-13 -249h3c10 28 56 82 134 82c133 0 193 -107 193 -230c0 -131 -58 -244 -204 -244c-101 0 -163 49 -190 140l42 22c19 -62 65 -113 149 -113c127 0 150 114 150 197c0 113 -54 178 -140 178c-65 0 -123 -52 -137 -119h-54l17 385h325v-49z" />
    <glyph glyph-name="six" unicode="6" horiz-adv-x="521" 
d="M265 687c108 0 163 -70 169 -151h-50c-10 63 -47 102 -126 102c-73 0 -116 -44 -135 -109c-16 -52 -16 -111 -16 -171h3c12 40 59 102 153 102c74 0 132 -35 162 -95c19 -35 29 -81 29 -133c0 -133 -64 -243 -190 -243c-73 0 -124 28 -155 70c-53 71 -58 185 -58 256
c0 79 5 161 21 222c22 89 84 150 193 150zM258 411c-96 -2 -149 -78 -148 -183c0 -51 11 -99 35 -133c24 -36 65 -57 113 -57c93 0 142 79 142 192c0 108 -59 182 -142 181z" />
    <glyph glyph-name="seven" unicode="7" horiz-adv-x="429" 
d="M416 678v-42c-37 -55 -209 -412 -209 -636h-53c0 215 168 575 206 625v3h-346v50h402z" />
    <glyph glyph-name="eight" unicode="8" horiz-adv-x="528" 
d="M257 687c105 0 168 -80 168 -168c0 -77 -47 -125 -91 -148v-3c70 -26 121 -91 121 -176c0 -135 -89 -203 -198 -203c-107 0 -198 68 -198 203c0 87 51 150 121 176v3c-44 23 -93 71 -93 148c0 88 66 168 170 168zM257 638c-71 0 -119 -54 -119 -119
c0 -68 49 -127 119 -127c72 0 116 60 116 127c0 65 -43 119 -116 119zM257 342c-81 0 -146 -69 -146 -147c0 -89 53 -157 146 -157c94 0 146 68 146 157c0 75 -55 147 -146 147z" />
    <glyph glyph-name="nine" unicode="9" horiz-adv-x="543" 
d="M273 687c74 0 125 -28 156 -70c53 -71 58 -185 58 -256c0 -79 -4 -161 -21 -222c-24 -92 -87 -150 -195 -150c-105 0 -171 62 -191 140l42 22c20 -72 75 -113 156 -113c72 0 118 44 137 109c16 52 18 108 18 168h-3c-13 -40 -61 -99 -156 -99c-73 0 -131 35 -161 95
c-19 35 -29 81 -29 133c0 133 63 243 189 243zM279 638c-92 0 -141 -79 -141 -192c0 -108 58 -181 142 -181c95 2 149 78 148 183c0 51 -11 99 -35 133c-24 36 -65 57 -114 57z" />
    <glyph glyph-name="zero.zero" horiz-adv-x="533" 
d="M267 687c189 0 215 -171 215 -343c0 -168 -26 -356 -215 -356c-190 0 -216 188 -216 356c0 172 26 344 216 343zM106 344c-1 -114 12 -216 64 -269l174 543c-21 13 -46 19 -77 19c-126 0 -160 -107 -161 -293zM267 38c134 0 160 141 160 306c0 121 -14 209 -60 256
l-173 -543c20 -12 44 -19 73 -19z" />
    <glyph glyph-name="fraction" unicode="&#x2044;" horiz-adv-x="254" 
d="M-97 -18h-53l508 763h53z" />
    <glyph glyph-name="onefraction" unicode="&#x215f;" horiz-adv-x="497" 
d="M187 322h-40l2 352h-3c-19 -25 -55 -38 -86 -38v34c47 2 86 42 90 75h37v-423zM146 -18h-53l508 763h53z" />
    <glyph glyph-name="onehalf" unicode="&#xbd;" horiz-adv-x="830" 
d="M187 322h-40l2 352h-3c-19 -25 -55 -38 -86 -38v34c47 2 86 42 90 75h37v-423zM146 -18h-53l508 763h53zM654 428c69 0 114 -40 114 -122c0 -70 -42 -109 -87 -143c-53 -38 -111 -67 -111 -124l193 1v-40h-241c0 113 70 152 128 192c41 28 77 58 77 115
c0 54 -22 81 -75 81c-48 0 -76 -30 -80 -86h-42c0 61 41 126 124 126z" />
    <glyph glyph-name="zerothird" unicode="&#x2189;" horiz-adv-x="940" 
d="M193 750c117 0 134 -106 134 -212c0 -103 -17 -220 -134 -220s-133 117 -133 220c0 106 16 213 133 212zM252 -18h-53l508 763h53zM193 711c-68 0 -90 -62 -91 -173c-1 -97 17 -181 91 -181c75 0 92 84 92 181c0 109 -23 173 -92 173zM752 422c80 0 119 -44 119 -113
c0 -43 -21 -77 -50 -86v-3c52 -12 59 -66 59 -108c0 -76 -43 -123 -125 -123c-65 0 -111 33 -127 87l34 17c12 -41 47 -65 94 -65c51 0 82 30 82 90c0 52 -19 87 -107 87v36c48 0 99 7 99 70c0 38 -20 71 -78 71c-42 0 -70 -23 -70 -55h-41c0 53 45 95 111 95z" />
    <glyph glyph-name="uni2153" unicode="&#x2153;" horiz-adv-x="834" 
d="M187 322h-40l2 352h-3c-19 -25 -55 -38 -86 -38v34c47 2 86 42 90 75h37v-423zM146 -18h-53l508 763h53zM646 422c80 0 119 -44 119 -113c0 -43 -21 -77 -50 -86v-3c52 -12 59 -66 59 -108c0 -76 -43 -123 -125 -123c-65 0 -111 33 -127 87l34 17c12 -41 47 -65 94 -65
c51 0 82 30 82 90c0 52 -19 87 -107 87v36c48 0 99 7 99 70c0 38 -20 71 -78 71c-42 0 -70 -23 -70 -55h-41c0 53 45 95 111 95z" />
    <glyph glyph-name="uni2154" unicode="&#x2154;" horiz-adv-x="937" 
d="M184 750c70 0 115 -40 115 -122c0 -70 -42 -109 -87 -143c-53 -38 -111 -67 -111 -124l193 1v-40h-241c0 113 70 152 128 192c41 28 77 58 77 115c0 54 -22 81 -76 81c-48 0 -76 -30 -79 -86h-43c0 61 41 126 124 126zM250 -18h-53l508 763h53zM749 422
c80 0 119 -44 119 -113c0 -43 -21 -77 -50 -86v-3c52 -12 59 -66 59 -108c0 -76 -43 -123 -125 -123c-65 0 -111 33 -127 87l34 17c12 -41 47 -65 94 -65c51 0 82 30 82 90c0 52 -19 87 -107 87v36c48 0 99 7 99 70c0 38 -20 71 -78 71c-42 0 -70 -23 -70 -55h-41
c0 53 45 95 111 95z" />
    <glyph glyph-name="onequarter" unicode="&#xbc;" horiz-adv-x="787" 
d="M187 322h-40l2 352h-3c-19 -25 -55 -38 -86 -38v34c47 2 86 42 90 75h37v-423zM146 -18h-53l508 763h53zM663 155h64v-35h-64v-120h-40v120h-181v35l181 269h40v-269zM620 354l-137 -197v-2h140v199h-3z" />
    <glyph glyph-name="threequarters" unicode="&#xbe;" horiz-adv-x="890" 
d="M183 750c81 0 120 -43 120 -113c0 -43 -21 -77 -50 -86v-3c51 -12 59 -66 59 -108c0 -76 -43 -123 -125 -123c-65 0 -111 33 -127 87l34 17c12 -41 47 -64 94 -64c50 0 82 29 82 90c0 52 -19 86 -107 86v36c48 0 98 7 98 70c0 39 -19 72 -78 72c-41 0 -69 -24 -69 -56
h-41c0 53 45 95 110 95zM250 -18h-53l508 763h53zM766 155h64v-35h-64v-120h-40v120h-181v35l181 269h40v-269zM723 354l-137 -197v-2h140v199h-3z" />
    <glyph glyph-name="uni2155" unicode="&#x2155;" horiz-adv-x="863" 
d="M187 322h-40l2 352h-3c-19 -25 -55 -38 -86 -38v34c47 2 86 42 90 75h37v-423zM146 -18h-53l508 763h53zM772 378h-170l-8 -146h2c6 17 34 55 83 55c87 0 124 -61 124 -147c0 -81 -41 -151 -131 -151c-62 0 -101 30 -118 86l36 18c7 -38 31 -65 83 -65c76 0 88 61 88 114
c0 68 -30 105 -82 105c-40 0 -76 -29 -85 -69h-39l11 239h206v-39z" />
    <glyph glyph-name="uni2156" unicode="&#x2156;" horiz-adv-x="967" 
d="M184 750c70 0 115 -40 115 -122c0 -70 -42 -109 -87 -143c-53 -38 -111 -67 -111 -124l193 1v-40h-241c0 113 70 152 128 192c41 28 77 58 77 115c0 54 -22 81 -76 81c-48 0 -76 -30 -79 -86h-43c0 61 41 126 124 126zM250 -18h-53l508 763h53zM875 378h-170l-8 -146h2
c6 17 34 55 83 55c87 0 124 -61 124 -147c0 -81 -41 -151 -131 -151c-62 0 -101 30 -118 86l36 18c7 -38 31 -65 83 -65c76 0 88 61 88 114c0 68 -30 105 -82 105c-40 0 -76 -29 -85 -69h-39l11 239h206v-39z" />
    <glyph glyph-name="uni2157" unicode="&#x2157;" horiz-adv-x="966" 
d="M183 750c81 0 120 -43 120 -113c0 -43 -21 -77 -50 -86v-3c51 -12 59 -66 59 -108c0 -76 -43 -123 -125 -123c-65 0 -111 33 -127 87l34 17c12 -41 47 -64 94 -64c50 0 82 29 82 90c0 52 -19 86 -107 86v36c48 0 98 7 98 70c0 39 -19 72 -78 72c-41 0 -69 -24 -69 -56
h-41c0 53 45 95 110 95zM250 -18h-53l508 763h53zM875 378h-170l-8 -146h2c6 17 34 55 83 55c87 0 124 -61 124 -147c0 -81 -41 -151 -131 -151c-62 0 -101 30 -118 86l36 18c7 -38 31 -65 83 -65c76 0 88 61 88 114c0 68 -30 105 -82 105c-40 0 -76 -29 -85 -69h-39l11 239
h206v-39z" />
    <glyph glyph-name="uni2158" unicode="&#x2158;" horiz-adv-x="982" 
d="M281 476h64v-35h-64v-119h-40v119h-181v35l181 269h40v-269zM266 -18h-53l508 763h53zM238 675l-137 -197v-2h140v199h-3zM891 378h-170l-8 -146h2c6 17 34 55 83 55c87 0 124 -61 124 -147c0 -81 -41 -151 -131 -151c-62 0 -101 30 -118 86l36 18c7 -38 31 -65 83 -65
c76 0 88 61 88 114c0 68 -30 105 -82 105c-40 0 -76 -29 -85 -69h-39l11 239h206v-39z" />
    <glyph glyph-name="uni2159" unicode="&#x2159;" horiz-adv-x="824" 
d="M187 322h-40l2 352h-3c-19 -25 -55 -38 -86 -38v34c47 2 86 42 90 75h37v-423zM146 -18h-53l508 763h53zM665 421c67 0 106 -43 110 -94h-43c-4 34 -28 55 -72 55c-62 0 -94 -59 -95 -154h2c7 24 36 52 95 52c86 0 124 -69 124 -141c0 -83 -45 -150 -124 -150
c-94 0 -129 57 -137 145c-3 21 -3 41 -3 57c0 117 21 230 143 230zM658 241c-57 0 -91 -40 -91 -104c1 -67 30 -109 91 -109c54 0 86 40 86 110c0 63 -31 103 -86 103z" />
    <glyph glyph-name="uni215A" unicode="&#x215a;" horiz-adv-x="908" 
d="M279 707h-170l-9 -147h3c5 17 34 55 82 55c88 0 125 -60 125 -147c0 -81 -41 -151 -131 -151c-63 0 -102 31 -118 87l35 18c8 -39 32 -66 83 -66c77 0 89 61 89 114c0 68 -30 105 -83 105c-39 0 -76 -29 -84 -69h-39l10 239h207v-38zM230 -18h-53l508 763h53zM749 421
c67 0 106 -43 110 -94h-43c-4 34 -28 55 -72 55c-62 0 -94 -59 -95 -154h2c7 24 36 52 95 52c86 0 124 -69 124 -141c0 -83 -45 -150 -124 -150c-94 0 -129 57 -137 145c-3 21 -3 41 -3 57c0 117 21 230 143 230zM742 241c-57 0 -91 -40 -91 -104c1 -67 30 -109 91 -109
c54 0 86 40 86 110c0 63 -31 103 -86 103z" />
    <glyph glyph-name="uni2150" unicode="&#x2150;" horiz-adv-x="893" 
d="M187 322h-40l2 352h-3c-19 -25 -55 -38 -86 -38v34c47 2 86 42 90 75h37v-423zM146 -18h-53l508 763h53zM833 423v-32c-22 -31 -131 -242 -131 -391h-41c0 141 99 346 125 381v3h-210v39h257z" />
    <glyph glyph-name="oneeighth" unicode="&#x215b;" horiz-adv-x="829" 
d="M187 322h-40l2 352h-3c-19 -25 -55 -38 -86 -38v34c47 2 86 42 90 75h37v-423zM146 -18h-53l508 763h53zM646 422c68 0 105 -48 105 -105c0 -45 -20 -76 -50 -92v-1c44 -17 68 -59 68 -111c0 -79 -46 -124 -123 -124c-78 0 -124 45 -124 124c0 52 24 94 68 111v1
c-30 16 -50 47 -50 92c0 57 37 105 106 105zM646 383c-40 0 -63 -26 -63 -69c0 -42 24 -69 63 -69c38 0 62 27 62 69c0 43 -23 69 -62 69zM646 202c-51 0 -83 -34 -83 -88c0 -51 29 -86 83 -86c53 0 82 35 82 86c0 54 -32 88 -82 88z" />
    <glyph glyph-name="threeeighths" unicode="&#x215c;" horiz-adv-x="932" 
d="M183 750c81 0 120 -43 120 -113c0 -43 -21 -77 -50 -86v-3c51 -12 59 -66 59 -108c0 -76 -43 -123 -125 -123c-65 0 -111 33 -127 87l34 17c12 -41 47 -64 94 -64c50 0 82 29 82 90c0 52 -19 86 -107 86v36c48 0 98 7 98 70c0 39 -19 72 -78 72c-41 0 -69 -24 -69 -56
h-41c0 53 45 95 110 95zM250 -18h-53l508 763h53zM749 422c68 0 105 -48 105 -105c0 -45 -20 -76 -50 -92v-1c44 -17 68 -59 68 -111c0 -79 -46 -124 -123 -124c-78 0 -124 45 -124 124c0 52 24 94 68 111v1c-30 16 -50 47 -50 92c0 57 37 105 106 105zM749 383
c-40 0 -63 -26 -63 -69c0 -42 24 -69 63 -69c38 0 62 27 62 69c0 43 -23 69 -62 69zM749 202c-51 0 -83 -34 -83 -88c0 -51 29 -86 83 -86c53 0 82 35 82 86c0 54 -32 88 -82 88z" />
    <glyph glyph-name="fiveeighths" unicode="&#x215d;" horiz-adv-x="913" 
d="M279 707h-170l-9 -147h3c5 17 34 55 82 55c88 0 125 -60 125 -147c0 -81 -41 -151 -131 -151c-63 0 -102 31 -118 87l35 18c8 -39 32 -66 83 -66c77 0 89 61 89 114c0 68 -30 105 -83 105c-39 0 -76 -29 -84 -69h-39l10 239h207v-38zM230 -18h-53l508 763h53zM730 422
c68 0 105 -48 105 -105c0 -45 -20 -76 -50 -92v-1c44 -17 68 -59 68 -111c0 -79 -46 -124 -123 -124c-78 0 -124 45 -124 124c0 52 24 94 68 111v1c-30 16 -50 47 -50 92c0 57 37 105 106 105zM730 383c-40 0 -63 -26 -63 -69c0 -42 24 -69 63 -69c38 0 62 27 62 69
c0 43 -23 69 -62 69zM730 202c-51 0 -83 -34 -83 -88c0 -51 29 -86 83 -86c53 0 82 35 82 86c0 54 -32 88 -82 88z" />
    <glyph glyph-name="seveneighths" unicode="&#x215e;" horiz-adv-x="893" 
d="M318 745v-32c-23 -31 -131 -242 -131 -391h-42c0 141 99 346 125 381v3h-210v39h258zM211 -18h-53l508 763h53zM710 422c68 0 105 -48 105 -105c0 -45 -20 -76 -50 -92v-1c44 -17 68 -59 68 -111c0 -79 -46 -124 -123 -124c-78 0 -124 45 -124 124c0 52 24 94 68 111v1
c-30 16 -50 47 -50 92c0 57 37 105 106 105zM710 383c-40 0 -63 -26 -63 -69c0 -42 24 -69 63 -69c38 0 62 27 62 69c0 43 -23 69 -62 69zM710 202c-51 0 -83 -34 -83 -88c0 -51 29 -86 83 -86c53 0 82 35 82 86c0 54 -32 88 -82 88z" />
    <glyph glyph-name="uni2151" unicode="&#x2151;" horiz-adv-x="853" 
d="M187 322h-40l2 352h-3c-19 -25 -55 -38 -86 -38v34c47 2 86 42 90 75h37v-423zM146 -18h-53l508 763h53zM653 421c95 0 130 -57 138 -144c2 -22 2 -42 2 -58c0 -116 -21 -230 -142 -230c-64 0 -117 43 -127 87l33 17c13 -39 47 -65 98 -65c63 0 96 61 96 155h-3
c-6 -24 -36 -53 -94 -53c-87 0 -124 69 -124 141c0 84 44 150 123 150zM657 382c-53 0 -86 -40 -86 -110c0 -62 32 -102 86 -102c57 0 92 39 92 103c-1 68 -31 109 -92 109z" />
    <glyph glyph-name="uni2152" unicode="&#x2152;" horiz-adv-x="1100" 
d="M187 322h-40l2 352h-3c-19 -25 -55 -38 -86 -38v34c47 2 86 42 90 75h37v-423zM146 -18h-53l508 763h53zM684 0h-40l2 352h-3c-19 -24 -55 -37 -86 -37v33c47 3 86 42 90 75h37v-423zM907 421c117 0 134 -105 134 -211c0 -104 -17 -221 -134 -221s-133 117 -133 221
c0 106 16 212 133 211zM907 382c-68 0 -90 -61 -91 -172c-1 -97 17 -182 91 -182c75 0 92 85 92 182c0 108 -23 172 -92 172z" />
    <glyph glyph-name="oneeighth.001" horiz-adv-x="829" 
d="M187 322h-40l2 352h-3c-19 -25 -55 -38 -86 -38v34c47 2 86 42 90 75h37v-423zM146 -18h-53l508 763h53zM646 422c68 0 105 -48 105 -105c0 -45 -20 -76 -50 -92v-1c44 -17 68 -59 68 -111c0 -79 -46 -124 -123 -124c-78 0 -124 45 -124 124c0 52 24 94 68 111v1
c-30 16 -50 47 -50 92c0 57 37 105 106 105zM646 383c-40 0 -63 -26 -63 -69c0 -42 24 -69 63 -69c38 0 62 27 62 69c0 43 -23 69 -62 69zM646 202c-51 0 -83 -34 -83 -88c0 -51 29 -86 83 -86c53 0 82 35 82 86c0 54 -32 88 -82 88z" />
    <glyph glyph-name="threeeighths.001" horiz-adv-x="932" 
d="M183 750c81 0 120 -43 120 -113c0 -43 -21 -77 -50 -86v-3c51 -12 59 -66 59 -108c0 -76 -43 -123 -125 -123c-65 0 -111 33 -127 87l34 17c12 -41 47 -64 94 -64c50 0 82 29 82 90c0 52 -19 86 -107 86v36c48 0 98 7 98 70c0 39 -19 72 -78 72c-41 0 -69 -24 -69 -56
h-41c0 53 45 95 110 95zM250 -18h-53l508 763h53zM749 422c68 0 105 -48 105 -105c0 -45 -20 -76 -50 -92v-1c44 -17 68 -59 68 -111c0 -79 -46 -124 -123 -124c-78 0 -124 45 -124 124c0 52 24 94 68 111v1c-30 16 -50 47 -50 92c0 57 37 105 106 105zM749 383
c-40 0 -63 -26 -63 -69c0 -42 24 -69 63 -69c38 0 62 27 62 69c0 43 -23 69 -62 69zM749 202c-51 0 -83 -34 -83 -88c0 -51 29 -86 83 -86c53 0 82 35 82 86c0 54 -32 88 -82 88z" />
    <glyph glyph-name="fiveeighths.001" horiz-adv-x="913" 
d="M279 707h-170l-9 -147h3c5 17 34 55 82 55c88 0 125 -60 125 -147c0 -81 -41 -151 -131 -151c-63 0 -102 31 -118 87l35 18c8 -39 32 -66 83 -66c77 0 89 61 89 114c0 68 -30 105 -83 105c-39 0 -76 -29 -84 -69h-39l10 239h207v-38zM230 -18h-53l508 763h53zM730 422
c68 0 105 -48 105 -105c0 -45 -20 -76 -50 -92v-1c44 -17 68 -59 68 -111c0 -79 -46 -124 -123 -124c-78 0 -124 45 -124 124c0 52 24 94 68 111v1c-30 16 -50 47 -50 92c0 57 37 105 106 105zM730 383c-40 0 -63 -26 -63 -69c0 -42 24 -69 63 -69c38 0 62 27 62 69
c0 43 -23 69 -62 69zM730 202c-51 0 -83 -34 -83 -88c0 -51 29 -86 83 -86c53 0 82 35 82 86c0 54 -32 88 -82 88z" />
    <glyph glyph-name="seveneighths.001" horiz-adv-x="893" 
d="M318 745v-32c-23 -31 -131 -242 -131 -391h-42c0 141 99 346 125 381v3h-210v39h258zM211 -18h-53l508 763h53zM710 422c68 0 105 -48 105 -105c0 -45 -20 -76 -50 -92v-1c44 -17 68 -59 68 -111c0 -79 -46 -124 -123 -124c-78 0 -124 45 -124 124c0 52 24 94 68 111v1
c-30 16 -50 47 -50 92c0 57 37 105 106 105zM710 383c-40 0 -63 -26 -63 -69c0 -42 24 -69 63 -69c38 0 62 27 62 69c0 43 -23 69 -62 69zM710 202c-51 0 -83 -34 -83 -88c0 -51 29 -86 83 -86c53 0 82 35 82 86c0 54 -32 88 -82 88z" />
    <glyph glyph-name="zero.dnom" horiz-adv-x="357" 
d="M163 421c117 0 134 -105 134 -211c0 -104 -17 -221 -134 -221s-133 117 -133 221c0 106 16 212 133 211zM163 382c-68 0 -90 -61 -91 -172c-1 -97 17 -182 91 -182c75 0 92 85 92 182c0 108 -23 172 -92 172z" />
    <glyph glyph-name="one.dnom" horiz-adv-x="247" 
d="M187 0h-40l2 352h-3c-19 -24 -55 -37 -86 -37v33c47 3 86 42 90 75h37v-423z" />
    <glyph glyph-name="two.dnom" horiz-adv-x="333" 
d="M157 428c69 0 114 -40 114 -122c0 -70 -42 -109 -87 -143c-53 -38 -111 -67 -111 -124l193 1v-40h-241c0 113 70 152 128 192c41 28 77 58 77 115c0 54 -22 81 -75 81c-48 0 -76 -30 -80 -86h-42c0 61 41 126 124 126z" />
    <glyph glyph-name="three.dnom" horiz-adv-x="337" 
d="M149 422c80 0 119 -44 119 -113c0 -43 -21 -77 -50 -86v-3c52 -12 59 -66 59 -108c0 -76 -43 -123 -125 -123c-65 0 -111 33 -127 87l34 17c12 -41 47 -65 94 -65c51 0 82 30 82 90c0 52 -19 87 -107 87v36c48 0 99 7 99 70c0 38 -20 71 -78 71c-42 0 -70 -23 -70 -55
h-41c0 53 45 95 111 95z" />
    <glyph glyph-name="four.dnom" horiz-adv-x="290" 
d="M166 155h64v-35h-64v-120h-40v120h-181v35l181 269h40v-269zM123 354l-137 -197v-2h140v199h-3z" />
    <glyph glyph-name="five.dnom" horiz-adv-x="366" 
d="M275 378h-170l-8 -146h2c6 17 34 55 83 55c87 0 124 -61 124 -147c0 -81 -41 -151 -131 -151c-62 0 -101 30 -118 86l36 18c7 -38 31 -65 83 -65c76 0 88 61 88 114c0 68 -30 105 -82 105c-40 0 -76 -29 -85 -69h-39l11 239h206v-39z" />
    <glyph glyph-name="six.dnom" horiz-adv-x="327" 
d="M168 421c67 0 106 -43 110 -94h-43c-4 34 -28 55 -72 55c-62 0 -94 -59 -95 -154h2c7 24 36 52 95 52c86 0 124 -69 124 -141c0 -83 -45 -150 -124 -150c-94 0 -129 57 -137 145c-3 21 -3 41 -3 57c0 117 21 230 143 230zM161 241c-57 0 -91 -40 -91 -104
c1 -67 30 -109 91 -109c54 0 86 40 86 110c0 63 -31 103 -86 103z" />
    <glyph glyph-name="seven.dnom" horiz-adv-x="396" 
d="M336 423v-32c-22 -31 -131 -242 -131 -391h-41c0 141 99 346 125 381v3h-210v39h257z" />
    <glyph glyph-name="eight.dnom" horiz-adv-x="332" 
d="M149 422c68 0 105 -48 105 -105c0 -45 -20 -76 -50 -92v-1c44 -17 68 -59 68 -111c0 -79 -46 -124 -123 -124c-78 0 -124 45 -124 124c0 52 24 94 68 111v1c-30 16 -50 47 -50 92c0 57 37 105 106 105zM149 383c-40 0 -63 -26 -63 -69c0 -42 24 -69 63 -69
c38 0 62 27 62 69c0 43 -23 69 -62 69zM149 202c-51 0 -83 -34 -83 -88c0 -51 29 -86 83 -86c53 0 82 35 82 86c0 54 -32 88 -82 88z" />
    <glyph glyph-name="nine.dnom" horiz-adv-x="357" 
d="M156 421c95 0 130 -57 138 -144c2 -22 2 -42 2 -58c0 -116 -21 -230 -142 -230c-64 0 -117 43 -127 87l33 17c13 -39 47 -65 98 -65c63 0 96 61 96 155h-3c-6 -24 -36 -53 -94 -53c-87 0 -124 69 -124 141c0 84 44 150 123 150zM160 382c-53 0 -86 -40 -86 -110
c0 -62 32 -102 86 -102c57 0 92 39 92 103c-1 68 -31 109 -92 109z" />
    <glyph glyph-name="zero.numr" horiz-adv-x="349" 
d="M193 750c117 0 134 -106 134 -212c0 -103 -17 -220 -134 -220s-133 117 -133 220c0 106 16 213 133 212zM193 711c-68 0 -90 -62 -91 -173c-1 -97 17 -181 91 -181c75 0 92 84 92 181c0 109 -23 173 -92 173z" />
    <glyph glyph-name="one.numr" horiz-adv-x="243" 
d="M187 322h-40l2 352h-3c-19 -25 -55 -38 -86 -38v34c47 2 86 42 90 75h37v-423z" />
    <glyph glyph-name="two.numr" horiz-adv-x="347" 
d="M184 750c70 0 115 -40 115 -122c0 -70 -42 -109 -87 -143c-53 -38 -111 -67 -111 -124l193 1v-40h-241c0 113 70 152 128 192c41 28 77 58 77 115c0 54 -22 81 -76 81c-48 0 -76 -30 -79 -86h-43c0 61 41 126 124 126z" />
    <glyph glyph-name="three.numr" horiz-adv-x="347" 
d="M183 750c81 0 120 -43 120 -113c0 -43 -21 -77 -50 -86v-3c51 -12 59 -66 59 -108c0 -76 -43 -123 -125 -123c-65 0 -111 33 -127 87l34 17c12 -41 47 -64 94 -64c50 0 82 29 82 90c0 52 -19 86 -107 86v36c48 0 98 7 98 70c0 39 -19 72 -78 72c-41 0 -69 -24 -69 -56
h-41c0 53 45 95 110 95z" />
    <glyph glyph-name="four.numr" horiz-adv-x="363" 
d="M281 476h64v-35h-64v-119h-40v119h-181v35l181 269h40v-269zM238 675l-137 -197v-2h140v199h-3z" />
    <glyph glyph-name="five.numr" horiz-adv-x="327" 
d="M279 707h-170l-9 -147h3c5 17 34 55 82 55c88 0 125 -60 125 -147c0 -81 -41 -151 -131 -151c-63 0 -102 31 -118 87l35 18c8 -39 32 -66 83 -66c77 0 89 61 89 114c0 68 -30 105 -83 105c-39 0 -76 -29 -84 -69h-39l10 239h207v-38z" />
    <glyph glyph-name="six.numr" horiz-adv-x="384" 
d="M203 746c67 0 106 -43 110 -94h-43c-4 34 -28 55 -72 55c-63 0 -94 -59 -95 -155h2c7 25 36 53 95 53c86 0 124 -69 124 -141c0 -83 -45 -150 -124 -150c-94 0 -129 57 -137 145c-3 21 -3 41 -3 57c0 117 21 230 143 230zM196 566c-57 0 -91 -40 -91 -104
c1 -67 30 -109 91 -109c54 0 86 40 86 110c0 63 -32 103 -86 103z" />
    <glyph glyph-name="seven.numr" horiz-adv-x="308" 
d="M318 745v-32c-23 -31 -131 -242 -131 -391h-42c0 141 99 346 125 381v3h-210v39h258z" />
    <glyph glyph-name="eight.numr" horiz-adv-x="344" 
d="M183 750c69 0 106 -48 106 -105c0 -46 -20 -76 -50 -92v-1c44 -17 68 -59 68 -111c0 -79 -46 -124 -124 -124c-77 0 -123 45 -123 124c0 52 23 94 68 111v1c-30 16 -50 46 -50 92c0 57 37 105 105 105zM183 711c-39 0 -62 -26 -62 -69c0 -42 24 -69 62 -69
c39 0 63 27 63 69c0 43 -24 69 -63 69zM183 530c-50 0 -82 -34 -82 -88c0 -52 29 -86 82 -86c54 0 83 34 83 86c0 54 -32 88 -83 88z" />
    <glyph glyph-name="nine.numr" horiz-adv-x="362" 
d="M191 750c95 0 130 -57 138 -145c2 -21 2 -41 2 -57c0 -117 -21 -230 -142 -230c-64 0 -117 42 -127 86l33 18c13 -39 47 -65 98 -65c62 0 96 60 96 154h-3c-6 -24 -36 -52 -94 -52c-87 0 -124 69 -124 141c0 83 44 150 123 150zM195 711c-53 0 -86 -40 -86 -110
c0 -63 32 -103 86 -103c57 0 92 40 91 104c0 67 -30 109 -91 109z" />
    <glyph glyph-name="zeroinferior" unicode="&#x2080;" horiz-adv-x="337" 
d="M168 266c117 0 133 -106 133 -212c0 -104 -16 -221 -133 -221s-133 117 -133 221c0 106 16 212 133 212zM168 226c-68 0 -91 -61 -91 -172c-1 -97 17 -181 91 -181c75 0 92 84 92 181c0 109 -23 172 -92 172z" />
    <glyph glyph-name="oneinferior" unicode="&#x2081;" horiz-adv-x="197" 
d="M162 -162h-41l3 352h-3c-19 -24 -55 -37 -86 -37v33c47 3 86 42 89 75h38v-423z" />
    <glyph glyph-name="twoinferior" unicode="&#x2082;" horiz-adv-x="318" 
d="M167 266c69 0 114 -40 114 -123c0 -69 -42 -109 -87 -142c-53 -39 -111 -67 -111 -124l193 1v-40h-241c0 113 70 151 128 191c41 29 77 59 77 115c0 55 -22 82 -76 82c-48 0 -76 -31 -79 -86h-43c0 61 41 126 125 126z" />
    <glyph glyph-name="threeinferior" unicode="&#x2083;" horiz-adv-x="322" 
d="M158 266c81 0 120 -44 120 -113c0 -43 -21 -77 -50 -86v-3c51 -12 58 -66 58 -108c0 -76 -42 -123 -124 -123c-65 0 -111 33 -127 87l33 17c13 -41 47 -65 95 -65c50 0 82 30 82 90c0 52 -19 87 -107 87v36c48 0 98 7 98 70c0 38 -19 71 -78 71c-41 0 -69 -23 -69 -55
h-41c0 53 45 95 110 95z" />
    <glyph glyph-name="fourinferior" unicode="&#x2084;" horiz-adv-x="355" 
d="M256 -7h64v-35h-64v-120h-40v120h-181v35l181 269h40v-269zM213 192l-137 -197v-2h140v199h-3z" />
    <glyph glyph-name="fiveinferior" unicode="&#x2085;" horiz-adv-x="320" 
d="M254 223h-170l-9 -147h3c5 17 34 55 82 55c87 0 124 -60 124 -147c0 -81 -40 -151 -130 -151c-63 0 -102 31 -118 87l35 18c8 -39 31 -66 83 -66c77 0 89 61 89 114c0 68 -30 105 -83 105c-39 0 -76 -29 -84 -69h-39l10 239h207v-38z" />
    <glyph glyph-name="sixinferior" unicode="&#x2086;" horiz-adv-x="334" 
d="M178 266c66 0 106 -43 110 -95h-43c-4 35 -28 55 -72 55c-63 0 -94 -59 -96 -154h3c7 24 36 53 95 53c86 0 124 -69 124 -142c0 -83 -45 -150 -124 -150c-95 0 -129 58 -137 145c-3 21 -3 41 -3 57c0 117 21 231 143 231zM171 85c-57 0 -91 -40 -91 -103
c0 -68 30 -109 91 -109c54 0 86 39 86 109c0 63 -32 103 -86 103z" />
    <glyph glyph-name="seveninferior" unicode="&#x2087;" horiz-adv-x="328" 
d="M292 261v-32c-22 -31 -131 -242 -131 -391h-41c0 141 99 346 125 381v3h-210v39h257z" />
    <glyph glyph-name="eightinferior" unicode="&#x2088;" horiz-adv-x="317" 
d="M158 266c69 0 105 -47 105 -104c0 -46 -19 -77 -49 -92v-2c44 -17 67 -59 67 -111c0 -79 -45 -124 -123 -124c-77 0 -123 45 -123 124c0 52 23 94 68 111v2c-30 15 -50 46 -50 92c0 57 37 104 105 104zM158 227c-39 0 -63 -25 -63 -69c0 -41 25 -69 63 -69
c39 0 63 28 63 69c0 44 -24 69 -63 69zM158 46c-51 0 -82 -33 -82 -88c0 -51 28 -85 82 -85s83 34 83 85c0 55 -32 88 -83 88z" />
    <glyph glyph-name="nineinferior" unicode="&#x2089;" horiz-adv-x="341" 
d="M166 266c95 0 130 -58 138 -145c2 -21 2 -41 2 -57c0 -117 -21 -231 -142 -231c-64 0 -117 43 -128 87l34 17c12 -38 47 -64 98 -64c62 0 96 60 96 154h-3c-6 -24 -36 -53 -95 -53c-86 0 -123 69 -123 142c0 83 44 150 123 150zM170 226c-54 0 -86 -39 -86 -109
c0 -63 32 -103 86 -103c57 0 92 40 91 103c0 68 -30 109 -91 109z" />
    <glyph glyph-name="zerosuperior" unicode="&#x2070;" horiz-adv-x="337" 
d="M168 832c117 0 133 -106 133 -212c0 -104 -16 -221 -133 -221s-133 117 -133 221c0 106 16 212 133 212zM168 792c-68 0 -91 -61 -91 -172c-1 -97 17 -181 91 -181c75 0 92 84 92 181c0 109 -23 172 -92 172z" />
    <glyph glyph-name="onesuperior" unicode="&#xb9;" horiz-adv-x="197" 
d="M162 404h-41l3 352h-3c-19 -25 -55 -38 -86 -38v34c47 2 86 42 89 75h38v-423z" />
    <glyph glyph-name="twosuperior" unicode="&#xb2;" horiz-adv-x="318" 
d="M167 832c69 0 114 -40 114 -123c0 -69 -42 -109 -87 -142c-53 -39 -111 -67 -111 -124l193 1v-40h-241c0 113 70 151 128 191c41 29 77 59 77 115c0 55 -22 82 -76 82c-48 0 -76 -31 -79 -86h-43c0 61 41 126 125 126z" />
    <glyph glyph-name="threesuperior" unicode="&#xb3;" horiz-adv-x="322" 
d="M158 832c81 0 120 -43 120 -113c0 -43 -21 -77 -50 -86v-3c51 -12 58 -66 58 -108c0 -76 -42 -123 -124 -123c-65 0 -111 33 -127 87l33 17c13 -41 47 -64 95 -64c50 0 82 29 82 90c0 52 -19 86 -107 86v36c48 0 98 7 98 70c0 39 -19 72 -78 72c-41 0 -69 -24 -69 -56
h-41c0 53 45 95 110 95z" />
    <glyph glyph-name="foursuperior" unicode="&#x2074;" horiz-adv-x="355" 
d="M256 558h64v-35h-64v-119h-40v119h-181v35l181 269h40v-269zM213 757l-137 -197v-2h140v199h-3z" />
    <glyph glyph-name="fivesuperior" unicode="&#x2075;" horiz-adv-x="320" 
d="M254 789h-170l-9 -147h3c5 17 34 55 82 55c87 0 124 -60 124 -147c0 -81 -40 -151 -130 -151c-63 0 -102 31 -118 87l35 18c8 -39 31 -66 83 -66c77 0 89 61 89 114c0 68 -30 105 -83 105c-39 0 -76 -29 -84 -69h-39l10 239h207v-38z" />
    <glyph glyph-name="sixsuperior" unicode="&#x2076;" horiz-adv-x="334" 
d="M178 832c66 0 106 -43 110 -95h-43c-4 35 -28 55 -72 55c-63 0 -94 -59 -96 -154h3c7 24 36 53 95 53c86 0 124 -69 124 -142c0 -83 -45 -150 -124 -150c-95 0 -129 58 -137 145c-3 21 -3 41 -3 57c0 117 21 231 143 231zM171 651c-57 0 -91 -40 -91 -103
c0 -68 30 -109 91 -109c54 0 86 39 86 109c0 63 -32 103 -86 103z" />
    <glyph glyph-name="sevensuperior" unicode="&#x2077;" horiz-adv-x="328" 
d="M292 827v-32c-22 -31 -131 -242 -131 -391h-41c0 141 99 346 125 381v3h-210v39h257z" />
    <glyph glyph-name="eightsuperior" unicode="&#x2078;" horiz-adv-x="317" 
d="M158 832c69 0 105 -48 105 -105c0 -46 -19 -77 -49 -92v-2c44 -16 67 -59 67 -111c0 -79 -45 -123 -123 -123c-77 0 -123 44 -123 123c0 52 23 95 68 111v2c-30 15 -50 46 -50 92c0 57 37 105 105 105zM158 792c-39 0 -63 -25 -63 -69c0 -41 25 -68 63 -68
c39 0 63 27 63 68c0 44 -24 69 -63 69zM158 612c-51 0 -82 -34 -82 -89c0 -51 28 -85 82 -85s83 34 83 85c0 55 -32 89 -83 89z" />
    <glyph glyph-name="ninesuperior" unicode="&#x2079;" horiz-adv-x="341" 
d="M166 832c95 0 130 -58 138 -145c2 -21 2 -41 2 -57c0 -117 -21 -231 -142 -231c-64 0 -117 43 -128 87l34 17c12 -38 47 -64 98 -64c62 0 96 60 96 154h-3c-6 -24 -36 -53 -95 -53c-86 0 -123 69 -123 142c0 83 44 150 123 150zM170 792c-54 0 -86 -39 -86 -109
c0 -63 32 -103 86 -103c57 0 92 40 91 103c0 68 -30 109 -91 109z" />
    <glyph glyph-name="asterisk" unicode="*" horiz-adv-x="399" 
d="M221 586l3 -2l103 36l14 -36l-107 -35v-3l65 -88l-32 -23l-65 91h-2l-64 -91l-32 23l65 88v3l-107 35l13 36l104 -36l2 2v114h40v-114z" />
    <glyph glyph-name="asterism" unicode="&#x2042;" horiz-adv-x="641" 
d="M265 586l3 -2l103 36l14 -36l-108 -35v-3l66 -88l-32 -23l-65 91h-3l-63 -91l-33 23l66 88v3l-108 35l14 36l103 -36l3 2v114h40v-114zM87 216l2 -2l104 36l14 -36l-108 -35v-3l66 -88l-33 -23l-64 90h-3l-64 -90l-32 23l65 88v3l-107 34l14 37l103 -36l3 2v114h40v-114z
M443 216l3 -2l103 36l14 -36l-107 -35v-3l65 -88l-32 -23l-64 90h-3l-64 -90l-32 23l65 88v3l-107 34l14 37l103 -36l3 2v114h39v-114z" />
    <glyph glyph-name="backslash" unicode="\" horiz-adv-x="304" 
d="M301 -18h-52l-254 763h52z" />
    <glyph glyph-name="periodcentered" unicode="&#xb7;" horiz-adv-x="246" 
d="M125 374c25 0 41 -16 41 -41c0 -26 -16 -41 -41 -41c-26 0 -41 15 -41 41c0 25 15 41 41 41z" />
    <glyph glyph-name="uni2045" unicode="&#x2045;" horiz-adv-x="239" 
d="M140 699v-413h99v-46h-99v-414h99v-46h-155v965h155v-46h-99z" />
    <glyph glyph-name="uni2046" unicode="&#x2046;" horiz-adv-x="235" 
d="M155 745v-965h-155v46h99v414h-99v46h99v413h-99v46h155z" />
    <glyph glyph-name="bullet" unicode="&#x2022;" horiz-adv-x="355" 
d="M177 448c60 0 95 -36 95 -95c0 -60 -35 -95 -95 -95c-59 0 -94 35 -94 95c0 59 35 95 94 95z" />
    <glyph glyph-name="uni2041" unicode="&#x2041;" horiz-adv-x="402" 
d="M186 59v-3l84 -232h-46l-55 178h-3l-59 -178h-46l244 701h40z" />
    <glyph glyph-name="colon" unicode=":" horiz-adv-x="233" 
d="M153 429h-69v96h69v-96zM153 0h-69v96h69v-96z" />
    <glyph glyph-name="comma" unicode="," horiz-adv-x="243" 
d="M163 96v-92c0 -54 -15 -108 -79 -125v33c48 15 47 63 47 88h-40v96h72z" />
    <glyph glyph-name="uni2047" unicode="&#x2047;" horiz-adv-x="973" 
d="M230 713c125 0 194 -71 194 -190c0 -129 -67 -170 -114 -221c-31 -31 -53 -66 -55 -153h-57c0 96 41 161 83 203c30 27 91 76 91 172c0 85 -48 140 -142 140c-59 0 -125 -41 -129 -133h-51c0 64 42 182 180 182zM729 713c125 0 193 -71 193 -190
c0 -129 -67 -170 -114 -221c-31 -31 -52 -66 -55 -153h-57c0 96 41 161 84 203c29 27 90 76 90 172c0 85 -48 140 -141 140c-59 0 -126 -41 -130 -133h-51c0 64 43 182 181 182zM260 0h-66v96h66v-96zM758 0h-65v96h65v-96z" />
    <glyph glyph-name="ellipsis" unicode="&#x2026;" horiz-adv-x="768" 
d="M154 0h-70v96h70v-96zM422 0h-70v96h70v-96zM688 0h-69v96h69v-96z" />
    <glyph glyph-name="exclam" unicode="!" horiz-adv-x="235" 
d="M151 532l-8 -366h-47l-9 367v178h64v-179zM155 0h-71v96h71v-96z" />
    <glyph glyph-name="uni2049" unicode="&#x2049;" horiz-adv-x="636" 
d="M380 713c125 0 193 -71 193 -190c0 -129 -67 -170 -114 -221c-30 -31 -52 -66 -55 -153h-57c0 96 41 161 84 203c29 27 90 76 90 172c0 85 -48 140 -141 140c-59 0 -126 -41 -130 -133h-51c0 64 43 182 181 182zM151 532l-8 -366h-47l-9 367v178h64v-179zM155 0h-71v96
h71v-96zM410 0h-66v96h66v-96z" />
    <glyph glyph-name="exclamdown" unicode="&#xa1;" horiz-adv-x="236" 
d="M154 429h-71v96h71v-96zM150 -7v-179h-64v178l8 367h48z" />
    <glyph glyph-name="uni203D" unicode="&#x203d;" horiz-adv-x="475" 
d="M254 751v-39c110 -8 170 -78 170 -189c0 -129 -67 -170 -114 -221c-31 -31 -53 -66 -55 -153h-57l-9 367v140c-44 -15 -86 -53 -88 -125h-51c0 57 33 157 139 178v42h65zM254 663l-5 -351c9 15 20 28 32 40c30 27 91 76 91 172c0 78 -41 130 -118 139zM260 0h-66v96h66
v-96z" />
    <glyph glyph-name="numbersign" unicode="#" horiz-adv-x="618" 
d="M446 449h92v-48h-99l-21 -166h100v-48h-107l-25 -187h-51l25 187h-123l-25 -187h-50l25 187h-103v48h110l21 166h-111v48h118l24 187h51l-24 -187h122l25 187h50zM266 401l-22 -166h123l22 166h-123z" />
    <glyph glyph-name="period" unicode="." horiz-adv-x="234" 
d="M154 0h-70v96h70v-96z" />
    <glyph glyph-name="question" unicode="?" horiz-adv-x="475" 
d="M230 713c125 0 194 -71 194 -190c0 -129 -67 -170 -114 -221c-31 -31 -53 -66 -55 -153h-57c0 96 41 161 83 203c30 27 91 76 91 172c0 85 -48 140 -142 140c-59 0 -125 -41 -129 -133h-51c0 64 42 182 180 182zM260 0h-66v96h66v-96z" />
    <glyph glyph-name="questiondown" unicode="&#xbf;" horiz-adv-x="475" 
d="M278 429h-66v96h66v-96zM221 376h56c0 -96 -41 -161 -83 -203c-30 -27 -91 -76 -91 -172c0 -85 48 -140 142 -140c59 0 125 41 129 133h51c0 -64 -42 -182 -180 -182c-125 0 -194 71 -194 190c0 129 68 170 114 221c31 31 53 66 56 153z" />
    <glyph glyph-name="uni2048" unicode="&#x2048;" horiz-adv-x="670" 
d="M230 713c125 0 194 -71 194 -190c0 -129 -67 -170 -114 -221c-31 -31 -53 -66 -55 -153h-57c0 96 41 161 83 203c30 27 91 76 91 172c0 85 -48 140 -142 140c-59 0 -125 -41 -129 -133h-51c0 64 42 182 180 182zM586 532l-8 -366h-48l-8 367v178h64v-179zM260 0h-66v96
h66v-96zM590 0h-71v96h71v-96z" />
    <glyph glyph-name="quotedbl" unicode="&#x22;" horiz-adv-x="344" 
d="M137 680l-7 -171h-38l-8 171v65h53v-65zM264 680l-7 -171h-39l-7 171v65h53v-65z" />
    <glyph glyph-name="quotesingle" unicode="'" horiz-adv-x="218" 
d="M138 680l-8 -172h-38l-8 172v65h54v-65z" />
    <glyph glyph-name="uni2E2E" unicode="&#x2e2e;" horiz-adv-x="468" 
d="M245 713c138 0 180 -118 180 -182h-51c-4 92 -70 133 -129 133c-94 0 -142 -55 -142 -140c0 -96 61 -145 91 -172c42 -42 83 -107 83 -203h-56c-3 87 -25 122 -56 153c-46 51 -114 92 -114 221c0 119 69 190 194 190zM281 0h-66v96h66v-96z" />
    <glyph glyph-name="semicolon" unicode=";" horiz-adv-x="242" 
d="M160 429h-69v95h69v-95zM162 96v-92c0 -54 -14 -108 -78 -124v33c48 15 46 62 46 87h-39v96h71z" />
    <glyph glyph-name="slash" unicode="/" horiz-adv-x="319" 
d="M47 -18h-52l254 763h52z" />
    <glyph glyph-name="uni2056" unicode="&#x2056;" horiz-adv-x="495" 
d="M415 525h-69v96h69v-96zM153 310h-69v96h69v-96zM415 95h-69v96h69v-96z" />
    <glyph glyph-name="uni205D" unicode="&#x205d;" horiz-adv-x="246" 
d="M125 750c25 0 41 -15 41 -40c0 -26 -16 -41 -41 -41c-26 0 -41 15 -41 41c0 25 15 40 41 40zM125 411c25 0 41 -16 41 -41c0 -26 -16 -41 -41 -41c-26 0 -41 15 -41 41c0 25 15 41 41 41zM125 71c25 0 41 -16 41 -41c0 -26 -16 -41 -41 -41c-26 0 -41 15 -41 41
c0 25 15 41 41 41z" />
    <glyph glyph-name="uni2051" unicode="&#x2051;" horiz-adv-x="444" 
d="M244 586l2 -2l104 36l14 -36l-108 -35v-3l66 -88l-33 -23l-64 91h-3l-64 -91l-32 23l65 88v3l-107 35l14 36l103 -36l3 2v114h40v-114zM244 216l2 -2l104 36l14 -36l-108 -35v-3l66 -88l-33 -23l-64 90h-3l-64 -90l-32 23l65 88v3l-107 34l14 37l103 -36l3 2v114h40v-114
z" />
    <glyph glyph-name="twodotenleader" unicode="&#x2025;" horiz-adv-x="393" 
d="M154 0h-70v96h70v-96zM313 0h-71v96h71v-96z" />
    <glyph glyph-name="underscore" unicode="_" horiz-adv-x="450" 
d="M450 -51v-47h-450v47h450z" />
    <glyph glyph-name="uni205E" unicode="&#x205e;" horiz-adv-x="246" 
d="M125 750c25 0 41 -15 41 -40c0 -26 -16 -41 -41 -41c-26 0 -41 15 -41 41c0 25 15 40 41 40zM125 524c25 0 41 -15 41 -41s-16 -41 -41 -41c-26 0 -41 15 -41 41s15 41 41 41zM125 297c25 0 41 -15 41 -41c0 -25 -16 -40 -41 -40c-26 0 -41 15 -41 40c0 26 15 41 41 41z
M125 71c25 0 41 -16 41 -41c0 -26 -16 -41 -41 -41c-26 0 -41 15 -41 41c0 25 15 41 41 41z" />
    <glyph glyph-name="comma.dnom" horiz-adv-x="125" 
d="M93 72v-69c0 -42 -12 -82 -60 -95v25c36 11 35 48 35 67h-30v72h55z" />
    <glyph glyph-name="period.dnom" horiz-adv-x="118" 
d="M86 0h-53v72h53v-72z" />
    <glyph glyph-name="comma.inferior" horiz-adv-x="125" 
d="M93 -91v-69c0 -42 -12 -82 -60 -95v25c36 11 35 48 35 67h-30v72h55z" />
    <glyph glyph-name="period.inferior" horiz-adv-x="118" 
d="M86 -162h-53v72h53v-72z" />
    <glyph glyph-name="comma.num" horiz-adv-x="125" 
d="M93 393v-69c0 -42 -12 -82 -60 -95v25c36 11 35 48 35 67h-30v72h55z" />
    <glyph glyph-name="period.num" horiz-adv-x="118" 
d="M86 321h-53v72h53v-72z" />
    <glyph glyph-name="comma.superior" horiz-adv-x="125" 
d="M93 476v-69c0 -42 -12 -82 -60 -95v25c36 11 35 48 35 67h-30v72h55z" />
    <glyph glyph-name="period.superior" horiz-adv-x="118" 
d="M86 404h-53v72h53v-72z" />
    <glyph glyph-name="braceleft" unicode="{" horiz-adv-x="319" 
d="M290 695h-45c-110 0 5 -427 -139 -428v-2c144 0 30 -435 139 -435h45v-50h-45c-190 0 -23 459 -194 459v55c171 0 4 451 194 451h45v-50z" />
    <glyph glyph-name="braceright" unicode="}" horiz-adv-x="319" 
d="M28 745h45c190 0 24 -451 194 -451v-55c-170 0 -4 -459 -194 -459h-45v50h45c111 0 -4 435 140 435v3c-138 10 -31 427 -140 427h-45v50z" />
    <glyph glyph-name="bracketleft" unicode="[" horiz-adv-x="252" 
d="M140 698v-872h112v-46h-168v965h168v-47h-112z" />
    <glyph glyph-name="bracketright" unicode="]" horiz-adv-x="235" 
d="M155 745v-965h-155v46h99v873h-99v46h155z" />
    <glyph glyph-name="parenleft" unicode="(" horiz-adv-x="252" 
d="M261 -220h-53c-104 139 -157 330 -157 486c0 183 61 325 158 479h53c-95 -154 -154 -308 -154 -479c0 -165 55 -333 153 -486z" />
    <glyph glyph-name="uni208D" unicode="&#x208d;" horiz-adv-x="156" 
d="M115 253h41c-50 -83 -82 -165 -82 -256c0 -90 30 -179 82 -261h-42c-55 75 -84 177 -84 261c0 97 32 173 85 256z" />
    <glyph glyph-name="parenleftsuperior" unicode="&#x207d;" horiz-adv-x="156" 
d="M115 865h41c-50 -83 -82 -165 -82 -256c0 -89 30 -179 82 -261h-42c-55 75 -84 177 -84 261c0 97 32 174 85 256z" />
    <glyph glyph-name="parenright" unicode=")" horiz-adv-x="252" 
d="M44 -220h-53c98 153 154 321 154 486c0 171 -60 325 -155 479h53c97 -154 158 -296 158 -479c0 -156 -53 -347 -157 -486z" />
    <glyph glyph-name="uni208E" unicode="&#x208e;" horiz-adv-x="171" 
d="M15 253h41c52 -83 85 -159 85 -256c0 -84 -29 -186 -84 -261h-42c52 82 82 171 82 261c0 91 -32 173 -82 256z" />
    <glyph glyph-name="parenrightsuperior" unicode="&#x207e;" horiz-adv-x="156" 
d="M0 865h41c53 -82 85 -159 85 -256c0 -84 -29 -186 -84 -261h-42c53 82 82 172 82 261c0 91 -31 173 -82 256z" />
    <glyph glyph-name="emdash" unicode="&#x2014;" horiz-adv-x="814" 
d="M764 297v-47h-702v47h702z" />
    <glyph glyph-name="endash" unicode="&#x2013;" horiz-adv-x="412" 
d="M412 297v-47h-412v47h412z" />
    <glyph glyph-name="hyphen" unicode="-" horiz-adv-x="424" 
d="M344 297v-47h-260v47h260z" />
    <glyph glyph-name="guillemotleft" unicode="&#xab;" horiz-adv-x="485" 
d="M227 346l-103 -79v-2l103 -80v-56l-143 108v58l143 107v-56zM405 346l-103 -79v-2l103 -80v-56l-144 108v58l144 107v-56z" />
    <glyph glyph-name="guillemotright" unicode="&#xbb;" horiz-adv-x="486" 
d="M226 295v-58l-143 -108v56l102 80v2l-102 79v56zM404 295v-58l-144 -108v56l103 80v2l-103 79v56z" />
    <glyph glyph-name="guilsinglleft" unicode="&#x2039;" horiz-adv-x="309" 
d="M226 346l-103 -79v-2l103 -80v-56l-143 108v58l143 107v-56z" />
    <glyph glyph-name="guilsinglright" unicode="&#x203a;" horiz-adv-x="309" 
d="M226 295v-58l-143 -108v56l102 80v2l-102 79v56z" />
    <glyph glyph-name="quotedblbase" unicode="&#x201e;" horiz-adv-x="371" 
d="M91 96h72v-92c0 -54 -15 -108 -79 -125v33c48 15 47 63 47 88h-40v96zM291 96v-92c0 -54 -15 -108 -79 -125v33c48 15 47 63 47 88h-40v96h72z" />
    <glyph glyph-name="quotedblleft" unicode="&#x201c;" horiz-adv-x="393" 
d="M167 745v-34c-53 -16 -49 -70 -50 -96h41v-100h-74v95c0 58 16 118 83 135zM313 745v-34c-55 -16 -50 -70 -50 -96h40v-100h-74v95c0 58 15 118 84 135z" />
    <glyph glyph-name="quotedblright" unicode="&#x201d;" horiz-adv-x="393" 
d="M167 745v-95c0 -58 -15 -118 -83 -135v35c54 16 49 69 50 95h-40v100h73zM313 745v-95c0 -58 -16 -118 -84 -135v35c54 16 50 69 50 95h-41v100h75z" />
    <glyph glyph-name="quoteleft" unicode="&#x2018;" horiz-adv-x="247" 
d="M167 745v-34c-53 -16 -49 -70 -50 -96h41v-100h-74v95c0 58 16 118 83 135z" />
    <glyph glyph-name="quoteright" unicode="&#x2019;" horiz-adv-x="247" 
d="M167 745v-95c0 -58 -15 -118 -83 -135v35c54 17 49 69 50 95h-40v100h73z" />
    <glyph glyph-name="quotesinglbase" unicode="&#x201a;" horiz-adv-x="243" 
d="M163 96v-92c0 -54 -15 -108 -79 -125v33c48 15 47 63 47 88h-40v96h72z" />
    <glyph glyph-name="space" unicode=" " horiz-adv-x="245" 
 />
    <glyph glyph-name="uni20B3" unicode="&#x20b3;" horiz-adv-x="617" 
d="M438 439h139v-46h-122l38 -102h84v-45h-67l91 -246h-61l-90 246h-286l-91 -246h-57l91 246h-67v45h84l39 102h-123v46h139l98 261h63zM305 635l-124 -344h252l-125 344h-3z" />
    <glyph glyph-name="baht" unicode="&#xe3f;" horiz-adv-x="620" 
d="M321 783v-83c77 -1 219 -14 219 -182c0 -85 -43 -128 -93 -152v-3c69 -24 125 -73 125 -168c0 -163 -120 -195 -251 -195v-83h-43v83h-185v700h185v83h43zM147 650v-264h175c90 0 161 16 161 132c0 99 -68 132 -161 132h-175zM147 334v-283h181c82 0 189 20 189 144
c0 130 -108 139 -189 139h-181z" />
    <glyph glyph-name="uni20B5" unicode="&#x20b5;" horiz-adv-x="644" 
d="M367 783v-73c163 -12 223 -160 223 -242h-53c0 104 -99 192 -192 192c-132 0 -232 -134 -233 -305c0 -165 83 -314 232 -314c77 0 163 52 206 134l43 -26c-49 -102 -140 -154 -226 -159v-73h-44v73c-186 13 -268 197 -268 365c0 171 94 342 268 355v73h44z" />
    <glyph glyph-name="cent" unicode="&#xa2;" horiz-adv-x="507" 
d="M415 125l45 -26c-40 -74 -105 -105 -171 -109v-73h-43v73c-133 15 -195 153 -195 277c0 129 62 256 195 269v81h43v-81c118 -11 162 -112 165 -181h-51c-1 82 -65 135 -134 135c-105 0 -163 -91 -164 -223c0 -127 60 -231 164 -231c59 0 118 31 146 89z" />
    <glyph glyph-name="colonsign" unicode="&#x20a1;" horiz-adv-x="653" 
d="M513 783l-31 -106c84 -51 116 -149 116 -209h-53c0 104 -98 192 -192 192c-132 0 -232 -134 -233 -305c0 -165 83 -314 232 -314c77 0 163 52 206 134l43 -26c-54 -113 -158 -160 -248 -160c-26 0 -49 3 -71 9l-25 -84h-43l29 98c-19 8 -36 18 -52 31l-37 -129h-43
l47 161c-65 71 -95 178 -95 280c0 176 99 351 282 356l21 72h44l-22 -74c21 -3 39 -8 57 -14l25 88h43z" />
    <glyph glyph-name="cruzeiro" unicode="&#x20a2;" horiz-adv-x="644" 
d="M550 175l43 -26c-54 -113 -158 -160 -248 -160c-201 0 -290 191 -290 366c0 178 102 356 290 356c180 0 245 -158 245 -243h-53c0 104 -99 192 -192 192c-132 0 -232 -134 -233 -305c0 -155 73 -296 206 -312v299h50v-66h2c16 47 63 77 104 77v-47
c-37 0 -106 -47 -106 -123v-140c71 9 142 57 182 132z" />
    <glyph glyph-name="currency" unicode="&#xa4;" horiz-adv-x="552" 
d="M476 345c0 -53 -13 -97 -37 -130l68 -68l-32 -33l-69 69c-33 -25 -77 -38 -130 -38s-97 13 -131 38l-68 -69l-32 33l68 68c-24 33 -37 77 -37 130s13 97 38 130l-69 69l32 32l69 -69c33 25 77 38 130 38s97 -13 130 -38l69 69l32 -32l-69 -69c25 -33 38 -77 38 -130z
M276 192c91 0 147 57 147 153c0 95 -55 153 -147 153s-146 -58 -146 -153c0 -96 56 -153 146 -153z" />
    <glyph glyph-name="dollar" unicode="$" horiz-adv-x="506" 
d="M273 783v-73c104 -10 163 -65 163 -148h-53c0 80 -77 100 -128 100c-55 0 -131 -32 -131 -128c0 -47 10 -68 26 -84c29 -30 81 -41 133 -55c97 -26 175 -66 175 -209c0 -85 -53 -186 -185 -196v-73h-43v73c-97 6 -160 55 -182 132l44 25c16 -64 76 -108 158 -108
c99 0 153 73 153 147c0 92 -47 125 -118 149c-61 22 -131 32 -176 74c-24 24 -40 56 -40 125c0 136 107 171 161 176v73h43z" />
    <glyph glyph-name="dong" unicode="&#x20ab;" horiz-adv-x="531" 
d="M450 666h68v-45h-68v-621h-50v74h-2c-28 -45 -70 -85 -145 -85c-146 0 -202 135 -202 269c0 132 58 279 202 279c74 0 118 -40 145 -87h2v171h-152v45h152v79h50v-79zM253 489c-105 0 -148 -103 -148 -231c0 -134 45 -222 148 -222c139 0 146 108 147 256
c-1 72 -15 197 -147 197zM417 -123h-270v46h270v-46z" />
    <glyph glyph-name="Euro" unicode="&#x20ac;" horiz-adv-x="673" 
d="M578 103l44 -27c-52 -54 -132 -87 -221 -87c-161 0 -256 121 -284 269h-103l23 46h73c-1 17 -2 34 -2 51c0 19 1 37 3 55h-97l23 45h81c29 145 123 256 283 256c68 0 132 -17 172 -47v-51c-38 31 -102 47 -172 47c-112 0 -195 -80 -225 -205h342l-24 -45h-326
c-2 -18 -3 -36 -3 -55c0 -17 1 -35 3 -51h298l-23 -46h-268c27 -131 110 -217 225 -217c68 0 132 24 178 62z" />
    <glyph glyph-name="uni20A0" unicode="&#x20a0;" horiz-adv-x="601" 
d="M260 709c119 0 176 -84 178 -138h-56c-2 45 -51 87 -122 87c-93 0 -150 -71 -150 -188c0 -130 66 -199 150 -199l14 1v195h257v-51h-202v-146h188v-48h-188v-167h206v-54h-261v217l-14 -1c-134 0 -209 105 -209 253c0 121 72 239 209 239z" />
    <glyph glyph-name="florin" unicode="&#x192;" horiz-adv-x="319" 
d="M309 749l-12 -44c-99 0 -99 -91 -113 -219h93l-13 -43h-86c-56 -624 -73 -663 -250 -662l22 43c117 5 124 62 178 620h-59l12 43h53c14 197 51 262 175 262z" />
    <glyph glyph-name="franc" unicode="&#x20a3;" horiz-adv-x="526" 
d="M159 648v-241h296v-52h-296v-184l161 1v-45l-161 -1v-126h-53v126h-91v45h91v529h368v-52h-315z" />
    <glyph glyph-name="uni20B2" unicode="&#x20b2;" horiz-adv-x="678" 
d="M365 783v-73c163 -12 223 -160 223 -243h-54c-3 105 -98 192 -192 192c-132 0 -232 -133 -233 -304c0 -165 92 -314 242 -314c90 0 147 33 190 69v182h-198l33 48h216v-257c-76 -70 -151 -92 -223 -94v-72h-43v73c-185 16 -274 197 -274 365c0 172 95 343 270 355v73h43z
" />
    <glyph glyph-name="hryvnia" unicode="&#x20b4;" horiz-adv-x="630" 
d="M284 335c-72 -24 -118 -57 -118 -149c0 -74 53 -147 152 -147c82 0 143 44 159 108l44 -25c-32 -104 -126 -132 -207 -133c-104 1 -202 69 -204 197c-1 85 27 133 69 164h-131v45h237c53 14 104 25 134 55c16 16 25 37 25 84c0 96 -76 128 -131 128
c-51 0 -128 -20 -127 -100h-53c0 110 106 147 181 148c62 0 186 -27 186 -176c0 -69 -16 -101 -41 -125c-5 -5 -11 -10 -17 -14h140v-45h-251c-16 -5 -32 -9 -47 -15z" />
    <glyph glyph-name="uni20AD" unicode="&#x20ad;" horiz-adv-x="519" 
d="M265 388v-3h192v-45h-192v-3l238 -337h-65l-236 340h-35v-340h-54v340h-98v45h98v315h54v-315h33l224 315h65z" />
    <glyph glyph-name="lira" unicode="&#x20a4;" horiz-adv-x="547" 
d="M295 711c126 0 201 -69 201 -186h-55c0 85 -55 135 -146 135c-98 0 -156 -56 -156 -152c0 -32 9 -64 21 -96h201v-46h-183c8 -19 15 -40 21 -60h162v-45h-151c9 -65 -6 -133 -87 -210v-3c130 23 205 17 351 2l21 -50c-169 23 -305 21 -432 -11v61c82 99 96 158 87 211
h-134v45h119c-7 19 -16 39 -25 60h-94v46h78c-7 27 -12 58 -12 96c0 128 78 203 213 203z" />
    <glyph glyph-name="uni20A6" unicode="&#x20a6;" horiz-adv-x="639" 
d="M522 454h101v-46h-101v-116h101v-46h-101v-246h-90l-261 644l-2 -4v-640h-52v246h-101v46h101v116h-101v46h101v246h90l261 -644h3v644h51v-246z" />
    <glyph glyph-name="uni20B1" unicode="&#x20b1;" horiz-adv-x="566" 
d="M117 700h85c89 0 198 -10 241 -103h108v-46h-94c4 -16 5 -35 5 -55c0 -21 -1 -39 -5 -56h94v-45h-108c-44 -92 -152 -103 -241 -103h-32v-292h-53v395h-101v45h101v111h-101v46h101v103zM170 650v-308h48c103 0 187 32 187 154c0 124 -84 154 -187 154h-48z" />
    <glyph glyph-name="uni20B9" unicode="&#x20b9;" horiz-adv-x="483" 
d="M436 654h-181v-2c36 -24 63 -61 69 -123h144l-39 -45h-105c-7 -88 -59 -129 -106 -148v-3c43 -20 65 -42 79 -68c23 -42 28 -95 39 -171c5 -36 13 -68 37 -94h-69c-9 9 -13 19 -16 34c-16 66 -5 179 -69 241c-23 24 -63 37 -120 37v51c77 0 169 32 169 143
c0 94 -47 148 -148 148h-104l23 46h421z" />
    <glyph glyph-name="sterling" unicode="&#xa3;" horiz-adv-x="547" 
d="M295 711c126 0 201 -69 201 -186h-55c0 85 -55 135 -146 135c-98 0 -156 -56 -156 -152c0 -45 18 -90 36 -136h186v-45h-168c12 -35 21 -72 19 -110c-2 -52 -26 -106 -89 -166v-3c130 23 205 17 351 2l21 -50c-169 23 -305 21 -432 -11v61c65 77 88 131 89 175
c2 37 -11 68 -25 102h-111v45h92c-15 37 -26 79 -26 136c0 128 78 203 213 203z" />
    <glyph glyph-name="uni20B8" unicode="&#x20b8;" horiz-adv-x="468" 
d="M453 649h-437v51h437v-51zM453 533h-191v-533h-53v533h-193v51h437v-51z" />
    <glyph glyph-name="uni20AE" unicode="&#x20ae;" horiz-adv-x="468" 
d="M453 649h-191v-140l170 69v-45l-170 -70v-117l170 69v-45l-170 -70v-300h-53v279l-173 -71v46l173 70v118l-173 -71v46l173 70v162h-193v51h437v-51z" />
    <glyph glyph-name="won" unicode="&#x20a9;" horiz-adv-x="901" 
d="M783 458h103v-46h-115l-28 -116h143v-46h-155l-61 -250h-76l-145 638h-2l-139 -638h-74l-65 250h-153v46h141l-32 116h-109v46h98l-64 242h58l161 -639h3l137 639h78l144 -639h2l155 639h55z" />
    <glyph glyph-name="yen" unicode="&#xa5;" horiz-adv-x="470" 
d="M323 428h106v-45h-127l-41 -84v-35h168v-45h-168v-219h-53v219h-167v45h167v35l-40 84h-127v45h105l-130 272h64l154 -330h3l153 330h65z" />
    <glyph glyph-name="Ohm" unicode="&#x2126;" horiz-adv-x="774" 
d="M485 0v50c90 47 138 161 138 313c0 189 -88 300 -236 300s-237 -111 -237 -300c0 -152 48 -266 139 -313v-50h-221v50h141v3c-60 51 -113 158 -113 308c0 220 108 350 291 350s291 -130 291 -350c0 -151 -52 -258 -112 -308v-3h140v-50h-221z" />
    <glyph glyph-name="uni224A" unicode="&#x224a;" horiz-adv-x="637" 
d="M534 525h38c-17 -91 -66 -145 -131 -145c-105 0 -140 86 -238 86c-40 0 -75 -35 -94 -95h-37c17 91 66 145 131 145c105 0 140 -85 238 -85c39 0 74 35 93 94zM534 292h38c-17 -91 -66 -145 -131 -145c-105 0 -140 86 -238 86c-40 0 -75 -35 -94 -95h-37
c17 91 66 145 131 145c105 0 140 -85 238 -85c39 0 74 35 93 94zM569 1h-500v47h500v-47z" />
    <glyph glyph-name="approxequal" unicode="&#x2248;" horiz-adv-x="634" 
d="M568 523h37c-17 -91 -66 -145 -131 -145c-105 0 -140 86 -238 86c-39 0 -74 -35 -93 -95h-38c17 91 66 145 131 145c105 0 140 -86 238 -86c40 0 75 35 94 95zM568 290h37c-17 -91 -66 -145 -131 -145c-105 0 -140 86 -238 86c-39 0 -74 -35 -93 -95h-38
c17 91 66 145 131 145c105 0 140 -86 238 -86c40 0 75 35 94 95z" />
    <glyph glyph-name="uni2246" unicode="&#x2246;" horiz-adv-x="631" 
d="M204 430c-40 0 -75 -35 -93 -95h-38c17 91 66 145 131 145c105 0 140 -85 238 -85c39 0 74 35 93 94h38c-17 -91 -66 -145 -131 -145c-105 0 -140 86 -238 86zM322 107h248v-46h-272l-32 -64h-52l32 64h-177v46h200l46 91h-246v47h269l32 63h53l-32 -63h178v-47h-202z
" />
    <glyph glyph-name="asymptoticallyequal" unicode="&#x2243;" horiz-adv-x="638" 
d="M535 489h38c-17 -91 -66 -145 -131 -145c-105 0 -140 86 -238 86c-40 0 -75 -35 -93 -95h-38c17 91 66 145 131 145c105 0 140 -85 238 -85c39 0 74 35 93 94zM569 198h-500v47h500v-47z" />
    <glyph glyph-name="asciitilde" unicode="~" horiz-adv-x="634" 
d="M531 388h38c-17 -91 -66 -145 -131 -145c-105 0 -140 86 -238 86c-39 0 -74 -35 -93 -95h-38c17 91 66 145 131 145c105 0 140 -86 238 -86c39 0 74 35 93 95z" />
    <glyph glyph-name="because" unicode="&#x2235;" horiz-adv-x="526" 
d="M110 389c25 0 41 -15 41 -41c0 -25 -16 -40 -41 -40c-26 0 -41 15 -41 40c0 26 15 41 41 41zM428 389c25 0 41 -15 41 -41c0 -25 -16 -40 -41 -40c-26 0 -41 15 -41 40c0 26 15 41 41 41zM270 71c26 0 41 -16 41 -41c0 -26 -15 -41 -41 -41c-25 0 -41 15 -41 41
c0 25 16 41 41 41z" />
    <glyph glyph-name="congruent" unicode="&#x2245;" horiz-adv-x="638" 
d="M535 489h38c-17 -91 -66 -145 -131 -145c-105 0 -140 86 -238 86c-40 0 -75 -35 -93 -95h-38c17 91 66 145 131 145c105 0 140 -85 238 -85c39 0 74 35 93 94zM569 198h-500v47h500v-47zM570 61h-501v46h501v-46z" />
    <glyph glyph-name="contourintegral" unicode="&#x222e;" horiz-adv-x="355" 
d="M345 239c0 -112 -89 -204 -201 -207c-22 -147 -74 -271 -213 -271l22 44c76 0 115 104 137 233c-91 22 -160 104 -160 201c0 111 87 201 196 208c18 158 60 282 186 282l-12 -44c-71 0 -106 -104 -124 -242c97 -18 169 -102 169 -204zM-15 239c0 -74 45 -135 112 -153
c7 52 11 106 14 157c3 52 5 103 10 153c-79 -8 -136 -74 -136 -157zM150 81c83 7 141 74 141 158c0 78 -49 140 -120 155c-5 -50 -8 -102 -10 -155c-3 -51 -5 -105 -11 -158z" />
    <glyph glyph-name="uni2210" unicode="&#x2210;" horiz-adv-x="644" 
d="M551 -220h-458v965h54v-914h350v914h54v-965z" />
    <glyph glyph-name="uni221B" unicode="&#x221b;" horiz-adv-x="711" 
d="M386 -220h-62l-243 383h-81v50h115l229 -361h3l302 893h62zM295 668c80 0 119 -44 119 -113c0 -43 -21 -77 -50 -86v-3c52 -12 59 -66 59 -108c0 -76 -43 -123 -125 -123c-65 0 -111 33 -127 87l34 17c12 -41 47 -65 94 -65c51 0 82 30 82 90c0 52 -19 87 -107 87v36
c48 0 99 7 99 70c0 38 -20 71 -78 71c-42 0 -70 -23 -70 -55h-41c0 53 45 95 111 95z" />
    <glyph glyph-name="dblintegral" unicode="&#x222c;" horiz-adv-x="480" 
d="M191 749l-12 -44c-104 0 -130 -221 -139 -446c-10 -216 -28 -478 -230 -478l22 44c114 0 146 236 158 439c13 239 24 485 201 485zM352 749l-12 -44c-104 0 -130 -221 -138 -446c-11 -216 -29 -478 -231 -478l22 44c115 0 146 236 158 439c14 239 24 485 201 485z" />
    <glyph glyph-name="divide" unicode="&#xf7;" horiz-adv-x="577" 
d="M294 525c21 0 39 -17 39 -39c0 -21 -18 -38 -39 -38s-39 17 -39 38c0 22 18 39 39 39zM519 240h-450v47h450v-47zM294 77c21 0 39 -17 39 -38c0 -22 -18 -39 -39 -39s-39 17 -39 39c0 21 18 38 39 38z" />
    <glyph glyph-name="uni2238" unicode="&#x2238;" horiz-adv-x="577" 
d="M294 402c26 0 41 -15 41 -40c0 -26 -15 -41 -41 -41s-41 15 -41 41c0 25 15 40 41 40zM519 203h-450v44h450v-44z" />
    <glyph glyph-name="uni2214" unicode="&#x2214;" horiz-adv-x="577" 
d="M294 522c-26 0 -41 16 -41 41c0 26 15 41 41 41s41 -15 41 -41c0 -25 -15 -41 -41 -41zM519 203h-201v-203h-47v203h-202v44h202v203h47v-203h201v-44z" />
    <glyph glyph-name="emptyset" unicode="&#x2205;" horiz-adv-x="651" 
d="M626 569l-73 -72c43 -51 67 -118 67 -198c0 -177 -118 -295 -294 -295c-79 0 -146 24 -196 66l-70 -70l-36 32l71 72c-41 50 -64 117 -64 195c0 176 118 294 295 294c78 0 144 -23 195 -64l72 73zM326 546c-146 0 -242 -99 -242 -247c0 -63 17 -117 48 -158l353 353
c-41 33 -95 52 -159 52zM517 460l-352 -354c41 -35 96 -55 161 -55c146 0 242 99 242 248c0 65 -18 119 -51 161z" />
    <glyph glyph-name="equal" unicode="=" horiz-adv-x="635" 
d="M570 364v-45h-501v45h501zM570 227v-45h-501v45h501z" />
    <glyph glyph-name="uni2A71" unicode="&#x2a71;" horiz-adv-x="569" 
d="M513 583h-451v45h451v-45zM513 446h-451v45h451v-45zM310 216h202v-43h-202v-173h-47v173h-201v43h201v173h47v-173z" />
    <glyph glyph-name="existential" unicode="&#x2203;" horiz-adv-x="518" 
d="M429 700v-700h-377v50h322v292h-297v49h297v260h-317v49h372z" />
    <glyph glyph-name="uni2A0D" unicode="&#x2a0d;" horiz-adv-x="319" 
d="M309 749l-12 -44c-94 0 -124 -179 -136 -379h122v-41h-124l-1 -26c-11 -216 -29 -478 -230 -478l21 44c115 0 147 236 159 439l1 21h-127v41h129c13 218 36 423 198 423z" />
    <glyph glyph-name="uni221C" unicode="&#x221c;" horiz-adv-x="706" 
d="M386 -220h-62l-243 383h-81v50h115l229 -361h3l302 893h62zM353 394h64v-35h-64v-119h-39v119h-181v35l181 269h39v-269zM311 593l-137 -197v-2h140v199h-3z" />
    <glyph glyph-name="gradient" unicode="&#x2207;" horiz-adv-x="756" 
d="M348 0l-291 645v55h643v-55l-293 -645h-59zM636 645v3h-515v-3l255 -587h3z" />
    <glyph glyph-name="greater" unicode="&#x3e;" horiz-adv-x="597" 
d="M69 475v49l463 -211v-50l-463 -212v49l407 188z" />
    <glyph glyph-name="greaterequal" unicode="&#x2265;" horiz-adv-x="562" 
d="M504 364v-51l-450 -175v50l394 149v3l-394 148v49zM504 0h-450v47h450v-47z" />
    <glyph glyph-name="uni223B" unicode="&#x223b;" horiz-adv-x="589" 
d="M297 404c25 0 40 -15 40 -41s-15 -41 -40 -41c-26 0 -41 15 -41 41s15 41 41 41zM509 276h38c-17 -91 -66 -145 -131 -145c-105 0 -140 86 -238 86c-40 0 -75 -35 -94 -95h-37c17 91 66 145 131 145c105 0 140 -86 238 -86c39 0 74 35 93 95zM297 70c25 0 40 -15 40 -41
s-15 -41 -40 -41c-26 0 -41 15 -41 41s15 41 41 41z" />
    <glyph glyph-name="increment" unicode="&#x2206;" horiz-adv-x="756" 
d="M700 55v-55h-643v55l291 645h59zM376 642l-255 -587v-3h515v3l-257 587h-3z" />
    <glyph glyph-name="infinity" unicode="&#x221e;" horiz-adv-x="781" 
d="M583 437c93 0 148 -65 148 -170c0 -103 -56 -168 -151 -168c-56 0 -116 36 -186 131h-3c-70 -95 -130 -131 -186 -131c-95 0 -151 65 -151 168c0 105 55 170 148 170c64 0 129 -47 189 -136h3c60 89 125 136 189 136zM202 390c-59 0 -94 -48 -94 -123
c0 -74 36 -121 97 -121c48 0 97 31 155 119v3c-52 81 -107 122 -158 122zM583 390c-51 0 -106 -41 -158 -122v-3c58 -88 107 -119 155 -119c60 0 97 47 97 121c0 75 -35 123 -94 123z" />
    <glyph glyph-name="integral" unicode="&#x222b;" horiz-adv-x="319" 
d="M309 749l-12 -44c-104 0 -130 -221 -139 -446c-11 -216 -29 -478 -230 -478l21 44c115 0 147 236 159 439c13 239 24 485 201 485z" />
    <glyph glyph-name="uni2A0F" unicode="&#x2a0f;" horiz-adv-x="319" 
d="M309 749l-12 -44c-91 0 -122 -169 -135 -362l128 46v-42l-130 -47l-2 -41c-11 -216 -29 -478 -230 -478l21 44c115 0 147 236 159 439l1 17l-134 -48v42l136 49c13 219 36 425 198 425z" />
    <glyph glyph-name="uni2A0E" unicode="&#x2a0e;" horiz-adv-x="319" 
d="M309 749l-12 -44c-93 0 -124 -179 -136 -378h122v-42h-124l-1 -22h125v-41h-127c-12 -208 -38 -441 -228 -441l21 44c107 0 142 205 156 397h-123v41h126v1c0 7 1 14 1 21h-127v42h129c13 217 37 422 198 422z" />
    <glyph glyph-name="uni2A1B" unicode="&#x2a1b;" horiz-adv-x="354" 
d="M344 813h-336v42h336v-42zM309 749l-12 -44c-104 0 -130 -221 -139 -446c-11 -216 -29 -478 -230 -478l21 44c115 0 147 236 159 439c13 239 24 485 201 485z" />
    <glyph glyph-name="uni2A1C" unicode="&#x2a1c;" horiz-adv-x="319" 
d="M309 749l-12 -44c-104 0 -130 -221 -139 -446c-11 -216 -29 -478 -230 -478l21 44c115 0 147 236 159 439c13 239 24 485 201 485zM282 -323h-336v41h336v-41z" />
    <glyph glyph-name="less" unicode="&#x3c;" horiz-adv-x="597" 
d="M532 475l-407 -185v-2l407 -187v-50l-463 212v51l463 211v-50z" />
    <glyph glyph-name="lessequal" unicode="&#x2264;" horiz-adv-x="584" 
d="M519 488l-394 -148v-3l394 -149v-50l-450 175v51l450 173v-49zM519 0h-450v47h450v-47z" />
    <glyph glyph-name="logicalnot" unicode="&#xac;" horiz-adv-x="611" 
d="M546 89h-51v263h-426v47h477v-310z" />
    <glyph glyph-name="uni00B5" unicode="&#xb5;" 
d="M455 0h-50v87h-3c-24 -46 -59 -98 -146 -98c-52 0 -94 15 -123 57h-3v-266h-50v745h50v-313c3 -118 45 -176 126 -176c110 0 149 97 149 210v279h50v-525z" />
    <glyph glyph-name="minus" unicode="&#x2212;" horiz-adv-x="627" 
d="M569 203h-500v47h500v-47z" />
    <glyph glyph-name="uni2A2A" unicode="&#x2a2a;" horiz-adv-x="634" 
d="M569 203h-500v44h500v-44zM319 129c26 0 41 -15 41 -41c0 -25 -15 -40 -41 -40s-41 15 -41 40c0 26 15 41 41 41z" />
    <glyph glyph-name="uni2A2B" unicode="&#x2a2b;" horiz-adv-x="584" 
d="M156 402c26 0 41 -15 41 -40c0 -26 -15 -41 -41 -41s-41 15 -41 41c0 25 15 40 41 40zM519 203h-450v44h450v-44zM446 129c26 0 41 -15 41 -41c0 -25 -15 -40 -41 -40s-41 15 -41 40c0 26 15 41 41 41z" />
    </font>
</defs>
</svg>
