<?xml version="1.0" standalone="no"?>
<!DOCTYPE svg PUBLIC "-//W3C//DTD SVG 1.1//EN" "http://www.w3.org/Graphics/SVG/1.1/DTD/svg11.dtd" >
<svg xmlns="http://www.w3.org/2000/svg" xmlns:xlink="http://www.w3.org/1999/xlink" version="1.1">
<metadata>
Created by FontForge 20170910 at Wed Oct 14 17:25:58 2015
 By Jimmy Wärting
Copyright (c) 2014 by Ariel A'lvares. All rights reserved.
</metadata>
<defs>
<font id="Polt-UltraLight" horiz-adv-x="599" >
  <font-face 
    font-family="Polt Ultra Light"
    font-weight="250"
    font-stretch="normal"
    units-per-em="1000"
    panose-1="0 0 3 0 0 0 0 0 0 0"
    ascent="800"
    descent="-200"
    x-height="525"
    cap-height="700"
    bbox="-190 -300 1038 1084"
    underline-thickness="50"
    underline-position="-100"
    stemh="20"
    stemv="29"
    unicode-range="U+0020-F8FF"
  />
<missing-glyph horiz-adv-x="500" 
d="M0 0v700h500v-700h-500zM250 395l170 255h-340zM280 350l170 -255v510zM80 50h340l-170 255zM50 605v-510l170 255z" />
    <glyph glyph-name=".notdef" horiz-adv-x="500" 
d="M0 0v700h500v-700h-500zM250 395l170 255h-340zM280 350l170 -255v510zM80 50h340l-170 255zM50 605v-510l170 255z" />
    <glyph glyph-name="A" unicode="A" 
d="M579 0h-22l-106 270h-310l-100 -270h-21l262 700h25zM294 676l-143 -386h293l-148 386h-2z" />
    <glyph glyph-name="Aacute" unicode="&#xc1;" 
d="M290 773h15l104 139h-23zM579 0h-22l-106 270h-310l-100 -270h-21l262 700h25zM294 676l-143 -386h293l-148 386h-2z" />
    <glyph glyph-name="Abreve" unicode="&#x102;" 
d="M366 864h18c0 -46 -11 -94 -84 -94s-84 48 -84 94h18c0 -55 20 -78 66 -78s66 23 66 78zM579 0h-22l-106 270h-310l-100 -270h-21l262 700h25zM294 676l-143 -386h293l-148 386h-2z" />
    <glyph glyph-name="Abreveacute" unicode="&#x1eae;" 
d="M294 881h15l104 139h-23zM366 864h18c0 -46 -11 -94 -84 -94s-84 48 -84 94h18c0 -55 20 -78 66 -78s66 23 66 78zM579 0h-22l-106 270h-310l-100 -270h-21l262 700h25zM294 676l-143 -386h293l-148 386h-2z" />
    <glyph glyph-name="Abrevedotbelow" unicode="&#x1eb6;" 
d="M366 864h18c0 -46 -11 -94 -84 -94s-84 48 -84 94h18c0 -55 20 -78 66 -78s66 23 66 78zM579 0h-22l-106 270h-310l-100 -270h-21l262 700h25zM294 676l-143 -386h293l-148 386h-2zM309 -147h-18v87h18v-87z" />
    <glyph glyph-name="Abrevegrave" unicode="&#x1eb0;" 
d="M189 1020l104 -139h15l-96 139h-23zM366 864h18c0 -46 -11 -94 -84 -94s-84 48 -84 94h18c0 -55 20 -78 66 -78s66 23 66 78zM579 0h-22l-106 270h-310l-100 -270h-21l262 700h25zM294 676l-143 -386h293l-148 386h-2z" />
    <glyph glyph-name="Abrevehookabove" unicode="&#x1eb2;" 
d="M347 968c0 -21 -16 -48 -61 -48l4 -49h17l-3 36c40 7 60 29 60 62c0 35 -19 58 -59 58c-45 0 -69 -23 -69 -72h17c0 32 16 56 48 56c28 0 46 -14 46 -43zM366 864h18c0 -46 -11 -94 -84 -94s-84 48 -84 94h18c0 -55 20 -78 66 -78s66 23 66 78zM579 0h-22l-106 270h-310
l-100 -270h-21l262 700h25zM294 676l-143 -386h293l-148 386h-2z" />
    <glyph glyph-name="Abrevetilde" unicode="&#x1eb4;" 
d="M407 984h15c0 -58 -25 -92 -67 -92c-63 0 -60 76 -113 76c-46 0 -57 -46 -57 -73h-15c0 58 30 91 72 91c63 0 60 -76 113 -76c46 0 52 47 52 74zM366 864h18c0 -46 -11 -94 -84 -94s-84 48 -84 94h18c0 -55 20 -78 66 -78s66 23 66 78zM579 0h-22l-106 270h-310
l-100 -270h-21l262 700h25zM294 676l-143 -386h293l-148 386h-2z" />
    <glyph glyph-name="Acaron" unicode="&#x1cd;" 
d="M304 770h-22l-90 118h17l83 -105h2l83 105h17zM579 0h-22l-106 270h-310l-100 -270h-21l262 700h25zM294 676l-143 -386h293l-148 386h-2z" />
    <glyph glyph-name="Acircumflex" unicode="&#xc2;" 
d="M401 770h-17l-83 105h-2l-83 -105h-17l90 118h22zM579 0h-22l-106 270h-310l-100 -270h-21l262 700h25zM294 676l-143 -386h293l-148 386h-2z" />
    <glyph glyph-name="Acircumflexacute" unicode="&#x1ea4;" 
d="M425 815h-15l96 139h23zM404 760h-17l-83 105h-2l-83 -105h-17l90 118h22zM579 0h-22l-106 270h-310l-100 -270h-21l262 700h25zM294 676l-143 -386h293l-148 386h-2z" />
    <glyph glyph-name="Acircumflexdotbelow" unicode="&#x1eac;" 
d="M401 770h-17l-83 105h-2l-83 -105h-17l90 118h22zM579 0h-22l-106 270h-310l-100 -270h-21l262 700h25zM294 676l-143 -386h293l-148 386h-2zM309 -147h-18v87h18v-87z" />
    <glyph glyph-name="Acircumflexgrave" unicode="&#x1ea6;" 
d="M440 815h-15l-104 139h23zM393 760h-17l-83 105h-2l-83 -105h-17l90 118h22zM579 0h-22l-106 270h-310l-100 -270h-21l262 700h25zM294 676l-143 -386h293l-148 386h-2z" />
    <glyph glyph-name="Acircumflexhookabove" unicode="&#x1ea8;" 
d="M498 867c0 -21 -16 -48 -61 -48l4 -49h17l-3 36c40 7 60 29 60 62c0 35 -19 58 -59 58c-45 0 -69 -23 -69 -72h17c0 32 16 56 48 56c28 0 46 -14 46 -43zM397 770h-17l-83 105h-2l-83 -105h-17l90 118h22zM579 0h-22l-106 270h-310l-100 -270h-21l262 700h25zM294 676
l-143 -386h293l-148 386h-2z" />
    <glyph glyph-name="Acircumflextilde" unicode="&#x1eaa;" 
d="M241 1031c63 0 60 -76 113 -76c46 0 52 47 52 74h15c0 -58 -25 -92 -67 -92c-63 0 -60 76 -113 76c-46 0 -57 -46 -57 -73h-15c0 58 30 91 72 91zM407 760h-17l-83 105h-2l-83 -105h-17l90 118h22zM579 0h-22l-106 270h-310l-100 -270h-21l262 700h25zM294 676l-143 -386
h293l-148 386h-2z" />
    <glyph glyph-name="Adieresis" unicode="&#xc4;" 
d="M222 760h-20v87h20v-87zM397 760h-20v87h20v-87zM579 0h-22l-106 270h-310l-100 -270h-21l262 700h25zM294 676l-143 -386h293l-148 386h-2z" />
    <glyph glyph-name="Adieresismacron" unicode="&#x1de;" 
d="M439 906h-279v17h279v-17zM222 760h-20v87h20v-87zM397 760h-20v87h20v-87zM579 0h-22l-106 270h-310l-100 -270h-21l262 700h25zM294 676l-143 -386h293l-148 386h-2z" />
    <glyph glyph-name="Adotbelow" unicode="&#x1ea0;" 
d="M579 0h-22l-106 270h-310l-100 -270h-21l262 700h25zM294 676l-143 -386h293l-148 386h-2zM309 -147h-18v87h18v-87z" />
    <glyph glyph-name="Agrave" unicode="&#xc0;" 
d="M171 912l104 -139h15l-96 139h-23zM579 0h-22l-106 270h-310l-100 -270h-21l262 700h25zM294 676l-143 -386h293l-148 386h-2z" />
    <glyph glyph-name="Ahookabove" unicode="&#x1ea2;" 
d="M343 870c0 -21 -16 -48 -61 -48l4 -49h17l-3 36c40 7 60 29 60 62c0 35 -19 58 -59 58c-45 0 -69 -23 -69 -72h17c0 32 16 56 48 56c28 0 46 -14 46 -43zM579 0h-22l-106 270h-310l-100 -270h-21l262 700h25zM294 676l-143 -386h293l-148 386h-2z" />
    <glyph glyph-name="uni2C6D" unicode="&#x2c6d;" horiz-adv-x="655" 
d="M324 711c126 0 200 -112 213 -188h3v172h20v-692h-20v172h-3c-13 -76 -87 -186 -213 -186c-165 0 -262 131 -262 354c0 231 97 368 262 368zM324 691c-151 0 -241 -129 -241 -348c0 -210 90 -334 241 -334c136 0 216 125 216 337c0 217 -80 345 -216 345z" />
    <glyph glyph-name="Amacron" unicode="&#x100;" 
d="M439 770h-279v17h279v-17zM579 0h-22l-106 270h-310l-100 -270h-21l262 700h25zM294 676l-143 -386h293l-148 386h-2z" />
    <glyph glyph-name="Aogonek" unicode="&#x104;" 
d="M307 700l272 -700c-111 -49 -151 -141 -119 -179c23 -28 83 -23 140 14l16 -10c-44 -37 -144 -57 -173 -14c-8 12 -12 25 -12 40c0 52 45 120 123 155l-103 264h-310l-100 -270h-21l262 700h25zM294 676l-143 -386h293l-148 386h-2z" />
    <glyph glyph-name="Aring" unicode="&#xc5;" 
d="M300 723c-68 0 -108 40 -108 108c0 67 40 107 108 107c67 0 107 -40 107 -107c0 -68 -40 -108 -107 -108zM299 740c56 0 89 33 89 90s-33 90 -89 90s-89 -33 -89 -90s33 -90 89 -90zM579 0h-22l-106 270h-310l-100 -270h-21l262 700h25zM294 676l-143 -386h293l-148 386
h-2z" />
    <glyph glyph-name="Atilde" unicode="&#xc3;" 
d="M403 859h15c0 -58 -25 -92 -67 -92c-63 0 -60 76 -113 76c-46 0 -57 -46 -57 -73h-15c0 58 30 91 72 91c63 0 60 -76 113 -76c46 0 52 47 52 74zM579 0h-22l-106 270h-310l-100 -270h-21l262 700h25zM294 676l-143 -386h293l-148 386h-2z" />
    <glyph glyph-name="AE" unicode="&#xc6;" horiz-adv-x="862" 
d="M804 681h-320v-300h305v-19h-305v-343h325v-19h-345v270h-256l-167 -270h-21l425 700h359v-19zM453 676l-234 -386h245v386h-11z" />
    <glyph glyph-name="B" unicode="B" horiz-adv-x="593" 
d="M95 700h179c71 0 233 5 233 -175c0 -105 -55 -146 -115 -163v-2c80 -17 148 -63 148 -175c0 -156 -104 -185 -243 -185h-202v700zM115 680v-310h175c121 0 197 34 197 155s-76 155 -197 155h-175zM115 350v-330h198c86 0 207 14 207 165c0 145 -126 165 -207 165h-198z
" />
    <glyph glyph-name="Bdotbelow" unicode="&#x1e04;" horiz-adv-x="593" 
d="M95 700h179c71 0 233 5 233 -175c0 -105 -55 -146 -115 -163v-2c80 -17 148 -63 148 -175c0 -156 -104 -185 -243 -185h-202v700zM115 680v-310h175c121 0 197 34 197 155s-76 155 -197 155h-175zM115 350v-330h198c86 0 207 14 207 165c0 145 -126 165 -207 165h-198z
M316 -148h-18v87h18v-87z" />
    <glyph glyph-name="Bhook" unicode="&#x181;" horiz-adv-x="735" 
d="M237 700h179c71 0 233 5 233 -175c0 -105 -55 -146 -115 -163v-2c80 -17 148 -63 148 -175c0 -156 -104 -185 -243 -185h-202v681c-69 0 -139 -6 -171 -30c-23 -17 -36 -45 -21 -109h-20c-5 19 -7 35 -7 50c0 33 12 57 34 74c31 24 79 36 185 34zM257 681v-311h175
c121 0 197 34 197 155s-76 156 -197 156h-175zM257 350v-330h198c86 0 207 14 207 165c0 145 -126 165 -207 165h-198z" />
    <glyph glyph-name="uni0243" unicode="&#x243;" horiz-adv-x="626" 
d="M425 362v-2c80 -17 148 -63 148 -175c0 -156 -104 -185 -243 -185h-202v176h-120v17h120v507h179c71 0 233 5 233 -175c0 -105 -55 -146 -115 -163zM148 370h175c121 0 197 34 197 155s-76 155 -197 155h-175v-310zM148 20h198c86 0 207 14 207 165
c0 145 -126 165 -207 165h-198v-157h139v-17h-139v-156z" />
    <glyph glyph-name="C" unicode="C" horiz-adv-x="657" 
d="M345 711c170 0 249 -162 249 -252h-20c0 100 -85 232 -229 232c-145 0 -262 -165 -262 -336c0 -149 55 -346 261 -346c154 0 234 153 242 199l18 -11c-28 -101 -122 -208 -259 -208c-211 0 -283 191 -283 366c0 178 123 356 283 356z" />
    <glyph glyph-name="Cacute" unicode="&#x106;" horiz-adv-x="657" 
d="M303 784h15l104 139h-23zM345 711c170 0 249 -162 249 -252h-20c0 100 -85 232 -229 232c-145 0 -262 -165 -262 -336c0 -149 55 -346 261 -346c154 0 234 153 242 199l18 -11c-28 -101 -122 -208 -259 -208c-211 0 -283 191 -283 366c0 178 123 356 283 356z" />
    <glyph glyph-name="Ccaron" unicode="&#x10c;" horiz-adv-x="657" 
d="M357 773h-22l-90 118h17l83 -105h2l83 105h17zM345 711c170 0 249 -162 249 -252h-20c0 100 -85 232 -229 232c-145 0 -262 -165 -262 -336c0 -149 55 -346 261 -346c154 0 234 153 242 199l18 -11c-28 -101 -122 -208 -259 -208c-211 0 -283 191 -283 366
c0 178 123 356 283 356z" />
    <glyph glyph-name="Ccedilla" unicode="&#xc7;" horiz-adv-x="657" 
d="M586 208l18 -11c-24 -85 -94 -174 -198 -201c19 -97 -54 -166 -159 -143l13 15c68 -16 148 37 130 125c-14 -3 -29 -4 -45 -4c-211 0 -283 191 -283 366c0 178 123 356 283 356c170 0 249 -162 249 -252h-20c0 100 -85 232 -229 232c-145 0 -262 -165 -262 -336
c0 -149 55 -346 261 -346c154 0 234 153 242 199z" />
    <glyph glyph-name="Cdotaccent" unicode="&#x10a;" horiz-adv-x="657" 
d="M353 763h-18v87h18v-87zM345 711c170 0 249 -162 249 -252h-20c0 100 -85 232 -229 232c-145 0 -262 -165 -262 -336c0 -149 55 -346 261 -346c154 0 234 153 242 199l18 -11c-28 -101 -122 -208 -259 -208c-211 0 -283 191 -283 366c0 178 123 356 283 356z" />
    <glyph glyph-name="Chook" unicode="&#x187;" horiz-adv-x="765" 
d="M765 800v-20c-64 15 -92 2 -109 -21c-24 -32 -30 -98 -30 -166v-134h-20c0 100 -85 232 -229 232c-145 0 -262 -165 -262 -336c0 -149 55 -346 261 -346c164 0 226 150 242 199l18 -11c-28 -101 -122 -208 -259 -208c-211 0 -283 191 -283 366c0 178 123 356 283 356
c119 0 193 -83 227 -162h2c0 149 10 191 35 224c17 21 40 33 74 34c15 0 31 -2 50 -7z" />
    <glyph glyph-name="D" unicode="D" horiz-adv-x="645" 
d="M95 700h182c107 0 156 -21 205 -61c70 -56 101 -150 101 -280c0 -159 -27 -283 -149 -335c-41 -17 -92 -24 -157 -24h-182v700zM115 680v-660h177c55 0 99 8 134 23c112 48 137 166 137 316c0 128 -35 214 -94 264c-46 39 -95 57 -177 57h-177z" />
    <glyph glyph-name="Dafrican" unicode="&#x189;" horiz-adv-x="649" 
d="M486 639c70 -56 101 -150 101 -280c0 -159 -27 -283 -149 -335c-41 -17 -92 -24 -157 -24h-182v371h-81v17h81v312h182c107 0 156 -21 205 -61zM430 43c112 48 137 166 137 316c0 128 -35 214 -94 264c-46 39 -95 57 -177 57h-177v-292h178v-17h-178v-351h177
c55 0 99 8 134 23z" />
    <glyph glyph-name="Eth" unicode="&#xd0;" horiz-adv-x="649" 
d="M486 639c70 -56 101 -150 101 -280c0 -159 -27 -283 -149 -335c-41 -17 -92 -24 -157 -24h-182v371h-81v17h81v312h182c107 0 156 -21 205 -61zM430 43c112 48 137 166 137 316c0 128 -35 214 -94 264c-46 39 -95 57 -177 57h-177v-292h178v-17h-178v-351h177
c55 0 99 8 134 23z" />
    <glyph glyph-name="Dcaron" unicode="&#x10e;" horiz-adv-x="645" 
d="M307 770h-22l-90 118h17l83 -105h2l83 105h17zM95 700h182c107 0 156 -21 205 -61c70 -56 101 -150 101 -280c0 -159 -27 -283 -149 -335c-41 -17 -92 -24 -157 -24h-182v700zM115 680v-660h177c55 0 99 8 134 23c112 48 137 166 137 316c0 128 -35 214 -94 264
c-46 39 -95 57 -177 57h-177z" />
    <glyph glyph-name="Dcircumflexbelow" unicode="&#x1e12;" horiz-adv-x="645" 
d="M95 700h182c107 0 156 -21 205 -61c70 -56 101 -150 101 -280c0 -159 -27 -283 -149 -335c-41 -17 -92 -24 -157 -24h-182v700zM115 680v-660h177c55 0 99 8 134 23c112 48 137 166 137 316c0 128 -35 214 -94 264c-46 39 -95 57 -177 57h-177zM385 -178h-17l-83 105h-2
l-83 -105h-17l90 118h22z" />
    <glyph glyph-name="Dcroat" unicode="&#x110;" horiz-adv-x="649" 
d="M486 639c70 -56 101 -150 101 -280c0 -159 -27 -283 -149 -335c-41 -17 -92 -24 -157 -24h-182v371h-81v17h81v312h182c107 0 156 -21 205 -61zM430 43c112 48 137 166 137 316c0 128 -35 214 -94 264c-46 39 -95 57 -177 57h-177v-292h178v-17h-178v-351h177
c55 0 99 8 134 23z" />
    <glyph glyph-name="Ddotbelow" unicode="&#x1e0c;" horiz-adv-x="645" 
d="M95 700h182c107 0 156 -21 205 -61c70 -56 101 -150 101 -280c0 -159 -27 -283 -149 -335c-41 -17 -92 -24 -157 -24h-182v700zM115 680v-660h177c55 0 99 8 134 23c112 48 137 166 137 316c0 128 -35 214 -94 264c-46 39 -95 57 -177 57h-177zM311 -148h-18v87h18v-87z
" />
    <glyph glyph-name="Dhook" unicode="&#x18a;" horiz-adv-x="785" 
d="M235 700h182c107 0 156 -21 205 -61c70 -56 101 -150 101 -280c0 -159 -27 -283 -149 -335c-41 -17 -92 -24 -157 -24h-182v681c-69 0 -137 -6 -169 -30c-23 -17 -36 -45 -21 -109h-20c-5 19 -7 36 -7 51c0 33 13 57 34 73c31 24 77 36 183 34zM255 681v-661h177
c55 0 99 8 134 23c112 48 137 166 137 316c0 128 -35 214 -94 264c-46 39 -95 58 -177 58h-177z" />
    <glyph glyph-name="Dlinebelow" unicode="&#x1e0e;" horiz-adv-x="645" 
d="M95 700h182c107 0 156 -21 205 -61c70 -56 101 -150 101 -280c0 -159 -27 -283 -149 -335c-41 -17 -92 -24 -157 -24h-182v700zM115 680v-660h177c55 0 99 8 134 23c112 48 137 166 137 316c0 128 -35 214 -94 264c-46 39 -95 57 -177 57h-177zM475 -77h-279v17h279v-17z
" />
    <glyph glyph-name="E" unicode="E" horiz-adv-x="493" 
d="M435 681h-320v-300h305v-19h-305v-343h325v-19h-345v700h340v-19z" />
    <glyph glyph-name="Eacute" unicode="&#xc9;" horiz-adv-x="493" 
d="M223 772h15l104 139h-23zM435 681h-320v-300h305v-19h-305v-343h325v-19h-345v700h340v-19z" />
    <glyph glyph-name="Ecaron" unicode="&#x11a;" horiz-adv-x="493" 
d="M282 770h-22l-90 118h17l83 -105h2l83 105h17zM435 681h-320v-300h305v-19h-305v-343h325v-19h-345v700h340v-19z" />
    <glyph glyph-name="uni0228" unicode="&#x228;" horiz-adv-x="493" 
d="M440 0h-101c16 -95 -57 -162 -160 -139l13 15c68 -16 148 36 131 124h-228v700h340v-19h-320v-300h305v-19h-305v-343h325v-19z" />
    <glyph glyph-name="Ecircumflex" unicode="&#xca;" horiz-adv-x="493" 
d="M369 770h-17l-83 105h-2l-83 -105h-17l90 118h22zM435 681h-320v-300h305v-19h-305v-343h325v-19h-345v700h340v-19z" />
    <glyph glyph-name="Ecircumflexacute" unicode="&#x1ebe;" horiz-adv-x="493" 
d="M394 815h-15l96 139h23zM373 760h-17l-83 105h-2l-83 -105h-17l90 118h22zM435 681h-320v-300h305v-19h-305v-343h325v-19h-345v700h340v-19z" />
    <glyph glyph-name="Ecircumflexdotbelow" unicode="&#x1ec6;" horiz-adv-x="493" 
d="M369 770h-17l-83 105h-2l-83 -105h-17l90 118h22zM435 681h-320v-300h305v-19h-305v-343h325v-19h-345v700h340v-19zM275 -147h-18v87h18v-87z" />
    <glyph glyph-name="Ecircumflexgrave" unicode="&#x1ec0;" horiz-adv-x="493" 
d="M411 815h-15l-104 139h23zM364 760h-17l-83 105h-2l-83 -105h-17l90 118h22zM435 681h-320v-300h305v-19h-305v-343h325v-19h-345v700h340v-19z" />
    <glyph glyph-name="Ecircumflexhookabove" unicode="&#x1ec2;" horiz-adv-x="493" 
d="M442 867c0 -21 -16 -48 -61 -48l4 -49h17l-3 36c40 7 60 29 60 62c0 35 -19 58 -59 58c-45 0 -69 -23 -69 -72h17c0 32 16 56 48 56c28 0 46 -14 46 -43zM341 770h-17l-83 105h-2l-83 -105h-17l90 118h22zM435 681h-320v-300h305v-19h-305v-343h325v-19h-345v700h340v-19
z" />
    <glyph glyph-name="Ecircumflextilde" unicode="&#x1ec4;" horiz-adv-x="493" 
d="M201 1031c63 0 60 -76 113 -76c46 0 52 47 52 74h15c0 -58 -25 -92 -67 -92c-63 0 -60 76 -113 76c-46 0 -57 -46 -57 -73h-15c0 58 30 91 72 91zM367 760h-17l-83 105h-2l-83 -105h-17l90 118h22zM435 681h-320v-300h305v-19h-305v-343h325v-19h-345v700h340v-19z" />
    <glyph glyph-name="Edieresis" unicode="&#xcb;" horiz-adv-x="493" 
d="M190 760h-20v87h20v-87zM365 760h-20v87h20v-87zM435 681h-320v-300h305v-19h-305v-343h325v-19h-345v700h340v-19z" />
    <glyph glyph-name="Edotaccent" unicode="&#x116;" horiz-adv-x="493" 
d="M277 763h-18v87h18v-87zM435 681h-320v-300h305v-19h-305v-343h325v-19h-345v700h340v-19z" />
    <glyph glyph-name="Edotbelow" unicode="&#x1eb8;" horiz-adv-x="493" 
d="M435 681h-320v-300h305v-19h-305v-343h325v-19h-345v700h340v-19zM277 -147h-18v87h18v-87z" />
    <glyph glyph-name="Egrave" unicode="&#xc8;" horiz-adv-x="493" 
d="M172 912l104 -139h15l-96 139h-23zM435 681h-320v-300h305v-19h-305v-343h325v-19h-345v700h340v-19z" />
    <glyph glyph-name="Ehookabove" unicode="&#x1eba;" horiz-adv-x="493" 
d="M315 870c0 -21 -16 -48 -61 -48l4 -49h17l-3 36c40 7 60 29 60 62c0 35 -19 58 -59 58c-45 0 -69 -23 -69 -72h17c0 32 16 56 48 56c28 0 46 -14 46 -43zM435 681h-320v-300h305v-19h-305v-343h325v-19h-345v700h340v-19z" />
    <glyph glyph-name="Emacron" unicode="&#x112;" horiz-adv-x="493" 
d="M421 770h-279v17h279v-17zM435 681h-320v-300h305v-19h-305v-343h325v-19h-345v700h340v-19z" />
    <glyph glyph-name="Eogonek" unicode="&#x118;" horiz-adv-x="493" 
d="M440 0h-41c-111 -49 -151 -141 -119 -179c23 -28 83 -23 140 14l16 -10c-44 -37 -144 -57 -173 -14c-8 12 -12 25 -12 40c0 51 45 113 120 149h-276v700h340v-19h-320v-300h305v-19h-305v-343h325v-19z" />
    <glyph glyph-name="Eopen" unicode="&#x190;" horiz-adv-x="515" 
d="M281 711c104 0 166 -57 166 -153h-20c0 84 -54 133 -146 133s-147 -54 -147 -145c0 -107 50 -147 171 -147v-19c-148 0 -189 -71 -189 -192c0 -113 61 -179 164 -179c91 0 152 54 164 145l18 -11c-13 -97 -81 -154 -181 -154c-117 0 -186 74 -186 199
c0 111 44 185 119 201v2c-81 16 -101 87 -101 154c0 104 62 166 168 166z" />
    <glyph glyph-name="Ereversed" unicode="&#x18e;" horiz-adv-x="491" 
d="M398 0h-345v19h325v343h-305v19h305v300h-320v19h340v-700z" />
    <glyph glyph-name="Esh" unicode="&#x1a9;" horiz-adv-x="519" 
d="M466 680h-368v-3l265 -308l-288 -346v-3h389v-20h-411v27l286 341v2l-260 301v29h387v-20z" />
    <glyph glyph-name="Etilde" unicode="&#x1ebc;" horiz-adv-x="493" 
d="M370 862h15c0 -58 -25 -92 -67 -92c-63 0 -60 76 -113 76c-46 0 -57 -46 -57 -73h-15c0 58 30 91 72 91c63 0 60 -76 113 -76c46 0 52 47 52 74zM435 681h-320v-300h305v-19h-305v-343h325v-19h-345v700h340v-19z" />
    <glyph glyph-name="Ezh" unicode="&#x1b7;" horiz-adv-x="569" 
d="M471 670l-240 -245v-2c179 17 285 -65 285 -225c0 -118 -82 -209 -213 -209c-159 0 -222 92 -250 208l18 11c13 -62 57 -199 233 -199c112 0 191 84 191 199c0 154 -132 217 -282 194v30l238 246v2h-342v20h362v-30z" />
    <glyph glyph-name="Ezhcaron" unicode="&#x1ee;" horiz-adv-x="569" 
d="M304 770h-22l-90 118h17l83 -105h2l83 105h17zM471 670l-240 -245v-2c179 17 285 -65 285 -225c0 -118 -82 -209 -213 -209c-159 0 -222 92 -250 208l18 11c13 -62 57 -199 233 -199c112 0 191 84 191 199c0 154 -132 217 -282 194v30l238 246v2h-342v20h362v-30z" />
    <glyph glyph-name="Ezhreversed" unicode="&#x1b8;" horiz-adv-x="569" 
d="M460 700v-20h-342v-2l238 -246v-30c-150 23 -282 -40 -282 -194c0 -115 79 -199 191 -199c176 0 220 137 233 199l18 -11c-28 -116 -91 -208 -250 -208c-131 0 -213 91 -213 209c0 160 106 242 285 225v2l-240 245v30h362z" />
    <glyph glyph-name="F" unicode="F" horiz-adv-x="483" 
d="M430 680h-315v-290h290v-19h-290v-371h-20v700h335v-20z" />
    <glyph glyph-name="Fhook" unicode="&#x191;" horiz-adv-x="475" 
d="M422 680h-315v-290h290v-19h-290v-371c0 -97 -3 -150 -28 -183c-24 -31 -68 -36 -129 -36l10 18c50 0 86 10 104 31c22 25 23 90 23 170v700h335v-20z" />
    <glyph glyph-name="G" unicode="G" horiz-adv-x="671" 
d="M335 711c170 0 249 -162 249 -252h-20c0 100 -85 232 -229 232c-145 0 -262 -165 -262 -336c0 -149 77 -346 283 -346c157 0 195 75 210 111v179h-222l12 18h230v-204c-35 -75 -94 -124 -229 -124c-211 0 -305 191 -305 366c0 178 123 356 283 356z" />
    <glyph glyph-name="Gammaafrican" unicode="&#x194;" horiz-adv-x="608" 
d="M316 128v-2c83 -70 109 -131 109 -190c0 -98 -46 -156 -124 -156s-124 58 -124 156c0 59 31 120 114 190v2l-271 572h21l261 -553h2l262 553h22zM305 110h-3c-69 -56 -104 -122 -104 -174c0 -85 38 -136 103 -136s103 51 103 136c0 55 -30 118 -99 174z" />
    <glyph glyph-name="Gbreve" unicode="&#x11e;" horiz-adv-x="671" 
d="M399 867h18c0 -46 -11 -94 -84 -94s-84 48 -84 94h18c0 -55 20 -78 66 -78s66 23 66 78zM335 711c170 0 249 -162 249 -252h-20c0 100 -85 232 -229 232c-145 0 -262 -165 -262 -336c0 -149 77 -346 283 -346c157 0 195 75 210 111v179h-222l12 18h230v-204
c-35 -75 -94 -124 -229 -124c-211 0 -305 191 -305 366c0 178 123 356 283 356z" />
    <glyph glyph-name="Gcaron" unicode="&#x1e6;" horiz-adv-x="671" 
d="M353 769h-22l-90 118h17l83 -105h2l83 105h17zM335 711c170 0 249 -162 249 -252h-20c0 100 -85 232 -229 232c-145 0 -262 -165 -262 -336c0 -149 77 -346 283 -346c157 0 195 75 210 111v179h-222l12 18h230v-204c-35 -75 -94 -124 -229 -124c-211 0 -305 191 -305 366
c0 178 123 356 283 356z" />
    <glyph glyph-name="Gcommaaccent" unicode="&#x122;" horiz-adv-x="671" 
d="M335 711c170 0 249 -162 249 -252h-20c0 100 -85 232 -229 232c-145 0 -262 -165 -262 -336c0 -149 77 -346 283 -346c157 0 195 75 210 111v179h-222l12 18h230v-204c-35 -75 -94 -124 -229 -124c-211 0 -305 191 -305 366c0 178 123 356 283 356zM409 -60v-76
c0 -28 0 -51 -25 -51v18c10 0 7 22 7 33h-8v76h26z" />
    <glyph glyph-name="Gdotaccent" unicode="&#x120;" horiz-adv-x="671" 
d="M348 763h-18v87h18v-87zM335 711c170 0 249 -162 249 -252h-20c0 100 -85 232 -229 232c-145 0 -262 -165 -262 -336c0 -149 77 -346 283 -346c157 0 195 75 210 111v179h-222l12 18h230v-204c-35 -75 -94 -124 -229 -124c-211 0 -305 191 -305 366
c0 178 123 356 283 356z" />
    <glyph glyph-name="Ghook" unicode="&#x193;" horiz-adv-x="723" 
d="M723 800v-20c-64 15 -92 2 -109 -21c-24 -32 -30 -98 -30 -166v-134h-20c0 100 -85 232 -229 232c-145 0 -262 -165 -262 -336c0 -149 77 -346 283 -346c157 0 195 75 210 111v179h-222l12 18h230v-204c-35 -75 -94 -124 -229 -124c-211 0 -305 191 -305 366
c0 178 123 356 283 356c119 0 193 -83 227 -162h2c0 149 10 191 35 224c24 31 63 42 124 27z" />
    <glyph glyph-name="uni0241" unicode="&#x241;" horiz-adv-x="456" 
d="M216 713c125 0 178 -71 178 -190c0 -130 -71 -170 -107 -206c-93 -91 -68 -180 -68 -317h-20c0 126 -31 226 77 334c43 43 98 66 98 190s-60 170 -158 170c-65 0 -144 -32 -144 -163h-20c0 64 26 182 164 182z" />
    <glyph glyph-name="H" unicode="H" horiz-adv-x="606" 
d="M511 0h-20v356h-376v-356h-20v700h20v-325h376v325h20v-700z" />
    <glyph glyph-name="Hbar" unicode="&#x126;" horiz-adv-x="632" 
d="M524 563h90v-17h-90v-546h-20v356h-376v-356h-20v546h-90v17h90v148h20v-148h376v148h20v-148zM128 546v-171h376v171h-376z" />
    <glyph glyph-name="Hdotbelow" unicode="&#x1e24;" horiz-adv-x="606" 
d="M511 0h-20v356h-376v-356h-20v700h20v-325h376v325h20v-700zM312 -147h-18v87h18v-87z" />
    <glyph glyph-name="I" unicode="I" horiz-adv-x="210" 
d="M115 0h-20v700h20v-700z" />
    <glyph glyph-name="IJ" unicode="&#x132;" horiz-adv-x="744" 
d="M115 0h-20v700h20v-700zM649 700v-455c0 -128 -15 -256 -212 -256c-149 0 -194 74 -207 165l18 11c11 -81 49 -156 189 -156c176 0 192 119 192 220v471h20z" />
    <glyph glyph-name="Iacute" unicode="&#xcd;" horiz-adv-x="210" 
d="M66 776h15l104 139h-23zM115 0h-20v700h20v-700z" />
    <glyph glyph-name="Icaron" unicode="&#x1cf;" horiz-adv-x="210" 
d="M117 770h-22l-90 118h17l83 -105h2l83 105h17zM115 0h-20v700h20v-700z" />
    <glyph glyph-name="Icircumflex" unicode="&#xce;" horiz-adv-x="210" 
d="M206 769h-17l-83 105h-2l-83 -105h-17l90 118h22zM115 0h-20v700h20v-700z" />
    <glyph glyph-name="Idieresis" unicode="&#xcf;" horiz-adv-x="210" 
d="M26 760h-20v87h20v-87zM201 760h-20v87h20v-87zM115 0h-20v700h20v-700z" />
    <glyph glyph-name="Idieresisacute" unicode="&#x1e2e;" horiz-adv-x="210" 
d="M93 895h15l104 139h-23zM26 760h-20v87h20v-87zM201 760h-20v87h20v-87zM115 0h-20v700h20v-700z" />
    <glyph glyph-name="Idotaccent" unicode="&#x130;" horiz-adv-x="210" 
d="M113 760h-18v87h18v-87zM115 0h-20v700h20v-700z" />
    <glyph glyph-name="Idotbelow" unicode="&#x1eca;" horiz-adv-x="210" 
d="M115 0h-20v700h20v-700zM116 -147h-18v87h18v-87z" />
    <glyph glyph-name="Igrave" unicode="&#xcc;" horiz-adv-x="210" 
d="M45 912l104 -139h15l-96 139h-23zM115 0h-20v700h20v-700z" />
    <glyph glyph-name="Ihookabove" unicode="&#x1ec8;" horiz-adv-x="210" 
d="M150 870c0 -21 -16 -48 -61 -48l4 -49h17l-3 36c40 7 60 29 60 62c0 35 -19 58 -59 58c-45 0 -69 -23 -69 -72h17c0 32 16 56 48 56c28 0 46 -14 46 -43zM115 0h-20v700h20v-700z" />
    <glyph glyph-name="Imacron" unicode="&#x12a;" horiz-adv-x="210" 
d="M252 770h-279v17h279v-17zM115 0h-20v700h20v-700z" />
    <glyph glyph-name="Iogonek" unicode="&#x12e;" horiz-adv-x="210" 
d="M115 700v-700c-111 -49 -151 -141 -119 -179c23 -28 83 -23 140 14l16 -10c-44 -37 -144 -57 -173 -14c-8 12 -12 25 -12 40c0 52 48 117 128 153v696h20z" />
    <glyph glyph-name="Iotaafrican" unicode="&#x196;" horiz-adv-x="270" 
d="M115 700v-492c0 -35 -2 -67 0 -94c9 -88 33 -107 127 -107l10 -18c-61 0 -105 5 -129 36c-25 33 -28 86 -28 183v492h20z" />
    <glyph glyph-name="Istroke" unicode="&#x197;" horiz-adv-x="315" 
d="M297 402h-129v-402h-20v402h-130v17h130v281h20v-281h129v-17z" />
    <glyph glyph-name="Itilde" unicode="&#x128;" horiz-adv-x="210" 
d="M209 862h15c0 -58 -25 -92 -67 -92c-63 0 -60 76 -113 76c-46 0 -57 -46 -57 -73h-15c0 58 30 91 72 91c63 0 60 -76 113 -76c46 0 52 47 52 74zM115 0h-20v700h20v-700z" />
    <glyph glyph-name="J" unicode="J" horiz-adv-x="534" 
d="M439 700v-455c0 -128 -15 -256 -212 -256c-149 0 -194 74 -207 165l18 11c11 -81 49 -156 189 -156c176 0 192 119 192 220v471h20z" />
    <glyph glyph-name="K" unicode="K" horiz-adv-x="546" 
d="M261 430v-2l265 -428h-25l-252 414h-2l-132 -152v-262h-20v700h20l-1 -408h2l357 408h26z" />
    <glyph glyph-name="Kcommaaccent" unicode="&#x136;" horiz-adv-x="546" 
d="M261 430v-2l265 -428h-25l-252 414h-2l-132 -152v-262h-20v700h20l-1 -408h2l357 408h26zM346 -60v-76c0 -28 0 -51 -25 -51v18c10 0 7 22 7 33h-8v76h26z" />
    <glyph glyph-name="Khook" unicode="&#x198;" horiz-adv-x="642" 
d="M624 679v-18c-28 16 -52 13 -85 0c-59 -23 -190 -177 -230 -225l-5 -6v-2l265 -428h-25l-252 414h-2l-132 -152v-262h-20v700h20l-1 -408h2l134 152c147 166 232 280 331 235z" />
    <glyph glyph-name="Klinebelow" unicode="&#x1e34;" horiz-adv-x="546" 
d="M261 430v-2l265 -428h-25l-252 414h-2l-132 -152v-262h-20v700h20l-1 -408h2l357 408h26zM493 -77h-279v17h279v-17z" />
    <glyph glyph-name="L" unicode="L" horiz-adv-x="499" 
d="M115 19h364v-19h-384v700h20v-681z" />
    <glyph glyph-name="Lacute" unicode="&#x139;" horiz-adv-x="499" 
d="M82 773h15l104 139h-23zM115 19h364v-19h-384v700h20v-681z" />
    <glyph glyph-name="Lcaron" unicode="&#x13d;" horiz-adv-x="499" 
d="M115 19h364v-19h-384v700h20v-681zM489 700v-110c0 -57 -4 -99 -56 -110v15c49 12 37 71 38 96h-8v109h26z" />
    <glyph glyph-name="Lcircumflexbelow" unicode="&#x1e3c;" horiz-adv-x="499" 
d="M115 19h364v-19h-384v700h20v-681zM373 -178h-17l-83 105h-2l-83 -105h-17l90 118h22z" />
    <glyph glyph-name="Lcommaaccent" unicode="&#x13b;" horiz-adv-x="499" 
d="M115 19h364v-19h-384v700h20v-681zM286 -60v-76c0 -28 0 -51 -25 -51v18c10 0 7 22 7 33h-8v76h26z" />
    <glyph glyph-name="Ldot" unicode="&#x13f;" horiz-adv-x="499" 
d="M115 19h364v-19h-384v700h20v-681zM386 417h-18v87h18v-87z" />
    <glyph glyph-name="Ldotbelow" unicode="&#x1e36;" horiz-adv-x="499" 
d="M115 19h364v-19h-384v700h20v-681zM296 -147h-18v87h18v-87z" />
    <glyph glyph-name="Ldotbelowmacron" unicode="&#x1e38;" horiz-adv-x="499" 
d="M374 763h-279v17h279v-17zM115 19h364v-19h-384v700h20v-681zM296 -147h-18v87h18v-87z" />
    <glyph glyph-name="Llinebelow" unicode="&#x1e3a;" horiz-adv-x="499" 
d="M115 19h364v-19h-384v700h20v-681zM422 -77h-279v17h279v-17z" />
    <glyph glyph-name="Lslash" unicode="&#x141;" horiz-adv-x="532" 
d="M512 19v-19h-384v233l-108 -78v22l108 78v445h20v-431l230 166v-22l-230 -166v-228h364z" />
    <glyph glyph-name="M" unicode="M" horiz-adv-x="716" 
d="M621 0h-20v677h-2l-229 -677h-34l-229 677h-2v-677h-20v700h35l232 -676h2l232 676h35v-700z" />
    <glyph glyph-name="Macute" unicode="&#x1e3e;" horiz-adv-x="716" 
d="M350 773h15l104 139h-23zM621 0h-20v677h-2l-229 -677h-34l-229 677h-2v-677h-20v700h35l232 -676h2l232 676h35v-700z" />
    <glyph glyph-name="N" unicode="N" horiz-adv-x="573" 
d="M488 0h-32l-349 677h-2v-677h-20v700h31l350 -678h2v678h20v-700z" />
    <glyph glyph-name="Nacute" unicode="&#x143;" horiz-adv-x="573" 
d="M295 773h15l104 139h-23zM488 0h-32l-349 677h-2v-677h-20v700h31l350 -678h2v678h20v-700z" />
    <glyph glyph-name="Ncaron" unicode="&#x147;" horiz-adv-x="573" 
d="M298 770h-22l-90 118h17l83 -105h2l83 105h17zM488 0h-32l-349 677h-2v-677h-20v700h31l350 -678h2v678h20v-700z" />
    <glyph glyph-name="Ncircumflexbelow" unicode="&#x1e4a;" horiz-adv-x="573" 
d="M488 0h-32l-349 677h-2v-677h-20v700h31l350 -678h2v678h20v-700zM388 -178h-17l-83 105h-2l-83 -105h-17l90 118h22z" />
    <glyph glyph-name="Ncommaaccent" unicode="&#x145;" horiz-adv-x="573" 
d="M488 0h-32l-349 677h-2v-677h-20v700h31l350 -678h2v678h20v-700zM303 -60v-76c0 -28 0 -51 -25 -51v18c10 0 7 22 7 33h-8v76h26z" />
    <glyph glyph-name="Ndotaccent" unicode="&#x1e44;" horiz-adv-x="573" 
d="M296 767h-18v87h18v-87zM488 0h-32l-349 677h-2v-677h-20v700h31l350 -678h2v678h20v-700z" />
    <glyph glyph-name="Ndotbelow" unicode="&#x1e46;" horiz-adv-x="573" 
d="M488 0h-32l-349 677h-2v-677h-20v700h31l350 -678h2v678h20v-700zM296 -147h-18v87h18v-87z" />
    <glyph glyph-name="Eng" unicode="&#x14a;" horiz-adv-x="573" 
d="M488 700v-700c0 -97 -8 -149 -33 -182c-24 -31 -63 -37 -124 -37l10 18c49 0 83 8 99 32c35 51 32 165 16 169l-349 677h-2v-677h-20v700h31l350 -678h2v678h20z" />
    <glyph glyph-name="Nhookleft" unicode="&#x19d;" horiz-adv-x="575" 
d="M490 0h-32l-349 677h-2v-677c0 -97 -3 -150 -28 -183c-24 -31 -68 -36 -129 -36l10 18c50 0 86 10 104 31c22 25 23 90 23 170v700h31l350 -678h2v678h20v-700z" />
    <glyph glyph-name="Ntilde" unicode="&#xd1;" horiz-adv-x="573" 
d="M396 862h15c0 -58 -25 -92 -67 -92c-63 0 -60 76 -113 76c-46 0 -57 -46 -57 -73h-15c0 58 30 91 72 91c63 0 60 -76 113 -76c46 0 52 47 52 74zM488 0h-32l-349 677h-2v-677h-20v700h31l350 -678h2v678h20v-700z" />
    <glyph glyph-name="O" unicode="O" horiz-adv-x="676" 
d="M338 711c160 0 276 -129 276 -350c0 -183 -65 -372 -276 -372s-276 197 -276 372c0 221 116 350 276 350zM338 691c-145 0 -255 -122 -255 -330c0 -149 49 -352 255 -352s255 203 255 352c0 208 -110 330 -255 330z" />
    <glyph glyph-name="Oacute" unicode="&#xd3;" horiz-adv-x="676" 
d="M317 784h15l104 139h-23zM338 711c160 0 276 -129 276 -350c0 -183 -65 -372 -276 -372s-276 197 -276 372c0 221 116 350 276 350zM338 691c-145 0 -255 -122 -255 -330c0 -149 49 -352 255 -352s255 203 255 352c0 208 -110 330 -255 330z" />
    <glyph glyph-name="Ocaron" unicode="&#x1d1;" horiz-adv-x="676" 
d="M349 773h-22l-90 118h17l83 -105h2l83 105h17zM338 711c160 0 276 -129 276 -350c0 -183 -65 -372 -276 -372s-276 197 -276 372c0 221 116 350 276 350zM338 691c-145 0 -255 -122 -255 -330c0 -149 49 -352 255 -352s255 203 255 352c0 208 -110 330 -255 330z" />
    <glyph glyph-name="Ocircumflex" unicode="&#xd4;" horiz-adv-x="676" 
d="M438 773h-17l-83 105h-2l-83 -105h-17l90 118h22zM338 711c160 0 276 -129 276 -350c0 -183 -65 -372 -276 -372s-276 197 -276 372c0 221 116 350 276 350zM338 691c-145 0 -255 -122 -255 -330c0 -149 49 -352 255 -352s255 203 255 352c0 208 -110 330 -255 330z" />
    <glyph glyph-name="Ocircumflexacute" unicode="&#x1ed0;" horiz-adv-x="676" 
d="M458 818h-15l96 139h23zM437 763h-17l-83 105h-2l-83 -105h-17l90 118h22zM338 711c160 0 276 -129 276 -350c0 -183 -65 -372 -276 -372s-276 197 -276 372c0 221 116 350 276 350zM338 691c-145 0 -255 -122 -255 -330c0 -149 49 -352 255 -352s255 203 255 352
c0 208 -110 330 -255 330z" />
    <glyph glyph-name="Ocircumflexdotbelow" unicode="&#x1ed8;" horiz-adv-x="676" 
d="M438 773h-17l-83 105h-2l-83 -105h-17l90 118h22zM338 711c160 0 276 -129 276 -350c0 -183 -65 -372 -276 -372s-276 197 -276 372c0 221 116 350 276 350zM338 691c-145 0 -255 -122 -255 -330c0 -149 49 -352 255 -352s255 203 255 352c0 208 -110 330 -255 330z
M360 -147h-18v87h18v-87z" />
    <glyph glyph-name="Ocircumflexgrave" unicode="&#x1ed2;" horiz-adv-x="676" 
d="M481 815h-15l-104 139h23zM434 760h-17l-83 105h-2l-83 -105h-17l90 118h22zM338 711c160 0 276 -129 276 -350c0 -183 -65 -372 -276 -372s-276 197 -276 372c0 221 116 350 276 350zM338 691c-145 0 -255 -122 -255 -330c0 -149 49 -352 255 -352s255 203 255 352
c0 208 -110 330 -255 330z" />
    <glyph glyph-name="Ocircumflexhookabove" unicode="&#x1ed4;" horiz-adv-x="676" 
d="M539 870c0 -21 -16 -48 -61 -48l4 -49h17l-3 36c40 7 60 29 60 62c0 35 -19 58 -59 58c-45 0 -69 -23 -69 -72h17c0 32 16 56 48 56c28 0 46 -14 46 -43zM438 773h-17l-83 105h-2l-83 -105h-17l90 118h22zM338 711c160 0 276 -129 276 -350c0 -183 -65 -372 -276 -372
s-276 197 -276 372c0 221 116 350 276 350zM338 691c-145 0 -255 -122 -255 -330c0 -149 49 -352 255 -352s255 203 255 352c0 208 -110 330 -255 330z" />
    <glyph glyph-name="Ocircumflextilde" unicode="&#x1ed6;" horiz-adv-x="676" 
d="M274 1034c63 0 60 -76 113 -76c46 0 52 47 52 74h15c0 -58 -25 -92 -67 -92c-63 0 -60 76 -113 76c-46 0 -57 -46 -57 -73h-15c0 58 30 91 72 91zM440 763h-17l-83 105h-2l-83 -105h-17l90 118h22zM338 711c160 0 276 -129 276 -350c0 -183 -65 -372 -276 -372
s-276 197 -276 372c0 221 116 350 276 350zM338 691c-145 0 -255 -122 -255 -330c0 -149 49 -352 255 -352s255 203 255 352c0 208 -110 330 -255 330z" />
    <glyph glyph-name="Odieresis" unicode="&#xd6;" horiz-adv-x="676" 
d="M261 763h-20v87h20v-87zM436 763h-20v87h20v-87zM338 711c160 0 276 -129 276 -350c0 -183 -65 -372 -276 -372s-276 197 -276 372c0 221 116 350 276 350zM338 691c-145 0 -255 -122 -255 -330c0 -149 49 -352 255 -352s255 203 255 352c0 208 -110 330 -255 330z" />
    <glyph glyph-name="uni022A" unicode="&#x22a;" horiz-adv-x="676" 
d="M478 904h-279v17h279v-17zM261 763h-20v87h20v-87zM436 763h-20v87h20v-87zM338 711c160 0 276 -129 276 -350c0 -183 -65 -372 -276 -372s-276 197 -276 372c0 221 116 350 276 350zM338 691c-145 0 -255 -122 -255 -330c0 -149 49 -352 255 -352s255 203 255 352
c0 208 -110 330 -255 330z" />
    <glyph glyph-name="Odotbelow" unicode="&#x1ecc;" horiz-adv-x="676" 
d="M338 711c160 0 276 -129 276 -350c0 -183 -65 -372 -276 -372s-276 197 -276 372c0 221 116 350 276 350zM338 691c-145 0 -255 -122 -255 -330c0 -149 49 -352 255 -352s255 203 255 352c0 208 -110 330 -255 330zM347 -147h-18v87h18v-87z" />
    <glyph glyph-name="Ograve" unicode="&#xd2;" horiz-adv-x="676" 
d="M218 923l104 -139h15l-96 139h-23zM338 711c160 0 276 -129 276 -350c0 -183 -65 -372 -276 -372s-276 197 -276 372c0 221 116 350 276 350zM338 691c-145 0 -255 -122 -255 -330c0 -149 49 -352 255 -352s255 203 255 352c0 208 -110 330 -255 330z" />
    <glyph glyph-name="Ohookabove" unicode="&#x1ece;" horiz-adv-x="676" 
d="M379 870c0 -21 -16 -48 -61 -48l4 -49h17l-3 36c40 7 60 29 60 62c0 35 -19 58 -59 58c-45 0 -69 -23 -69 -72h17c0 32 16 56 48 56c28 0 46 -14 46 -43zM338 711c160 0 276 -129 276 -350c0 -183 -65 -372 -276 -372s-276 197 -276 372c0 221 116 350 276 350zM338 691
c-145 0 -255 -122 -255 -330c0 -149 49 -352 255 -352s255 203 255 352c0 208 -110 330 -255 330z" />
    <glyph glyph-name="Ohorn" unicode="&#x1a0;" horiz-adv-x="685" 
d="M647 736h18c0 -60 -52 -118 -118 -132c42 -59 67 -141 67 -243c0 -183 -65 -372 -276 -372s-276 197 -276 372c0 221 116 350 276 350c80 0 150 -33 199 -93c55 8 110 65 110 118zM338 691c-145 0 -255 -122 -255 -330c0 -149 49 -352 255 -352s255 203 255 352
c0 208 -110 330 -255 330z" />
    <glyph glyph-name="Ohornacute" unicode="&#x1eda;" horiz-adv-x="685" 
d="M318 784h15l104 139h-23zM647 736h18c0 -60 -52 -118 -118 -132c42 -59 67 -141 67 -243c0 -183 -65 -372 -276 -372s-276 197 -276 372c0 221 116 350 276 350c80 0 150 -33 199 -93c55 8 110 65 110 118zM338 691c-145 0 -255 -122 -255 -330c0 -149 49 -352 255 -352
s255 203 255 352c0 208 -110 330 -255 330z" />
    <glyph glyph-name="Ohorndotbelow" unicode="&#x1ee2;" horiz-adv-x="685" 
d="M647 736h18c0 -60 -52 -118 -118 -132c42 -59 67 -141 67 -243c0 -183 -65 -372 -276 -372s-276 197 -276 372c0 221 116 350 276 350c80 0 150 -33 199 -93c55 8 110 65 110 118zM338 691c-145 0 -255 -122 -255 -330c0 -149 49 -352 255 -352s255 203 255 352
c0 208 -110 330 -255 330zM354 -147h-18v87h18v-87z" />
    <glyph glyph-name="Ohorngrave" unicode="&#x1edc;" horiz-adv-x="685" 
d="M241 923l104 -139h15l-96 139h-23zM647 736h18c0 -60 -52 -118 -118 -132c42 -59 67 -141 67 -243c0 -183 -65 -372 -276 -372s-276 197 -276 372c0 221 116 350 276 350c80 0 150 -33 199 -93c55 8 110 65 110 118zM338 691c-145 0 -255 -122 -255 -330
c0 -149 49 -352 255 -352s255 203 255 352c0 208 -110 330 -255 330z" />
    <glyph glyph-name="Ohornhookabove" unicode="&#x1ede;" horiz-adv-x="685" 
d="M384 870c0 -21 -16 -48 -61 -48l4 -49h17l-3 36c40 7 60 29 60 62c0 35 -19 58 -59 58c-45 0 -69 -23 -69 -72h17c0 32 16 56 48 56c28 0 46 -14 46 -43zM647 736h18c0 -60 -52 -118 -118 -132c42 -59 67 -141 67 -243c0 -183 -65 -372 -276 -372s-276 197 -276 372
c0 221 116 350 276 350c80 0 150 -33 199 -93c55 8 110 65 110 118zM338 691c-145 0 -255 -122 -255 -330c0 -149 49 -352 255 -352s255 203 255 352c0 208 -110 330 -255 330z" />
    <glyph glyph-name="Ohorntilde" unicode="&#x1ee0;" horiz-adv-x="685" 
d="M446 872h15c0 -58 -25 -92 -67 -92c-63 0 -60 76 -113 76c-46 0 -57 -46 -57 -73h-15c0 58 30 91 72 91c63 0 60 -76 113 -76c46 0 52 47 52 74zM647 736h18c0 -60 -52 -118 -118 -132c42 -59 67 -141 67 -243c0 -183 -65 -372 -276 -372s-276 197 -276 372
c0 221 116 350 276 350c80 0 150 -33 199 -93c55 8 110 65 110 118zM338 691c-145 0 -255 -122 -255 -330c0 -149 49 -352 255 -352s255 203 255 352c0 208 -110 330 -255 330z" />
    <glyph glyph-name="Ohungarumlaut" unicode="&#x150;" horiz-adv-x="676" 
d="M301 776h-15l96 138h23zM441 776h-15l96 136h23zM338 711c160 0 276 -129 276 -350c0 -183 -65 -372 -276 -372s-276 197 -276 372c0 221 116 350 276 350zM338 691c-145 0 -255 -122 -255 -330c0 -149 49 -352 255 -352s255 203 255 352c0 208 -110 330 -255 330z" />
    <glyph glyph-name="Omacron" unicode="&#x14c;" horiz-adv-x="676" 
d="M478 770h-279v17h279v-17zM338 711c160 0 276 -129 276 -350c0 -183 -65 -372 -276 -372s-276 197 -276 372c0 221 116 350 276 350zM338 691c-145 0 -255 -122 -255 -330c0 -149 49 -352 255 -352s255 203 255 352c0 208 -110 330 -255 330z" />
    <glyph glyph-name="Omacronacute" unicode="&#x1e52;" horiz-adv-x="676" 
d="M310 837h15l104 139h-23zM478 770h-279v17h279v-17zM338 711c160 0 276 -129 276 -350c0 -183 -65 -372 -276 -372s-276 197 -276 372c0 221 116 350 276 350zM338 691c-145 0 -255 -122 -255 -330c0 -149 49 -352 255 -352s255 203 255 352c0 208 -110 330 -255 330z
" />
    <glyph glyph-name="Omacrongrave" unicode="&#x1e50;" horiz-adv-x="676" 
d="M239 976l104 -139h15l-96 139h-23zM478 770h-279v17h279v-17zM338 711c160 0 276 -129 276 -350c0 -183 -65 -372 -276 -372s-276 197 -276 372c0 221 116 350 276 350zM338 691c-145 0 -255 -122 -255 -330c0 -149 49 -352 255 -352s255 203 255 352
c0 208 -110 330 -255 330z" />
    <glyph glyph-name="Oopen" unicode="&#x186;" horiz-adv-x="657" 
d="M312 711c160 0 283 -178 283 -356c0 -175 -72 -366 -283 -366c-137 0 -231 107 -259 208l18 11c16 -49 78 -199 242 -199c206 0 261 197 261 346c0 171 -117 336 -262 336c-144 0 -229 -132 -229 -232h-20c0 90 79 252 249 252z" />
    <glyph glyph-name="Oslash" unicode="&#xd8;" horiz-adv-x="709" 
d="M647 700l-87 -115c34 -57 54 -133 54 -224c0 -183 -65 -372 -276 -372c-78 0 -137 27 -179 70l-55 -72l-18 13l58 76c-60 74 -82 183 -82 285c0 221 116 350 276 350c86 0 159 -37 209 -106l82 108zM83 361c0 -88 17 -195 74 -268l376 494c-46 67 -115 104 -195 104
c-145 0 -255 -122 -255 -330zM593 361c0 83 -17 152 -47 205l-374 -490c38 -41 92 -67 166 -67c206 0 255 203 255 352z" />
    <glyph glyph-name="Oslashacute" unicode="&#x1fe;" horiz-adv-x="709" 
d="M311 783h-15l96 139h23zM647 700l-87 -115c34 -57 54 -133 54 -224c0 -183 -65 -372 -276 -372c-78 0 -137 27 -179 70l-55 -72l-18 13l58 76c-60 74 -82 183 -82 285c0 221 116 350 276 350c86 0 159 -37 209 -106l82 108zM83 361c0 -88 17 -195 74 -268l376 494
c-46 67 -115 104 -195 104c-145 0 -255 -122 -255 -330zM593 361c0 83 -17 152 -47 205l-374 -490c38 -41 92 -67 166 -67c206 0 255 203 255 352z" />
    <glyph glyph-name="Otilde" unicode="&#xd5;" horiz-adv-x="760" 
d="M450 872h15c0 -58 -25 -92 -67 -92c-63 0 -60 76 -113 76c-46 0 -57 -46 -57 -73h-15c0 58 30 91 72 91c63 0 60 -76 113 -76c46 0 52 47 52 74zM338 711c160 0 276 -129 276 -350c0 -183 -65 -372 -276 -372s-276 197 -276 372c0 221 116 350 276 350zM338 691
c-145 0 -255 -122 -255 -330c0 -149 49 -352 255 -352s255 203 255 352c0 208 -110 330 -255 330z" />
    <glyph glyph-name="Otildeacute" unicode="&#x1e4c;" horiz-adv-x="676" 
d="M338 945h-15l96 139h23zM292 864c63 0 60 -76 113 -76c46 0 52 47 52 74h15c0 -58 -25 -92 -67 -92c-63 0 -60 76 -113 76c-46 0 -57 -46 -57 -73h-15c0 58 30 91 72 91zM338 711c160 0 276 -129 276 -350c0 -183 -65 -372 -276 -372s-276 197 -276 372
c0 221 116 350 276 350zM338 691c-145 0 -255 -122 -255 -330c0 -149 49 -352 255 -352s255 203 255 352c0 208 -110 330 -255 330z" />
    <glyph glyph-name="OE" unicode="&#x152;" horiz-adv-x="954" 
d="M338 711c137 0 194 -110 216 -190h2v179h340v-19h-320v-300h305v-19h-305v-343h325v-19h-345v170h-2c-22 -80 -79 -181 -216 -181c-160 0 -276 151 -276 372s116 350 276 350zM338 691c-145 0 -255 -122 -255 -330s110 -352 255 -352c165 0 205 179 218 251v171
c-13 72 -53 260 -218 260z" />
    <glyph glyph-name="P" unicode="P" horiz-adv-x="563" 
d="M95 700h143c128 0 273 -17 273 -203s-144 -205 -272 -205h-124v-292h-20v700zM115 681v-369h140c167 0 235 59 235 185s-69 184 -236 184h-139z" />
    <glyph glyph-name="Phook" unicode="&#x1a4;" horiz-adv-x="713" 
d="M235 700h143c128 0 273 -17 273 -203s-144 -205 -272 -205h-124v-292h-20v681c-69 0 -137 -6 -169 -30c-23 -17 -36 -45 -21 -109h-20c-4 18 -7 34 -7 49c0 34 12 58 34 75c31 24 77 36 183 34zM255 681v-369h140c167 0 235 59 235 185s-69 184 -236 184h-139z" />
    <glyph glyph-name="Thorn" unicode="&#xde;" horiz-adv-x="573" 
d="M115 554h123c128 0 273 -17 273 -203s-144 -205 -272 -205h-124v-146h-20v700h20v-146zM115 535v-369h140c167 0 235 59 235 185s-69 184 -236 184h-139z" />
    <glyph glyph-name="Q" unicode="Q" horiz-adv-x="697" 
d="M338 711c160 0 276 -129 276 -350c0 -132 -37 -268 -136 -333v-2c46 6 99 7 191 -8l8 -19c-194 33 -204 -10 -339 -10c-211 0 -276 197 -276 372c0 221 116 350 276 350zM338 691c-145 0 -255 -122 -255 -330c0 -149 49 -352 255 -352s255 203 255 352
c0 208 -110 330 -255 330z" />
    <glyph glyph-name="R" unicode="R" horiz-adv-x="560" 
d="M95 700h174c118 0 261 -17 261 -186c0 -127 -89 -166 -129 -174v-1c48 -8 84 -29 98 -64c18 -45 20 -109 20 -174c0 -34 2 -69 21 -101h-22c-6 10 -9 23 -13 42c-15 65 15 196 -41 252c-27 27 -74 34 -127 34h-222v-328h-20v700zM115 681v-334h219c107 0 177 58 177 167
s-63 167 -226 167h-170z" />
    <glyph glyph-name="Racute" unicode="&#x154;" horiz-adv-x="560" 
d="M224 773h15l104 139h-23zM95 700h174c118 0 261 -17 261 -186c0 -127 -89 -166 -129 -174v-1c48 -8 84 -29 98 -64c18 -45 20 -109 20 -174c0 -34 2 -69 21 -101h-22c-6 10 -9 23 -13 42c-15 65 15 196 -41 252c-27 27 -74 34 -127 34h-222v-328h-20v700zM115 681v-334
h219c107 0 177 58 177 167s-63 167 -226 167h-170z" />
    <glyph glyph-name="Rcaron" unicode="&#x158;" horiz-adv-x="560" 
d="M289 773h-22l-90 118h17l83 -105h2l83 105h17zM95 700h174c118 0 261 -17 261 -186c0 -127 -89 -166 -129 -174v-1c48 -8 84 -29 98 -64c18 -45 20 -109 20 -174c0 -34 2 -69 21 -101h-22c-6 10 -9 23 -13 42c-15 65 15 196 -41 252c-27 27 -74 34 -127 34h-222v-328h-20
v700zM115 681v-334h219c107 0 177 58 177 167s-63 167 -226 167h-170z" />
    <glyph glyph-name="Rcommaaccent" unicode="&#x156;" horiz-adv-x="560" 
d="M95 700h174c118 0 261 -17 261 -186c0 -127 -89 -166 -129 -174v-1c48 -8 84 -29 98 -64c18 -45 20 -109 20 -174c0 -34 2 -69 21 -101h-22c-6 10 -9 23 -13 42c-15 65 15 196 -41 252c-27 27 -74 34 -127 34h-222v-328h-20v700zM115 681v-334h219c107 0 177 58 177 167
s-63 167 -226 167h-170zM314 -60v-76c0 -28 0 -51 -25 -51v18c10 0 7 22 7 33h-8v76h26z" />
    <glyph glyph-name="uni024C" unicode="&#x24c;" horiz-adv-x="605" 
d="M140 700h174c118 0 261 -17 261 -186c0 -127 -89 -166 -129 -174v-1c48 -8 84 -29 98 -64c18 -45 20 -109 20 -174c0 -34 2 -69 21 -101h-22c-6 10 -9 23 -13 42c-15 65 15 196 -41 252c-27 27 -74 34 -127 34h-222v-328h-20v328h-120v19h120v353zM160 681v-334h219
c107 0 177 58 177 167s-63 167 -226 167h-170z" />
    <glyph glyph-name="uni2C64" unicode="&#x2c64;" horiz-adv-x="560" 
d="M95 700h174c118 0 261 -17 261 -186c0 -127 -89 -166 -129 -174v-1c48 -8 84 -29 98 -64c18 -45 20 -109 20 -174c0 -34 2 -69 21 -101h-22c-6 10 -9 23 -13 42c-15 65 15 196 -41 252c-27 27 -74 34 -127 34h-222v-328c0 -80 1 -145 23 -170c18 -21 54 -31 104 -31
l10 -18c-61 0 -105 5 -129 36c-25 33 -28 86 -28 183v700zM115 681v-334h219c107 0 177 58 177 167s-63 167 -226 167h-170z" />
    <glyph glyph-name="S" unicode="S" horiz-adv-x="530" 
d="M259 711c135 0 204 -85 204 -178h-20c0 70 -48 158 -183 158c-109 0 -155 -74 -155 -156c0 -114 93 -133 186 -159c75 -23 186 -53 186 -197c0 -92 -44 -190 -207 -190c-126 0 -189 74 -217 152l17 11c17 -49 68 -144 200 -144c154 0 187 100 187 171
c0 125 -104 156 -171 177c-98 29 -202 47 -202 179c0 116 78 176 175 176z" />
    <glyph glyph-name="Sacute" unicode="&#x15a;" horiz-adv-x="530" 
d="M221 784h15l104 139h-23zM259 711c135 0 204 -85 204 -178h-20c0 70 -48 158 -183 158c-109 0 -155 -74 -155 -156c0 -114 93 -133 186 -159c75 -23 186 -53 186 -197c0 -92 -44 -190 -207 -190c-126 0 -189 74 -217 152l17 11c17 -49 68 -144 200 -144
c154 0 187 100 187 171c0 125 -104 156 -171 177c-98 29 -202 47 -202 179c0 116 78 176 175 176z" />
    <glyph glyph-name="Scaron" unicode="&#x160;" horiz-adv-x="530" 
d="M276 773h-22l-90 118h17l83 -105h2l83 105h17zM259 711c135 0 204 -85 204 -178h-20c0 70 -48 158 -183 158c-109 0 -155 -74 -155 -156c0 -114 93 -133 186 -159c75 -23 186 -53 186 -197c0 -92 -44 -190 -207 -190c-126 0 -189 74 -217 152l17 11
c17 -49 68 -144 200 -144c154 0 187 100 187 171c0 125 -104 156 -171 177c-98 29 -202 47 -202 179c0 116 78 176 175 176z" />
    <glyph glyph-name="Scedilla" unicode="&#x15e;" horiz-adv-x="530" 
d="M477 179c0 -76 -30 -157 -134 -182c20 -99 -53 -170 -159 -146l13 15c69 -16 150 38 130 128c-17 -3 -36 -5 -57 -5c-126 0 -189 74 -217 152l17 11c17 -49 68 -144 200 -144c154 0 187 100 187 171c0 125 -104 156 -171 177c-98 29 -202 47 -202 179
c0 116 78 176 175 176c135 0 204 -85 204 -178h-20c0 70 -48 158 -183 158c-109 0 -155 -74 -155 -156c0 -114 93 -133 186 -159c75 -23 186 -53 186 -197z" />
    <glyph glyph-name="Scommaaccent" unicode="&#x218;" horiz-adv-x="530" 
d="M259 711c135 0 204 -85 204 -178h-20c0 70 -48 158 -183 158c-109 0 -155 -74 -155 -156c0 -114 93 -133 186 -159c75 -23 186 -53 186 -197c0 -92 -44 -190 -207 -190c-126 0 -189 74 -217 152l17 11c17 -49 68 -144 200 -144c154 0 187 100 187 171
c0 125 -104 156 -171 177c-98 29 -202 47 -202 179c0 116 78 176 175 176zM337 -60v-76c0 -28 0 -51 -25 -51v18c10 0 7 22 7 33h-8v76h26z" />
    <glyph glyph-name="Sdotbelow" unicode="&#x1e62;" horiz-adv-x="530" 
d="M259 711c135 0 204 -85 204 -178h-20c0 70 -48 158 -183 158c-109 0 -155 -74 -155 -156c0 -114 93 -133 186 -159c75 -23 186 -53 186 -197c0 -92 -44 -190 -207 -190c-126 0 -189 74 -217 152l17 11c17 -49 68 -144 200 -144c154 0 187 100 187 171
c0 125 -104 156 -171 177c-98 29 -202 47 -202 179c0 116 78 176 175 176zM283 -147h-18v87h18v-87z" />
    <glyph glyph-name="uni1E9E" unicode="&#x1e9e;" horiz-adv-x="606" 
d="M269 711c127 0 215 -54 237 -146l-107 -182v-3c97 -44 154 -119 154 -201c0 -123 -66 -187 -193 -187c-84 0 -151 43 -181 115l16 9c30 -65 91 -104 166 -104c112 0 171 58 171 168c0 78 -63 152 -162 192l114 196v2c-25 76 -105 121 -214 121c-97 0 -155 -69 -155 -187
v-504h-20v500c0 133 65 211 174 211z" />
    <glyph glyph-name="Schwa" unicode="&#x18f;" horiz-adv-x="583" 
d="M285 711c157 0 249 -143 249 -386c0 -223 -93 -336 -249 -336s-248 119 -248 320h476c0 250 -85 382 -228 382c-102 0 -195 -45 -235 -154h-21c39 109 124 174 256 174zM512 290h-454c0 -163 84 -281 227 -281s227 118 227 281z" />
    <glyph glyph-name="T" unicode="T" horiz-adv-x="464" 
d="M444 681h-202v-681h-20v681h-202v19h424v-19z" />
    <glyph glyph-name="Tbar" unicode="&#x166;" horiz-adv-x="464" 
d="M242 681v-257h130v-17h-130v-407h-20v407h-129v17h129v257h-202v19h424v-19h-202z" />
    <glyph glyph-name="Tcaron" unicode="&#x164;" horiz-adv-x="464" 
d="M243 773h-22l-90 118h17l83 -105h2l83 105h17zM444 681h-202v-681h-20v681h-202v19h424v-19z" />
    <glyph glyph-name="Tcedilla" unicode="&#x162;" horiz-adv-x="464" 
d="M444 681h-202v-681c23 -101 -53 -170 -160 -146l13 15c70 -16 150 39 127 131v681h-202v19h424v-19z" />
    <glyph glyph-name="Tcircumflexbelow" unicode="&#x1e70;" horiz-adv-x="464" 
d="M444 681h-202v-681h-20v681h-202v19h424v-19zM333 -178h-17l-83 105h-2l-83 -105h-17l90 118h22z" />
    <glyph glyph-name="uni021A" unicode="&#x21a;" horiz-adv-x="464" 
d="M444 681h-202v-681h-20v681h-202v19h424v-19zM245 -60v-76c0 -28 0 -51 -25 -51v18c10 0 7 22 7 33h-8v76h26z" />
    <glyph glyph-name="Tdotbelow" unicode="&#x1e6c;" horiz-adv-x="464" 
d="M444 681h-202v-681h-20v681h-202v19h424v-19zM241 -147h-18v87h18v-87z" />
    <glyph glyph-name="Thook" unicode="&#x1ac;" horiz-adv-x="529" 
d="M509 681h-202v-681h-20v681h-50c-69 0 -137 -6 -169 -30c-23 -17 -36 -45 -21 -109h-20c-4 18 -7 35 -7 49c0 34 12 58 34 75c31 24 77 36 183 34h272v-19z" />
    <glyph glyph-name="Tlinebelow" unicode="&#x1e6e;" horiz-adv-x="464" 
d="M444 681h-202v-681h-20v681h-202v19h424v-19zM442 -77h-279v17h279v-17z" />
    <glyph glyph-name="Tretroflexhook" unicode="&#x1ae;" horiz-adv-x="464" 
d="M444 681h-202v-681c0 -80 1 -145 23 -170c18 -21 54 -31 104 -31l10 -18c-61 0 -105 5 -129 36c-25 33 -28 86 -28 183v681h-202v19h424v-19z" />
    <glyph glyph-name="U" unicode="U" horiz-adv-x="604" 
d="M519 700v-455c0 -128 -15 -256 -212 -256s-212 128 -212 256v455h20v-471c0 -101 16 -220 192 -220s192 119 192 220v471h20z" />
    <glyph glyph-name="Uacute" unicode="&#xda;" horiz-adv-x="604" 
d="M255 777h15l104 139h-23zM519 700v-455c0 -128 -15 -256 -212 -256s-212 128 -212 256v455h20v-471c0 -101 16 -220 192 -220s192 119 192 220v471h20z" />
    <glyph glyph-name="uni0244" unicode="&#x244;" horiz-adv-x="644" 
d="M534 502h90v-17h-90v-240c0 -128 -15 -256 -212 -256s-212 128 -212 256v240h-90v17h90v198h20v-198h384v198h20v-198zM130 485v-256c0 -101 16 -220 192 -220s192 119 192 220v256h-384z" />
    <glyph glyph-name="Ucaron" unicode="&#x1d3;" horiz-adv-x="604" 
d="M318 770h-22l-90 118h17l83 -105h2l83 105h17zM519 700v-455c0 -128 -15 -256 -212 -256s-212 128 -212 256v455h20v-471c0 -101 16 -220 192 -220s192 119 192 220v471h20z" />
    <glyph glyph-name="Ucircumflex" unicode="&#xdb;" horiz-adv-x="604" 
d="M408 770h-17l-83 105h-2l-83 -105h-17l90 118h22zM519 700v-455c0 -128 -15 -256 -212 -256s-212 128 -212 256v455h20v-471c0 -101 16 -220 192 -220s192 119 192 220v471h20z" />
    <glyph glyph-name="Udieresis" unicode="&#xdc;" horiz-adv-x="604" 
d="M230 763h-20v87h20v-87zM405 763h-20v87h20v-87zM519 700v-455c0 -128 -15 -256 -212 -256s-212 128 -212 256v455h20v-471c0 -101 16 -220 192 -220s192 119 192 220v471h20z" />
    <glyph glyph-name="Udieresisacute" unicode="&#x1d7;" horiz-adv-x="604" 
d="M301 909h15l104 139h-23zM230 763h-20v87h20v-87zM405 763h-20v87h20v-87zM519 700v-455c0 -128 -15 -256 -212 -256s-212 128 -212 256v455h20v-471c0 -101 16 -220 192 -220s192 119 192 220v471h20z" />
    <glyph glyph-name="Udieresiscaron" unicode="&#x1d9;" horiz-adv-x="604" 
d="M318 909h-22l-90 118h17l83 -105h2l83 105h17zM230 763h-20v87h20v-87zM405 763h-20v87h20v-87zM519 700v-455c0 -128 -15 -256 -212 -256s-212 128 -212 256v455h20v-471c0 -101 16 -220 192 -220s192 119 192 220v471h20z" />
    <glyph glyph-name="Udieresisgrave" unicode="&#x1db;" horiz-adv-x="604" 
d="M201 1048l104 -139h15l-96 139h-23zM230 763h-20v87h20v-87zM405 763h-20v87h20v-87zM519 700v-455c0 -128 -15 -256 -212 -256s-212 128 -212 256v455h20v-471c0 -101 16 -220 192 -220s192 119 192 220v471h20z" />
    <glyph glyph-name="Udieresismacron" unicode="&#x1d5;" horiz-adv-x="604" 
d="M447 905h-279v17h279v-17zM230 763h-20v87h20v-87zM405 763h-20v87h20v-87zM519 700v-455c0 -128 -15 -256 -212 -256s-212 128 -212 256v455h20v-471c0 -101 16 -220 192 -220s192 119 192 220v471h20z" />
    <glyph glyph-name="Udotbelow" unicode="&#x1ee4;" horiz-adv-x="604" 
d="M519 700v-455c0 -128 -15 -256 -212 -256s-212 128 -212 256v455h20v-471c0 -101 16 -220 192 -220s192 119 192 220v471h20zM316 -147h-18v87h18v-87z" />
    <glyph glyph-name="Ugrave" unicode="&#xd9;" horiz-adv-x="604" 
d="M198 912l104 -139h15l-96 139h-23zM519 700v-455c0 -128 -15 -256 -212 -256s-212 128 -212 256v455h20v-471c0 -101 16 -220 192 -220s192 119 192 220v471h20z" />
    <glyph glyph-name="Uhookabove" unicode="&#x1ee6;" horiz-adv-x="604" 
d="M354 860c0 -21 -16 -48 -61 -48l4 -49h17l-3 36c40 7 60 29 60 62c0 35 -19 58 -59 58c-45 0 -69 -23 -69 -72h17c0 32 16 56 48 56c28 0 46 -14 46 -43zM519 700v-455c0 -128 -15 -256 -212 -256s-212 128 -212 256v455h20v-471c0 -101 16 -220 192 -220
s192 119 192 220v471h20z" />
    <glyph glyph-name="Uhorn" unicode="&#x1af;" horiz-adv-x="660" 
d="M622 736h18c0 -61 -54 -120 -121 -133v-358c0 -128 -15 -256 -212 -256s-212 128 -212 256v455h20v-471c0 -101 16 -220 192 -220s192 119 192 220v471h20v-81c53 12 103 66 103 117z" />
    <glyph glyph-name="Uhornacute" unicode="&#x1ee8;" horiz-adv-x="660" 
d="M266 767h15l104 139h-23zM622 736h18c0 -61 -54 -120 -121 -133v-358c0 -128 -15 -256 -212 -256s-212 128 -212 256v455h20v-471c0 -101 16 -220 192 -220s192 119 192 220v471h20v-81c53 12 103 66 103 117z" />
    <glyph glyph-name="Uhorndotbelow" unicode="&#x1ef0;" horiz-adv-x="660" 
d="M622 736h18c0 -61 -54 -120 -121 -133v-358c0 -128 -15 -256 -212 -256s-212 128 -212 256v455h20v-471c0 -101 16 -220 192 -220s192 119 192 220v471h20v-81c53 12 103 66 103 117zM311 -147h-18v87h18v-87z" />
    <glyph glyph-name="Uhorngrave" unicode="&#x1eea;" horiz-adv-x="660" 
d="M186 912l104 -139h15l-96 139h-23zM622 736h18c0 -61 -54 -120 -121 -133v-358c0 -128 -15 -256 -212 -256s-212 128 -212 256v455h20v-471c0 -101 16 -220 192 -220s192 119 192 220v471h20v-81c53 12 103 66 103 117z" />
    <glyph glyph-name="Uhornhookabove" unicode="&#x1eec;" horiz-adv-x="660" 
d="M350 860c0 -21 -16 -48 -61 -48l4 -49h17l-3 36c40 7 60 29 60 62c0 35 -19 58 -59 58c-45 0 -69 -23 -69 -72h17c0 32 16 56 48 56c28 0 46 -14 46 -43zM622 736h18c0 -61 -54 -120 -121 -133v-358c0 -128 -15 -256 -212 -256s-212 128 -212 256v455h20v-471
c0 -101 16 -220 192 -220s192 119 192 220v471h20v-81c53 12 103 66 103 117z" />
    <glyph glyph-name="Uhorntilde" unicode="&#x1eee;" horiz-adv-x="660" 
d="M413 862h15c0 -58 -25 -92 -67 -92c-63 0 -60 76 -113 76c-46 0 -57 -46 -57 -73h-15c0 58 30 91 72 91c63 0 60 -76 113 -76c46 0 52 47 52 74zM622 736h18c0 -61 -54 -120 -121 -133v-358c0 -128 -15 -256 -212 -256s-212 128 -212 256v455h20v-471
c0 -101 16 -220 192 -220s192 119 192 220v471h20v-81c53 12 103 66 103 117z" />
    <glyph glyph-name="Uhungarumlaut" unicode="&#x170;" horiz-adv-x="604" 
d="M256 776h-15l96 138h23zM396 776h-15l96 136h23zM519 700v-455c0 -128 -15 -256 -212 -256s-212 128 -212 256v455h20v-471c0 -101 16 -220 192 -220s192 119 192 220v471h20z" />
    <glyph glyph-name="Umacron" unicode="&#x16a;" horiz-adv-x="604" 
d="M447 763h-279v17h279v-17zM519 700v-455c0 -128 -15 -256 -212 -256s-212 128 -212 256v455h20v-471c0 -101 16 -220 192 -220s192 119 192 220v471h20z" />
    <glyph glyph-name="Uogonek" unicode="&#x172;" horiz-adv-x="604" 
d="M519 700v-455c0 -103 -10 -206 -117 -243c-103 -49 -140 -137 -109 -174c23 -28 83 -23 140 14l16 -10c-44 -37 -144 -57 -173 -14c-8 12 -12 25 -12 40c0 44 34 97 93 134c-15 -2 -32 -3 -50 -3c-197 0 -212 128 -212 256v455h20v-471c0 -101 16 -220 192 -220
s192 119 192 220v471h20z" />
    <glyph glyph-name="Upsilonafrican" unicode="&#x1b1;" horiz-adv-x="762" 
d="M700 681h-189v-3c60 -42 161 -139 161 -339c0 -220 -108 -350 -291 -350s-291 130 -291 350c0 200 101 297 161 339v3h-189v19h221v-19c-121 -84 -172 -202 -172 -344c0 -206 100 -328 270 -328s270 122 270 328c0 142 -51 260 -172 344v19h221v-19z" />
    <glyph glyph-name="Uring" unicode="&#x16e;" horiz-adv-x="604" 
d="M307 723c-68 0 -108 40 -108 108c0 67 40 107 108 107c67 0 107 -40 107 -107c0 -68 -40 -108 -107 -108zM306 740c56 0 89 33 89 90s-33 90 -89 90s-89 -33 -89 -90s33 -90 89 -90zM519 700v-455c0 -128 -15 -256 -212 -256s-212 128 -212 256v455h20v-471
c0 -101 16 -220 192 -220s192 119 192 220v471h20z" />
    <glyph glyph-name="Utilde" unicode="&#x168;" horiz-adv-x="604" 
d="M415 862h15c0 -58 -25 -92 -67 -92c-63 0 -60 76 -113 76c-46 0 -57 -46 -57 -73h-15c0 58 30 91 72 91c63 0 60 -76 113 -76c46 0 52 47 52 74zM519 700v-455c0 -128 -15 -256 -212 -256s-212 128 -212 256v455h20v-471c0 -101 16 -220 192 -220s192 119 192 220v471h20
z" />
    <glyph glyph-name="V" unicode="V" 
d="M307 0h-25l-262 700h21l252 -677h2l262 677h22z" />
    <glyph glyph-name="Vhook" unicode="&#x1b2;" horiz-adv-x="612" 
d="M407 712c89 0 143 -153 143 -302c0 -124 -40 -421 -321 -421c-114 0 -134 57 -134 153v558h20v-537c0 -126 42 -154 114 -154c238 0 301 251 301 402c0 121 -36 242 -99 277c-31 16 -85 4 -119 -20v19c23 16 58 25 95 25z" />
    <glyph glyph-name="W" unicode="W" horiz-adv-x="777" 
d="M587 0h-34l-163 677h-2l-131 -677h-34l-203 700h20l199 -678h2l133 678h30l165 -678h2l166 678h20z" />
    <glyph glyph-name="Wacute" unicode="&#x1e82;" horiz-adv-x="777" 
d="M359 773h15l104 139h-23zM587 0h-34l-163 677h-2l-131 -677h-34l-203 700h20l199 -678h2l133 678h30l165 -678h2l166 678h20z" />
    <glyph glyph-name="Wcircumflex" unicode="&#x174;" horiz-adv-x="777" 
d="M491 773h-17l-83 105h-2l-83 -105h-17l90 118h22zM587 0h-34l-163 677h-2l-131 -677h-34l-203 700h20l199 -678h2l133 678h30l165 -678h2l166 678h20z" />
    <glyph glyph-name="Wdieresis" unicode="&#x1e84;" horiz-adv-x="777" 
d="M310 763h-20v87h20v-87zM485 763h-20v87h20v-87zM587 0h-34l-163 677h-2l-131 -677h-34l-203 700h20l199 -678h2l133 678h30l165 -678h2l166 678h20z" />
    <glyph glyph-name="Wgrave" unicode="&#x1e80;" horiz-adv-x="777" 
d="M274 912l104 -139h15l-96 139h-23zM587 0h-34l-163 677h-2l-131 -677h-34l-203 700h20l199 -678h2l133 678h30l165 -678h2l166 678h20z" />
    <glyph glyph-name="uni2C72" unicode="&#x2c72;" horiz-adv-x="883" 
d="M782 706c25 14 48 9 81 -6v-19c-24 14 -50 19 -66 11c-53 -27 -88 -188 -107 -268l-103 -424h-34l-163 677h-2l-131 -677h-34l-203 700h20l199 -678h2l133 678h30l165 -678h2l100 410c42 173 71 251 111 274z" />
    <glyph glyph-name="X" unicode="X" horiz-adv-x="529" 
d="M282 376v-2l227 -374h-21l-218 355h-2l-226 -355h-22l238 371v2l-210 327h21l199 -311h2l202 311h22z" />
    <glyph glyph-name="Y" unicode="Y" horiz-adv-x="529" 
d="M279 320l-1 -320h-19v320l-239 380h22l226 -361h2l218 361h21z" />
    <glyph glyph-name="Yacute" unicode="&#xdd;" horiz-adv-x="529" 
d="M225 773h15l104 139h-23zM279 320l-1 -320h-19v320l-239 380h22l226 -361h2l218 361h21z" />
    <glyph glyph-name="Ycircumflex" unicode="&#x176;" horiz-adv-x="529" 
d="M366 770h-17l-83 105h-2l-83 -105h-17l90 118h22zM279 320l-1 -320h-19v320l-239 380h22l226 -361h2l218 361h21z" />
    <glyph glyph-name="Ydieresis" unicode="&#x178;" horiz-adv-x="529" 
d="M187 763h-20v87h20v-87zM362 763h-20v87h20v-87zM279 320l-1 -320h-19v320l-239 380h22l226 -361h2l218 361h21z" />
    <glyph glyph-name="Ydotbelow" unicode="&#x1ef4;" horiz-adv-x="529" 
d="M279 320l-1 -320h-19v320l-239 380h22l226 -361h2l218 361h21zM278 -148h-18v87h18v-87z" />
    <glyph glyph-name="Ygrave" unicode="&#x1ef2;" horiz-adv-x="529" 
d="M166 912l104 -139h15l-96 139h-23zM279 320l-1 -320h-19v320l-239 380h22l226 -361h2l218 361h21z" />
    <glyph glyph-name="Yhook" unicode="&#x1b3;" horiz-adv-x="638" 
d="M618 738v-20c-64 15 -92 2 -109 -21c-30 -40 -26 -40 -160 -261l-70 -116l-1 -320h-19v320l-239 380h22l226 -361h2l63 105c90 150 136 234 161 267c24 31 63 42 124 27z" />
    <glyph glyph-name="Yhookabove" unicode="&#x1ef6;" horiz-adv-x="529" 
d="M312 860c0 -21 -16 -48 -61 -48l4 -49h17l-3 36c40 7 60 29 60 62c0 35 -19 58 -59 58c-45 0 -69 -23 -69 -72h17c0 32 16 56 48 56c28 0 46 -14 46 -43zM279 320l-1 -320h-19v320l-239 380h22l226 -361h2l218 361h21z" />
    <glyph glyph-name="Ytilde" unicode="&#x1ef8;" horiz-adv-x="529" 
d="M392 862h15c0 -58 -25 -92 -67 -92c-63 0 -60 76 -113 76c-46 0 -57 -46 -57 -73h-15c0 58 30 91 72 91c63 0 60 -76 113 -76c46 0 52 47 52 74zM279 320l-1 -320h-19v320l-239 380h22l226 -361h2l218 361h21z" />
    <glyph glyph-name="Z" unicode="Z" horiz-adv-x="589" 
d="M536 672l-465 -650v-2h465v-20h-483v30l463 648v2h-442v20h462v-28z" />
    <glyph glyph-name="Zacute" unicode="&#x179;" horiz-adv-x="589" 
d="M235 773h15l104 139h-23zM536 672l-465 -650v-2h465v-20h-483v30l463 648v2h-442v20h462v-28z" />
    <glyph glyph-name="Zcaron" unicode="&#x17d;" horiz-adv-x="589" 
d="M306 770h-22l-90 118h17l83 -105h2l83 105h17zM536 672l-465 -650v-2h465v-20h-483v30l463 648v2h-442v20h462v-28z" />
    <glyph glyph-name="Zdotaccent" unicode="&#x17b;" horiz-adv-x="589" 
d="M307 760h-18v87h18v-87zM536 672l-465 -650v-2h465v-20h-483v30l463 648v2h-442v20h462v-28z" />
    <glyph glyph-name="Zdotbelow" unicode="&#x1e92;" horiz-adv-x="589" 
d="M536 672l-465 -650v-2h465v-20h-483v30l463 648v2h-442v20h462v-28zM304 -147h-18v87h18v-87z" />
    <glyph glyph-name="a" unicode="a" horiz-adv-x="512" 
d="M243 537c111 0 175 -29 175 -230v-195c0 -57 13 -94 76 -94l10 -18c-108 0 -103 68 -103 106h-2c-1 -17 -18 -117 -183 -117c-98 0 -163 50 -163 155c0 187 344 166 344 190c0 82 -14 132 -50 159c-24 18 -55 26 -102 26c-60 0 -153 -18 -153 -156h-18
c0 70 20 174 169 174zM398 205v105c-51 -5 -145 -16 -210 -38c-70 -24 -117 -71 -117 -125c0 -87 45 -140 142 -140c147 0 185 74 185 198z" />
    <glyph glyph-name="aacute" unicode="&#xe1;" horiz-adv-x="512" 
d="M227 606h15l104 139h-23zM243 537c111 0 175 -29 175 -230v-195c0 -57 13 -94 76 -94l10 -18c-108 0 -103 68 -103 106h-2c-1 -17 -18 -117 -183 -117c-98 0 -163 50 -163 155c0 187 344 166 344 190c0 82 -14 132 -50 159c-24 18 -55 26 -102 26
c-60 0 -153 -18 -153 -156h-18c0 70 20 174 169 174zM398 205v105c-51 -5 -145 -16 -210 -38c-70 -24 -117 -71 -117 -125c0 -87 45 -140 142 -140c147 0 185 74 185 198z" />
    <glyph glyph-name="abreve" unicode="&#x103;" horiz-adv-x="512" 
d="M320 697h18c0 -46 -11 -94 -84 -94s-84 48 -84 94h18c0 -55 20 -78 66 -78s66 23 66 78zM243 537c111 0 175 -29 175 -230v-195c0 -57 13 -94 76 -94l10 -18c-108 0 -103 68 -103 106h-2c-1 -17 -18 -117 -183 -117c-98 0 -163 50 -163 155c0 187 344 166 344 190
c0 82 -14 132 -50 159c-24 18 -55 26 -102 26c-60 0 -153 -18 -153 -156h-18c0 70 20 174 169 174zM398 205v105c-51 -5 -145 -16 -210 -38c-70 -24 -117 -71 -117 -125c0 -87 45 -140 142 -140c147 0 185 74 185 198z" />
    <glyph glyph-name="abreveacute" unicode="&#x1eaf;" horiz-adv-x="512" 
d="M245 714h15l104 139h-23zM320 697h18c0 -46 -11 -94 -84 -94s-84 48 -84 94h18c0 -55 20 -78 66 -78s66 23 66 78zM243 537c111 0 175 -29 175 -230v-195c0 -57 13 -94 76 -94l10 -18c-108 0 -103 68 -103 106h-2c-1 -17 -18 -117 -183 -117c-98 0 -163 50 -163 155
c0 187 344 166 344 190c0 82 -14 132 -50 159c-24 18 -55 26 -102 26c-60 0 -153 -18 -153 -156h-18c0 70 20 174 169 174zM398 205v105c-51 -5 -145 -16 -210 -38c-70 -24 -117 -71 -117 -125c0 -87 45 -140 142 -140c147 0 185 74 185 198z" />
    <glyph glyph-name="abrevedotbelow" unicode="&#x1eb7;" horiz-adv-x="512" 
d="M320 697h18c0 -46 -11 -94 -84 -94s-84 48 -84 94h18c0 -55 20 -78 66 -78s66 23 66 78zM243 537c111 0 175 -29 175 -230v-195c0 -57 13 -94 76 -94l10 -18c-108 0 -103 68 -103 106h-2c-1 -17 -18 -117 -183 -117c-98 0 -163 50 -163 155c0 187 344 166 344 190
c0 82 -14 132 -50 159c-24 18 -55 26 -102 26c-60 0 -153 -18 -153 -156h-18c0 70 20 174 169 174zM398 205v105c-51 -5 -145 -16 -210 -38c-70 -24 -117 -71 -117 -125c0 -87 45 -140 142 -140c147 0 185 74 185 198zM262 -147h-18v87h18v-87z" />
    <glyph glyph-name="abrevegrave" unicode="&#x1eb1;" horiz-adv-x="512" 
d="M142 853l104 -139h15l-96 139h-23zM320 697h18c0 -46 -11 -94 -84 -94s-84 48 -84 94h18c0 -55 20 -78 66 -78s66 23 66 78zM243 537c111 0 175 -29 175 -230v-195c0 -57 13 -94 76 -94l10 -18c-108 0 -103 68 -103 106h-2c-1 -17 -18 -117 -183 -117
c-98 0 -163 50 -163 155c0 187 344 166 344 190c0 82 -14 132 -50 159c-24 18 -55 26 -102 26c-60 0 -153 -18 -153 -156h-18c0 70 20 174 169 174zM398 205v105c-51 -5 -145 -16 -210 -38c-70 -24 -117 -71 -117 -125c0 -87 45 -140 142 -140c147 0 185 74 185 198z" />
    <glyph glyph-name="abrevehookabove" unicode="&#x1eb3;" horiz-adv-x="512" 
d="M300 829c0 -21 -16 -48 -61 -48l4 -49h17l-3 36c40 7 60 29 60 62c0 35 -19 58 -59 58c-45 0 -69 -23 -69 -72h17c0 32 16 56 48 56c28 0 46 -14 46 -43zM320 697h18c0 -46 -11 -94 -84 -94s-84 48 -84 94h18c0 -55 20 -78 66 -78s66 23 66 78zM243 537
c111 0 175 -29 175 -230v-195c0 -57 13 -94 76 -94l10 -18c-108 0 -103 68 -103 106h-2c-1 -17 -18 -117 -183 -117c-98 0 -163 50 -163 155c0 187 344 166 344 190c0 82 -14 132 -50 159c-24 18 -55 26 -102 26c-60 0 -153 -18 -153 -156h-18c0 70 20 174 169 174zM398 205
v105c-51 -5 -145 -16 -210 -38c-70 -24 -117 -71 -117 -125c0 -87 45 -140 142 -140c147 0 185 74 185 198z" />
    <glyph glyph-name="abrevetilde" unicode="&#x1eb5;" horiz-adv-x="512" 
d="M354 830h15c0 -58 -25 -92 -67 -92c-63 0 -60 76 -113 76c-46 0 -57 -46 -57 -73h-15c0 58 30 91 72 91c63 0 60 -76 113 -76c46 0 52 47 52 74zM320 697h18c0 -46 -11 -94 -84 -94s-84 48 -84 94h18c0 -55 20 -78 66 -78s66 23 66 78zM243 537c111 0 175 -29 175 -230
v-195c0 -57 13 -94 76 -94l10 -18c-108 0 -103 68 -103 106h-2c-1 -17 -18 -117 -183 -117c-98 0 -163 50 -163 155c0 187 344 166 344 190c0 82 -14 132 -50 159c-24 18 -55 26 -102 26c-60 0 -153 -18 -153 -156h-18c0 70 20 174 169 174zM398 205v105
c-51 -5 -145 -16 -210 -38c-70 -24 -117 -71 -117 -125c0 -87 45 -140 142 -140c147 0 185 74 185 198z" />
    <glyph glyph-name="acaron" unicode="&#x1ce;" horiz-adv-x="512" 
d="M268 603h-22l-90 118h17l83 -105h2l83 105h17zM243 537c111 0 175 -29 175 -230v-195c0 -57 13 -94 76 -94l10 -18c-108 0 -103 68 -103 106h-2c-1 -17 -18 -117 -183 -117c-98 0 -163 50 -163 155c0 187 344 166 344 190c0 82 -14 132 -50 159c-24 18 -55 26 -102 26
c-60 0 -153 -18 -153 -156h-18c0 70 20 174 169 174zM398 205v105c-51 -5 -145 -16 -210 -38c-70 -24 -117 -71 -117 -125c0 -87 45 -140 142 -140c147 0 185 74 185 198z" />
    <glyph glyph-name="acircumflex" unicode="&#xe2;" horiz-adv-x="512" 
d="M357 603h-17l-83 105h-2l-83 -105h-17l90 118h22zM243 537c111 0 175 -29 175 -230v-195c0 -57 13 -94 76 -94l10 -18c-108 0 -103 68 -103 106h-2c-1 -17 -18 -117 -183 -117c-98 0 -163 50 -163 155c0 187 344 166 344 190c0 82 -14 132 -50 159c-24 18 -55 26 -102 26
c-60 0 -153 -18 -153 -156h-18c0 70 20 174 169 174zM398 205v105c-51 -5 -145 -16 -210 -38c-70 -24 -117 -71 -117 -125c0 -87 45 -140 142 -140c147 0 185 74 185 198z" />
    <glyph glyph-name="acircumflexacute" unicode="&#x1ea5;" horiz-adv-x="512" 
d="M372 648h-15l96 139h23zM351 593h-17l-83 105h-2l-83 -105h-17l90 118h22zM243 537c111 0 175 -29 175 -230v-195c0 -57 13 -94 76 -94l10 -18c-108 0 -103 68 -103 106h-2c-1 -17 -18 -117 -183 -117c-98 0 -163 50 -163 155c0 187 344 166 344 190
c0 82 -14 132 -50 159c-24 18 -55 26 -102 26c-60 0 -153 -18 -153 -156h-18c0 70 20 174 169 174zM398 205v105c-51 -5 -145 -16 -210 -38c-70 -24 -117 -71 -117 -125c0 -87 45 -140 142 -140c147 0 185 74 185 198z" />
    <glyph glyph-name="acircumflexdotbelow" unicode="&#x1ead;" horiz-adv-x="512" 
d="M357 603h-17l-83 105h-2l-83 -105h-17l90 118h22zM243 537c111 0 175 -29 175 -230v-195c0 -57 13 -94 76 -94l10 -18c-108 0 -103 68 -103 106h-2c-1 -17 -18 -117 -183 -117c-98 0 -163 50 -163 155c0 187 344 166 344 190c0 82 -14 132 -50 159c-24 18 -55 26 -102 26
c-60 0 -153 -18 -153 -156h-18c0 70 20 174 169 174zM398 205v105c-51 -5 -145 -16 -210 -38c-70 -24 -117 -71 -117 -125c0 -87 45 -140 142 -140c147 0 185 74 185 198zM239 -147h-18v87h18v-87z" />
    <glyph glyph-name="acircumflexgrave" unicode="&#x1ea7;" horiz-adv-x="512" 
d="M390 648h-15l-104 139h23zM343 593h-17l-83 105h-2l-83 -105h-17l90 118h22zM243 537c111 0 175 -29 175 -230v-195c0 -57 13 -94 76 -94l10 -18c-108 0 -103 68 -103 106h-2c-1 -17 -18 -117 -183 -117c-98 0 -163 50 -163 155c0 187 344 166 344 190
c0 82 -14 132 -50 159c-24 18 -55 26 -102 26c-60 0 -153 -18 -153 -156h-18c0 70 20 174 169 174zM398 205v105c-51 -5 -145 -16 -210 -38c-70 -24 -117 -71 -117 -125c0 -87 45 -140 142 -140c147 0 185 74 185 198z" />
    <glyph glyph-name="acircumflexhookabove" unicode="&#x1ea9;" horiz-adv-x="512" 
d="M453 691c0 -21 -16 -48 -61 -48l4 -49h17l-3 36c40 7 60 29 60 62c0 35 -19 58 -59 58c-45 0 -69 -23 -69 -72h17c0 32 16 56 48 56c28 0 46 -14 46 -43zM352 594h-17l-83 105h-2l-83 -105h-17l90 118h22zM243 537c111 0 175 -29 175 -230v-195c0 -57 13 -94 76 -94
l10 -18c-108 0 -103 68 -103 106h-2c-1 -17 -18 -117 -183 -117c-98 0 -163 50 -163 155c0 187 344 166 344 190c0 82 -14 132 -50 159c-24 18 -55 26 -102 26c-60 0 -153 -18 -153 -156h-18c0 70 20 174 169 174zM398 205v105c-51 -5 -145 -16 -210 -38
c-70 -24 -117 -71 -117 -125c0 -87 45 -140 142 -140c147 0 185 74 185 198z" />
    <glyph glyph-name="acircumflextilde" unicode="&#x1eab;" horiz-adv-x="512" 
d="M188 864c63 0 60 -76 113 -76c46 0 52 47 52 74h15c0 -58 -25 -92 -67 -92c-63 0 -60 76 -113 76c-46 0 -57 -46 -57 -73h-15c0 58 30 91 72 91zM354 593h-17l-83 105h-2l-83 -105h-17l90 118h22zM243 537c111 0 175 -29 175 -230v-195c0 -57 13 -94 76 -94l10 -18
c-108 0 -103 68 -103 106h-2c-1 -17 -18 -117 -183 -117c-98 0 -163 50 -163 155c0 187 344 166 344 190c0 82 -14 132 -50 159c-24 18 -55 26 -102 26c-60 0 -153 -18 -153 -156h-18c0 70 20 174 169 174zM398 205v105c-51 -5 -145 -16 -210 -38
c-70 -24 -117 -71 -117 -125c0 -87 45 -140 142 -140c147 0 185 74 185 198z" />
    <glyph glyph-name="adieresis" unicode="&#xe4;" horiz-adv-x="512" 
d="M177 593h-20v87h20v-87zM352 593h-20v87h20v-87zM243 537c111 0 175 -29 175 -230v-195c0 -57 13 -94 76 -94l10 -18c-108 0 -103 68 -103 106h-2c-1 -17 -18 -117 -183 -117c-98 0 -163 50 -163 155c0 187 344 166 344 190c0 82 -14 132 -50 159c-24 18 -55 26 -102 26
c-60 0 -153 -18 -153 -156h-18c0 70 20 174 169 174zM398 205v105c-51 -5 -145 -16 -210 -38c-70 -24 -117 -71 -117 -125c0 -87 45 -140 142 -140c147 0 185 74 185 198z" />
    <glyph glyph-name="adieresismacron" unicode="&#x1df;" horiz-adv-x="512" 
d="M392 716h-279v17h279v-17zM177 593h-20v87h20v-87zM352 593h-20v87h20v-87zM243 537c111 0 175 -29 175 -230v-195c0 -57 13 -94 76 -94l10 -18c-108 0 -103 68 -103 106h-2c-1 -17 -18 -117 -183 -117c-98 0 -163 50 -163 155c0 187 344 166 344 190
c0 82 -14 132 -50 159c-24 18 -55 26 -102 26c-60 0 -153 -18 -153 -156h-18c0 70 20 174 169 174zM398 205v105c-51 -5 -145 -16 -210 -38c-70 -24 -117 -71 -117 -125c0 -87 45 -140 142 -140c147 0 185 74 185 198z" />
    <glyph glyph-name="adotbelow" unicode="&#x1ea1;" horiz-adv-x="512" 
d="M243 537c111 0 175 -29 175 -230v-195c0 -57 13 -94 76 -94l10 -18c-108 0 -103 68 -103 106h-2c-1 -17 -18 -117 -183 -117c-98 0 -163 50 -163 155c0 187 344 166 344 190c0 82 -14 132 -50 159c-24 18 -55 26 -102 26c-60 0 -153 -18 -153 -156h-18
c0 70 20 174 169 174zM398 205v105c-51 -5 -145 -16 -210 -38c-70 -24 -117 -71 -117 -125c0 -87 45 -140 142 -140c147 0 185 74 185 198zM285 -147h-18v87h18v-87z" />
    <glyph glyph-name="agrave" unicode="&#xe0;" horiz-adv-x="512" 
d="M135 745l104 -139h15l-96 139h-23zM243 537c111 0 175 -29 175 -230v-195c0 -57 13 -94 76 -94l10 -18c-108 0 -103 68 -103 106h-2c-1 -17 -18 -117 -183 -117c-98 0 -163 50 -163 155c0 187 344 166 344 190c0 82 -14 132 -50 159c-24 18 -55 26 -102 26
c-60 0 -153 -18 -153 -156h-18c0 70 20 174 169 174zM398 205v105c-51 -5 -145 -16 -210 -38c-70 -24 -117 -71 -117 -125c0 -87 45 -140 142 -140c147 0 185 74 185 198z" />
    <glyph glyph-name="ahookabove" unicode="&#x1ea3;" horiz-adv-x="512" 
d="M290 699c0 -21 -16 -48 -61 -48l4 -49h17l-3 36c40 7 60 29 60 62c0 35 -19 58 -59 58c-45 0 -69 -23 -69 -72h17c0 32 16 56 48 56c28 0 46 -14 46 -43zM243 537c111 0 175 -29 175 -230v-195c0 -57 13 -94 76 -94l10 -18c-108 0 -103 68 -103 106h-2
c-1 -17 -18 -117 -183 -117c-98 0 -163 50 -163 155c0 187 344 166 344 190c0 82 -14 132 -50 159c-24 18 -55 26 -102 26c-60 0 -153 -18 -153 -156h-18c0 70 20 174 169 174zM398 205v105c-51 -5 -145 -16 -210 -38c-70 -24 -117 -71 -117 -125c0 -87 45 -140 142 -140
c147 0 185 74 185 198z" />
    <glyph glyph-name="amacron" unicode="&#x101;" horiz-adv-x="512" 
d="M398 618h-279v17h279v-17zM243 537c111 0 175 -29 175 -230v-195c0 -57 13 -94 76 -94l10 -18c-108 0 -103 68 -103 106h-2c-1 -17 -18 -117 -183 -117c-98 0 -163 50 -163 155c0 187 344 166 344 190c0 82 -14 132 -50 159c-24 18 -55 26 -102 26
c-60 0 -153 -18 -153 -156h-18c0 70 20 174 169 174zM398 205v105c-51 -5 -145 -16 -210 -38c-70 -24 -117 -71 -117 -125c0 -87 45 -140 142 -140c147 0 185 74 185 198z" />
    <glyph glyph-name="aogonek" unicode="&#x105;" horiz-adv-x="512" 
d="M347 -175c23 -28 83 -23 140 14l16 -10c-44 -37 -144 -57 -173 -14c-8 12 -12 25 -12 40c0 53 49 119 130 154c-50 19 -47 67 -47 97h-2c-1 -17 -18 -117 -183 -117c-98 0 -163 50 -163 155c0 187 344 166 344 190c0 82 -14 132 -50 159c-24 18 -55 26 -102 26
c-60 0 -153 -18 -153 -156h-18c0 70 20 174 169 174c111 0 175 -29 175 -230v-195c0 -57 13 -94 76 -94l10 -18c-15 0 -28 1 -39 4c-110 -49 -150 -141 -118 -179zM398 205v105c-51 -5 -145 -16 -210 -38c-70 -24 -117 -71 -117 -125c0 -87 45 -140 142 -140
c147 0 185 74 185 198z" />
    <glyph glyph-name="aring" unicode="&#xe5;" horiz-adv-x="512" 
d="M239 588c-68 0 -108 40 -108 108c0 67 40 107 108 107c67 0 107 -40 107 -107c0 -68 -40 -108 -107 -108zM238 605c56 0 89 33 89 90s-33 90 -89 90s-89 -33 -89 -90s33 -90 89 -90zM243 537c111 0 175 -29 175 -230v-195c0 -57 13 -94 76 -94l10 -18
c-108 0 -103 68 -103 106h-2c-1 -17 -18 -117 -183 -117c-98 0 -163 50 -163 155c0 187 344 166 344 190c0 82 -14 132 -50 159c-24 18 -55 26 -102 26c-60 0 -153 -18 -153 -156h-18c0 70 20 174 169 174zM398 205v105c-51 -5 -145 -16 -210 -38
c-70 -24 -117 -71 -117 -125c0 -87 45 -140 142 -140c147 0 185 74 185 198z" />
    <glyph glyph-name="ascript" unicode="&#x251;" horiz-adv-x="530" 
d="M258 537c96 0 141 -64 162 -129h2v117h18v-525h-18v113h-2c-22 -62 -66 -124 -162 -124c-146 0 -200 135 -200 269c0 132 56 279 200 279zM258 519c-129 0 -182 -133 -182 -261c0 -159 67 -250 182 -250c153 0 164 160 164 252c0 73 -6 259 -164 259z" />
    <glyph glyph-name="atilde" unicode="&#xe3;" horiz-adv-x="512" 
d="M366 700h15c0 -58 -25 -92 -67 -92c-63 0 -60 76 -113 76c-46 0 -57 -46 -57 -73h-15c0 58 30 91 72 91c63 0 60 -76 113 -76c46 0 52 47 52 74zM243 537c111 0 175 -29 175 -230v-195c0 -57 13 -94 76 -94l10 -18c-108 0 -103 68 -103 106h-2c-1 -17 -18 -117 -183 -117
c-98 0 -163 50 -163 155c0 187 344 166 344 190c0 82 -14 132 -50 159c-24 18 -55 26 -102 26c-60 0 -153 -18 -153 -156h-18c0 70 20 174 169 174zM398 205v105c-51 -5 -145 -16 -210 -38c-70 -24 -117 -71 -117 -125c0 -87 45 -140 142 -140c147 0 185 74 185 198z" />
    <glyph glyph-name="ae" unicode="&#xe6;" horiz-adv-x="825" 
d="M609 537c53 0 89 -18 114 -44c51 -54 57 -144 54 -199h-359c0 -132 12 -179 72 -243c28 -29 67 -44 119 -44c65 0 131 39 157 115l16 -10c-30 -86 -105 -123 -173 -123c-56 0 -99 18 -130 50c-26 26 -48 65 -62 103h-2c-4 -36 -29 -153 -199 -153c-98 0 -163 50 -163 155
c0 187 348 145 348 169c0 82 -18 153 -54 180c-24 18 -55 26 -102 26c-60 0 -153 -18 -153 -156h-18c0 70 20 174 169 174c94 0 153 -21 170 -149h2c27 82 86 149 194 149zM606 519c-63 0 -110 -28 -140 -66c-34 -42 -45 -92 -48 -141h342c0 123 -40 207 -154 207zM404 205
v84c-51 -5 -155 -5 -220 -27c-70 -24 -111 -56 -111 -115c0 -87 45 -140 142 -140c147 0 189 74 189 198z" />
    <glyph glyph-name="b" unicode="b" horiz-adv-x="530" 
d="M108 408h2c21 65 66 129 162 129c144 0 200 -147 200 -279c0 -134 -54 -269 -200 -269c-96 0 -140 62 -162 124h-2v-113h-18v745h18v-337zM272 519c-158 0 -164 -186 -164 -259c0 -92 11 -252 164 -252c115 0 182 91 182 250c0 128 -53 261 -182 261z" />
    <glyph glyph-name="bdotbelow" unicode="&#x1e05;" horiz-adv-x="530" 
d="M108 408h2c21 65 66 129 162 129c144 0 200 -147 200 -279c0 -134 -54 -269 -200 -269c-96 0 -140 62 -162 124h-2v-113h-18v745h18v-337zM272 519c-158 0 -164 -186 -164 -259c0 -92 11 -252 164 -252c115 0 182 91 182 250c0 128 -53 261 -182 261zM284 -147h-18v87h18
v-87z" />
    <glyph glyph-name="bhook" unicode="&#x253;" horiz-adv-x="530" 
d="M405 700v-18c-194 145 -298 -79 -297 -157v-117h2c21 65 66 129 162 129c144 0 200 -147 200 -279c0 -134 -54 -269 -200 -269c-96 0 -140 62 -162 124h-2v-113h-18v525c4 135 148 308 315 175zM272 519c-158 0 -164 -186 -164 -259c0 -92 11 -252 164 -252
c115 0 182 91 182 250c0 128 -53 261 -182 261z" />
    <glyph glyph-name="c" unicode="c" horiz-adv-x="513" 
d="M269 537c117 -1 175 -80 186 -181h-19c-6 91 -65 163 -167 163c-131 0 -192 -111 -192 -252c0 -127 63 -260 192 -260c78 0 141 42 174 103l17 -10c-34 -67 -103 -111 -191 -111c-149 0 -211 147 -211 278c0 143 62 271 211 270z" />
    <glyph glyph-name="cacute" unicode="&#x107;" horiz-adv-x="513" 
d="M214 606h15l104 139h-23zM269 537c117 -1 175 -80 186 -181h-19c-6 91 -65 163 -167 163c-131 0 -192 -111 -192 -252c0 -127 63 -260 192 -260c78 0 141 42 174 103l17 -10c-34 -67 -103 -111 -191 -111c-149 0 -211 147 -211 278c0 143 62 271 211 270z" />
    <glyph glyph-name="ccaron" unicode="&#x10d;" horiz-adv-x="513" 
d="M278 603h-22l-90 118h17l83 -105h2l83 105h17zM269 537c117 -1 175 -80 186 -181h-19c-6 91 -65 163 -167 163c-131 0 -192 -111 -192 -252c0 -127 63 -260 192 -260c78 0 141 42 174 103l17 -10c-34 -67 -103 -111 -191 -111c-149 0 -211 147 -211 278
c0 143 62 271 211 270z" />
    <glyph glyph-name="ccedilla" unicode="&#xe7;" horiz-adv-x="513" 
d="M443 110l17 -10c-28 -56 -81 -96 -148 -107c17 -97 -56 -165 -160 -142l13 15c68 -16 148 36 130 124c-8 -1 -17 -1 -26 -1c-149 0 -211 147 -211 278c0 143 62 271 211 270c117 -1 175 -80 186 -181h-19c-6 91 -65 163 -167 163c-131 0 -192 -111 -192 -252
c0 -127 63 -260 192 -260c78 0 141 42 174 103z" />
    <glyph glyph-name="cdotaccent" unicode="&#x10b;" horiz-adv-x="513" 
d="M268 593h-18v87h18v-87zM269 537c117 -1 175 -80 186 -181h-19c-6 91 -65 163 -167 163c-131 0 -192 -111 -192 -252c0 -127 63 -260 192 -260c78 0 141 42 174 103l17 -10c-34 -67 -103 -111 -191 -111c-149 0 -211 147 -211 278c0 143 62 271 211 270z" />
    <glyph glyph-name="chook" unicode="&#x188;" horiz-adv-x="593" 
d="M593 715v-17c-61 53 -94 21 -111 -2c-24 -32 -29 -100 -29 -169v-171h-17c-6 91 -65 163 -167 163c-131 0 -192 -111 -192 -252c0 -127 63 -260 192 -260c78 0 141 42 174 103l17 -10c-34 -67 -103 -111 -191 -111c-149 0 -211 147 -211 278c0 143 62 271 211 270
c86 -1 140 -43 167 -106h2l-2 93c-2 106 9 153 33 184s66 60 124 7z" />
    <glyph glyph-name="d" unicode="d" horiz-adv-x="530" 
d="M440 0h-18v113h-2c-22 -62 -66 -124 -162 -124c-146 0 -200 135 -200 269c0 132 56 279 200 279c96 0 141 -64 162 -129h2v337h18v-745zM258 519c-129 0 -182 -133 -182 -261c0 -159 67 -250 182 -250c153 0 164 160 164 252c0 73 -6 259 -164 259z" />
    <glyph glyph-name="eth" unicode="&#xf0;" horiz-adv-x="538" 
d="M106 730l9 15c52 -17 97 -38 136 -61l125 56l9 -17l-115 -52c161 -105 210 -260 210 -404c0 -131 -62 -278 -211 -278s-211 147 -211 278c0 143 62 271 211 270c70 0 119 -28 153 -73h2c-34 75 -90 143 -175 198l-166 -75l-9 17l156 70v2c-36 21 -79 38 -124 54zM269 519
c-131 0 -192 -111 -192 -252c0 -127 63 -260 192 -260s192 133 192 260c0 141 -61 252 -192 252z" />
    <glyph glyph-name="dcaron" unicode="&#x10f;" horiz-adv-x="612" 
d="M472 0h-18v113h-2c-22 -62 -66 -124 -162 -124c-146 0 -200 135 -200 269c0 132 56 279 200 279c96 0 141 -64 162 -129h2v337h18v-745zM582 745v-110c0 -57 -4 -99 -56 -110v15c49 12 37 71 38 96h-8v109h26zM290 519c-129 0 -182 -133 -182 -261
c0 -159 67 -250 182 -250c153 0 164 160 164 252c0 73 -6 259 -164 259z" />
    <glyph glyph-name="dcircumflexbelow" unicode="&#x1e13;" horiz-adv-x="530" 
d="M440 0h-18v113h-2c-22 -62 -66 -124 -162 -124c-146 0 -200 135 -200 269c0 132 56 279 200 279c96 0 141 -64 162 -129h2v337h18v-745zM258 519c-129 0 -182 -133 -182 -261c0 -159 67 -250 182 -250c153 0 164 160 164 252c0 73 -6 259 -164 259zM378 -178h-17l-83 105
h-2l-83 -105h-17l90 118h22z" />
    <glyph glyph-name="dcroat" unicode="&#x111;" horiz-adv-x="510" 
d="M492 630h-52v-630h-18v113h-2c-22 -62 -66 -124 -162 -124c-146 0 -200 135 -200 269c0 132 56 279 200 279c96 0 141 -64 162 -129h2v222h-209v17h209v98h18v-98h52v-17zM258 8c153 0 164 160 164 252c0 73 -6 259 -164 259c-129 0 -182 -133 -182 -261
c0 -159 67 -250 182 -250z" />
    <glyph glyph-name="ddotbelow" unicode="&#x1e0d;" horiz-adv-x="530" 
d="M440 0h-18v113h-2c-22 -62 -66 -124 -162 -124c-146 0 -200 135 -200 269c0 132 56 279 200 279c96 0 141 -64 162 -129h2v337h18v-745zM258 519c-129 0 -182 -133 -182 -261c0 -159 67 -250 182 -250c153 0 164 160 164 252c0 73 -6 259 -164 259zM279 -147h-18v87h18
v-87z" />
    <glyph glyph-name="dhook" unicode="&#x257;" 
d="M581 719v-17c-64 45 -96 17 -113 -6c-24 -32 -28 -102 -28 -171v-525h-18v113h-2c-22 -62 -66 -124 -162 -124c-146 0 -200 135 -200 269c0 132 56 279 200 279c96 0 141 -64 162 -129h2v117c-2 106 9 152 33 183s65 56 126 11zM258 519c-129 0 -182 -133 -182 -261
c0 -159 67 -250 182 -250c153 0 164 160 164 252c0 73 -6 259 -164 259z" />
    <glyph glyph-name="dlinebelow" unicode="&#x1e0f;" horiz-adv-x="530" 
d="M440 0h-18v113h-2c-22 -62 -66 -124 -162 -124c-146 0 -200 135 -200 269c0 132 56 279 200 279c96 0 141 -64 162 -129h2v337h18v-745zM258 519c-129 0 -182 -133 -182 -261c0 -159 67 -250 182 -250c153 0 164 160 164 252c0 73 -6 259 -164 259zM472 -77h-279v17h279
v-17z" />
    <glyph glyph-name="dtail" unicode="&#x256;" horiz-adv-x="533" 
d="M440 745v-728c0 -75 2 -152 28 -187c17 -23 62 -53 98 -7l9 -15c-42 -51 -96 -21 -120 10c-25 33 -33 83 -33 202v93h-2c-22 -62 -66 -124 -162 -124c-146 0 -200 135 -200 269c0 132 56 279 200 279c96 0 141 -64 162 -129h2v337h18zM258 519
c-129 0 -182 -133 -182 -261c0 -159 67 -250 182 -250c153 0 164 160 164 252c0 73 -6 259 -164 259z" />
    <glyph glyph-name="e" unicode="e" horiz-adv-x="495" 
d="M250 537c120 0 191 -90 191 -243h-364c0 -180 68 -287 182 -287c87 0 152 43 177 115l16 -10c-27 -77 -99 -123 -193 -123c-126 0 -201 110 -201 297c0 159 68 251 192 251zM250 519c-110 0 -172 -84 -172 -207h344c0 123 -62 207 -172 207z" />
    <glyph glyph-name="eacute" unicode="&#xe9;" horiz-adv-x="495" 
d="M219 606h15l104 139h-23zM250 537c120 0 191 -90 191 -243h-364c0 -180 68 -287 182 -287c87 0 152 43 177 115l16 -10c-27 -77 -99 -123 -193 -123c-126 0 -201 110 -201 297c0 159 68 251 192 251zM250 519c-110 0 -172 -84 -172 -207h344c0 123 -62 207 -172 207z" />
    <glyph glyph-name="ecaron" unicode="&#x11b;" horiz-adv-x="495" 
d="M267 603h-22l-90 118h17l83 -105h2l83 105h17zM250 537c120 0 191 -90 191 -243h-364c0 -180 68 -287 182 -287c87 0 152 43 177 115l16 -10c-27 -77 -99 -123 -193 -123c-126 0 -201 110 -201 297c0 159 68 251 192 251zM250 519c-110 0 -172 -84 -172 -207h344
c0 123 -62 207 -172 207z" />
    <glyph glyph-name="uni0229" unicode="&#x229;" horiz-adv-x="495" 
d="M436 122l16 -10c-22 -62 -73 -104 -141 -118c19 -97 -54 -166 -159 -143l13 15c69 -16 149 37 130 125c-11 -1 -23 -2 -36 -2c-126 0 -201 110 -201 297c0 159 68 251 192 251c120 0 191 -90 191 -243h-364c0 -180 68 -287 182 -287c87 0 152 43 177 115zM250 519
c-110 0 -172 -84 -172 -207h344c0 123 -62 207 -172 207z" />
    <glyph glyph-name="ecircumflex" unicode="&#xea;" horiz-adv-x="495" 
d="M358 603h-17l-83 105h-2l-83 -105h-17l90 118h22zM250 537c120 0 191 -90 191 -243h-364c0 -180 68 -287 182 -287c87 0 152 43 177 115l16 -10c-27 -77 -99 -123 -193 -123c-126 0 -201 110 -201 297c0 159 68 251 192 251zM250 519c-110 0 -172 -84 -172 -207h344
c0 123 -62 207 -172 207z" />
    <glyph glyph-name="ecircumflexacute" unicode="&#x1ebf;" horiz-adv-x="495" 
d="M377 648h-15l96 139h23zM356 593h-17l-83 105h-2l-83 -105h-17l90 118h22zM250 537c120 0 191 -90 191 -243h-364c0 -180 68 -287 182 -287c87 0 152 43 177 115l16 -10c-27 -77 -99 -123 -193 -123c-126 0 -201 110 -201 297c0 159 68 251 192 251zM250 519
c-110 0 -172 -84 -172 -207h344c0 123 -62 207 -172 207z" />
    <glyph glyph-name="ecircumflexdotbelow" unicode="&#x1ec7;" horiz-adv-x="495" 
d="M358 603h-17l-83 105h-2l-83 -105h-17l90 118h22zM250 537c120 0 191 -90 191 -243h-364c0 -180 68 -287 182 -287c87 0 152 43 177 115l16 -10c-27 -77 -99 -123 -193 -123c-126 0 -201 110 -201 297c0 159 68 251 192 251zM250 519c-110 0 -172 -84 -172 -207h344
c0 123 -62 207 -172 207zM272 -147h-18v87h18v-87z" />
    <glyph glyph-name="ecircumflexgrave" unicode="&#x1ec1;" horiz-adv-x="495" 
d="M395 648h-15l-104 139h23zM348 593h-17l-83 105h-2l-83 -105h-17l90 118h22zM250 537c120 0 191 -90 191 -243h-364c0 -180 68 -287 182 -287c87 0 152 43 177 115l16 -10c-27 -77 -99 -123 -193 -123c-126 0 -201 110 -201 297c0 159 68 251 192 251zM250 519
c-110 0 -172 -84 -172 -207h344c0 123 -62 207 -172 207z" />
    <glyph glyph-name="ecircumflexhookabove" unicode="&#x1ec3;" horiz-adv-x="495" 
d="M453 690c0 -21 -16 -48 -61 -48l4 -49h17l-3 36c40 7 60 29 60 62c0 35 -19 58 -59 58c-45 0 -69 -23 -69 -72h17c0 32 16 56 48 56c28 0 46 -14 46 -43zM352 593h-17l-83 105h-2l-83 -105h-17l90 118h22zM250 537c120 0 191 -90 191 -243h-364c0 -180 68 -287 182 -287
c87 0 152 43 177 115l16 -10c-27 -77 -99 -123 -193 -123c-126 0 -201 110 -201 297c0 159 68 251 192 251zM250 519c-110 0 -172 -84 -172 -207h344c0 123 -62 207 -172 207z" />
    <glyph glyph-name="ecircumflextilde" unicode="&#x1ec5;" horiz-adv-x="495" 
d="M184 864c63 0 60 -76 113 -76c46 0 52 47 52 74h15c0 -58 -25 -92 -67 -92c-63 0 -60 76 -113 76c-46 0 -57 -46 -57 -73h-15c0 58 30 91 72 91zM350 593h-17l-83 105h-2l-83 -105h-17l90 118h22zM250 537c120 0 191 -90 191 -243h-364c0 -180 68 -287 182 -287
c87 0 152 43 177 115l16 -10c-27 -77 -99 -123 -193 -123c-126 0 -201 110 -201 297c0 159 68 251 192 251zM250 519c-110 0 -172 -84 -172 -207h344c0 123 -62 207 -172 207z" />
    <glyph glyph-name="edieresis" unicode="&#xeb;" horiz-adv-x="495" 
d="M178 593h-20v87h20v-87zM353 593h-20v87h20v-87zM250 537c120 0 191 -90 191 -243h-364c0 -180 68 -287 182 -287c87 0 152 43 177 115l16 -10c-27 -77 -99 -123 -193 -123c-126 0 -201 110 -201 297c0 159 68 251 192 251zM250 519c-110 0 -172 -84 -172 -207h344
c0 123 -62 207 -172 207z" />
    <glyph glyph-name="edotaccent" unicode="&#x117;" horiz-adv-x="495" 
d="M264 593h-18v87h18v-87zM250 537c120 0 191 -90 191 -243h-364c0 -180 68 -287 182 -287c87 0 152 43 177 115l16 -10c-27 -77 -99 -123 -193 -123c-126 0 -201 110 -201 297c0 159 68 251 192 251zM250 519c-110 0 -172 -84 -172 -207h344c0 123 -62 207 -172 207z" />
    <glyph glyph-name="edotbelow" unicode="&#x1eb9;" horiz-adv-x="495" 
d="M250 537c120 0 191 -90 191 -243h-364c0 -180 68 -287 182 -287c87 0 152 43 177 115l16 -10c-27 -77 -99 -123 -193 -123c-126 0 -201 110 -201 297c0 159 68 251 192 251zM250 519c-110 0 -172 -84 -172 -207h344c0 123 -62 207 -172 207zM273 -147h-18v87h18v-87z" />
    <glyph glyph-name="egrave" unicode="&#xe8;" horiz-adv-x="495" 
d="M133 745l104 -139h15l-96 139h-23zM250 537c120 0 191 -90 191 -243h-364c0 -180 68 -287 182 -287c87 0 152 43 177 115l16 -10c-27 -77 -99 -123 -193 -123c-126 0 -201 110 -201 297c0 159 68 251 192 251zM250 519c-110 0 -172 -84 -172 -207h344
c0 123 -62 207 -172 207z" />
    <glyph glyph-name="ehookabove" unicode="&#x1ebb;" horiz-adv-x="495" 
d="M299 700c0 -21 -16 -48 -61 -48l4 -49h17l-3 36c40 7 60 29 60 62c0 35 -19 58 -59 58c-45 0 -69 -23 -69 -72h17c0 32 16 56 48 56c28 0 46 -14 46 -43zM250 537c120 0 191 -90 191 -243h-364c0 -180 68 -287 182 -287c87 0 152 43 177 115l16 -10
c-27 -77 -99 -123 -193 -123c-126 0 -201 110 -201 297c0 159 68 251 192 251zM250 519c-110 0 -172 -84 -172 -207h344c0 123 -62 207 -172 207z" />
    <glyph glyph-name="emacron" unicode="&#x113;" horiz-adv-x="495" 
d="M398 604h-279v17h279v-17zM250 537c120 0 191 -90 191 -243h-364c0 -180 68 -287 182 -287c87 0 152 43 177 115l16 -10c-27 -77 -99 -123 -193 -123c-126 0 -201 110 -201 297c0 159 68 251 192 251zM250 519c-110 0 -172 -84 -172 -207h344c0 123 -62 207 -172 207z
" />
    <glyph glyph-name="eogonek" unicode="&#x119;" horiz-adv-x="495" 
d="M342 3c-88 -51 -118 -130 -89 -164c23 -28 83 -23 140 14l16 -10c-44 -37 -144 -57 -173 -14c-8 12 -12 25 -12 40c0 40 28 87 77 123c-14 -2 -28 -3 -42 -3c-126 0 -201 110 -201 297c0 159 68 251 192 251c120 0 191 -90 191 -243h-364c0 -180 68 -287 182 -287
c87 0 152 43 177 115l16 -10c-18 -52 -58 -90 -110 -109zM250 519c-110 0 -172 -84 -172 -207h344c0 123 -62 207 -172 207z" />
    <glyph glyph-name="eopen" unicode="&#x25b;" horiz-adv-x="384" 
d="M194 537c80 0 128 -43 128 -116h-19c0 62 -40 98 -109 98c-65 0 -109 -43 -109 -107c0 -81 36 -110 127 -110v-18c-112 0 -140 -53 -140 -144c0 -84 45 -133 121 -133c67 0 117 45 121 109l17 -10c-9 -74 -60 -117 -137 -117c-89 0 -141 56 -141 151c0 84 33 140 88 153
v1c-47 9 -75 53 -75 118c0 75 51 125 128 125z" />
    <glyph glyph-name="esh" unicode="&#x283;" horiz-adv-x="213" 
d="M208 750v-16c-101 0 -101 -86 -101 -208v-506c0 -119 -8 -169 -33 -202c-24 -31 -63 -37 -124 -37l9 15c49 0 85 11 102 34c26 35 28 112 28 187v509c0 127 0 224 119 224z" />
    <glyph glyph-name="etilde" unicode="&#x1ebd;" horiz-adv-x="495" 
d="M354 692h15c0 -58 -25 -92 -67 -92c-63 0 -60 76 -113 76c-46 0 -57 -46 -57 -73h-15c0 58 30 91 72 91c63 0 60 -76 113 -76c46 0 52 47 52 74zM250 537c120 0 191 -90 191 -243h-364c0 -180 68 -287 182 -287c87 0 152 43 177 115l16 -10c-27 -77 -99 -123 -193 -123
c-126 0 -201 110 -201 297c0 159 68 251 192 251zM250 519c-110 0 -172 -84 -172 -207h344c0 123 -62 207 -172 207z" />
    <glyph glyph-name="eturned" unicode="&#x1dd;" horiz-adv-x="495" 
d="M245 -12c-120 0 -191 90 -191 243h364c0 180 -68 287 -182 287c-87 0 -152 -43 -177 -115l-16 10c27 77 99 123 193 123c126 0 201 -110 201 -297c0 -159 -68 -251 -192 -251zM245 6c110 0 172 84 172 207h-344c0 -123 62 -207 172 -207z" />
    <glyph glyph-name="ezh" unicode="&#x292;" horiz-adv-x="532" 
d="M461 500l-284 -250v-3c202 0 302 -68 302 -236c0 -145 -88 -231 -236 -231c-88 0 -156 44 -190 111l17 10c33 -61 96 -103 174 -103c130 0 215 83 215 223c0 146 -95 210 -301 210v27l283 247v2h-343v18h363v-25z" />
    <glyph glyph-name="ezhcaron" unicode="&#x1ef;" horiz-adv-x="532" 
d="M282 593h-22l-90 118h17l83 -105h2l83 105h17zM461 500l-284 -250v-3c202 0 302 -68 302 -236c0 -145 -88 -231 -236 -231c-88 0 -156 44 -190 111l17 10c33 -61 96 -103 174 -103c130 0 215 83 215 223c0 146 -95 210 -301 210v27l283 247v2h-343v18h363v-25z" />
    <glyph glyph-name="ezhreversed" unicode="&#x1b9;" horiz-adv-x="532" 
d="M434 525v-18h-343v-2l283 -247v-27c-206 0 -301 -64 -301 -210c0 -140 85 -223 215 -223c78 0 141 42 174 103l17 -10c-34 -67 -102 -111 -190 -111c-148 0 -236 86 -236 231c0 168 100 236 302 236v3l-284 250v25h363z" />
    <glyph glyph-name="f" unicode="f" horiz-adv-x="213" 
d="M208 750v-16c-101 0 -101 -87 -101 -209h96v-18h-96v-507h-18v507h-71v18h71c0 127 0 225 119 225z" />
    <glyph glyph-name="g" unicode="g" horiz-adv-x="530" 
d="M258 536c97 0 140 -62 162 -124h2v113h18l-1 -511c0 -211 -118 -233 -181 -233c-56 0 -128 35 -175 122l16 10c36 -75 103 -114 159 -114c63 0 164 21 164 214v104h-2c-21 -65 -66 -129 -162 -129c-144 0 -200 147 -200 279c0 134 54 269 200 269zM258 517
c-115 0 -182 -91 -182 -250c0 -128 53 -261 182 -261c158 0 164 186 164 259c0 92 -11 252 -164 252z" />
    <glyph glyph-name="gammalatinsmall" unicode="&#x263;" horiz-adv-x="499" 
d="M260 62v-3c68 -56 89 -97 89 -153c0 -92 -39 -126 -102 -126c-62 0 -101 34 -101 126c0 58 26 97 94 153v3l-222 463h20l210 -443h2l211 443h20zM251 43h-2c-50 -38 -84 -84 -84 -137c0 -82 30 -108 82 -108c54 0 83 26 83 108c0 53 -29 99 -79 137z" />
    <glyph glyph-name="gbreve" unicode="&#x11f;" horiz-adv-x="530" 
d="M313 697h18c0 -46 -11 -94 -84 -94s-84 48 -84 94h18c0 -55 20 -78 66 -78s66 23 66 78zM258 536c97 0 140 -62 162 -124h2v113h18l-1 -511c0 -211 -118 -233 -181 -233c-56 0 -128 35 -175 122l16 10c36 -75 103 -114 159 -114c63 0 164 21 164 214v104h-2
c-21 -65 -66 -129 -162 -129c-144 0 -200 147 -200 279c0 134 54 269 200 269zM258 517c-115 0 -182 -91 -182 -250c0 -128 53 -261 182 -261c158 0 164 186 164 259c0 92 -11 252 -164 252z" />
    <glyph glyph-name="gcaron" unicode="&#x1e7;" horiz-adv-x="530" 
d="M270 603h-22l-90 118h17l83 -105h2l83 105h17zM258 536c97 0 140 -62 162 -124h2v113h18l-1 -511c0 -211 -118 -233 -181 -233c-56 0 -128 35 -175 122l16 10c36 -75 103 -114 159 -114c63 0 164 21 164 214v104h-2c-21 -65 -66 -129 -162 -129c-144 0 -200 147 -200 279
c0 134 54 269 200 269zM258 517c-115 0 -182 -91 -182 -250c0 -128 53 -261 182 -261c158 0 164 186 164 259c0 92 -11 252 -164 252z" />
    <glyph glyph-name="gcommaaccent" unicode="&#x123;" horiz-adv-x="530" 
d="M235 593v76c0 28 0 51 25 51v-18c-10 0 -7 -22 -7 -33h8v-76h-26zM258 536c97 0 140 -62 162 -124h2v113h18l-1 -511c0 -211 -118 -233 -181 -233c-56 0 -128 35 -175 122l16 10c36 -75 103 -114 159 -114c63 0 164 21 164 214v104h-2c-21 -65 -66 -129 -162 -129
c-144 0 -200 147 -200 279c0 134 54 269 200 269zM258 517c-115 0 -182 -91 -182 -250c0 -128 53 -261 182 -261c158 0 164 186 164 259c0 92 -11 252 -164 252z" />
    <glyph glyph-name="gdotaccent" unicode="&#x121;" horiz-adv-x="530" 
d="M279 593h-18v87h18v-87zM258 536c97 0 140 -62 162 -124h2v113h18l-1 -511c0 -211 -118 -233 -181 -233c-56 0 -128 35 -175 122l16 10c36 -75 103 -114 159 -114c63 0 164 21 164 214v104h-2c-21 -65 -66 -129 -162 -129c-144 0 -200 147 -200 279c0 134 54 269 200 269
zM258 517c-115 0 -182 -91 -182 -250c0 -128 53 -261 182 -261c158 0 164 186 164 259c0 92 -11 252 -164 252z" />
    <glyph glyph-name="ghook" unicode="&#x260;" horiz-adv-x="597" 
d="M579 717v-17c-58 51 -94 19 -111 -4c-24 -32 -28 -102 -28 -171l-1 -511c0 -211 -118 -233 -181 -233c-56 0 -128 35 -175 122l16 10c36 -75 103 -114 159 -114c63 0 164 21 164 214v104h-2c-21 -65 -66 -129 -162 -129c-144 0 -200 147 -200 279c0 134 54 269 200 269
c97 0 140 -62 162 -124h2v113c-2 106 9 152 33 183s69 60 124 9zM258 517c-115 0 -182 -91 -182 -250c0 -128 53 -261 182 -261c158 0 164 186 164 259c0 92 -11 252 -164 252z" />
    <glyph glyph-name="glottalstop" unicode="&#x294;" horiz-adv-x="453" 
d="M217 713c125 0 178 -71 178 -190c0 -130 -71 -170 -107 -206c-93 -91 -68 -180 -68 -317h-20c0 126 -31 226 77 334c43 43 98 66 98 190s-60 170 -158 170c-65 0 -144 -32 -144 -163h-20c0 64 26 182 164 182z" />
    <glyph glyph-name="glottalstopinverted" unicode="&#x296;" horiz-adv-x="453" 
d="M200 700h20c0 -137 -25 -226 68 -317c36 -36 107 -76 107 -206c0 -119 -53 -190 -178 -190c-138 0 -164 118 -164 182h20c0 -131 79 -163 144 -163c98 0 158 46 158 170s-55 147 -98 190c-108 108 -77 208 -77 334z" />
    <glyph glyph-name="glottalstopreversed" unicode="&#x295;" horiz-adv-x="453" 
d="M236 713c138 0 164 -118 164 -182h-20c0 131 -79 163 -144 163c-98 0 -158 -46 -158 -170s55 -147 98 -190c108 -108 77 -208 77 -334h-20c0 137 25 226 -68 317c-36 36 -107 76 -107 206c0 119 53 190 178 190z" />
    <glyph glyph-name="uni0242" unicode="&#x242;" horiz-adv-x="452" 
d="M217 537c125 0 177 -71 177 -190c0 -130 -70 -169 -106 -205c-46 -45 -58 -92 -58 -142h-18c0 53 13 104 66 157c43 43 98 67 98 191s-61 171 -159 171c-65 0 -144 -33 -144 -164h-20c0 64 26 182 164 182z" />
    <glyph glyph-name="h" unicode="h" horiz-adv-x="519" 
d="M113 434h2c19 49 66 103 151 103c105 0 173 -26 173 -252v-285h-18v301c0 185 -60 217 -155 217c-108 0 -153 -107 -153 -159v-359h-18v745h18v-311z" />
    <glyph glyph-name="hbar" unicode="&#x127;" horiz-adv-x="520" 
d="M267 537c105 0 173 -26 173 -252v-285h-18v301c0 185 -60 217 -155 217c-108 0 -153 -107 -153 -159v-359h-18v630h-57v17h57v98h18v-98h204v-17h-204v-196h2c19 49 66 103 151 103z" />
    <glyph glyph-name="hdotbelow" unicode="&#x1e25;" horiz-adv-x="519" 
d="M113 434h2c19 49 66 103 151 103c105 0 173 -26 173 -252v-285h-18v301c0 185 -60 217 -155 217c-108 0 -153 -107 -153 -159v-359h-18v745h18v-311zM276 -147h-18v87h18v-87z" />
    <glyph glyph-name="hhook" unicode="&#x266;" horiz-adv-x="519" 
d="M410 700v-18c-194 145 -298 -79 -297 -157v-91h2c19 49 66 103 151 103c105 0 173 -26 173 -252v-285h-18v301c0 185 -60 217 -155 217c-108 0 -153 -107 -153 -159v-359h-18v525c4 135 148 308 315 175z" />
    <glyph glyph-name="i" unicode="i" horiz-adv-x="203" 
d="M113 657h-18v88h18v-88zM113 0h-18v525h18v-525z" />
    <glyph glyph-name="dotlessi" unicode="&#x131;" horiz-adv-x="198" 
d="M108 0v525h-18v-525h18z" />
    <glyph glyph-name="iacute" unicode="&#xed;" horiz-adv-x="260" 
d="M75 606h15l104 139h-23zM114 0v525h-18v-525h18z" />
    <glyph glyph-name="icaron" unicode="&#x1d0;" horiz-adv-x="198" 
d="M110 601h-22l-90 118h17l83 -105h2l83 105h17zM108 0v525h-18v-525h18z" />
    <glyph glyph-name="icircumflex" unicode="&#xee;" horiz-adv-x="260" 
d="M199 603h-17l-83 105h-2l-83 -105h-17l90 118h22zM108 0v525h-18v-525h18z" />
    <glyph glyph-name="idieresis" unicode="&#xef;" horiz-adv-x="198" 
d="M19 593h-20v87h20v-87zM194 593h-20v87h20v-87zM108 0v525h-18v-525h18z" />
    <glyph glyph-name="idieresisacute" unicode="&#x1e2f;" horiz-adv-x="198" 
d="M86 727h15l104 139h-23zM19 593h-20v87h20v-87zM194 593h-20v87h20v-87zM108 0v525h-18v-525h18z" />
    <glyph glyph-name="i.loclTRK" horiz-adv-x="198" 
d="M109 593h-18v87h18v-87zM108 0v525h-18v-525h18z" />
    <glyph glyph-name="idotbelow" unicode="&#x1ecb;" horiz-adv-x="203" 
d="M113 657h-18v88h18v-88zM113 0h-18v525h18v-525zM113 -147h-18v87h18v-87z" />
    <glyph glyph-name="igrave" unicode="&#xec;" horiz-adv-x="299" 
d="M73 745l104 -139h15l-96 139h-23zM161 0v525h-18v-525h18z" />
    <glyph glyph-name="ihookabove" unicode="&#x1ec9;" horiz-adv-x="198" 
d="M145 690c0 -21 -16 -48 -61 -48l4 -49h17l-3 36c40 7 60 29 60 62c0 35 -19 58 -59 58c-45 0 -69 -23 -69 -72h17c0 32 16 56 48 56c28 0 46 -14 46 -43zM108 0v525h-18v-525h18z" />
    <glyph glyph-name="ij" unicode="&#x133;" horiz-adv-x="400" 
d="M113 745v-88h-18v88h18zM310 745v-88h-18v88h18zM113 525v-525h-18v525h18zM310 525v-505c0 -119 -8 -169 -33 -202c-24 -31 -63 -37 -124 -37l9 15c49 0 85 11 102 34c26 35 28 112 28 187v508h18z" />
    <glyph glyph-name="imacron" unicode="&#x12b;" horiz-adv-x="198" 
d="M244 600h-279v17h279v-17zM108 0v525h-18v-525h18z" />
    <glyph glyph-name="iogonek" unicode="&#x12f;" horiz-adv-x="203" 
d="M113 657h-18v88h18v-88zM113 525v-525c-111 -49 -151 -141 -119 -179c23 -28 83 -23 140 14l16 -10c-44 -37 -144 -57 -173 -14c-8 12 -12 25 -12 40c0 53 49 118 130 154v520h18z" />
    <glyph glyph-name="iotalatin" unicode="&#x269;" horiz-adv-x="270" 
d="M113 525v-300c0 -75 2 -152 28 -187c17 -23 53 -34 102 -34l9 -15c-61 0 -100 6 -124 37c-25 33 -33 83 -33 202v297h18z" />
    <glyph glyph-name="istroke" unicode="&#x268;" horiz-adv-x="315" 
d="M166 657h-18v88h18v-88zM297 294h-131v-294h-18v294h-130v17h130v214h18v-214h131v-17z" />
    <glyph glyph-name="itilde" unicode="&#x129;" horiz-adv-x="198" 
d="M210 692h15c0 -58 -25 -92 -67 -92c-63 0 -60 76 -113 76c-46 0 -57 -46 -57 -73h-15c0 58 30 91 72 91c63 0 60 -76 113 -76c46 0 52 47 52 74zM108 0v525h-18v-525h18z" />
    <glyph glyph-name="j" unicode="j" horiz-adv-x="197" 
d="M107 745v-88h-18v88h18zM107 525v-505c0 -119 -8 -169 -33 -202c-24 -31 -63 -37 -124 -37l9 15c49 0 85 11 102 34c26 35 28 112 28 187v508h18z" />
    <glyph glyph-name="dotlessj" unicode="&#x237;" horiz-adv-x="197" 
d="M107 525v-505c0 -119 -8 -169 -33 -202c-24 -31 -63 -37 -124 -37l9 15c49 0 85 11 102 34c26 35 28 112 28 187v508h18z" />
    <glyph glyph-name="k" unicode="k" horiz-adv-x="428" 
d="M115 261h2l246 264h25l-180 -189v-2l202 -334h-22l-192 322h-2l-79 -85v-237h-20v745h20v-484z" />
    <glyph glyph-name="kcommaaccent" unicode="&#x137;" horiz-adv-x="428" 
d="M115 261h2l246 264h25l-180 -189v-2l202 -334h-22l-192 322h-2l-79 -85v-237h-20v745h20v-484zM232 -60v-76c0 -28 0 -51 -25 -51v18c10 0 7 22 7 33h-8v76h26z" />
    <glyph glyph-name="khook" unicode="&#x199;" horiz-adv-x="428" 
d="M410 700v-18c-194 145 -298 -79 -297 -157v-264h2l246 264h25l-180 -189v-2l202 -334h-22l-192 322h-2l-79 -85v-237h-18v525c4 135 148 308 315 175z" />
    <glyph glyph-name="klinebelow" unicode="&#x1e35;" horiz-adv-x="428" 
d="M115 261h2l246 264h25l-180 -189v-2l202 -334h-22l-192 322h-2l-79 -85v-237h-20v745h20v-484zM383 -77h-279v17h279v-17z" />
    <glyph glyph-name="l" unicode="l" horiz-adv-x="193" 
d="M113 0v745h-18v-745h18z" />
    <glyph glyph-name="lacute" unicode="&#x13a;" horiz-adv-x="193" 
d="M69 794h15l104 139h-23zM113 0v745h-18v-745h18z" />
    <glyph glyph-name="lcaron" unicode="&#x13e;" horiz-adv-x="241" 
d="M113 0h-18v745h18v-745zM223 745v-110c0 -57 -4 -99 -56 -110v15c49 12 37 71 38 96h-8v109h26z" />
    <glyph glyph-name="lcircumflexbelow" unicode="&#x1e3d;" horiz-adv-x="193" 
d="M113 0v745h-18v-745h18zM205 -178h-17l-83 105h-2l-83 -105h-17l90 118h22z" />
    <glyph glyph-name="lcommaaccent" unicode="&#x13c;" horiz-adv-x="193" 
d="M113 0v745h-18v-745h18zM137 -60v-76c0 -28 0 -51 -25 -51v18c10 0 7 22 7 33h-8v76h26z" />
    <glyph glyph-name="ldot" unicode="&#x140;" horiz-adv-x="297" 
d="M113 0v745h-18v-745h18zM287 409h-18v87h18v-87z" />
    <glyph glyph-name="ldotbelow" unicode="&#x1e37;" horiz-adv-x="193" 
d="M113 0v745h-18v-745h18zM113 -147h-18v87h18v-87z" />
    <glyph glyph-name="ldotbelowmacron" unicode="&#x1e39;" horiz-adv-x="193" 
d="M267 793h-279v17h279v-17zM113 0v745h-18v-745h18zM113 -147h-18v87h18v-87z" />
    <glyph glyph-name="llinebelow" unicode="&#x1e3b;" horiz-adv-x="193" 
d="M113 0v745h-18v-745h18zM270 -77h-279v17h279v-17z" />
    <glyph glyph-name="lslash" unicode="&#x142;" horiz-adv-x="304" 
d="M286 473l-125 -73v-400h-18v390l-125 -73v17l125 73v338h18v-328l125 73v-17z" />
    <glyph glyph-name="m" unicode="m" horiz-adv-x="772" 
d="M551 537c123 0 141 -89 141 -253v-284h-18v292c0 143 -14 227 -123 227c-117 0 -146 -122 -146 -182v-337h-18v302c0 104 -19 217 -136 217c-90 0 -143 -100 -143 -152v-367h-18v525h18v-89h2c25 47 65 101 141 101c79 0 127 -40 146 -134h2c8 38 43 134 152 134z" />
    <glyph glyph-name="macute" unicode="&#x1e3f;" horiz-adv-x="772" 
d="M379 606h15l104 139h-23zM551 537c123 0 141 -89 141 -253v-284h-18v292c0 143 -14 227 -123 227c-117 0 -146 -122 -146 -182v-337h-18v302c0 104 -19 217 -136 217c-90 0 -143 -100 -143 -152v-367h-18v525h18v-89h2c25 47 65 101 141 101c79 0 127 -40 146 -134h2
c8 38 43 134 152 134z" />
    <glyph glyph-name="n" unicode="n" horiz-adv-x="514" 
d="M261 537c98 0 173 -26 173 -252v-285h-18v301c0 99 -19 161 -54 190c-26 21 -61 27 -101 27c-108 0 -153 -107 -153 -159v-359h-18v525h18v-91h2c19 49 66 103 151 103z" />
    <glyph glyph-name="nacute" unicode="&#x144;" horiz-adv-x="514" 
d="M214 606h15l104 139h-23zM261 537c98 0 173 -26 173 -252v-285h-18v301c0 99 -19 161 -54 190c-26 21 -61 27 -101 27c-108 0 -153 -107 -153 -159v-359h-18v525h18v-91h2c19 49 66 103 151 103z" />
    <glyph glyph-name="ncaron" unicode="&#x148;" horiz-adv-x="514" 
d="M273 603h-22l-90 118h17l83 -105h2l83 105h17zM261 537c98 0 173 -26 173 -252v-285h-18v301c0 99 -19 161 -54 190c-26 21 -61 27 -101 27c-108 0 -153 -107 -153 -159v-359h-18v525h18v-91h2c19 49 66 103 151 103z" />
    <glyph glyph-name="ncircumflexbelow" unicode="&#x1e4b;" horiz-adv-x="514" 
d="M261 537c98 0 173 -26 173 -252v-285h-18v301c0 99 -19 161 -54 190c-26 21 -61 27 -101 27c-108 0 -153 -107 -153 -159v-359h-18v525h18v-91h2c19 49 66 103 151 103zM357 -178h-17l-83 105h-2l-83 -105h-17l90 118h22z" />
    <glyph glyph-name="ncommaaccent" unicode="&#x146;" horiz-adv-x="514" 
d="M261 537c98 0 173 -26 173 -252v-285h-18v301c0 99 -19 161 -54 190c-26 21 -61 27 -101 27c-108 0 -153 -107 -153 -159v-359h-18v525h18v-91h2c19 49 66 103 151 103zM281 -60v-76c0 -28 0 -51 -25 -51v18c10 0 7 22 7 33h-8v76h26z" />
    <glyph glyph-name="ndotaccent" unicode="&#x1e45;" horiz-adv-x="514" 
d="M269 593h-18v87h18v-87zM261 537c98 0 173 -26 173 -252v-285h-18v301c0 99 -19 161 -54 190c-26 21 -61 27 -101 27c-108 0 -153 -107 -153 -159v-359h-18v525h18v-91h2c19 49 66 103 151 103z" />
    <glyph glyph-name="ndotbelow" unicode="&#x1e47;" horiz-adv-x="514" 
d="M261 537c98 0 173 -26 173 -252v-285h-18v301c0 99 -19 161 -54 190c-26 21 -61 27 -101 27c-108 0 -153 -107 -153 -159v-359h-18v525h18v-91h2c19 49 66 103 151 103zM271 -147h-18v87h18v-87z" />
    <glyph glyph-name="eng" unicode="&#x14b;" horiz-adv-x="514" 
d="M261 537c98 0 173 -26 173 -252v-265c0 -119 -8 -169 -33 -202c-24 -31 -63 -37 -124 -37l9 15c49 0 85 11 102 34c26 35 28 112 28 187v284c0 104 -18 162 -53 191c-26 21 -62 26 -102 26c-108 0 -153 -107 -153 -159v-359h-18v525h18v-91h2c19 49 66 103 151 103z" />
    <glyph glyph-name="nhookleft" unicode="&#x272;" horiz-adv-x="513" 
d="M260 537c98 0 173 -26 173 -252v-285h-18v301c0 104 -18 162 -53 191c-26 21 -62 26 -102 26c-108 0 -153 -107 -153 -159v-339c0 -119 -8 -169 -33 -202c-24 -31 -63 -37 -124 -37l9 15c49 0 85 11 102 34c26 35 28 112 28 187v508h18v-91h2c19 49 66 103 151 103z" />
    <glyph glyph-name="ntilde" unicode="&#xf1;" horiz-adv-x="514" 
d="M351 697h15c0 -58 -25 -92 -67 -92c-63 0 -60 76 -113 76c-46 0 -57 -46 -57 -73h-15c0 58 30 91 72 91c63 0 60 -76 113 -76c46 0 52 47 52 74zM261 537c98 0 173 -26 173 -252v-285h-18v301c0 99 -19 161 -54 190c-26 21 -61 27 -101 27c-108 0 -153 -107 -153 -159
v-359h-18v525h18v-91h2c19 49 66 103 151 103z" />
    <glyph glyph-name="o" unicode="o" horiz-adv-x="538" 
d="M269 537c149 -1 211 -127 211 -270c0 -131 -62 -278 -211 -278s-211 147 -211 278c0 143 62 271 211 270zM269 519c-131 0 -192 -111 -192 -252c0 -127 63 -260 192 -260s192 133 192 260c0 141 -61 252 -192 252z" />
    <glyph glyph-name="oacute" unicode="&#xf3;" horiz-adv-x="538" 
d="M222 606h15l104 139h-23zM269 537c149 -1 211 -127 211 -270c0 -131 -62 -278 -211 -278s-211 147 -211 278c0 143 62 271 211 270zM269 519c-131 0 -192 -111 -192 -252c0 -127 63 -260 192 -260s192 133 192 260c0 141 -61 252 -192 252z" />
    <glyph glyph-name="ocaron" unicode="&#x1d2;" horiz-adv-x="538" 
d="M280 603h-22l-90 118h17l83 -105h2l83 105h17zM269 537c149 -1 211 -127 211 -270c0 -131 -62 -278 -211 -278s-211 147 -211 278c0 143 62 271 211 270zM269 519c-131 0 -192 -111 -192 -252c0 -127 63 -260 192 -260s192 133 192 260c0 141 -61 252 -192 252z" />
    <glyph glyph-name="ocircumflex" unicode="&#xf4;" horiz-adv-x="538" 
d="M370 603h-17l-83 105h-2l-83 -105h-17l90 118h22zM269 537c149 -1 211 -127 211 -270c0 -131 -62 -278 -211 -278s-211 147 -211 278c0 143 62 271 211 270zM269 519c-131 0 -192 -111 -192 -252c0 -127 63 -260 192 -260s192 133 192 260c0 141 -61 252 -192 252z" />
    <glyph glyph-name="ocircumflexacute" unicode="&#x1ed1;" horiz-adv-x="538" 
d="M400 648h-15l96 139h23zM379 593h-17l-83 105h-2l-83 -105h-17l90 118h22zM269 537c149 -1 211 -127 211 -270c0 -131 -62 -278 -211 -278s-211 147 -211 278c0 143 62 271 211 270zM269 519c-131 0 -192 -111 -192 -252c0 -127 63 -260 192 -260s192 133 192 260
c0 141 -61 252 -192 252z" />
    <glyph glyph-name="ocircumflexdotbelow" unicode="&#x1ed9;" horiz-adv-x="538" 
d="M370 603h-17l-83 105h-2l-83 -105h-17l90 118h22zM269 537c149 -1 211 -127 211 -270c0 -131 -62 -278 -211 -278s-211 147 -211 278c0 143 62 271 211 270zM269 519c-131 0 -192 -111 -192 -252c0 -127 63 -260 192 -260s192 133 192 260c0 141 -61 252 -192 252z
M281 -147h-18v87h18v-87z" />
    <glyph glyph-name="ocircumflexgrave" unicode="&#x1ed3;" horiz-adv-x="538" 
d="M414 648h-15l-104 139h23zM367 593h-17l-83 105h-2l-83 -105h-17l90 118h22zM269 537c149 -1 211 -127 211 -270c0 -131 -62 -278 -211 -278s-211 147 -211 278c0 143 62 271 211 270zM269 519c-131 0 -192 -111 -192 -252c0 -127 63 -260 192 -260s192 133 192 260
c0 141 -61 252 -192 252z" />
    <glyph glyph-name="ocircumflexhookabove" unicode="&#x1ed5;" horiz-adv-x="538" 
d="M477 697c0 -21 -16 -48 -61 -48l4 -49h17l-3 36c40 7 60 29 60 62c0 35 -19 58 -59 58c-45 0 -69 -23 -69 -72h17c0 32 16 56 48 56c28 0 46 -14 46 -43zM376 600h-17l-83 105h-2l-83 -105h-17l90 118h22zM269 537c149 -1 211 -127 211 -270c0 -131 -62 -278 -211 -278
s-211 147 -211 278c0 143 62 271 211 270zM269 519c-131 0 -192 -111 -192 -252c0 -127 63 -260 192 -260s192 133 192 260c0 141 -61 252 -192 252z" />
    <glyph glyph-name="ocircumflextilde" unicode="&#x1ed7;" horiz-adv-x="538" 
d="M214 864c63 0 60 -76 113 -76c46 0 52 47 52 74h15c0 -58 -25 -92 -67 -92c-63 0 -60 76 -113 76c-46 0 -57 -46 -57 -73h-15c0 58 30 91 72 91zM380 593h-17l-83 105h-2l-83 -105h-17l90 118h22zM269 537c149 -1 211 -127 211 -270c0 -131 -62 -278 -211 -278
s-211 147 -211 278c0 143 62 271 211 270zM269 519c-131 0 -192 -111 -192 -252c0 -127 63 -260 192 -260s192 133 192 260c0 141 -61 252 -192 252z" />
    <glyph glyph-name="odieresis" unicode="&#xf6;" horiz-adv-x="538" 
d="M192 593h-20v87h20v-87zM367 593h-20v87h20v-87zM269 537c149 -1 211 -127 211 -270c0 -131 -62 -278 -211 -278s-211 147 -211 278c0 143 62 271 211 270zM269 519c-131 0 -192 -111 -192 -252c0 -127 63 -260 192 -260s192 133 192 260c0 141 -61 252 -192 252z" />
    <glyph glyph-name="uni022B" unicode="&#x22b;" horiz-adv-x="538" 
d="M409 721h-279v17h279v-17zM192 593h-20v87h20v-87zM367 593h-20v87h20v-87zM269 537c149 -1 211 -127 211 -270c0 -131 -62 -278 -211 -278s-211 147 -211 278c0 143 62 271 211 270zM269 519c-131 0 -192 -111 -192 -252c0 -127 63 -260 192 -260s192 133 192 260
c0 141 -61 252 -192 252z" />
    <glyph glyph-name="odotbelow" unicode="&#x1ecd;" horiz-adv-x="538" 
d="M269 537c149 -1 211 -127 211 -270c0 -131 -62 -278 -211 -278s-211 147 -211 278c0 143 62 271 211 270zM269 519c-131 0 -192 -111 -192 -252c0 -127 63 -260 192 -260s192 133 192 260c0 141 -61 252 -192 252zM278 -147h-18v87h18v-87z" />
    <glyph glyph-name="ograve" unicode="&#xf2;" horiz-adv-x="538" 
d="M179 745l104 -139h15l-96 139h-23zM269 537c149 -1 211 -127 211 -270c0 -131 -62 -278 -211 -278s-211 147 -211 278c0 143 62 271 211 270zM269 519c-131 0 -192 -111 -192 -252c0 -127 63 -260 192 -260s192 133 192 260c0 141 -61 252 -192 252z" />
    <glyph glyph-name="ohookabove" unicode="&#x1ecf;" horiz-adv-x="538" 
d="M316 690c0 -21 -16 -48 -61 -48l4 -49h17l-3 36c40 7 60 29 60 62c0 35 -19 58 -59 58c-45 0 -69 -23 -69 -72h17c0 32 16 56 48 56c28 0 46 -14 46 -43zM269 537c149 -1 211 -127 211 -270c0 -131 -62 -278 -211 -278s-211 147 -211 278c0 143 62 271 211 270zM269 519
c-131 0 -192 -111 -192 -252c0 -127 63 -260 192 -260s192 133 192 260c0 141 -61 252 -192 252z" />
    <glyph glyph-name="ohorn" unicode="&#x1a1;" horiz-adv-x="575" 
d="M539 566h18c0 -59 -50 -116 -114 -131c25 -47 37 -106 37 -168c0 -131 -62 -278 -211 -278s-211 147 -211 278c0 143 62 271 211 270c78 -1 132 -35 165 -88c54 12 105 66 105 117zM269 519c-131 0 -192 -111 -192 -252c0 -127 63 -260 192 -260s192 133 192 260
c0 141 -61 252 -192 252z" />
    <glyph glyph-name="ohornacute" unicode="&#x1edb;" horiz-adv-x="575" 
d="M252 606h15l104 139h-23zM539 566h18c0 -59 -50 -116 -114 -131c25 -47 37 -106 37 -168c0 -131 -62 -278 -211 -278s-211 147 -211 278c0 143 62 271 211 270c78 -1 132 -35 165 -88c54 12 105 66 105 117zM269 519c-131 0 -192 -111 -192 -252c0 -127 63 -260 192 -260
s192 133 192 260c0 141 -61 252 -192 252z" />
    <glyph glyph-name="ohorndotbelow" unicode="&#x1ee3;" horiz-adv-x="575" 
d="M539 566h18c0 -59 -50 -116 -114 -131c25 -47 37 -106 37 -168c0 -131 -62 -278 -211 -278s-211 147 -211 278c0 143 62 271 211 270c78 -1 132 -35 165 -88c54 12 105 66 105 117zM269 519c-131 0 -192 -111 -192 -252c0 -127 63 -260 192 -260s192 133 192 260
c0 141 -61 252 -192 252zM279 -147h-18v87h18v-87z" />
    <glyph glyph-name="ohorngrave" unicode="&#x1edd;" horiz-adv-x="575" 
d="M167 735l104 -139h15l-96 139h-23zM539 566h18c0 -59 -50 -116 -114 -131c25 -47 37 -106 37 -168c0 -131 -62 -278 -211 -278s-211 147 -211 278c0 143 62 271 211 270c78 -1 132 -35 165 -88c54 12 105 66 105 117zM269 519c-131 0 -192 -111 -192 -252
c0 -127 63 -260 192 -260s192 133 192 260c0 141 -61 252 -192 252z" />
    <glyph glyph-name="ohornhookabove" unicode="&#x1edf;" horiz-adv-x="575" 
d="M313 700c0 -21 -16 -48 -61 -48l4 -49h17l-3 36c40 7 60 29 60 62c0 35 -19 58 -59 58c-45 0 -69 -23 -69 -72h17c0 32 16 56 48 56c28 0 46 -14 46 -43zM539 566h18c0 -59 -50 -116 -114 -131c25 -47 37 -106 37 -168c0 -131 -62 -278 -211 -278s-211 147 -211 278
c0 143 62 271 211 270c78 -1 132 -35 165 -88c54 12 105 66 105 117zM269 519c-131 0 -192 -111 -192 -252c0 -127 63 -260 192 -260s192 133 192 260c0 141 -61 252 -192 252z" />
    <glyph glyph-name="ohorntilde" unicode="&#x1ee1;" horiz-adv-x="575" 
d="M382 700h15c0 -58 -25 -92 -67 -92c-63 0 -60 76 -113 76c-46 0 -57 -46 -57 -73h-15c0 58 30 91 72 91c63 0 60 -76 113 -76c46 0 52 47 52 74zM539 566h18c0 -59 -50 -116 -114 -131c25 -47 37 -106 37 -168c0 -131 -62 -278 -211 -278s-211 147 -211 278
c0 143 62 271 211 270c78 -1 132 -35 165 -88c54 12 105 66 105 117zM269 519c-131 0 -192 -111 -192 -252c0 -127 63 -260 192 -260s192 133 192 260c0 141 -61 252 -192 252z" />
    <glyph glyph-name="ohungarumlaut" unicode="&#x151;" horiz-adv-x="538" 
d="M194 603h-15l96 138h23zM334 603h-15l96 136h23zM269 537c149 -1 211 -127 211 -270c0 -131 -62 -278 -211 -278s-211 147 -211 278c0 143 62 271 211 270zM269 519c-131 0 -192 -111 -192 -252c0 -127 63 -260 192 -260s192 133 192 260c0 141 -61 252 -192 252z" />
    <glyph glyph-name="omacron" unicode="&#x14d;" horiz-adv-x="538" 
d="M409 604h-279v17h279v-17zM269 537c149 -1 211 -127 211 -270c0 -131 -62 -278 -211 -278s-211 147 -211 278c0 143 62 271 211 270zM269 519c-131 0 -192 -111 -192 -252c0 -127 63 -260 192 -260s192 133 192 260c0 141 -61 252 -192 252z" />
    <glyph glyph-name="omacronacute" unicode="&#x1e53;" horiz-adv-x="538" 
d="M252 673h15l104 139h-23zM409 604h-279v17h279v-17zM269 537c149 -1 211 -127 211 -270c0 -131 -62 -278 -211 -278s-211 147 -211 278c0 143 62 271 211 270zM269 519c-131 0 -192 -111 -192 -252c0 -127 63 -260 192 -260s192 133 192 260c0 141 -61 252 -192 252z" />
    <glyph glyph-name="omacrongrave" unicode="&#x1e51;" horiz-adv-x="538" 
d="M182 815l104 -139h15l-96 139h-23zM409 604h-279v17h279v-17zM269 537c149 -1 211 -127 211 -270c0 -131 -62 -278 -211 -278s-211 147 -211 278c0 143 62 271 211 270zM269 519c-131 0 -192 -111 -192 -252c0 -127 63 -260 192 -260s192 133 192 260
c0 141 -61 252 -192 252z" />
    <glyph glyph-name="oopen" unicode="&#x254;" horiz-adv-x="503" 
d="M234 537c149 1 211 -127 211 -270c0 -131 -62 -278 -211 -278c-88 0 -157 44 -191 111l17 10c33 -61 96 -103 174 -103c129 0 192 133 192 260c0 141 -61 252 -192 252c-102 0 -161 -72 -167 -163h-19c11 101 69 180 186 181z" />
    <glyph glyph-name="oslash" unicode="&#xf8;" horiz-adv-x="566" 
d="M508 527l-67 -89c27 -47 39 -107 39 -171c0 -131 -62 -278 -211 -278c-54 0 -96 19 -128 49l-38 -50l-14 10l40 53c-49 55 -71 138 -71 216c0 143 62 271 211 270c75 -1 128 -33 162 -83l63 83zM77 267c0 -74 21 -149 64 -200l278 371c-31 50 -81 81 -150 81
c-131 0 -192 -111 -192 -252zM461 267c0 59 -10 112 -32 154l-276 -367c30 -29 68 -47 116 -47c129 0 192 133 192 260z" />
    <glyph glyph-name="oslashacute" unicode="&#x1ff;" horiz-adv-x="566" 
d="M236 603h-15l96 139h23zM508 527l-67 -89c27 -47 39 -107 39 -171c0 -131 -62 -278 -211 -278c-54 0 -96 19 -128 49l-38 -50l-14 10l40 53c-49 55 -71 138 -71 216c0 143 62 271 211 270c75 -1 128 -33 162 -83l63 83zM77 267c0 -74 21 -149 64 -200l278 371
c-31 50 -81 81 -150 81c-131 0 -192 -111 -192 -252zM461 267c0 59 -10 112 -32 154l-276 -367c30 -29 68 -47 116 -47c129 0 192 133 192 260z" />
    <glyph glyph-name="otilde" unicode="&#xf5;" horiz-adv-x="538" 
d="M390 700h15c0 -58 -25 -92 -67 -92c-63 0 -60 76 -113 76c-46 0 -57 -46 -57 -73h-15c0 58 30 91 72 91c63 0 60 -76 113 -76c46 0 52 47 52 74zM269 537c149 -1 211 -127 211 -270c0 -131 -62 -278 -211 -278s-211 147 -211 278c0 143 62 271 211 270zM269 519
c-131 0 -192 -111 -192 -252c0 -127 63 -260 192 -260s192 133 192 260c0 141 -61 252 -192 252z" />
    <glyph glyph-name="otildeacute" unicode="&#x1e4d;" horiz-adv-x="538" 
d="M271 773h-15l96 139h23zM225 692c63 0 60 -76 113 -76c46 0 52 47 52 74h15c0 -58 -25 -92 -67 -92c-63 0 -60 76 -113 76c-46 0 -57 -46 -57 -73h-15c0 58 30 91 72 91zM269 537c149 -1 211 -127 211 -270c0 -131 -62 -278 -211 -278s-211 147 -211 278
c0 143 62 271 211 270zM269 519c-131 0 -192 -111 -192 -252c0 -127 63 -260 192 -260s192 133 192 260c0 141 -61 252 -192 252z" />
    <glyph glyph-name="oe" unicode="&#x153;" horiz-adv-x="890" 
d="M674 537c53 0 89 -18 114 -44c51 -54 57 -144 54 -199h-361c0 -95 11 -175 74 -243c28 -29 67 -44 119 -44c65 0 131 39 157 115l16 -10c-30 -86 -105 -123 -173 -123c-56 0 -99 18 -130 50c-35 35 -61 87 -72 141h-2c-23 -100 -86 -191 -201 -191
c-149 0 -211 147 -211 278c0 143 62 271 211 270c116 -1 178 -78 201 -179h2c21 96 81 179 202 179zM269 519c-131 0 -192 -111 -192 -252c0 -127 63 -260 192 -260s192 133 192 260c0 141 -61 252 -192 252zM671 519c-63 0 -110 -28 -140 -66c-37 -46 -49 -116 -49 -141
h343c0 123 -40 207 -154 207z" />
    <glyph glyph-name="p" unicode="p" horiz-adv-x="535" 
d="M277 536c146 0 200 -135 200 -269c0 -132 -56 -279 -200 -279c-96 0 -141 64 -162 129h-2v-337h-18v745h18v-113h2c22 62 66 124 162 124zM277 517c-153 0 -164 -160 -164 -252c0 -73 6 -259 164 -259c129 0 182 133 182 261c0 159 -67 250 -182 250z" />
    <glyph glyph-name="phook" unicode="&#x1a5;" horiz-adv-x="535" 
d="M410 700v-18c-194 145 -298 -79 -297 -157v-113h2c22 62 66 124 162 124c146 0 200 -135 200 -269c0 -132 -56 -279 -200 -279c-96 0 -141 64 -162 129h-2v-337h-18v745c4 135 148 308 315 175zM277 517c-153 0 -164 -160 -164 -252c0 -73 6 -259 164 -259
c129 0 182 133 182 261c0 159 -67 250 -182 250z" />
    <glyph glyph-name="thorn" unicode="&#xfe;" horiz-adv-x="535" 
d="M277 536c146 0 200 -135 200 -269c0 -132 -56 -279 -200 -279c-96 0 -141 64 -162 129h-2v-337h-18v965h18v-333h2c22 62 66 124 162 124zM277 517c-153 0 -164 -160 -164 -252c0 -73 6 -259 164 -259c129 0 182 133 182 261c0 159 -67 250 -182 250z" />
    <glyph glyph-name="q" unicode="q" horiz-adv-x="530" 
d="M258 536c96 0 140 -62 162 -124h2v113h18v-745h-18v337h-2c-21 -65 -66 -129 -162 -129c-144 0 -200 147 -200 279c0 134 54 269 200 269zM258 517c-115 0 -182 -91 -182 -250c0 -128 53 -261 182 -261c158 0 164 186 164 259c0 92 -11 252 -164 252z" />
    <glyph glyph-name="uni024B" unicode="&#x24b;" horiz-adv-x="537" 
d="M258 536c96 0 140 -62 162 -124h2v113h18v-508c0 -75 2 -152 28 -187c17 -23 62 -53 98 -7l9 -15c-42 -51 -96 -21 -120 10c-25 33 -33 83 -33 202v97h-2c-21 -65 -66 -129 -162 -129c-144 0 -200 147 -200 279c0 134 54 269 200 269zM258 517c-115 0 -182 -91 -182 -250
c0 -128 53 -261 182 -261c158 0 164 186 164 259c0 92 -11 252 -164 252z" />
    <glyph glyph-name="r" unicode="r" horiz-adv-x="285" 
d="M267 536v-18c-100 0 -169 -79 -169 -145v-373h-18v525h18v-86h2c26 46 77 97 167 97z" />
    <glyph glyph-name="racute" unicode="&#x155;" horiz-adv-x="285" 
d="M118 606h15l104 139h-23zM267 536v-18c-100 0 -169 -79 -169 -145v-373h-18v525h18v-86h2c26 46 77 97 167 97z" />
    <glyph glyph-name="rcaron" unicode="&#x159;" horiz-adv-x="285" 
d="M183 603h-22l-90 118h17l83 -105h2l83 105h17zM267 536v-18c-100 0 -169 -79 -169 -145v-373h-18v525h18v-86h2c26 46 77 97 167 97z" />
    <glyph glyph-name="rcommaaccent" unicode="&#x157;" horiz-adv-x="285" 
d="M267 536v-18c-100 0 -169 -79 -169 -145v-373h-18v525h18v-86h2c26 46 77 97 167 97zM151 -60v-76c0 -28 0 -51 -25 -51v18c10 0 7 22 7 33h-8v76h26z" />
    <glyph glyph-name="rfishhook" unicode="&#x27e;" horiz-adv-x="441" 
d="M351 484v-18c-230 137 -243 -71 -243 -157v-309h-18v309c0 135 45 299 261 175z" />
    <glyph glyph-name="rhook" unicode="&#x27d;" horiz-adv-x="393" 
d="M314 536v-18c-100 0 -169 -79 -169 -145c0 -441 -5 -499 28 -543c17 -23 53 -51 102 -12l9 -15c-61 -39 -100 -16 -124 15c-26 35 -33 51 -33 249v458h18v-86h2c26 46 77 97 167 97z" />
    <glyph glyph-name="s" unicode="s" horiz-adv-x="432" 
d="M209 537c108 0 150 -66 150 -136h-18c0 55 -32 118 -122 118c-87 0 -129 -42 -129 -118c0 -157 289 -59 289 -259c0 -41 -9 -154 -165 -154c-106 0 -141 78 -156 121l16 10c10 -30 37 -113 140 -113c140 0 146 104 146 137c0 182 -288 77 -288 258c0 80 52 136 137 136z
" />
    <glyph glyph-name="sacute" unicode="&#x15b;" horiz-adv-x="432" 
d="M171 603h15l104 139h-23zM209 537c108 0 150 -66 150 -136h-18c0 55 -32 118 -122 118c-87 0 -129 -42 -129 -118c0 -157 289 -59 289 -259c0 -41 -9 -154 -165 -154c-106 0 -141 78 -156 121l16 10c10 -30 37 -113 140 -113c140 0 146 104 146 137
c0 182 -288 77 -288 258c0 80 52 136 137 136z" />
    <glyph glyph-name="scaron" unicode="&#x161;" horiz-adv-x="432" 
d="M230 603h-22l-90 118h17l83 -105h2l83 105h17zM209 537c108 0 150 -66 150 -136h-18c0 55 -32 118 -122 118c-87 0 -129 -42 -129 -118c0 -157 289 -59 289 -259c0 -41 -9 -154 -165 -154c-106 0 -141 78 -156 121l16 10c10 -30 37 -113 140 -113c140 0 146 104 146 137
c0 182 -288 77 -288 258c0 80 52 136 137 136z" />
    <glyph glyph-name="scedilla" unicode="&#x15f;" horiz-adv-x="432" 
d="M379 142c0 -36 -7 -127 -114 -149c12 -93 -60 -157 -161 -134l13 15c66 -15 143 33 132 116c-11 -1 -22 -2 -35 -2c-106 0 -141 78 -156 121l16 10c10 -30 37 -113 140 -113c140 0 146 104 146 137c0 182 -288 77 -288 258c0 80 52 136 137 136c108 0 150 -66 150 -136
h-18c0 55 -32 118 -122 118c-87 0 -129 -42 -129 -118c0 -157 289 -59 289 -259z" />
    <glyph glyph-name="scommaaccent" unicode="&#x219;" horiz-adv-x="432" 
d="M209 537c108 0 150 -66 150 -136h-18c0 55 -32 118 -122 118c-87 0 -129 -42 -129 -118c0 -157 289 -59 289 -259c0 -41 -9 -154 -165 -154c-106 0 -141 78 -156 121l16 10c10 -30 37 -113 140 -113c140 0 146 104 146 137c0 182 -288 77 -288 258c0 80 52 136 137 136z
M250 -60v-76c0 -28 0 -51 -25 -51v18c10 0 7 22 7 33h-8v76h26z" />
    <glyph glyph-name="sdotbelow" unicode="&#x1e63;" horiz-adv-x="432" 
d="M209 537c108 0 150 -66 150 -136h-18c0 55 -32 118 -122 118c-87 0 -129 -42 -129 -118c0 -157 289 -59 289 -259c0 -41 -9 -154 -165 -154c-106 0 -141 78 -156 121l16 10c10 -30 37 -113 140 -113c140 0 146 104 146 137c0 182 -288 77 -288 258c0 80 52 136 137 136z
M246 -147h-18v87h18v-87z" />
    <glyph glyph-name="germandbls" unicode="&#xdf;" horiz-adv-x="503" 
d="M225 711c102 0 130 -61 130 -132c0 -115 -87 -119 -87 -205c0 -87 139 -68 139 -233c0 -150 -114 -160 -153 -143l9 14c18 -8 126 -10 126 129c0 152 -139 134 -139 233c0 92 87 106 87 205c0 71 -28 115 -112 115c-99 0 -112 -84 -112 -205v-489h-17v485
c0 128 12 226 129 226z" />
    <glyph glyph-name="schwa" unicode="&#x259;" horiz-adv-x="496" 
d="M237 536c126 0 201 -110 201 -297c0 -159 -68 -251 -192 -251c-120 0 -191 90 -191 243h364c0 180 -68 287 -182 287c-86 0 -150 -43 -175 -115l-19 1c25 83 99 132 194 132zM418 213h-344c0 -130 64 -207 172 -207s172 77 172 207z" />
    <glyph glyph-name="t" unicode="t" horiz-adv-x="260" 
d="M111 525h92v-18h-92v-286c0 -75 2 -152 28 -187c17 -23 53 -34 102 -34l9 -15c-61 0 -100 6 -124 37c-25 33 -33 83 -33 202v283h-75v18h75v131h18v-131z" />
    <glyph glyph-name="tbar" unicode="&#x167;" horiz-adv-x="260" 
d="M241 0l9 -15c-61 0 -100 6 -124 37c-25 33 -33 83 -33 202v114h-60v17h60v152h-75v18h75v131h18v-131h101v-18h-101v-152h85v-17h-85v-117c0 -75 2 -152 28 -187c17 -23 53 -34 102 -34z" />
    <glyph glyph-name="tcaron" unicode="&#x165;" horiz-adv-x="318" 
d="M318 811v-110c0 -57 -4 -99 -56 -110v15c49 12 37 71 38 96h-8v109h26zM111 525h92v-18h-92v-286c0 -75 2 -152 28 -187c17 -23 53 -34 102 -34l9 -15c-61 0 -100 6 -124 37c-25 33 -33 83 -33 202v283h-75v18h75v131h18v-131z" />
    <glyph glyph-name="tcedilla" unicode="&#x163;" horiz-adv-x="260" 
d="M241 0l9 -15c-54 0 -90 5 -115 27c1 -83 -67 -137 -162 -116l13 15c69 -16 150 37 130 127c-17 33 -23 85 -23 186v283h-75v18h75v131h18v-131h92v-18h-92v-286c0 -75 2 -152 28 -187c17 -23 53 -34 102 -34z" />
    <glyph glyph-name="tcircumflexbelow" unicode="&#x1e71;" horiz-adv-x="260" 
d="M111 525h92v-18h-92v-286c0 -75 2 -152 28 -187c17 -23 53 -34 102 -34l9 -15c-61 0 -100 6 -124 37c-25 33 -33 83 -33 202v283h-75v18h75v131h18v-131zM190 -147h-18v87h18v-87z" />
    <glyph glyph-name="uni021B" unicode="&#x21b;" horiz-adv-x="260" 
d="M111 525h92v-18h-92v-286c0 -75 2 -152 28 -187c17 -23 53 -34 102 -34l9 -15c-61 0 -100 6 -124 37c-25 33 -33 83 -33 202v283h-75v18h75v131h18v-131zM204 -60v-76c0 -28 0 -51 -25 -51v18c10 0 7 22 7 33h-8v76h26z" />
    <glyph glyph-name="tdotbelow" unicode="&#x1e6d;" horiz-adv-x="260" 
d="M111 525h92v-18h-92v-286c0 -75 2 -152 28 -187c17 -23 53 -34 102 -34l9 -15c-61 0 -100 6 -124 37c-25 33 -33 83 -33 202v283h-75v18h75v131h18v-131zM200 -147h-18v87h18v-87z" />
    <glyph glyph-name="thook" unicode="&#x1ad;" horiz-adv-x="260" 
d="M250 717v-17c-58 51 -94 19 -111 -4c-24 -32 -28 -102 -28 -171h92v-18h-92v-286c0 -75 2 -152 28 -187c17 -23 53 -34 102 -34l9 -15c-61 0 -100 6 -124 37c-25 33 -33 83 -33 202v283h-75v18h75c-2 106 9 152 33 183s69 60 124 9z" />
    <glyph glyph-name="tlinebelow" unicode="&#x1e6f;" horiz-adv-x="260" 
d="M111 525h92v-18h-92v-286c0 -75 2 -152 28 -187c17 -23 53 -34 102 -34l9 -15c-61 0 -100 6 -124 37c-25 33 -33 83 -33 202v283h-75v18h75v131h18v-131zM326 -90h-279v17h279v-17z" />
    <glyph glyph-name="tretroflexhook" unicode="&#x288;" horiz-adv-x="260" 
d="M111 525h92v-18h-92v-491c0 -75 2 -152 28 -187c17 -23 53 -55 102 -24l9 -15c-61 -31 -100 -4 -124 27c-25 33 -33 83 -33 202v488h-75v18h75v131h18v-131z" />
    <glyph glyph-name="u" unicode="u" horiz-adv-x="504" 
d="M424 0h-18v91h-2c-19 -49 -66 -103 -151 -103c-105 0 -173 26 -173 252v285h18v-301c0 -185 60 -217 155 -217c108 0 153 107 153 159v359h18v-525z" />
    <glyph glyph-name="uacute" unicode="&#xfa;" horiz-adv-x="504" 
d="M211 605h15l104 139h-23zM424 0h-18v91h-2c-19 -49 -66 -103 -151 -103c-105 0 -173 26 -173 252v285h18v-301c0 -185 60 -217 155 -217c108 0 153 107 153 159v359h18v-525z" />
    <glyph glyph-name="ubar" unicode="&#x289;" horiz-adv-x="520" 
d="M432 314h70v-17h-70v-297h-18v91h-2c-19 -49 -66 -103 -151 -103c-105 0 -173 26 -173 252v57h-70v17h70v211h18v-211h308v211h18v-211zM106 297v-73c0 -185 60 -217 155 -217c108 0 153 107 153 159v131h-308z" />
    <glyph glyph-name="ucaron" unicode="&#x1d4;" horiz-adv-x="504" 
d="M263 603h-22l-90 118h17l83 -105h2l83 105h17zM424 0h-18v91h-2c-19 -49 -66 -103 -151 -103c-105 0 -173 26 -173 252v285h18v-301c0 -185 60 -217 155 -217c108 0 153 107 153 159v359h18v-525z" />
    <glyph glyph-name="ucircumflex" unicode="&#xfb;" horiz-adv-x="504" 
d="M350 603h-17l-83 105h-2l-83 -105h-17l90 118h22zM424 0h-18v91h-2c-19 -49 -66 -103 -151 -103c-105 0 -173 26 -173 252v285h18v-301c0 -185 60 -217 155 -217c108 0 153 107 153 159v359h18v-525z" />
    <glyph glyph-name="udieresis" unicode="&#xfc;" horiz-adv-x="504" 
d="M175 593h-20v87h20v-87zM350 593h-20v87h20v-87zM424 0h-18v91h-2c-19 -49 -66 -103 -151 -103c-105 0 -173 26 -173 252v285h18v-301c0 -185 60 -217 155 -217c108 0 153 107 153 159v359h18v-525z" />
    <glyph glyph-name="udieresisacute" unicode="&#x1d8;" horiz-adv-x="504" 
d="M248 755h15l104 139h-23zM175 593h-20v87h20v-87zM350 593h-20v87h20v-87zM424 0h-18v91h-2c-19 -49 -66 -103 -151 -103c-105 0 -173 26 -173 252v285h18v-301c0 -185 60 -217 155 -217c108 0 153 107 153 159v359h18v-525z" />
    <glyph glyph-name="udieresiscaron" unicode="&#x1da;" horiz-adv-x="504" 
d="M263 745h-22l-90 118h17l83 -105h2l83 105h17zM175 593h-20v87h20v-87zM350 593h-20v87h20v-87zM424 0h-18v91h-2c-19 -49 -66 -103 -151 -103c-105 0 -173 26 -173 252v285h18v-301c0 -185 60 -217 155 -217c108 0 153 107 153 159v359h18v-525z" />
    <glyph glyph-name="udieresisgrave" unicode="&#x1dc;" horiz-adv-x="504" 
d="M131 886l104 -139h15l-96 139h-23zM175 593h-20v87h20v-87zM350 593h-20v87h20v-87zM424 0h-18v91h-2c-19 -49 -66 -103 -151 -103c-105 0 -173 26 -173 252v285h18v-301c0 -185 60 -217 155 -217c108 0 153 107 153 159v359h18v-525z" />
    <glyph glyph-name="udieresismacron" unicode="&#x1d6;" horiz-adv-x="504" 
d="M396 725h-279v17h279v-17zM175 593h-20v87h20v-87zM350 593h-20v87h20v-87zM424 0h-18v91h-2c-19 -49 -66 -103 -151 -103c-105 0 -173 26 -173 252v285h18v-301c0 -185 60 -217 155 -217c108 0 153 107 153 159v359h18v-525z" />
    <glyph glyph-name="udotbelow" unicode="&#x1ee5;" horiz-adv-x="504" 
d="M424 0h-18v91h-2c-19 -49 -66 -103 -151 -103c-105 0 -173 26 -173 252v285h18v-301c0 -185 60 -217 155 -217c108 0 153 107 153 159v359h18v-525zM261 -147h-18v87h18v-87z" />
    <glyph glyph-name="ugrave" unicode="&#xf9;" horiz-adv-x="504" 
d="M132 745l104 -139h15l-96 139h-23zM424 0h-18v91h-2c-19 -49 -66 -103 -151 -103c-105 0 -173 26 -173 252v285h18v-301c0 -185 60 -217 155 -217c108 0 153 107 153 159v359h18v-525z" />
    <glyph glyph-name="uhookabove" unicode="&#x1ee7;" horiz-adv-x="504" 
d="M294 690c0 -21 -16 -48 -61 -48l4 -49h17l-3 36c40 7 60 29 60 62c0 35 -19 58 -59 58c-45 0 -69 -23 -69 -72h17c0 32 16 56 48 56c28 0 46 -14 46 -43zM424 0h-18v91h-2c-19 -49 -66 -103 -151 -103c-105 0 -173 26 -173 252v285h18v-301c0 -185 60 -217 155 -217
c108 0 153 107 153 159v359h18v-525z" />
    <glyph glyph-name="uhorn" unicode="&#x1b0;" horiz-adv-x="562" 
d="M526 561h18c0 -61 -53 -119 -120 -133v-428h-18v91h-2c-19 -49 -66 -103 -151 -103c-105 0 -173 26 -173 252v285h18v-301c0 -185 60 -217 155 -217c108 0 153 107 153 159v359h18v-81c53 13 102 66 102 117z" />
    <glyph glyph-name="uhornacute" unicode="&#x1ee9;" horiz-adv-x="562" 
d="M220 605h15l104 139h-23zM526 561h18c0 -61 -53 -119 -120 -133v-428h-18v91h-2c-19 -49 -66 -103 -151 -103c-105 0 -173 26 -173 252v285h18v-301c0 -185 60 -217 155 -217c108 0 153 107 153 159v359h18v-81c53 13 102 66 102 117z" />
    <glyph glyph-name="uhorndotbelow" unicode="&#x1ef1;" horiz-adv-x="562" 
d="M526 561h18c0 -61 -53 -119 -120 -133v-428h-18v91h-2c-19 -49 -66 -103 -151 -103c-105 0 -173 26 -173 252v285h18v-301c0 -185 60 -217 155 -217c108 0 153 107 153 159v359h18v-81c53 13 102 66 102 117zM264 -147h-18v87h18v-87z" />
    <glyph glyph-name="uhorngrave" unicode="&#x1eeb;" horiz-adv-x="562" 
d="M153 744l104 -139h15l-96 139h-23zM526 561h18c0 -61 -53 -119 -120 -133v-428h-18v91h-2c-19 -49 -66 -103 -151 -103c-105 0 -173 26 -173 252v285h18v-301c0 -185 60 -217 155 -217c108 0 153 107 153 159v359h18v-81c53 13 102 66 102 117z" />
    <glyph glyph-name="uhornhookabove" unicode="&#x1eed;" horiz-adv-x="562" 
d="M295 690c0 -21 -16 -48 -61 -48l4 -49h17l-3 36c40 7 60 29 60 62c0 35 -19 58 -59 58c-45 0 -69 -23 -69 -72h17c0 32 16 56 48 56c28 0 46 -14 46 -43zM526 561h18c0 -61 -53 -119 -120 -133v-428h-18v91h-2c-19 -49 -66 -103 -151 -103c-105 0 -173 26 -173 252v285
h18v-301c0 -185 60 -217 155 -217c108 0 153 107 153 159v359h18v-81c53 13 102 66 102 117z" />
    <glyph glyph-name="uhorntilde" unicode="&#x1eef;" horiz-adv-x="562" 
d="M375 699h15c0 -58 -25 -92 -67 -92c-63 0 -60 76 -113 76c-46 0 -57 -46 -57 -73h-15c0 58 30 91 72 91c63 0 60 -76 113 -76c46 0 52 47 52 74zM526 561h18c0 -61 -53 -119 -120 -133v-428h-18v91h-2c-19 -49 -66 -103 -151 -103c-105 0 -173 26 -173 252v285h18v-301
c0 -185 60 -217 155 -217c108 0 153 107 153 159v359h18v-81c53 13 102 66 102 117z" />
    <glyph glyph-name="uhungarumlaut" unicode="&#x171;" horiz-adv-x="504" 
d="M205 603h-15l96 138h23zM345 603h-15l96 136h23zM424 0h-18v91h-2c-19 -49 -66 -103 -151 -103c-105 0 -173 26 -173 252v285h18v-301c0 -185 60 -217 155 -217c108 0 153 107 153 159v359h18v-525z" />
    <glyph glyph-name="umacron" unicode="&#x16b;" horiz-adv-x="504" 
d="M395 603h-279v17h279v-17zM424 0h-18v91h-2c-19 -49 -66 -103 -151 -103c-105 0 -173 26 -173 252v285h18v-301c0 -185 60 -217 155 -217c108 0 153 107 153 159v359h18v-525z" />
    <glyph glyph-name="uogonek" unicode="&#x173;" horiz-adv-x="504" 
d="M424 525v-525c-111 -49 -151 -141 -119 -179c23 -28 83 -23 140 14l16 -10c-44 -37 -144 -57 -173 -14c-8 12 -12 25 -12 40c0 53 49 118 130 154v86h-2c-19 -49 -66 -103 -151 -103c-105 0 -173 26 -173 252v285h18v-301c0 -185 60 -217 155 -217c108 0 153 107 153 159
v359h18z" />
    <glyph glyph-name="upsilonlatin" unicode="&#x28a;" horiz-adv-x="598" 
d="M540 507h-143v-2c96 -63 130 -163 130 -252c0 -143 -85 -264 -228 -264s-228 121 -228 264c0 89 34 189 130 252v2h-143v18h170v-18c-65 -44 -138 -130 -138 -255c0 -131 81 -245 209 -245s209 114 209 245c0 125 -73 211 -138 255v18h170v-18z" />
    <glyph glyph-name="uring" unicode="&#x16f;" horiz-adv-x="504" 
d="M252 588c-68 0 -108 40 -108 108c0 67 40 107 108 107c67 0 107 -40 107 -107c0 -68 -40 -108 -107 -108zM251 605c56 0 89 33 89 90s-33 90 -89 90s-89 -33 -89 -90s33 -90 89 -90zM424 0h-18v91h-2c-19 -49 -66 -103 -151 -103c-105 0 -173 26 -173 252v285h18v-301
c0 -185 60 -217 155 -217c108 0 153 107 153 159v359h18v-525z" />
    <glyph glyph-name="utilde" unicode="&#x169;" horiz-adv-x="504" 
d="M376 699h15c0 -58 -25 -92 -67 -92c-63 0 -60 76 -113 76c-46 0 -57 -46 -57 -73h-15c0 58 30 91 72 91c63 0 60 -76 113 -76c46 0 52 47 52 74zM424 0h-18v91h-2c-19 -49 -66 -103 -151 -103c-105 0 -173 26 -173 252v285h18v-301c0 -185 60 -217 155 -217
c108 0 153 107 153 159v359h18v-525z" />
    <glyph glyph-name="v" unicode="v" horiz-adv-x="438" 
d="M237 0h-31l-188 525h20l182 -510h2l178 510h20z" />
    <glyph glyph-name="vhook" unicode="&#x28b;" horiz-adv-x="539" 
d="M349 537c73 0 132 -105 132 -239c0 -85 -36 -309 -266 -309c-94 0 -135 46 -135 154v382h18v-380c0 -98 34 -138 117 -138c194 0 248 195 248 299c0 114 -51 208 -110 214c-34 4 -58 -7 -75 -20v18c23 15 43 19 71 19z" />
    <glyph glyph-name="vturned" unicode="&#x28c;" horiz-adv-x="438" 
d="M420 0h-20l-178 510h-2l-182 -510h-20l188 525h31z" />
    <glyph glyph-name="w" unicode="w" horiz-adv-x="629" 
d="M476 0h-26l-134 505h-2l-134 -505h-26l-136 525h19l129 -506h2l134 506h26l134 -506h2l129 506h18z" />
    <glyph glyph-name="wacute" unicode="&#x1e83;" horiz-adv-x="629" 
d="M299 606h15l104 139h-23zM476 0h-26l-134 505h-2l-134 -505h-26l-136 525h19l129 -506h2l134 506h26l134 -506h2l129 506h18z" />
    <glyph glyph-name="wcircumflex" unicode="&#x175;" horiz-adv-x="629" 
d="M416 603h-17l-83 105h-2l-83 -105h-17l90 118h22zM476 0h-26l-134 505h-2l-134 -505h-26l-136 525h19l129 -506h2l134 506h26l134 -506h2l129 506h18z" />
    <glyph glyph-name="wdieresis" unicode="&#x1e85;" horiz-adv-x="629" 
d="M234 593h-20v87h20v-87zM409 593h-20v87h20v-87zM476 0h-26l-134 505h-2l-134 -505h-26l-136 525h19l129 -506h2l134 506h26l134 -506h2l129 506h18z" />
    <glyph glyph-name="wgrave" unicode="&#x1e81;" horiz-adv-x="629" 
d="M194 745l104 -139h15l-96 139h-23zM476 0h-26l-134 505h-2l-134 -505h-26l-136 525h19l129 -506h2l134 506h26l134 -506h2l129 506h18z" />
    <glyph glyph-name="uni2C73" unicode="&#x2c73;" horiz-adv-x="782" 
d="M633 525c33 18 65 15 131 -12v-18c-60 25 -91 30 -122 14c-32 -16 -55 -50 -79 -150l-87 -359h-26l-134 505h-2l-134 -505h-26l-136 525h19l129 -506h2l134 506h26l134 -506h2l82 340c30 123 53 148 87 166z" />
    <glyph glyph-name="x" unicode="x" horiz-adv-x="419" 
d="M217 281v-2l184 -279h-20l-172 263h-2l-169 -263h-20l179 278v2l-158 245h19l149 -230h2l146 230h20z" />
    <glyph glyph-name="y" unicode="y" horiz-adv-x="422" 
d="M404 525l-198 -525c-54 -144 -70 -214 -203 -214l9 15c79 0 110 46 125 74c29 54 51 120 45 137l-170 513h19l165 -497h2l188 497h18z" />
    <glyph glyph-name="yacute" unicode="&#xfd;" horiz-adv-x="422" 
d="M159 606h15l104 139h-23zM404 525l-198 -525c-54 -144 -70 -214 -203 -214l9 15c79 0 110 46 125 74c29 54 51 120 45 137l-170 513h19l165 -497h2l188 497h18z" />
    <glyph glyph-name="ycircumflex" unicode="&#x177;" horiz-adv-x="422" 
d="M301 603h-17l-83 105h-2l-83 -105h-17l90 118h22zM404 525l-198 -525c-54 -144 -70 -214 -203 -214l9 15c79 0 110 46 125 74c29 54 51 120 45 137l-170 513h19l165 -497h2l188 497h18z" />
    <glyph glyph-name="ydieresis" unicode="&#xff;" horiz-adv-x="422" 
d="M133 593h-20v87h20v-87zM308 593h-20v87h20v-87zM404 525l-198 -525c-54 -144 -70 -214 -203 -214l9 15c79 0 110 46 125 74c29 54 51 120 45 137l-170 513h19l165 -497h2l188 497h18z" />
    <glyph glyph-name="ydotbelow" unicode="&#x1ef5;" horiz-adv-x="422" 
d="M404 525l-198 -525c-54 -144 -70 -214 -203 -214l9 15c79 0 110 46 125 74c29 54 51 120 45 137l-170 513h19l165 -497h2l188 497h18zM330 -147h-18v87h18v-87z" />
    <glyph glyph-name="ygrave" unicode="&#x1ef3;" horiz-adv-x="422" 
d="M90 745l104 -139h15l-96 139h-23zM404 525l-198 -525c-54 -144 -70 -214 -203 -214l9 15c79 0 110 46 125 74c29 54 51 120 45 137l-170 513h19l165 -497h2l188 497h18z" />
    <glyph glyph-name="yhook" unicode="&#x1b4;" horiz-adv-x="663" 
d="M474 691c33 18 65 15 131 -12v-18c-60 25 -91 30 -122 14c-32 -16 -45 -63 -79 -150l-198 -525c-54 -144 -70 -214 -203 -214l9 15c79 0 110 46 125 74c29 54 51 120 45 137l-170 513h19l165 -497h2l188 497c39 98 54 148 88 166z" />
    <glyph glyph-name="yhookabove" unicode="&#x1ef7;" horiz-adv-x="422" 
d="M256 690c0 -21 -16 -48 -61 -48l4 -49h17l-3 36c40 7 60 29 60 62c0 35 -19 58 -59 58c-45 0 -69 -23 -69 -72h17c0 32 16 56 48 56c28 0 46 -14 46 -43zM404 525l-198 -525c-54 -144 -70 -214 -203 -214l9 15c79 0 110 46 125 74c29 54 51 120 45 137l-170 513h19
l165 -497h2l188 497h18z" />
    <glyph glyph-name="ytilde" unicode="&#x1ef9;" horiz-adv-x="422" 
d="M320 710h15c0 -58 -25 -92 -67 -92c-63 0 -60 76 -113 76c-46 0 -57 -46 -57 -73h-15c0 58 30 91 72 91c63 0 60 -76 113 -76c46 0 52 47 52 74zM404 525l-198 -525c-54 -144 -70 -214 -203 -214l9 15c79 0 110 46 125 74c29 54 51 120 45 137l-170 513h19l165 -497h2
l188 497h18z" />
    <glyph glyph-name="z" unicode="z" horiz-adv-x="462" 
d="M420 500l-362 -480v-2h362v-18h-378v28l361 477v2h-345v18h362v-25z" />
    <glyph glyph-name="zacute" unicode="&#x17a;" horiz-adv-x="462" 
d="M172 607h15l104 139h-23zM420 500l-362 -480v-2h362v-18h-378v28l361 477v2h-345v18h362v-25z" />
    <glyph glyph-name="zcaron" unicode="&#x17e;" horiz-adv-x="462" 
d="M242 603h-22l-90 118h17l83 -105h2l83 105h17zM420 500l-362 -480v-2h362v-18h-378v28l361 477v2h-345v18h362v-25z" />
    <glyph glyph-name="zdotaccent" unicode="&#x17c;" horiz-adv-x="462" 
d="M240 593h-18v87h18v-87zM420 500l-362 -480v-2h362v-18h-378v28l361 477v2h-345v18h362v-25z" />
    <glyph glyph-name="zdotbelow" unicode="&#x1e93;" horiz-adv-x="462" 
d="M420 500l-362 -480v-2h362v-18h-378v28l361 477v2h-345v18h362v-25zM240 -147h-18v87h18v-87z" />
    <glyph glyph-name="x.denom" horiz-adv-x="430" 
d="M222 227v-2l148 -225h-17l-139 212h-1l-136 -212h-17l144 224v2l-128 198h17l120 -185h1l118 185h17z" />
    <glyph glyph-name="y.denom" horiz-adv-x="426" 
d="M366 424l-151 -398c-42 -110 -54 -163 -155 -163l7 13c60 0 82 34 94 56c21 41 39 90 35 102l-131 390h17l124 -374h2l141 374h17z" />
    <glyph glyph-name="x.inferior" horiz-adv-x="410" 
d="M212 65v-2l148 -225h-17l-139 212h-1l-136 -212h-17l144 224v2l-128 198h17l120 -185h1l118 185h17z" />
    <glyph glyph-name="y.inferior" horiz-adv-x="406" 
d="M356 261l-151 -398c-42 -110 -54 -163 -155 -163l7 13c60 0 82 34 94 56c21 41 39 90 35 102l-131 390h17l124 -374h2l141 374h17z" />
    <glyph glyph-name="x.num" horiz-adv-x="420" 
d="M212 548v-2l148 -225h-17l-139 212h-1l-136 -212h-17l144 224v2l-128 198h17l120 -185h1l118 185h17z" />
    <glyph glyph-name="y.num" horiz-adv-x="416" 
d="M356 745l-151 -398c-42 -110 -54 -163 -155 -163l7 13c60 0 82 34 94 56c21 41 39 90 35 102l-131 390h17l124 -374h2l141 374h17z" />
    <glyph glyph-name="x.superior" horiz-adv-x="408" 
d="M211 631v-2l148 -225h-17l-139 212h-1l-136 -212h-17l144 224v2l-128 198h17l120 -185h1l118 185h17z" />
    <glyph glyph-name="y.superior" horiz-adv-x="406" 
d="M356 826l-151 -398c-42 -110 -54 -163 -155 -163l7 13c60 0 82 34 94 56c21 41 39 90 35 102l-131 390h17l124 -374h2l141 374h17z" />
    <glyph glyph-name="A.sc" horiz-adv-x="456" 
d="M438 0h-18l-78 202h-232l-74 -202h-18l191 525h31zM224 507l-109 -290h223l-113 290h-1z" />
    <glyph glyph-name="B.sc" horiz-adv-x="512" 
d="M95 525h133c54 0 177 4 177 -130c0 -80 -43 -110 -88 -123v-2c60 -12 115 -47 115 -131c0 -117 -82 -139 -186 -139h-151v525zM110 507v-227h130c91 0 146 27 146 115s-55 112 -146 112h-130zM110 262v-244h148c65 0 154 12 154 121c0 100 -89 123 -168 123h-134z" />
    <glyph glyph-name="C.sc" horiz-adv-x="534" 
d="M279 537c117 -1 185 -80 196 -181h-19c-6 91 -75 163 -177 163c-131 0 -202 -111 -202 -252c0 -127 73 -260 202 -260c87 0 152 44 185 108l17 -10c-34 -67 -99 -116 -202 -116c-149 0 -221 147 -221 278c0 143 72 271 221 270z" />
    <glyph glyph-name="D.sc" horiz-adv-x="527" 
d="M95 525h139c80 0 116 -16 153 -46c53 -42 82 -112 82 -210c0 -119 -26 -212 -118 -251c-31 -13 -69 -18 -117 -18h-139v525zM113 506v-488h132c39 0 71 6 97 17c75 32 108 109 108 234c0 88 -29 155 -75 195c-33 29 -79 42 -130 42h-132z" />
    <glyph glyph-name="E.sc" horiz-adv-x="411" 
d="M354 507h-241v-219h230v-17h-230v-252h245v-19h-263v525h259v-18z" />
    <glyph glyph-name="F.sc" horiz-adv-x="403" 
d="M350 507h-237v-214h218v-18h-218v-275h-18v525h255v-18z" />
    <glyph glyph-name="G.sc" horiz-adv-x="547" 
d="M274 537c130 0 189 -123 189 -191h-18c0 69 -67 173 -171 173c-101 0 -197 -120 -197 -252c0 -114 64 -260 213 -260c115 0 142 56 157 81v133h-166l9 17h177v-155c-28 -57 -74 -94 -176 -94c-160 0 -233 145 -233 278c0 135 95 270 216 270z" />
    <glyph glyph-name="H.sc" horiz-adv-x="485" 
d="M405 0h-18v261h-274v-261h-18v525h18v-246h274v246h18v-525z" />
    <glyph glyph-name="I.sc" horiz-adv-x="193" 
d="M113 525v-525h-18v525h18z" />
    <glyph glyph-name="J.sc" horiz-adv-x="415" 
d="M335 525v-344c0 -96 -12 -192 -161 -192c-112 0 -146 56 -156 125l18 8c8 -61 33 -115 138 -115c133 0 143 86 143 162v356h18z" />
    <glyph glyph-name="K.sc" horiz-adv-x="439" 
d="M224 322v-2l197 -320h-21l-189 309h-1l-97 -115v-194h-18v525h18l-1 -305h2l265 305h22z" />
    <glyph glyph-name="L.sc" horiz-adv-x="404" 
d="M113 18h273v-18h-291v525h18v-507z" />
    <glyph glyph-name="M.sc" horiz-adv-x="582" 
d="M502 0h-18v506h-1l-171 -506h-28l-170 506h-2v-506h-17v525h29l173 -505h2l173 505h30v-525z" />
    <glyph glyph-name="N.sc" horiz-adv-x="484" 
d="M404 0h-30l-260 506h-1v-506h-18v525h29l260 -506h2v506h18v-525z" />
    <glyph glyph-name="O.sc" horiz-adv-x="557" 
d="M279 537c149 -1 220 -127 220 -270c0 -131 -71 -278 -220 -278s-221 147 -221 278c0 143 72 271 221 270zM279 519c-131 0 -202 -111 -202 -252c0 -127 73 -260 202 -260s201 133 201 260c0 141 -70 252 -201 252z" />
    <glyph glyph-name="P.sc" horiz-adv-x="467" 
d="M95 525h110c96 0 204 -13 204 -152c0 -140 -107 -155 -203 -155h-93v-218h-18v525zM113 507v-271h105c123 0 172 44 172 137c0 92 -50 134 -173 134h-104z" />
    <glyph glyph-name="Q.sc" horiz-adv-x="554" 
d="M279 537c149 -1 220 -127 220 -270c0 -90 -38 -189 -108 -241v-2c34 4 73 3 139 -7l6 -18c-146 25 -208 -10 -257 -10c-149 0 -221 147 -221 278c0 143 72 271 221 270zM279 519c-131 0 -202 -111 -202 -252c0 -127 73 -260 202 -260s201 133 201 260
c0 141 -70 252 -201 252z" />
    <glyph glyph-name="R.sc" horiz-adv-x="451" 
d="M95 525h135c88 0 196 -16 196 -142c0 -96 -68 -122 -97 -128v-1c35 -6 65 -21 76 -48c13 -33 12 -81 12 -130c0 -26 1 -53 16 -76h-21c-4 7 -6 17 -10 32c-12 47 6 151 -21 178c-22 22 -53 32 -147 32h-121v-242h-18v525zM113 506v-246h129c116 0 165 43 165 123
c0 77 -47 123 -165 123h-129z" />
    <glyph glyph-name="S.sc" horiz-adv-x="452" 
d="M219 537c108 0 160 -66 160 -136h-18c0 55 -42 118 -132 118c-87 0 -139 -42 -139 -118c0 -157 309 -59 309 -259c0 -41 -19 -154 -175 -154c-106 0 -151 78 -166 121l16 10c10 -30 47 -113 150 -113c140 0 156 104 156 137c0 182 -308 77 -308 258c0 80 62 136 147 136z
" />
    <glyph glyph-name="T.sc" horiz-adv-x="386" 
d="M368 507h-166v-507h-18v507h-166v18h350v-18z" />
    <glyph glyph-name="U.sc" horiz-adv-x="483" 
d="M403 525v-343c0 -97 -13 -193 -161 -193s-162 96 -162 193v343h18v-347c0 -74 11 -171 144 -171c132 0 143 97 143 171v347h18z" />
    <glyph glyph-name="V.sc" horiz-adv-x="433" 
d="M235 0h-31l-186 525h18l182 -510h2l177 510h18z" />
    <glyph glyph-name="W.sc" horiz-adv-x="594" 
d="M448 0h-30l-120 505h-2l-96 -505h-30l-152 525h20l147 -507h1l96 507h30l120 -507h2l122 507h20z" />
    <glyph glyph-name="X.sc" horiz-adv-x="439" 
d="M227 281v-2l194 -279h-20l-182 263h-2l-179 -263h-20l189 278v2l-168 245h19l159 -230h2l156 230h20z" />
    <glyph glyph-name="Y.sc" horiz-adv-x="406" 
d="M216 240v-240h-19v240l-179 285h20l167 -268h2l161 268h20z" />
    <glyph glyph-name="Z.sc" horiz-adv-x="482" 
d="M440 500l-382 -480v-2h372v-18h-388v28l381 477v2h-355v18h372v-25z" />
    <glyph glyph-name="ordfeminine" unicode="&#xaa;" horiz-adv-x="374" 
d="M166 700c67 0 106 -17 106 -139v-118c0 -34 7 -56 45 -56l7 -11c-66 0 -65 41 -65 64h-1c0 -10 -9 -71 -108 -71c-60 0 -100 30 -100 94c0 113 207 100 207 114c0 47 -8 82 -28 96c-15 11 -33 14 -62 14c-36 0 -89 -9 -89 -92h-14c0 42 12 105 102 105zM258 500v62
c-31 -3 -86 -11 -125 -24c-43 -14 -69 -41 -69 -73c0 -53 25 -82 84 -82c89 0 110 46 110 117z" />
    <glyph glyph-name="ordmasculine" unicode="&#xba;" horiz-adv-x="337" 
d="M168 702c90 -1 129 -77 129 -164c0 -79 -39 -168 -129 -168s-128 89 -128 168c0 87 38 164 128 164zM168 688c-77 0 -113 -66 -113 -150c0 -73 37 -154 113 -154c78 0 115 80 115 154c0 84 -38 150 -115 150z" />
    <glyph glyph-name="Delta" unicode="&#x394;" horiz-adv-x="679" 
d="M661 30v-30h-643v30l309 670h23zM337 676l-301 -654v-3h607v3l-303 654h-3z" />
    <glyph glyph-name="Omega" unicode="&#x3a9;" horiz-adv-x="762" 
d="M479 0v19c121 84 172 202 172 344c0 206 -100 328 -270 328s-270 -122 -270 -328c0 -142 51 -260 172 -344v-19h-221v19h189v3c-60 42 -161 139 -161 339c0 220 108 350 291 350s291 -130 291 -350c0 -200 -101 -297 -161 -339v-3h189v-19h-221z" />
    <glyph glyph-name="alpha" unicode="&#x3b1;" horiz-adv-x="534" 
d="M258 537c96 0 141 -64 162 -129h2v117h18v-413c0 -57 13 -94 76 -94l10 -18c-108 0 -104 75 -104 113h-2c-22 -62 -66 -124 -162 -124c-146 0 -200 135 -200 269c0 132 56 279 200 279zM258 519c-129 0 -182 -133 -182 -261c0 -159 67 -250 182 -250
c153 0 164 160 164 252c0 73 -6 259 -164 259z" />
    <glyph glyph-name="beta" unicode="&#x3b2;" horiz-adv-x="526" 
d="M260 711c101 0 168 -61 168 -167c0 -66 -21 -138 -102 -153v-2c97 -21 120 -112 120 -202c0 -118 -60 -198 -186 -198c-67 0 -115 25 -145 65h-2v-274h-18v777c0 92 60 154 165 154zM260 693c-94 0 -147 -54 -147 -136v-469c26 -53 77 -81 148 -81c107 0 166 66 166 180
c0 108 -22 194 -191 195v14c121 0 173 42 173 149c0 91 -54 148 -149 148z" />
    <glyph glyph-name="mu" unicode="&#x3bc;" horiz-adv-x="504" 
d="M424 0h-18v91h-2c-19 -49 -66 -103 -151 -103c-73 0 -127 14 -153 97h-2v-305h-18v745h18v-308c2 -179 61 -210 155 -210c108 0 153 107 153 159v359h18v-525z" />
    <glyph glyph-name="pi" unicode="&#x3c0;" horiz-adv-x="674" 
d="M594 18l10 -18c-108 0 -104 68 -104 106v406c-58 2 -116 3 -173 3c-56 0 -112 -1 -168 -3v-512h-18v511l-71 -3v17c86 4 171 7 257 7c87 0 174 -2 262 -7v-17l-71 3v-399c0 -57 13 -94 76 -94z" />
    <glyph glyph-name="phi" unicode="&#x3c6;" horiz-adv-x="641" 
d="M593 263c0 -123 -97 -196 -263 -199v-193h-18v193c-167 3 -264 76 -264 199c0 122 97 195 264 198v193h18v-193c166 -3 263 -76 263 -198zM67 263c0 -112 90 -178 245 -181v361c-155 -3 -245 -69 -245 -180zM330 443v-361c154 3 244 69 244 181c0 111 -90 177 -244 180z
" />
    <glyph glyph-name="zero" unicode="0" horiz-adv-x="510" 
d="M255 687c189 0 197 -171 197 -343c0 -168 -8 -356 -197 -356c-190 0 -197 188 -197 356c0 172 7 344 197 343zM255 669c-132 0 -179 -76 -179 -325c0 -172 11 -338 179 -338s179 166 179 338c0 249 -47 325 -179 325z" />
    <glyph glyph-name="one" unicode="1" horiz-adv-x="228" 
d="M148 0h-18l4 624h-2c-26 -46 -79 -68 -114 -68v15c63 0 115 57 116 107h14v-678z" />
    <glyph glyph-name="two" unicode="2" horiz-adv-x="479" 
d="M248 687c116 0 161 -82 161 -196c0 -118 -70 -147 -153 -205c-27 -20 -53 -42 -80 -72c-23 -24 -47 -53 -69 -93c-18 -35 -30 -70 -30 -105l344 2v-18h-363c6 63 11 86 35 132c20 39 47 68 76 100c28 29 54 51 82 72c63 44 140 77 140 188c0 105 -36 177 -148 177
c-86 0 -143 -73 -150 -184h-18c1 63 35 202 173 202z" />
    <glyph glyph-name="three" unicode="3" horiz-adv-x="456" 
d="M233 687c98 0 163 -58 163 -161c0 -64 -21 -133 -99 -148v-2c94 -20 116 -108 116 -195c0 -115 -58 -192 -180 -192c-106 0 -162 58 -175 149l15 8c11 -90 68 -139 161 -139c104 0 161 63 161 174c0 104 -22 187 -185 188v14c117 0 167 41 167 144c0 88 -52 142 -144 142
c-46 0 -89 -15 -112 -42c-17 -19 -29 -52 -29 -88h-19c0 89 58 148 160 148z" />
    <glyph glyph-name="four" unicode="4" horiz-adv-x="435" 
d="M325 237h92v-17h-92v-220h-18v220h-289v17l289 441h18v-441zM305 642l-265 -403v-2h267v405h-2z" />
    <glyph glyph-name="five" unicode="5" horiz-adv-x="457" 
d="M358 660h-275l-16 -299h2c9 42 67 101 149 101c133 0 181 -107 181 -230c0 -126 -38 -243 -170 -243c-66 0 -162 28 -186 146l15 8c22 -105 104 -136 170 -136c141 0 153 144 153 227c0 113 -42 210 -163 210c-65 0 -143 -48 -152 -151h-18l17 385h293v-18z" />
    <glyph glyph-name="six" unicode="6" horiz-adv-x="482" 
d="M233 687c100 0 150 -58 162 -151h-18c-10 76 -49 133 -143 133c-82 0 -126 -49 -143 -133c-10 -51 -14 -123 -14 -190h2c15 58 65 116 168 116c76 0 130 -42 158 -116c12 -32 19 -70 19 -114c0 -133 -53 -243 -179 -243c-71 0 -114 28 -141 70c-44 68 -46 186 -46 249
c0 73 5 170 15 228c16 89 67 151 160 151zM242 445c-151 -6 -165 -134 -163 -215c2 -52 10 -114 38 -158c25 -39 65 -65 128 -65c101 0 160 77 160 223c0 157 -80 218 -163 215z" />
    <glyph glyph-name="seven" unicode="7" horiz-adv-x="415" 
d="M397 678v-29c-15 -13 -203 -425 -203 -649h-18c0 211 180 620 203 658v2h-361v18h379z" />
    <glyph glyph-name="eight" unicode="8" horiz-adv-x="534" 
d="M272 687c103 0 152 -67 152 -168c0 -77 -50 -126 -93 -149v-2c70 -26 123 -91 123 -176c0 -138 -73 -203 -182 -203s-182 65 -182 203c0 94 53 150 123 176v2c-44 23 -95 72 -95 149c0 101 51 168 154 168zM272 669c-85 0 -135 -49 -135 -150c0 -66 50 -143 135 -143
s133 77 133 143c0 101 -48 150 -133 150zM272 358c-106 0 -162 -76 -162 -163c0 -120 53 -188 162 -188s163 68 163 188c0 75 -57 163 -163 163z" />
    <glyph glyph-name="nine" unicode="9" horiz-adv-x="536" 
d="M269 687c71 0 114 -28 141 -70c44 -68 46 -186 46 -249c0 -73 -5 -170 -15 -228c-16 -89 -67 -151 -160 -151c-100 0 -174 56 -186 149l15 8c10 -76 68 -139 170 -139c80 0 126 49 143 133c10 51 14 122 14 189h-2c-15 -58 -65 -115 -168 -115c-76 0 -130 42 -158 116
c-12 32 -19 70 -19 114c0 133 53 243 179 243zM269 669c-101 0 -160 -77 -160 -223c0 -157 80 -217 163 -214c151 6 165 133 163 214c-2 52 -10 114 -38 158c-25 39 -65 65 -128 65z" />
    <glyph glyph-name="zero.zero" horiz-adv-x="510" 
d="M385 647l-2 -4c65 -62 69 -180 69 -299c0 -168 -8 -356 -197 -356c-190 0 -197 188 -197 356c0 172 7 344 197 343c53 0 92 -13 120 -36zM76 344c0 -119 5 -235 64 -295l222 589c-26 22 -62 31 -107 31c-132 0 -179 -76 -179 -325zM255 6c168 0 179 166 179 338
c0 148 -17 234 -57 281l-220 -582l-16 5c26 -27 63 -42 114 -42z" />
    <glyph glyph-name="fraction" unicode="&#x2044;" horiz-adv-x="200" 
d="M-128 -18h-22l508 763h22z" />
    <glyph glyph-name="onefraction" unicode="&#x215f;" horiz-adv-x="467" 
d="M177 322h-17l3 380h-2c-10 -24 -47 -40 -71 -40v15c39 0 72 36 73 68h14v-423zM139 -18h-22l508 763h22z" />
    <glyph glyph-name="onehalf" unicode="&#xbd;" horiz-adv-x="852" 
d="M177 322h-17l3 380h-2c-10 -24 -47 -40 -71 -40v15c39 0 72 36 73 68h14v-423zM139 -18h-22l508 763h22zM655 428c61 0 102 -34 102 -123c0 -69 -42 -98 -89 -126c-53 -32 -112 -63 -112 -161h206v-17h-225c0 122 63 158 118 190c45 26 85 55 85 115
c0 63 -21 105 -85 105c-62 0 -90 -37 -93 -108h-17c0 75 35 125 110 125z" />
    <glyph glyph-name="zerothird" unicode="&#x2189;" horiz-adv-x="980" 
d="M212 750c117 0 122 -105 122 -211c0 -103 -5 -220 -122 -220s-122 117 -122 220c0 106 5 211 122 211zM266 -18h-22l508 763h22zM212 733c-73 0 -105 -43 -105 -194c0 -100 4 -203 105 -203s105 103 105 203c0 151 -32 194 -105 194zM776 421c61 0 104 -36 104 -99
c0 -48 -17 -79 -59 -92v-2c56 -13 69 -56 69 -103c0 -71 -25 -136 -114 -136c-65 0 -103 36 -112 92l14 7c10 -55 44 -82 99 -82c60 0 96 34 96 122c0 32 -5 92 -111 92v17c72 0 101 32 101 85c0 46 -30 82 -87 82c-54 0 -84 -35 -84 -74h-17c0 51 39 91 101 91z" />
    <glyph glyph-name="uni2153" unicode="&#x2153;" horiz-adv-x="853" 
d="M177 322h-17l3 380h-2c-10 -24 -47 -40 -71 -40v15c39 0 72 36 73 68h14v-423zM139 -18h-22l508 763h22zM649 421c61 0 104 -36 104 -99c0 -48 -17 -79 -59 -92v-2c56 -13 69 -56 69 -103c0 -71 -25 -136 -114 -136c-65 0 -103 36 -112 92l14 7c10 -55 44 -82 99 -82
c60 0 96 34 96 122c0 32 -5 92 -111 92v17c72 0 101 32 101 85c0 46 -30 82 -87 82c-54 0 -84 -35 -84 -74h-17c0 51 39 91 101 91z" />
    <glyph glyph-name="uni2154" unicode="&#x2154;" horiz-adv-x="953" 
d="M180 750c61 0 102 -34 102 -123c0 -69 -42 -98 -89 -126c-53 -32 -112 -63 -112 -161h206v-17h-225c0 122 63 158 118 190c45 26 85 55 85 115c0 63 -21 105 -85 105c-62 0 -90 -37 -93 -108h-17c0 75 35 125 110 125zM239 -18h-22l508 763h22zM749 421
c61 0 104 -36 104 -99c0 -48 -17 -79 -59 -92v-2c56 -13 69 -56 69 -103c0 -71 -25 -136 -114 -136c-65 0 -103 36 -112 92l14 7c10 -55 44 -82 99 -82c60 0 96 34 96 122c0 32 -5 92 -111 92v17c72 0 101 32 101 85c0 46 -30 82 -87 82c-54 0 -84 -35 -84 -74h-17
c0 51 39 91 101 91z" />
    <glyph glyph-name="onequarter" unicode="&#xbc;" horiz-adv-x="787" 
d="M177 322h-17l3 380h-2c-10 -24 -47 -40 -71 -40v15c39 0 72 36 73 68h14v-423zM139 -18h-22l508 763h22zM639 154h58v-15h-58v-139h-16v139h-181v15l181 273h16v-273zM621 397l-161 -241v-2h163v243h-2z" />
    <glyph glyph-name="threequarters" unicode="&#xbe;" horiz-adv-x="886" 
d="M202 750c61 0 104 -36 104 -99c0 -48 -17 -79 -59 -92v-2c56 -13 69 -56 69 -103c0 -71 -25 -136 -114 -136c-65 0 -103 36 -112 92l14 7c10 -55 44 -82 99 -82c60 0 96 34 96 122c0 32 -5 92 -111 92v17c72 0 101 32 101 85c0 46 -30 82 -87 82c-54 0 -84 -35 -84 -74
h-17c0 51 39 91 101 91zM238 -18h-22l508 763h22zM738 154h58v-15h-58v-139h-16v139h-181v15l181 273h16v-273zM720 397l-161 -241v-2h163v243h-2z" />
    <glyph glyph-name="uni2155" unicode="&#x2155;" horiz-adv-x="874" 
d="M177 322h-17l3 380h-2c-10 -24 -47 -40 -71 -40v15c39 0 72 36 73 68h14v-423zM139 -18h-22l508 763h22zM755 400h-170l-11 -180h2c6 26 42 65 92 65c82 0 116 -69 116 -145c0 -79 -27 -151 -109 -151c-41 0 -100 17 -116 90l14 7c14 -65 61 -80 101 -80
c80 0 93 83 93 135c0 62 -28 127 -99 127c-36 0 -88 -33 -94 -90h-17l12 238h186v-16z" />
    <glyph glyph-name="uni2156" unicode="&#x2156;" horiz-adv-x="974" 
d="M180 750c61 0 102 -34 102 -123c0 -69 -42 -98 -89 -126c-53 -32 -112 -63 -112 -161h206v-17h-225c0 122 63 158 118 190c45 26 85 55 85 115c0 63 -21 105 -85 105c-62 0 -90 -37 -93 -108h-17c0 75 35 125 110 125zM239 -18h-22l508 763h22zM855 400h-170l-11 -180h2
c6 26 42 65 92 65c82 0 116 -69 116 -145c0 -79 -27 -151 -109 -151c-41 0 -100 17 -116 90l14 7c14 -65 61 -80 101 -80c80 0 93 83 93 135c0 62 -28 127 -99 127c-36 0 -88 -33 -94 -90h-17l12 238h186v-16z" />
    <glyph glyph-name="uni2157" unicode="&#x2157;" horiz-adv-x="973" 
d="M202 750c61 0 104 -36 104 -99c0 -48 -17 -79 -59 -92v-2c56 -13 69 -56 69 -103c0 -71 -25 -136 -114 -136c-65 0 -103 36 -112 92l14 7c10 -55 44 -82 99 -82c60 0 96 34 96 122c0 32 -5 92 -111 92v17c72 0 101 32 101 85c0 46 -30 82 -87 82c-54 0 -84 -35 -84 -74
h-17c0 51 39 91 101 91zM238 -18h-22l508 763h22zM854 400h-170l-11 -180h2c6 26 42 65 92 65c82 0 116 -69 116 -145c0 -79 -27 -151 -109 -151c-41 0 -100 17 -116 90l14 7c14 -65 61 -80 101 -80c80 0 93 83 93 135c0 62 -28 127 -99 127c-36 0 -88 -33 -94 -90h-17
l12 238h186v-16z" />
    <glyph glyph-name="uni2158" unicode="&#x2158;" horiz-adv-x="992" 
d="M287 472h58v-15h-58v-135h-16v135h-181v15l181 273h16v-273zM257 -18h-22l508 763h22zM269 715l-161 -241v-2h163v243h-2zM873 400h-170l-11 -180h2c6 26 42 65 92 65c82 0 116 -69 116 -145c0 -79 -27 -151 -109 -151c-41 0 -100 17 -116 90l14 7c14 -65 61 -80 101 -80
c80 0 93 83 93 135c0 62 -28 127 -99 127c-36 0 -88 -33 -94 -90h-17l12 238h186v-16z" />
    <glyph glyph-name="uni2159" unicode="&#x2159;" horiz-adv-x="863" 
d="M177 322h-17l3 380h-2c-10 -24 -47 -40 -71 -40v15c39 0 72 36 73 68h14v-423zM139 -18h-22l508 763h22zM658 420c60 0 94 -35 101 -93h-18c-6 47 -26 76 -83 76c-80 0 -97 -81 -104 -188h2c8 34 42 66 102 66c84 0 115 -74 115 -142c0 -86 -38 -150 -117 -150
c-93 0 -116 64 -118 147c-1 19 -1 37 -1 50c0 107 15 234 121 234zM655 264c-86 0 -101 -77 -100 -126c2 -80 22 -132 101 -132c61 0 100 45 100 132c0 83 -40 126 -101 126z" />
    <glyph glyph-name="uni215A" unicode="&#x215a;" horiz-adv-x="953" 
d="M288 729h-170l-11 -180h2c6 26 42 65 92 65c82 0 116 -69 116 -145c0 -79 -27 -151 -109 -151c-41 0 -100 17 -116 90l14 7c14 -65 61 -80 101 -80c80 0 93 83 93 135c0 62 -28 127 -99 127c-36 0 -88 -33 -94 -90h-17l12 238h186v-16zM229 -18h-22l508 763h22zM748 420
c60 0 94 -35 101 -93h-18c-6 47 -26 76 -83 76c-80 0 -97 -81 -104 -188h2c8 34 42 66 102 66c84 0 115 -74 115 -142c0 -86 -38 -150 -117 -150c-93 0 -116 64 -118 147c-1 19 -1 37 -1 50c0 107 15 234 121 234zM745 264c-86 0 -101 -77 -100 -126c2 -80 22 -132 101 -132
c61 0 100 45 100 132c0 83 -40 126 -101 126z" />
    <glyph glyph-name="uni2150" unicode="&#x2150;" horiz-adv-x="885" 
d="M177 322h-17l3 380h-2c-10 -24 -47 -40 -71 -40v15c39 0 72 36 73 68h14v-423zM139 -18h-22l508 763h22zM795 423v-23c-9 -9 -128 -222 -128 -400h-17c0 169 105 368 128 405v2h-221v16h238z" />
    <glyph glyph-name="oneeighth" unicode="&#x215b;" horiz-adv-x="851" 
d="M177 322h-17l3 380h-2c-10 -24 -47 -40 -71 -40v15c39 0 72 36 73 68h14v-423zM139 -18h-22l508 763h22zM649 420c59 0 94 -39 94 -104c0 -48 -27 -78 -54 -92v-1c48 -18 72 -59 72 -108c0 -79 -42 -126 -112 -126s-112 47 -112 126c0 49 24 90 72 108v1
c-27 14 -54 44 -54 92c0 65 35 104 94 104zM649 403c-48 0 -77 -33 -77 -87c0 -45 31 -85 77 -85s77 40 77 85c0 54 -29 87 -77 87zM649 214c-56 0 -95 -39 -95 -98c0 -69 36 -110 95 -110s95 41 95 110c0 59 -39 98 -95 98z" />
    <glyph glyph-name="threeeighths" unicode="&#x215c;" horiz-adv-x="950" 
d="M202 750c61 0 104 -36 104 -99c0 -48 -17 -79 -59 -92v-2c56 -13 69 -56 69 -103c0 -71 -25 -136 -114 -136c-65 0 -103 36 -112 92l14 7c10 -55 44 -82 99 -82c60 0 96 34 96 122c0 32 -5 92 -111 92v17c72 0 101 32 101 85c0 46 -30 82 -87 82c-54 0 -84 -35 -84 -74
h-17c0 51 39 91 101 91zM238 -18h-22l508 763h22zM748 420c59 0 94 -39 94 -104c0 -48 -27 -78 -54 -92v-1c48 -18 72 -59 72 -108c0 -79 -42 -126 -112 -126s-112 47 -112 126c0 49 24 90 72 108v1c-27 14 -54 44 -54 92c0 65 35 104 94 104zM748 403
c-48 0 -77 -33 -77 -87c0 -45 31 -85 77 -85s77 40 77 85c0 54 -29 87 -77 87zM748 214c-56 0 -95 -39 -95 -98c0 -69 36 -110 95 -110s95 41 95 110c0 59 -39 98 -95 98z" />
    <glyph glyph-name="fiveeighths" unicode="&#x215d;" horiz-adv-x="941" 
d="M288 729h-170l-11 -180h2c6 26 42 65 92 65c82 0 116 -69 116 -145c0 -79 -27 -151 -109 -151c-41 0 -100 17 -116 90l14 7c14 -65 61 -80 101 -80c80 0 93 83 93 135c0 62 -28 127 -99 127c-36 0 -88 -33 -94 -90h-17l12 238h186v-16zM229 -18h-22l508 763h22zM739 420
c59 0 94 -39 94 -104c0 -48 -27 -78 -54 -92v-1c48 -18 72 -59 72 -108c0 -79 -42 -126 -112 -126s-112 47 -112 126c0 49 24 90 72 108v1c-27 14 -54 44 -54 92c0 65 35 104 94 104zM739 403c-48 0 -77 -33 -77 -87c0 -45 31 -85 77 -85s77 40 77 85c0 54 -29 87 -77 87z
M739 214c-56 0 -95 -39 -95 -98c0 -69 36 -110 95 -110s95 41 95 110c0 59 -39 98 -95 98z" />
    <glyph glyph-name="seveneighths" unicode="&#x215e;" horiz-adv-x="902" 
d="M328 745v-23c-9 -9 -128 -222 -128 -400h-17c0 169 105 368 128 405v2h-221v16h238zM190 -18h-22l508 763h22zM700 420c59 0 94 -39 94 -104c0 -48 -27 -78 -54 -92v-1c48 -18 72 -59 72 -108c0 -79 -42 -126 -112 -126s-112 47 -112 126c0 49 24 90 72 108v1
c-27 14 -54 44 -54 92c0 65 35 104 94 104zM700 403c-48 0 -77 -33 -77 -87c0 -45 31 -85 77 -85s77 40 77 85c0 54 -29 87 -77 87zM700 214c-56 0 -95 -39 -95 -98c0 -69 36 -110 95 -110s95 41 95 110c0 59 -39 98 -95 98z" />
    <glyph glyph-name="uni2151" unicode="&#x2151;" horiz-adv-x="863" 
d="M177 322h-17l3 380h-2c-10 -24 -47 -40 -71 -40v15c39 0 72 36 73 68h14v-423zM139 -18h-22l508 763h22zM654 420c93 0 116 -64 118 -147c1 -19 1 -37 1 -50c0 -107 -15 -234 -121 -234c-60 0 -103 34 -110 92l14 7c6 -47 39 -82 96 -82c78 0 104 84 104 188h-2
c-8 -34 -42 -66 -102 -66c-84 0 -115 74 -115 142c0 86 38 150 117 150zM654 403c-61 0 -100 -45 -100 -132c0 -83 40 -126 101 -126c86 0 101 77 100 126c-2 80 -22 132 -101 132z" />
    <glyph glyph-name="uni2152" unicode="&#x2152;" horiz-adv-x="1128" 
d="M177 322h-17l3 380h-2c-10 -24 -47 -40 -71 -40v15c39 0 72 36 73 68h14v-423zM139 -18h-22l508 763h22zM644 0h-17l3 380h-2c-10 -24 -47 -40 -71 -40v15c39 0 72 36 73 68h14v-423zM916 420c117 0 122 -105 122 -211c0 -103 -5 -220 -122 -220s-122 117 -122 220
c0 106 5 211 122 211zM916 403c-73 0 -105 -43 -105 -194c0 -100 4 -203 105 -203s105 103 105 203c0 151 -32 194 -105 194z" />
    <glyph glyph-name="oneeighth.001" horiz-adv-x="851" 
d="M177 322h-17l3 380h-2c-10 -24 -47 -40 -71 -40v15c39 0 72 36 73 68h14v-423zM139 -18h-22l508 763h22zM649 420c59 0 94 -39 94 -104c0 -48 -27 -78 -54 -92v-1c48 -18 72 -59 72 -108c0 -79 -42 -126 -112 -126s-112 47 -112 126c0 49 24 90 72 108v1
c-27 14 -54 44 -54 92c0 65 35 104 94 104zM649 403c-48 0 -77 -33 -77 -87c0 -45 31 -85 77 -85s77 40 77 85c0 54 -29 87 -77 87zM649 214c-56 0 -95 -39 -95 -98c0 -69 36 -110 95 -110s95 41 95 110c0 59 -39 98 -95 98z" />
    <glyph glyph-name="threeeighths.001" horiz-adv-x="950" 
d="M202 750c61 0 104 -36 104 -99c0 -48 -17 -79 -59 -92v-2c56 -13 69 -56 69 -103c0 -71 -25 -136 -114 -136c-65 0 -103 36 -112 92l14 7c10 -55 44 -82 99 -82c60 0 96 34 96 122c0 32 -5 92 -111 92v17c72 0 101 32 101 85c0 46 -30 82 -87 82c-54 0 -84 -35 -84 -74
h-17c0 51 39 91 101 91zM238 -18h-22l508 763h22zM748 420c59 0 94 -39 94 -104c0 -48 -27 -78 -54 -92v-1c48 -18 72 -59 72 -108c0 -79 -42 -126 -112 -126s-112 47 -112 126c0 49 24 90 72 108v1c-27 14 -54 44 -54 92c0 65 35 104 94 104zM748 403
c-48 0 -77 -33 -77 -87c0 -45 31 -85 77 -85s77 40 77 85c0 54 -29 87 -77 87zM748 214c-56 0 -95 -39 -95 -98c0 -69 36 -110 95 -110s95 41 95 110c0 59 -39 98 -95 98z" />
    <glyph glyph-name="fiveeighths.001" horiz-adv-x="941" 
d="M288 729h-170l-11 -180h2c6 26 42 65 92 65c82 0 116 -69 116 -145c0 -79 -27 -151 -109 -151c-41 0 -100 17 -116 90l14 7c14 -65 61 -80 101 -80c80 0 93 83 93 135c0 62 -28 127 -99 127c-36 0 -88 -33 -94 -90h-17l12 238h186v-16zM229 -18h-22l508 763h22zM739 420
c59 0 94 -39 94 -104c0 -48 -27 -78 -54 -92v-1c48 -18 72 -59 72 -108c0 -79 -42 -126 -112 -126s-112 47 -112 126c0 49 24 90 72 108v1c-27 14 -54 44 -54 92c0 65 35 104 94 104zM739 403c-48 0 -77 -33 -77 -87c0 -45 31 -85 77 -85s77 40 77 85c0 54 -29 87 -77 87z
M739 214c-56 0 -95 -39 -95 -98c0 -69 36 -110 95 -110s95 41 95 110c0 59 -39 98 -95 98z" />
    <glyph glyph-name="seveneighths.001" horiz-adv-x="902" 
d="M328 745v-23c-9 -9 -128 -222 -128 -400h-17c0 169 105 368 128 405v2h-221v16h238zM190 -18h-22l508 763h22zM700 420c59 0 94 -39 94 -104c0 -48 -27 -78 -54 -92v-1c48 -18 72 -59 72 -108c0 -79 -42 -126 -112 -126s-112 47 -112 126c0 49 24 90 72 108v1
c-27 14 -54 44 -54 92c0 65 35 104 94 104zM700 403c-48 0 -77 -33 -77 -87c0 -45 31 -85 77 -85s77 40 77 85c0 54 -29 87 -77 87zM700 214c-56 0 -95 -39 -95 -98c0 -69 36 -110 95 -110s95 41 95 110c0 59 -39 98 -95 98z" />
    <glyph glyph-name="zero.dnom" horiz-adv-x="394" 
d="M182 420c117 0 122 -105 122 -211c0 -103 -5 -220 -122 -220s-122 117 -122 220c0 106 5 211 122 211zM182 403c-73 0 -105 -43 -105 -194c0 -100 4 -203 105 -203s105 103 105 203c0 151 -32 194 -105 194z" />
    <glyph glyph-name="one.dnom" horiz-adv-x="267" 
d="M177 0h-17l3 380h-2c-10 -24 -47 -40 -71 -40v15c39 0 72 36 73 68h14v-423z" />
    <glyph glyph-name="two.dnom" horiz-adv-x="385" 
d="M188 428c61 0 102 -34 102 -123c0 -69 -42 -98 -89 -126c-53 -32 -112 -63 -112 -161h206v-17h-225c0 122 63 158 118 190c45 26 85 55 85 115c0 63 -21 105 -85 105c-62 0 -90 -37 -93 -108h-17c0 75 35 125 110 125z" />
    <glyph glyph-name="three.dnom" horiz-adv-x="386" 
d="M182 421c61 0 104 -36 104 -99c0 -48 -17 -79 -59 -92v-2c56 -13 69 -56 69 -103c0 -71 -25 -136 -114 -136c-65 0 -103 36 -112 92l14 7c10 -55 44 -82 99 -82c60 0 96 34 96 122c0 32 -5 92 -111 92v17c72 0 101 32 101 85c0 46 -30 82 -87 82c-54 0 -84 -35 -84 -74
h-17c0 51 39 91 101 91z" />
    <glyph glyph-name="four.dnom" horiz-adv-x="320" 
d="M172 154h58v-15h-58v-139h-16v139h-181v15l181 273h16v-273zM154 397l-161 -241v-2h163v243h-2z" />
    <glyph glyph-name="five.dnom" horiz-adv-x="407" 
d="M288 400h-170l-11 -180h2c6 26 42 65 92 65c82 0 116 -69 116 -145c0 -79 -27 -151 -109 -151c-41 0 -100 17 -116 90l14 7c14 -65 61 -80 101 -80c80 0 93 83 93 135c0 62 -28 127 -99 127c-36 0 -88 -33 -94 -90h-17l12 238h186v-16z" />
    <glyph glyph-name="six.dnom" horiz-adv-x="396" 
d="M191 420c60 0 94 -35 101 -93h-18c-6 47 -26 76 -83 76c-80 0 -97 -81 -104 -188h2c8 34 42 66 102 66c84 0 115 -74 115 -142c0 -86 -38 -150 -117 -150c-93 0 -116 64 -118 147c-1 19 -1 37 -1 50c0 107 15 234 121 234zM188 264c-86 0 -101 -77 -100 -126
c2 -80 22 -132 101 -132c61 0 100 45 100 132c0 83 -40 126 -101 126z" />
    <glyph glyph-name="seven.dnom" horiz-adv-x="418" 
d="M328 423v-23c-9 -9 -128 -222 -128 -400h-17c0 169 105 368 128 405v2h-221v16h238z" />
    <glyph glyph-name="eight.dnom" horiz-adv-x="384" 
d="M182 420c59 0 94 -39 94 -104c0 -48 -27 -78 -54 -92v-1c48 -18 72 -59 72 -108c0 -79 -42 -126 -112 -126s-112 47 -112 126c0 49 24 90 72 108v1c-27 14 -54 44 -54 92c0 65 35 104 94 104zM182 403c-48 0 -77 -33 -77 -87c0 -45 31 -85 77 -85s77 40 77 85
c0 54 -29 87 -77 87zM182 214c-56 0 -95 -39 -95 -98c0 -69 36 -110 95 -110s95 41 95 110c0 59 -39 98 -95 98z" />
    <glyph glyph-name="nine.dnom" horiz-adv-x="396" 
d="M187 420c93 0 116 -64 118 -147c1 -19 1 -37 1 -50c0 -107 -15 -234 -121 -234c-60 0 -103 34 -110 92l14 7c6 -47 39 -82 96 -82c78 0 104 84 104 188h-2c-8 -34 -42 -66 -102 -66c-84 0 -115 74 -115 142c0 86 38 150 117 150zM187 403c-61 0 -100 -45 -100 -132
c0 -83 40 -126 101 -126c86 0 101 77 100 126c-2 80 -22 132 -101 132z" />
    <glyph glyph-name="zero.numr" horiz-adv-x="394" 
d="M212 750c117 0 122 -105 122 -211c0 -103 -5 -220 -122 -220s-122 117 -122 220c0 106 5 211 122 211zM212 733c-73 0 -105 -43 -105 -194c0 -100 4 -203 105 -203s105 103 105 203c0 151 -32 194 -105 194z" />
    <glyph glyph-name="one.numr" horiz-adv-x="267" 
d="M177 322h-17l3 380h-2c-10 -24 -47 -40 -71 -40v15c39 0 72 36 73 68h14v-423z" />
    <glyph glyph-name="two.numr" horiz-adv-x="367" 
d="M180 750c61 0 102 -34 102 -123c0 -69 -42 -98 -89 -126c-53 -32 -112 -63 -112 -161h206v-17h-225c0 122 63 158 118 190c45 26 85 55 85 115c0 63 -21 105 -85 105c-62 0 -90 -37 -93 -108h-17c0 75 35 125 110 125z" />
    <glyph glyph-name="three.numr" horiz-adv-x="366" 
d="M202 750c61 0 104 -36 104 -99c0 -48 -17 -79 -59 -92v-2c56 -13 69 -56 69 -103c0 -71 -25 -136 -114 -136c-65 0 -103 36 -112 92l14 7c10 -55 44 -82 99 -82c60 0 96 34 96 122c0 32 -5 92 -111 92v17c72 0 101 32 101 85c0 46 -30 82 -87 82c-54 0 -84 -35 -84 -74
h-17c0 51 39 91 101 91z" />
    <glyph glyph-name="four.numr" horiz-adv-x="385" 
d="M287 472h58v-15h-58v-135h-16v135h-181v15l181 273h16v-273zM269 715l-161 -241v-2h163v243h-2z" />
    <glyph glyph-name="five.numr" horiz-adv-x="357" 
d="M288 729h-170l-11 -180h2c6 26 42 65 92 65c82 0 116 -69 116 -145c0 -79 -27 -151 -109 -151c-41 0 -100 17 -116 90l14 7c14 -65 61 -80 101 -80c80 0 93 83 93 135c0 62 -28 127 -99 127c-36 0 -88 -33 -94 -90h-17l12 238h186v-16z" />
    <glyph glyph-name="six.numr" horiz-adv-x="416" 
d="M211 750c60 0 94 -35 101 -93h-18c-6 47 -26 76 -83 76c-80 0 -97 -81 -104 -188h2c8 34 42 66 102 66c84 0 115 -74 115 -142c0 -86 -38 -150 -117 -150c-93 0 -116 64 -118 147c-1 19 -1 37 -1 50c0 107 15 234 121 234zM208 594c-86 0 -101 -77 -100 -126
c2 -80 22 -132 101 -132c61 0 100 45 100 132c0 83 -40 126 -101 126z" />
    <glyph glyph-name="seven.numr" horiz-adv-x="318" 
d="M328 745v-23c-9 -9 -128 -222 -128 -400h-17c0 169 105 368 128 405v2h-221v16h238z" />
    <glyph glyph-name="eight.numr" horiz-adv-x="404" 
d="M202 750c59 0 94 -39 94 -104c0 -48 -27 -78 -54 -92v-1c48 -18 72 -59 72 -108c0 -79 -42 -126 -112 -126s-112 47 -112 126c0 49 24 90 72 108v1c-27 14 -54 44 -54 92c0 65 35 104 94 104zM202 733c-48 0 -77 -33 -77 -87c0 -45 31 -85 77 -85s77 40 77 85
c0 54 -29 87 -77 87zM202 544c-56 0 -95 -39 -95 -98c0 -69 36 -110 95 -110s95 41 95 110c0 59 -39 98 -95 98z" />
    <glyph glyph-name="nine.numr" horiz-adv-x="416" 
d="M207 750c93 0 116 -64 118 -147c1 -19 1 -37 1 -50c0 -107 -15 -234 -121 -234c-60 0 -103 34 -110 92l14 7c6 -47 39 -82 96 -82c78 0 104 84 104 188h-2c-8 -34 -42 -66 -102 -66c-84 0 -115 74 -115 142c0 86 38 150 117 150zM207 733c-61 0 -100 -45 -100 -132
c0 -83 40 -126 101 -126c86 0 101 77 100 126c-2 80 -22 132 -101 132z" />
    <glyph glyph-name="zeroinferior" unicode="&#x2080;" horiz-adv-x="344" 
d="M172 265c117 0 122 -105 122 -211c0 -103 -5 -220 -122 -220s-122 117 -122 220c0 106 5 211 122 211zM172 248c-73 0 -105 -43 -105 -194c0 -100 4 -203 105 -203s105 103 105 203c0 151 -32 194 -105 194z" />
    <glyph glyph-name="oneinferior" unicode="&#x2081;" horiz-adv-x="187" 
d="M137 -162h-17l3 380h-2c-10 -24 -47 -40 -71 -40v15c39 0 72 36 73 68h14v-423z" />
    <glyph glyph-name="twoinferior" unicode="&#x2082;" horiz-adv-x="325" 
d="M168 265c61 0 102 -34 102 -123c0 -69 -42 -98 -89 -126c-53 -32 -112 -63 -112 -161h206v-17h-225c0 122 63 158 118 190c45 26 85 55 85 115c0 63 -21 105 -85 105c-62 0 -90 -37 -93 -108h-17c0 75 35 125 110 125z" />
    <glyph glyph-name="threeinferior" unicode="&#x2083;" horiz-adv-x="326" 
d="M162 265c61 0 104 -36 104 -99c0 -48 -17 -79 -59 -92v-2c56 -13 69 -56 69 -103c0 -71 -25 -136 -114 -136c-65 0 -103 36 -112 92l14 7c10 -55 44 -82 99 -82c60 0 96 34 96 122c0 32 -5 92 -111 92v17c72 0 101 32 101 85c0 46 -30 82 -87 82c-54 0 -84 -35 -84 -74
h-17c0 51 39 91 101 91z" />
    <glyph glyph-name="fourinferior" unicode="&#x2084;" horiz-adv-x="355" 
d="M247 -8h58v-15h-58v-139h-16v139h-181v15l181 273h16v-273zM229 235l-161 -241v-2h163v243h-2z" />
    <glyph glyph-name="fiveinferior" unicode="&#x2085;" horiz-adv-x="327" 
d="M248 245h-170l-11 -180h2c6 26 42 65 92 65c82 0 116 -69 116 -145c0 -79 -27 -151 -109 -151c-41 0 -100 17 -116 90l14 7c14 -65 61 -80 101 -80c80 0 93 83 93 135c0 62 -28 127 -99 127c-36 0 -88 -33 -94 -90h-17l12 238h186v-16z" />
    <glyph glyph-name="sixinferior" unicode="&#x2086;" horiz-adv-x="336" 
d="M171 265c60 0 94 -35 101 -93h-18c-6 47 -26 76 -83 76c-80 0 -97 -81 -104 -188h2c8 34 42 66 102 66c84 0 115 -74 115 -142c0 -86 -38 -150 -117 -150c-93 0 -116 64 -118 147c-1 19 -1 37 -1 50c0 107 15 234 121 234zM168 109c-86 0 -101 -77 -100 -126
c2 -80 22 -132 101 -132c61 0 100 45 100 132c0 83 -40 126 -101 126z" />
    <glyph glyph-name="seveninferior" unicode="&#x2087;" horiz-adv-x="338" 
d="M288 261v-23c-9 -9 -128 -222 -128 -400h-17c0 169 105 368 128 405v2h-221v16h238z" />
    <glyph glyph-name="eightinferior" unicode="&#x2088;" horiz-adv-x="324" 
d="M162 265c59 0 94 -39 94 -104c0 -48 -27 -78 -54 -92v-1c48 -18 72 -59 72 -108c0 -79 -42 -126 -112 -126s-112 47 -112 126c0 49 24 90 72 108v1c-27 14 -54 44 -54 92c0 65 35 104 94 104zM162 248c-48 0 -77 -33 -77 -87c0 -45 31 -85 77 -85s77 40 77 85
c0 54 -29 87 -77 87zM162 59c-56 0 -95 -39 -95 -98c0 -69 36 -110 95 -110s95 41 95 110c0 59 -39 98 -95 98z" />
    <glyph glyph-name="nineinferior" unicode="&#x2089;" horiz-adv-x="336" 
d="M167 265c93 0 116 -64 118 -147c1 -19 1 -37 1 -50c0 -107 -15 -234 -121 -234c-60 0 -103 34 -110 92l14 7c6 -47 39 -82 96 -82c78 0 104 84 104 188h-2c-8 -34 -42 -66 -102 -66c-84 0 -115 74 -115 142c0 86 38 150 117 150zM167 248c-61 0 -100 -45 -100 -132
c0 -83 40 -126 101 -126c86 0 101 77 100 126c-2 80 -22 132 -101 132z" />
    <glyph glyph-name="zerosuperior" unicode="&#x2070;" horiz-adv-x="344" 
d="M172 831c117 0 122 -105 122 -211c0 -103 -5 -220 -122 -220s-122 117 -122 220c0 106 5 211 122 211zM172 814c-73 0 -105 -43 -105 -194c0 -100 4 -203 105 -203s105 103 105 203c0 151 -32 194 -105 194z" />
    <glyph glyph-name="onesuperior" unicode="&#xb9;" horiz-adv-x="187" 
d="M137 404h-17l3 380h-2c-10 -24 -47 -40 -71 -40v15c39 0 72 36 73 68h14v-423z" />
    <glyph glyph-name="twosuperior" unicode="&#xb2;" horiz-adv-x="325" 
d="M168 831c61 0 102 -34 102 -123c0 -69 -42 -98 -89 -126c-53 -32 -112 -63 -112 -161h206v-17h-225c0 122 63 158 118 190c45 26 85 55 85 115c0 63 -21 105 -85 105c-62 0 -90 -37 -93 -108h-17c0 75 35 125 110 125z" />
    <glyph glyph-name="threesuperior" unicode="&#xb3;" horiz-adv-x="326" 
d="M162 832c61 0 104 -36 104 -99c0 -48 -17 -79 -59 -92v-2c56 -13 69 -56 69 -103c0 -71 -25 -136 -114 -136c-65 0 -103 36 -112 92l14 7c10 -55 44 -82 99 -82c60 0 96 34 96 122c0 32 -5 92 -111 92v17c72 0 101 32 101 85c0 46 -30 82 -87 82c-54 0 -84 -35 -84 -74
h-17c0 51 39 91 101 91z" />
    <glyph glyph-name="foursuperior" unicode="&#x2074;" horiz-adv-x="355" 
d="M247 554h58v-15h-58v-135h-16v135h-181v15l181 273h16v-273zM229 797l-161 -241v-2h163v243h-2z" />
    <glyph glyph-name="fivesuperior" unicode="&#x2075;" horiz-adv-x="327" 
d="M248 811h-170l-11 -180h2c6 26 42 65 92 65c82 0 116 -69 116 -145c0 -79 -27 -151 -109 -151c-41 0 -100 17 -116 90l14 7c14 -65 61 -80 101 -80c80 0 93 83 93 135c0 62 -28 127 -99 127c-36 0 -88 -33 -94 -90h-17l12 238h186v-16z" />
    <glyph glyph-name="sixsuperior" unicode="&#x2076;" horiz-adv-x="336" 
d="M171 831c60 0 94 -35 101 -93h-18c-6 47 -26 76 -83 76c-80 0 -97 -81 -104 -188h2c8 34 42 66 102 66c84 0 115 -74 115 -142c0 -86 -38 -150 -117 -150c-93 0 -116 64 -118 147c-1 19 -1 37 -1 50c0 107 15 234 121 234zM168 675c-86 0 -101 -77 -100 -126
c2 -80 22 -132 101 -132c61 0 100 45 100 132c0 83 -40 126 -101 126z" />
    <glyph glyph-name="sevensuperior" unicode="&#x2077;" horiz-adv-x="338" 
d="M288 827v-23c-9 -9 -128 -222 -128 -400h-17c0 169 105 368 128 405v2h-221v16h238z" />
    <glyph glyph-name="eightsuperior" unicode="&#x2078;" horiz-adv-x="324" 
d="M162 831c59 0 94 -39 94 -104c0 -48 -27 -78 -54 -92v-1c48 -18 72 -59 72 -108c0 -79 -42 -126 -112 -126s-112 47 -112 126c0 49 24 90 72 108v1c-27 14 -54 44 -54 92c0 65 35 104 94 104zM162 814c-48 0 -77 -33 -77 -87c0 -45 31 -85 77 -85s77 40 77 85
c0 54 -29 87 -77 87zM162 625c-56 0 -95 -39 -95 -98c0 -69 36 -110 95 -110s95 41 95 110c0 59 -39 98 -95 98z" />
    <glyph glyph-name="ninesuperior" unicode="&#x2079;" horiz-adv-x="336" 
d="M167 831c93 0 116 -64 118 -147c1 -19 1 -37 1 -50c0 -107 -15 -234 -121 -234c-60 0 -103 34 -110 92l14 7c6 -47 39 -82 96 -82c78 0 104 84 104 188h-2c-8 -34 -42 -66 -102 -66c-84 0 -115 74 -115 142c0 86 38 150 117 150zM167 814c-61 0 -100 -45 -100 -132
c0 -83 40 -126 101 -126c86 0 101 77 100 126c-2 80 -22 132 -101 132z" />
    <glyph glyph-name="asterisk" unicode="*" horiz-adv-x="419" 
d="M225 584l2 -1l107 37l5 -15l-109 -36v-2l67 -91l-13 -10l-66 93h-2l-66 -93l-13 10l67 91v2l-109 37l5 13l107 -36l2 1v116h16v-116z" />
    <glyph glyph-name="asterism" unicode="&#x2042;" horiz-adv-x="761" 
d="M396 584l2 -1l107 37l5 -15l-109 -36v-2l67 -91l-13 -10l-66 93h-2l-66 -93l-13 10l67 91v2l-109 37l5 13l107 -36l2 1v116h16v-116zM225 187l2 -1l107 37l5 -15l-109 -36v-2l67 -91l-13 -10l-66 93h-2l-66 -93l-13 10l67 91v2l-109 37l5 13l107 -36l2 1v116h16v-116z
M567 187l2 -1l107 37l5 -15l-109 -36v-2l67 -91l-13 -10l-66 93h-2l-66 -93l-13 10l67 91v2l-109 37l5 13l107 -36l2 1v116h16v-116z" />
    <glyph glyph-name="backslash" unicode="\" horiz-adv-x="320" 
d="M281 -18h-18l-254 763h18z" />
    <glyph glyph-name="periodcentered" unicode="&#xb7;" horiz-adv-x="215" 
d="M115 343c13 0 20 -7 20 -20s-7 -20 -20 -20s-20 7 -20 20s7 20 20 20z" />
    <glyph glyph-name="uni2045" unicode="&#x2045;" horiz-adv-x="212" 
d="M113 727v-455h99v-18h-99v-457h99v-17h-117v965h117v-18h-99z" />
    <glyph glyph-name="uni2046" unicode="&#x2046;" horiz-adv-x="197" 
d="M117 745v-965h-117v17h99v457h-99v18h99v455h-99v18h117z" />
    <glyph glyph-name="bullet" unicode="&#x2022;" horiz-adv-x="310" 
d="M155 426c41 0 65 -24 65 -65s-24 -65 -65 -65s-65 24 -65 65s24 65 65 65z" />
    <glyph glyph-name="uni2041" unicode="&#x2041;" horiz-adv-x="442" 
d="M196 57v-2l85 -231h-17l-76 210h-2l-74 -210h-17l250 701h17z" />
    <glyph glyph-name="colon" unicode=":" horiz-adv-x="193" 
d="M113 429h-18v96h18v-96zM113 0h-18v96h18v-96z" />
    <glyph glyph-name="comma" unicode="," horiz-adv-x="228" 
d="M148 96v-96c0 -57 -1 -99 -53 -112v15c48 9 35 72 35 97h-8v96h26z" />
    <glyph glyph-name="uni2047" unicode="&#x2047;" horiz-adv-x="939" 
d="M217 713c125 0 177 -71 177 -190c0 -130 -68 -172 -107 -205c-33 -28 -63 -65 -63 -169h-18c0 100 21 139 71 185c45 41 98 66 98 190s-60 171 -158 171c-65 0 -145 -33 -145 -164h-19c0 64 26 182 164 182zM704 713c125 0 177 -71 177 -190c0 -130 -68 -172 -107 -205
c-33 -28 -63 -65 -63 -169h-18c0 100 21 139 71 185c45 41 98 66 98 190s-60 171 -158 171c-65 0 -145 -33 -145 -164h-19c0 64 26 182 164 182zM226 0h-19v96h19v-96zM713 0h-19v96h19v-96z" />
    <glyph glyph-name="ellipsis" unicode="&#x2026;" horiz-adv-x="729" 
d="M115 0h-20v96h20v-96zM383 0h-20v96h20v-96zM649 0h-20v96h20v-96z" />
    <glyph glyph-name="exclam" unicode="!" horiz-adv-x="194" 
d="M113 532l-1 -366h-15l-2 367v178h19zM114 0h-18v96h18v-96z" />
    <glyph glyph-name="uni2049" unicode="&#x2049;" horiz-adv-x="645" 
d="M388 713c125 0 177 -71 177 -190c0 -130 -68 -172 -107 -205c-33 -28 -63 -65 -63 -169h-18c0 100 21 139 71 185c45 41 98 66 98 190s-60 171 -158 171c-65 0 -145 -33 -145 -164h-19c0 64 26 182 164 182zM113 532l-1 -366h-15l-2 367v178h19zM114 0h-18v96h18v-96z
M397 0h-19v96h19v-96z" />
    <glyph glyph-name="exclamdown" unicode="&#xa1;" horiz-adv-x="199" 
d="M109 429h-18v96h18v-96zM109 -8v-178h-19v178l2 367h15z" />
    <glyph glyph-name="uni203D" unicode="&#x203d;" horiz-adv-x="452" 
d="M223 770v-57c121 -2 171 -73 171 -190c0 -130 -68 -172 -107 -205c-33 -28 -63 -65 -63 -169h-18c-1 122 -1 245 -2 367v179c-62 -5 -132 -42 -132 -164h-19c0 62 24 174 151 182v57h19zM223 695l-2 -437c12 30 30 52 56 76c45 41 98 66 98 190c0 122 -58 169 -152 171z
M226 0h-19v96h19v-96z" />
    <glyph glyph-name="numbersign" unicode="#" horiz-adv-x="629" 
d="M439 434h110v-18h-112l-26 -196h118v-18h-120l-27 -202h-19l27 202h-154l-28 -202h-19l28 202h-122v18h124l26 196h-130v18h132l27 202h19l-27 -202h154l27 202h19zM264 416l-26 -196h154l26 196h-154z" />
    <glyph glyph-name="period" unicode="." horiz-adv-x="195" 
d="M115 0h-20v96h20v-96z" />
    <glyph glyph-name="question" unicode="?" horiz-adv-x="452" 
d="M217 713c125 0 177 -71 177 -190c0 -130 -68 -172 -107 -205c-33 -28 -63 -65 -63 -169h-18c0 100 21 139 71 185c45 41 98 66 98 190s-60 171 -158 171c-65 0 -145 -33 -145 -164h-19c0 64 26 182 164 182zM226 0h-19v96h19v-96z" />
    <glyph glyph-name="questiondown" unicode="&#xbf;" horiz-adv-x="452" 
d="M245 429h-19v96h19v-96zM228 376h18c0 -100 -21 -139 -71 -185c-45 -41 -98 -66 -98 -190s60 -171 158 -171c65 0 145 33 145 164h19c0 -64 -26 -182 -164 -182c-125 0 -177 71 -177 190c0 130 68 172 107 205c33 28 63 65 63 169z" />
    <glyph glyph-name="uni2048" unicode="&#x2048;" horiz-adv-x="623" 
d="M217 713c125 0 177 -71 177 -190c0 -130 -68 -172 -107 -205c-33 -28 -63 -65 -63 -169h-18c0 100 21 139 71 185c45 41 98 66 98 190s-60 171 -158 171c-65 0 -145 -33 -145 -164h-19c0 64 26 182 164 182zM542 532l-1 -366h-15l-2 367v178h19zM226 0h-19v96h19v-96z
M543 0h-18v96h18v-96z" />
    <glyph glyph-name="quotedbl" unicode="&#x22;" horiz-adv-x="322" 
d="M115 680l-3 -171h-14l-3 171v65h20v-65zM242 680l-3 -171h-14l-3 171v65h20v-65z" />
    <glyph glyph-name="quotesingle" unicode="'" horiz-adv-x="195" 
d="M115 680l-3 -172h-14l-3 172v65h20v-65z" />
    <glyph glyph-name="uni2E2E" unicode="&#x2e2e;" horiz-adv-x="452" 
d="M235 713c138 0 164 -118 164 -182h-19c0 131 -80 164 -145 164c-98 0 -158 -47 -158 -171s53 -149 98 -190c50 -46 71 -85 71 -185h-18c0 104 -30 141 -63 169c-39 33 -107 75 -107 205c0 119 52 190 177 190zM245 0h-19v96h19v-96z" />
    <glyph glyph-name="semicolon" unicode=";" horiz-adv-x="228" 
d="M140 429h-18v95h18v-95zM148 96v-96c0 -57 -1 -99 -53 -112v15c48 9 35 72 35 97h-8v96h26z" />
    <glyph glyph-name="slash" unicode="/" horiz-adv-x="320" 
d="M27 -18h-18l254 763h18z" />
    <glyph glyph-name="uni2056" unicode="&#x2056;" horiz-adv-x="456" 
d="M376 524h-18v96h18v-96zM113 310h-18v96h18v-96zM376 95h-18v96h18v-96z" />
    <glyph glyph-name="uni205D" unicode="&#x205d;" horiz-adv-x="215" 
d="M115 749c13 0 20 -7 20 -20s-7 -20 -20 -20s-20 7 -20 20s7 20 20 20zM115 389c13 0 20 -7 20 -20s-7 -20 -20 -20s-20 7 -20 20s7 20 20 20zM115 29c13 0 20 -7 20 -20s-7 -20 -20 -20s-20 7 -20 20s7 20 20 20z" />
    <glyph glyph-name="uni2051" unicode="&#x2051;" horiz-adv-x="419" 
d="M225 584l2 -1l107 37l5 -15l-109 -36v-2l67 -91l-13 -10l-66 93h-2l-66 -93l-13 10l67 91v2l-109 37l5 13l107 -36l2 1v116h16v-116zM225 187l2 -1l107 37l5 -15l-109 -36v-2l67 -91l-13 -10l-66 93h-2l-66 -93l-13 10l67 91v2l-109 37l5 13l107 -36l2 1v116h16v-116z
" />
    <glyph glyph-name="twodotenleader" unicode="&#x2025;" horiz-adv-x="357" 
d="M115 0h-20v96h20v-96zM277 0h-20v96h20v-96z" />
    <glyph glyph-name="underscore" unicode="_" horiz-adv-x="450" 
d="M450 -33v-18h-450v18h450z" />
    <glyph glyph-name="uni205E" unicode="&#x205e;" horiz-adv-x="215" 
d="M115 749c13 0 20 -7 20 -20s-7 -20 -20 -20s-20 7 -20 20s7 20 20 20zM115 509c13 0 20 -7 20 -20s-7 -20 -20 -20s-20 7 -20 20s7 20 20 20zM115 269c13 0 20 -7 20 -20s-7 -20 -20 -20s-20 7 -20 20s7 20 20 20zM115 29c13 0 20 -7 20 -20s-7 -20 -20 -20s-20 7 -20 20
s7 20 20 20z" />
    <glyph glyph-name="comma.dnom" horiz-adv-x="121" 
d="M81 72v-72c0 -43 -1 -76 -41 -85v11c37 7 27 55 27 74h-6v72h20z" />
    <glyph glyph-name="period.dnom" horiz-adv-x="95" 
d="M55 0h-15v72h15v-72z" />
    <glyph glyph-name="comma.inferior" horiz-adv-x="121" 
d="M81 -94v-72c0 -43 -1 -76 -41 -85v11c37 7 27 55 27 74h-6v72h20z" />
    <glyph glyph-name="period.inferior" horiz-adv-x="95" 
d="M55 -162h-15v72h15v-72z" />
    <glyph glyph-name="comma.num" horiz-adv-x="121" 
d="M81 393v-72c0 -43 -1 -76 -41 -85v11c37 7 27 55 27 74h-6v72h20z" />
    <glyph glyph-name="period.num" horiz-adv-x="95" 
d="M55 321h-15v72h15v-72z" />
    <glyph glyph-name="comma.superior" horiz-adv-x="121" 
d="M81 476v-72c0 -43 -1 -76 -41 -85v11c37 7 27 55 27 74h-6v72h20z" />
    <glyph glyph-name="period.superior" horiz-adv-x="95" 
d="M55 404h-15v72h15v-72z" />
    <glyph glyph-name="braceleft" unicode="{" horiz-adv-x="312" 
d="M283 727h-31c-155 0 -8 -458 -185 -459v-2c177 0 30 -468 185 -468h31v-18h-31c-181 0 -29 475 -194 475v24c165 0 13 466 194 466h31v-18z" />
    <glyph glyph-name="braceright" unicode="}" horiz-adv-x="312" 
d="M29 745h31c181 0 29 -466 194 -466v-24c-165 0 -13 -475 -194 -475h-31v18h31c155 0 8 468 185 468v2c-177 0 -30 459 -185 459h-31v18z" />
    <glyph glyph-name="bracketleft" unicode="[" horiz-adv-x="263" 
d="M113 726v-928h150v-18h-168v965h168v-19h-150z" />
    <glyph glyph-name="bracketright" unicode="]" horiz-adv-x="197" 
d="M117 745v-965h-117v17h99v930h-99v18h117z" />
    <glyph glyph-name="parenleft" unicode="(" horiz-adv-x="223" 
d="M232 -220h-18c-104 139 -156 330 -156 486c0 183 59 325 157 479h18c-98 -155 -156 -307 -156 -479s53 -332 155 -486z" />
    <glyph glyph-name="uni208D" unicode="&#x208d;" horiz-adv-x="130" 
d="M114 252h16c-52 -84 -83 -164 -83 -256c0 -93 29 -178 83 -261h-16c-56 75 -84 177 -84 261c0 98 31 173 84 256z" />
    <glyph glyph-name="parenleftsuperior" unicode="&#x207d;" horiz-adv-x="130" 
d="M114 865h16c-52 -84 -83 -164 -83 -256c0 -93 29 -178 83 -261h-16c-56 75 -84 177 -84 261c0 98 31 173 84 256z" />
    <glyph glyph-name="parenright" unicode=")" horiz-adv-x="223" 
d="M9 -220h-18c102 154 155 314 155 486s-58 324 -156 479h18c98 -154 157 -296 157 -479c0 -156 -52 -347 -156 -486z" />
    <glyph glyph-name="uni208E" unicode="&#x208e;" horiz-adv-x="188" 
d="M58 252h16c53 -83 84 -158 84 -256c0 -84 -28 -186 -84 -261h-16c54 83 83 168 83 261c0 92 -31 172 -83 256z" />
    <glyph glyph-name="parenrightsuperior" unicode="&#x207e;" horiz-adv-x="130" 
d="M0 865h16c53 -83 84 -158 84 -256c0 -84 -28 -186 -84 -261h-16c54 83 83 168 83 261c0 92 -31 172 -83 256z" />
    <glyph glyph-name="emdash" unicode="&#x2014;" horiz-adv-x="797" 
d="M717 283v-18h-622v18h622z" />
    <glyph glyph-name="endash" unicode="&#x2013;" horiz-adv-x="390" 
d="M390 283v-18h-390v18h390z" />
    <glyph glyph-name="hyphen" unicode="-" horiz-adv-x="435" 
d="M355 283v-18h-260v18h260z" />
    <glyph glyph-name="guillemotleft" unicode="&#xab;" horiz-adv-x="461" 
d="M228 356l-120 -90v-2l120 -95v-18l-133 104v20l133 99v-18zM381 356l-120 -90v-2l120 -95v-18l-133 104v20l133 99v-18z" />
    <glyph glyph-name="guillemotright" unicode="&#xbb;" horiz-adv-x="466" 
d="M223 275v-20l-133 -104v18l120 95v2l-120 90v18zM376 275v-20l-133 -104v18l120 95v2l-120 90v18z" />
    <glyph glyph-name="guilsinglleft" unicode="&#x2039;" horiz-adv-x="313" 
d="M223 356l-120 -90v-2l120 -95v-18l-133 104v20l133 99v-18z" />
    <glyph glyph-name="guilsinglright" unicode="&#x203a;" horiz-adv-x="313" 
d="M223 275v-20l-133 -104v18l120 95v2l-120 90v18z" />
    <glyph glyph-name="quotedblbase" unicode="&#x201e;" horiz-adv-x="344" 
d="M122 96h26v-96c0 -57 -1 -99 -53 -112v15c48 9 35 72 35 97h-8v96zM264 96v-96c0 -57 -1 -99 -53 -112v15c48 9 35 72 35 97h-8v96h26z" />
    <glyph glyph-name="quotedblleft" unicode="&#x201c;" horiz-adv-x="377" 
d="M151 745v-15c-49 -7 -37 -71 -38 -96h8v-109h-26v110c0 57 4 99 56 110zM297 745v-15c-49 -7 -37 -71 -38 -96h8v-109h-26v110c0 57 4 99 56 110z" />
    <glyph glyph-name="quotedblright" unicode="&#x201d;" horiz-adv-x="377" 
d="M151 745v-110c0 -57 -4 -99 -56 -110v15c49 7 37 71 38 96h-8v109h26zM297 745v-110c0 -57 -4 -99 -56 -110v15c49 7 37 71 38 96h-8v109h26z" />
    <glyph glyph-name="quoteleft" unicode="&#x2018;" horiz-adv-x="231" 
d="M151 745v-15c-49 -7 -37 -71 -38 -96h8v-109h-26v110c0 57 4 99 56 110z" />
    <glyph glyph-name="quoteright" unicode="&#x2019;" horiz-adv-x="231" 
d="M151 745v-110c0 -57 -4 -99 -56 -110v15c49 12 37 71 38 96h-8v109h26z" />
    <glyph glyph-name="quotesinglbase" unicode="&#x201a;" horiz-adv-x="228" 
d="M148 96v-96c0 -57 -1 -99 -53 -112v15c48 9 35 72 35 97h-8v96h26z" />
    <glyph glyph-name="space" unicode=" " horiz-adv-x="230" 
 />
    <glyph glyph-name="uni20B3" unicode="&#x20b3;" 
d="M410 436h158v-18h-151l50 -129h101v-18h-94l105 -271h-22l-106 271h-309l-101 -271h-21l101 271h-90v18h97l48 129h-145v18h152l99 264h25zM294 676l-144 -387h294l-148 387h-2z" />
    <glyph glyph-name="baht" unicode="&#xe3f;" horiz-adv-x="593" 
d="M293 791v-91c77 0 214 -10 214 -175c0 -105 -55 -146 -115 -163v-2c80 -17 148 -63 148 -175c0 -156 -104 -185 -247 -185v-91h-18v91h-180v700h180v91h18zM115 680v-310h175c121 0 197 34 197 155s-76 155 -197 155h-175zM115 350v-330h198c86 0 207 14 207 165
c0 145 -126 165 -207 165h-198z" />
    <glyph glyph-name="uni20B5" unicode="&#x20b5;" horiz-adv-x="657" 
d="M354 791v-80c164 -6 240 -164 240 -252h-20c0 100 -85 232 -229 232c-145 0 -262 -165 -262 -336c0 -149 55 -346 261 -346c154 0 234 153 242 199l18 -11c-27 -99 -118 -203 -250 -208v-81h-18v81c-204 5 -274 194 -274 366c0 175 118 349 274 356v80h18z" />
    <glyph glyph-name="cent" unicode="&#xa2;" horiz-adv-x="513" 
d="M443 110l17 -10c-33 -65 -98 -108 -182 -111v-84h-18v84c-143 6 -202 150 -202 278c0 140 59 266 202 270v85h18v-85c111 -5 166 -83 177 -181h-19c-6 91 -65 163 -167 163c-131 0 -192 -111 -192 -252c0 -127 63 -260 192 -260c78 0 141 42 174 103z" />
    <glyph glyph-name="colonsign" unicode="&#x20a1;" horiz-adv-x="689" 
d="M517 791l-30 -107c95 -49 139 -157 139 -225h-20c0 100 -85 232 -229 232c-145 0 -262 -165 -262 -336c0 -149 55 -346 261 -346c154 0 234 153 242 199l18 -11c-28 -101 -122 -208 -259 -208c-28 0 -54 3 -77 10l-24 -90h-18l26 94c-30 11 -56 26 -78 45l-38 -139h-18
l42 153c-71 71 -98 185 -98 293c0 175 119 350 275 356l22 80h18l-22 -80c32 -1 60 -8 85 -19l27 99h18z" />
    <glyph glyph-name="cruzeiro" unicode="&#x20a2;" horiz-adv-x="657" 
d="M586 208l18 -11c-28 -101 -122 -208 -259 -208c-211 0 -283 191 -283 366c0 178 123 356 283 356c170 0 249 -162 249 -252h-20c0 100 -85 232 -229 232c-145 0 -262 -165 -262 -336c0 -147 53 -340 251 -346v333h18v-67h2c19 49 74 78 103 78v-18
c-33 0 -105 -50 -105 -126v-200c158 5 218 151 234 199z" />
    <glyph glyph-name="currency" unicode="&#xa4;" horiz-adv-x="545" 
d="M473 345c0 -59 -16 -107 -47 -141l61 -61l-13 -13l-61 61c-34 -30 -81 -46 -140 -46s-107 16 -141 47l-61 -62l-13 13l61 62c-31 34 -47 81 -47 140s16 106 47 140l-61 62l13 13l61 -61c34 30 82 46 141 46s106 -16 140 -46l61 61l13 -13l-61 -61c31 -34 47 -82 47 -141z
M273 163c108 0 181 68 181 182c0 108 -67 182 -181 182s-182 -74 -182 -182c0 -114 74 -182 182 -182z" />
    <glyph glyph-name="dollar" unicode="$" horiz-adv-x="477" 
d="M239 791v-80c110 -4 146 -61 146 -149h-18c2 113 -72 131 -128 131c-55 0 -149 -19 -149 -152c0 -52 5 -75 15 -93c25 -43 75 -57 130 -69c126 -26 189 -70 189 -193c0 -89 -41 -195 -185 -197v-80h-18v80c-100 4 -153 55 -168 149l17 9c16 -109 79 -138 164 -138
c139 0 170 94 170 177c0 117 -52 147 -169 174c-57 14 -112 26 -143 73c-14 21 -22 48 -22 108c0 136 102 168 151 170v80h18z" />
    <glyph glyph-name="dong" unicode="&#x20ab;" horiz-adv-x="540" 
d="M440 640h82v-18h-82v-622h-18v113h-2c-22 -62 -66 -124 -162 -124c-146 0 -200 135 -200 269c0 132 56 279 200 279c96 0 141 -64 162 -129h2v214h-169v18h169v105h18v-105zM258 519c-129 0 -182 -133 -182 -261c0 -159 67 -250 182 -250c153 0 164 160 164 252
c0 73 -6 259 -164 259zM421 -122h-269v18h269v-18z" />
    <glyph glyph-name="Euro" unicode="&#x20ac;" horiz-adv-x="697" 
d="M626 87l18 -11c-55 -50 -129 -87 -221 -87c-160 0 -263 103 -288 281h-117l8 18h107c-2 21 -3 44 -3 67c0 29 2 56 5 81h-117l8 18h112c28 163 130 257 285 257c71 0 141 -30 186 -82v-21c-57 58 -126 83 -186 83c-141 0 -235 -86 -263 -237h383l-8 -18h-378
c-4 -25 -6 -52 -6 -81c0 -23 1 -46 3 -67h354l-8 -18h-343c23 -165 119 -261 265 -261c74 0 152 31 204 78z" />
    <glyph glyph-name="uni20A0" unicode="&#x20a0;" horiz-adv-x="530" 
d="M249 704c100 -1 160 -70 170 -134h-21c-5 46 -56 116 -149 116c-111 0 -172 -94 -172 -215c0 -110 62 -222 172 -222h14v204h220v-18h-203v-184h193v-18h-193v-215h207v-18h-224v231l-14 -1c-129 0 -191 128 -191 241c0 123 62 234 191 233z" />
    <glyph glyph-name="florin" unicode="&#x192;" horiz-adv-x="304" 
d="M299 745l-5 -16c-113 0 -106 -55 -116 -235l98 -1l-5 -17h-94c-26 -636 -44 -695 -227 -695l9 15c165 0 174 95 200 681h-73l5 18h69c10 185 2 250 139 250z" />
    <glyph glyph-name="franc" unicode="&#x20a3;" horiz-adv-x="514" 
d="M146 680v-290h290v-19h-290v-213h177v-18h-177v-140h-20v140h-108v18h108v542h335v-20h-315z" />
    <glyph glyph-name="uni20B2" unicode="&#x20b2;" horiz-adv-x="671" 
d="M347 791v-80c162 -8 237 -164 237 -252h-20c0 100 -85 232 -229 232c-145 0 -262 -165 -262 -336c0 -149 77 -346 283 -346c157 0 195 75 210 111v179h-222l12 18h230v-204c-34 -74 -92 -123 -223 -124v-80h-18v80c-203 7 -293 194 -293 366c0 176 120 352 277 356v80h18
z" />
    <glyph glyph-name="hryvnia" unicode="&#x20b4;" horiz-adv-x="634" 
d="M581 360h-261c-117 -27 -169 -57 -169 -174c0 -83 31 -177 170 -177c85 0 148 29 164 138l17 -9c-16 -98 -64 -145 -186 -149c-144 2 -185 108 -185 197c0 98 40 145 119 174h-197v18h262l5 1c55 12 105 26 130 69c10 18 15 41 15 93c0 133 -94 152 -149 152
c-56 0 -130 -18 -128 -131h-18c0 88 36 145 146 149c71 -2 169 -30 169 -170c0 -60 -8 -87 -22 -108c-19 -28 -46 -44 -78 -55h196v-18z" />
    <glyph glyph-name="uni20AD" unicode="&#x20ad;" horiz-adv-x="489" 
d="M231 374v-2h190v-18h-190v-2l238 -352h-22l-238 354h-55v-354h-20v354h-116v18h116v328h20v-328h55l224 328h22z" />
    <glyph glyph-name="lira" unicode="&#x20a4;" horiz-adv-x="553" 
d="M299 711c126 0 201 -69 201 -186h-20c0 104 -67 166 -181 166c-121 0 -192 -68 -192 -183c0 -40 8 -75 18 -108h240v-18h-234c11 -31 22 -60 31 -90h203v-18h-199c14 -68 7 -144 -75 -257v-2c94 17 226 25 400 4l8 -19c-186 22 -322 14 -430 -11v30c85 121 91 191 75 255
h-124v18h119c-9 29 -21 58 -32 90h-87v18h81c-9 31 -15 66 -15 108c0 128 79 203 213 203z" />
    <glyph glyph-name="uni20A6" unicode="&#x20a6;" horiz-adv-x="699" 
d="M551 444h128v-18h-128v-152h128v-18h-128v-256h-32l-349 677h-2v-677h-20v256h-128v18h128v152h-128v18h128v256h31l350 -678h2v678h20v-256z" />
    <glyph glyph-name="uni20B1" unicode="&#x20b1;" horiz-adv-x="576" 
d="M148 700h36c102 0 215 -11 256 -109h116v-18h-109c6 -22 10 -47 10 -76c0 -30 -4 -55 -10 -77h109v-18h-116c-42 -98 -153 -110 -255 -110h-17v-292h-20v402h-128v18h128v153h-128v18h128v109zM168 681v-369h33c167 0 235 59 235 185s-69 184 -236 184h-32z" />
    <glyph glyph-name="uni20B9" unicode="&#x20b9;" horiz-adv-x="522" 
d="M494 682h-234v-2c60 -21 109 -65 113 -155h129l-8 -18h-121c-3 -121 -90 -159 -129 -167v-1c48 -8 84 -29 98 -64c18 -45 20 -109 20 -174c0 -34 2 -69 21 -101h-22c-6 10 -9 23 -13 42c-15 65 15 196 -41 252c-27 27 -74 34 -128 34v19c105 0 175 64 175 167
c0 109 -63 168 -234 168h-100l8 18h474z" />
    <glyph glyph-name="sterling" unicode="&#xa3;" horiz-adv-x="553" 
d="M299 711c126 0 201 -69 201 -186h-20c0 104 -67 166 -181 166c-121 0 -192 -68 -192 -183c0 -58 16 -104 32 -149h226v-18h-219c14 -39 26 -78 26 -122c-1 -55 -20 -118 -81 -202v-2c94 17 226 25 400 4l8 -19c-186 22 -322 14 -430 -11v30c61 88 82 149 82 200
c0 44 -14 81 -29 122h-102v18h95c-15 41 -29 87 -29 149c0 128 79 203 213 203z" />
    <glyph glyph-name="uni20B8" unicode="&#x20b8;" horiz-adv-x="464" 
d="M444 681h-424v19h424v-19zM444 575h-202v-575h-20v575h-202v19h424v-19z" />
    <glyph glyph-name="uni20AE" unicode="&#x20ae;" horiz-adv-x="464" 
d="M444 681h-202v-182l188 77v-18l-188 -77v-148l188 77v-18l-188 -77v-315h-20v307l-187 -77v18l187 77v148l-187 -77v18l187 77v190h-202v19h424v-19z" />
    <glyph glyph-name="won" unicode="&#x20a9;" horiz-adv-x="858" 
d="M724 459h114v-18h-118l-37 -152h155v-18h-159l-66 -271h-34l-163 677h-2l-131 -677h-34l-79 271h-150v18h145l-44 152h-101v18h96l-70 241h20l199 -678h2l133 678h30l165 -678h2l166 678h20z" />
    <glyph glyph-name="yen" unicode="&#xa5;" horiz-adv-x="422" 
d="M263 409h138v-18h-146l-34 -71v-60h180v-18h-180l-1 -242h-19v242h-180v18h180v60l-34 71h-146v18h138l-139 291h22l168 -356h2l168 356h22z" />
    <glyph glyph-name="Ohm" unicode="&#x2126;" horiz-adv-x="762" 
d="M479 0v19c121 84 172 202 172 344c0 206 -100 328 -270 328s-270 -122 -270 -328c0 -142 51 -260 172 -344v-19h-221v19h189v3c-60 42 -161 139 -161 339c0 220 108 350 291 350s291 -130 291 -350c0 -200 -101 -297 -161 -339v-3h189v-19h-221z" />
    <glyph glyph-name="uni224A" unicode="&#x224a;" horiz-adv-x="685" 
d="M588 506h17c-17 -91 -66 -145 -131 -145c-105 0 -140 117 -238 117c-55 0 -98 -47 -114 -126h-17c17 91 66 145 131 145c105 0 140 -117 238 -117c55 0 98 47 114 126zM588 273h17c-17 -91 -66 -145 -131 -145c-105 0 -140 117 -238 117c-55 0 -98 -47 -114 -126h-17
c17 91 66 145 131 145c105 0 140 -117 238 -117c55 0 98 47 114 126zM595 0h-500v18h500v-18z" />
    <glyph glyph-name="approxequal" unicode="&#x2248;" horiz-adv-x="675" 
d="M633 523h17c-17 -91 -66 -145 -131 -145c-105 0 -140 117 -238 117c-55 0 -98 -47 -114 -126h-17c17 91 66 145 131 145c105 0 140 -117 238 -117c55 0 98 47 114 126zM633 290h17c-17 -91 -66 -145 -131 -145c-105 0 -140 117 -238 117c-55 0 -98 -47 -114 -126h-17
c17 91 66 145 131 145c105 0 140 -117 238 -117c55 0 98 47 114 126z" />
    <glyph glyph-name="uni2246" unicode="&#x2246;" horiz-adv-x="676" 
d="M226 442c-55 0 -98 -47 -114 -126h-17c17 91 66 145 131 145c105 0 140 -117 238 -117c55 0 98 47 114 126h17c-17 -91 -66 -145 -131 -145c-105 0 -140 117 -238 117zM596 60h-268l-34 -71h-18l34 71h-215v18h223l57 119h-280v18h289l34 72h18l-34 -72h193v-18h-202
l-57 -119h260v-18z" />
    <glyph glyph-name="asymptoticallyequal" unicode="&#x2243;" horiz-adv-x="675" 
d="M578 470h17c-17 -91 -66 -145 -131 -145c-105 0 -140 117 -238 117c-55 0 -98 -47 -114 -126h-17c17 91 66 145 131 145c105 0 140 -117 238 -117c55 0 98 47 114 126zM595 197h-500v18h500v-18z" />
    <glyph glyph-name="asciitilde" unicode="~" horiz-adv-x="675" 
d="M578 388h17c-17 -91 -66 -145 -131 -145c-105 0 -140 117 -238 117c-55 0 -98 -47 -114 -126h-17c17 91 66 145 131 145c105 0 140 -117 238 -117c55 0 98 47 114 126z" />
    <glyph glyph-name="because" unicode="&#x2235;" horiz-adv-x="533" 
d="M115 349c13 0 20 -7 20 -20s-7 -20 -20 -20s-20 7 -20 20s7 20 20 20zM433 349c13 0 20 -7 20 -20s-7 -20 -20 -20s-20 7 -20 20s7 20 20 20zM274 29c13 0 20 -7 20 -20s-7 -20 -20 -20s-20 7 -20 20s7 20 20 20z" />
    <glyph glyph-name="congruent" unicode="&#x2245;" horiz-adv-x="676" 
d="M578 470h17c-17 -91 -66 -145 -131 -145c-105 0 -140 117 -238 117c-55 0 -98 -47 -114 -126h-17c17 91 66 145 131 145c105 0 140 -117 238 -117c55 0 98 47 114 126zM595 197h-500v18h500v-18zM596 60h-501v18h501v-18z" />
    <glyph glyph-name="contourintegral" unicode="&#x222e;" horiz-adv-x="370" 
d="M365 242c0 -113 -91 -206 -204 -207c-20 -132 -71 -255 -198 -254l6 18c109 0 154 113 172 237c-106 8 -191 98 -191 206c0 114 93 207 205 208c6 166 33 295 157 295l-6 -18c-101 0 -130 -121 -136 -277c109 -7 195 -97 195 -208zM-31 242c0 -99 77 -181 175 -188
c9 76 10 154 10 211s-1 114 1 168c-103 -2 -186 -87 -186 -191zM163 53c103 3 184 87 184 189c0 101 -78 185 -178 191c-1 -54 0 -111 2 -169c2 -56 2 -134 -8 -211z" />
    <glyph glyph-name="uni2210" unicode="&#x2210;" horiz-adv-x="613" 
d="M518 -220h-423v965h19v-947h385v947h19v-965z" />
    <glyph glyph-name="uni221B" unicode="&#x221b;" horiz-adv-x="622" 
d="M345 -220h-25l-239 413h-81v20h96l233 -406h2l269 938h22zM273 667c61 0 104 -36 104 -99c0 -48 -17 -79 -59 -92v-2c56 -13 69 -56 69 -103c0 -71 -25 -136 -114 -136c-65 0 -103 36 -112 92l14 7c10 -55 44 -82 99 -82c60 0 96 34 96 122c0 32 -5 92 -111 92v17
c72 0 101 32 101 85c0 46 -30 82 -87 82c-54 0 -84 -35 -84 -74h-17c0 51 39 91 101 91z" />
    <glyph glyph-name="dblintegral" unicode="&#x222c;" horiz-adv-x="452" 
d="M159 745l-6 -18c-139 0 -142 -230 -135 -463c5 -158 -2 -484 -208 -483l6 18c181 0 185 311 185 466c0 243 -10 480 158 480zM307 745l-6 -18c-139 0 -142 -230 -135 -463c5 -158 -2 -484 -208 -483l6 18c181 0 185 311 185 466c0 243 -10 480 158 480z" />
    <glyph glyph-name="divide" unicode="&#xf7;" horiz-adv-x="625" 
d="M320 525c11 0 20 -9 20 -20s-9 -20 -20 -20s-20 9 -20 20s9 20 20 20zM545 260h-450v18h450v-18zM320 40c11 0 20 -9 20 -20s-9 -20 -20 -20s-20 9 -20 20s9 20 20 20z" />
    <glyph glyph-name="uni2238" unicode="&#x2238;" horiz-adv-x="625" 
d="M320 389c13 0 20 -7 20 -20s-7 -20 -20 -20s-20 7 -20 20s7 20 20 20zM545 216h-450v18h450v-18z" />
    <glyph glyph-name="uni2214" unicode="&#x2214;" horiz-adv-x="625" 
d="M320 564c-13 0 -20 7 -20 20s7 20 20 20s20 -7 20 -20s-7 -20 -20 -20zM545 216h-216v-216h-18v216h-216v18h216v216h18v-216h216v-18z" />
    <glyph glyph-name="emptyset" unicode="&#x2205;" horiz-adv-x="705" 
d="M639 582l-71 -72c50 -51 79 -124 79 -211c0 -177 -118 -295 -294 -295c-87 0 -160 29 -212 79l-70 -70l-13 14l70 70c-45 51 -70 120 -70 202c0 176 118 294 295 294c81 0 150 -25 201 -70l72 72zM353 575c-166 0 -276 -110 -276 -276c0 -76 23 -141 65 -188l399 399
c-47 42 -112 65 -188 65zM554 497l-399 -400c48 -47 116 -74 198 -74c165 0 275 110 275 276c0 82 -27 150 -74 198z" />
    <glyph glyph-name="equal" unicode="=" horiz-adv-x="676" 
d="M596 351v-18h-501v18h501zM596 214v-18h-501v18h501z" />
    <glyph glyph-name="uni2A71" unicode="&#x2a71;" horiz-adv-x="626" 
d="M546 602h-450v18h450v-18zM546 465h-450v18h450v-18zM329 204h216v-18h-216v-186h-18v186h-216v18h216v186h18v-186z" />
    <glyph glyph-name="existential" unicode="&#x2203;" horiz-adv-x="478" 
d="M398 700v-700h-345v19h325v343h-305v19h305v300h-320v19h340z" />
    <glyph glyph-name="uni2A0D" unicode="&#x2a0d;" horiz-adv-x="304" 
d="M299 745l-6 -18c-129 0 -141 -198 -136 -412h129v-17h-129l1 -34c5 -158 -2 -484 -208 -483l6 18c181 0 185 311 185 466v33h-134v17h134c-1 224 2 430 158 430z" />
    <glyph glyph-name="uni221C" unicode="&#x221c;" horiz-adv-x="600" 
d="M345 -220h-25l-239 413h-81v20h96l233 -406h2l269 938h22zM334 390h58v-15h-58v-135h-16v135h-181v15l181 273h16v-273zM316 633l-161 -241v-2h163v243h-2z" />
    <glyph glyph-name="gradient" unicode="&#x2207;" horiz-adv-x="679" 
d="M327 0l-309 670v30h643v-30l-311 -670h-23zM643 678v3h-607v-3l301 -654h3z" />
    <glyph glyph-name="greater" unicode="&#x3e;" horiz-adv-x="638" 
d="M95 506v18l463 -224v-24l-463 -224v18l447 218z" />
    <glyph glyph-name="greaterequal" unicode="&#x2265;" horiz-adv-x="625" 
d="M545 343v-24l-450 -194v18l434 187v2l-434 187v18zM545 0h-450v18h450v-18z" />
    <glyph glyph-name="uni223B" unicode="&#x223b;" horiz-adv-x="675" 
d="M345 386c13 0 20 -7 20 -20s-7 -20 -20 -20s-20 7 -20 20s7 20 20 20zM578 276h17c-17 -91 -66 -145 -131 -145c-105 0 -140 117 -238 117c-55 0 -98 -47 -114 -126h-17c17 91 66 145 131 145c105 0 140 -117 238 -117c55 0 98 47 114 126zM345 29c13 0 20 -7 20 -20
s-7 -20 -20 -20s-20 7 -20 20s7 20 20 20z" />
    <glyph glyph-name="increment" unicode="&#x2206;" horiz-adv-x="679" 
d="M661 30v-30h-643v30l309 670h23zM337 676l-301 -654v-3h607v3l-303 654h-3z" />
    <glyph glyph-name="infinity" unicode="&#x221e;" horiz-adv-x="851" 
d="M623 437c93 0 148 -63 148 -170c0 -106 -56 -168 -151 -168c-59 0 -130 47 -186 149h-2c-56 -102 -127 -149 -186 -149c-95 0 -151 62 -151 168c0 107 55 170 148 170c59 0 133 -49 189 -151h2c56 102 130 151 189 151zM243 419c-81 0 -129 -56 -129 -152
c0 -94 49 -150 132 -150c52 0 123 44 176 149v2c-53 105 -127 151 -179 151zM623 419c-52 0 -126 -46 -179 -151v-2c53 -105 124 -149 176 -149c83 0 132 56 132 150c0 96 -48 152 -129 152z" />
    <glyph glyph-name="integral" unicode="&#x222b;" horiz-adv-x="304" 
d="M299 745l-6 -18c-139 0 -142 -230 -135 -463c5 -158 -2 -484 -208 -483l6 18c181 0 185 311 185 466c0 243 -10 480 158 480z" />
    <glyph glyph-name="uni2A0F" unicode="&#x2a0f;" horiz-adv-x="304" 
d="M299 745l-6 -18c-129 0 -141 -197 -136 -411l129 61v-17l-129 -61l1 -35c5 -158 -2 -484 -208 -483l6 18c181 0 185 311 185 466v26l-134 -63v17l134 63c-1 227 0 437 158 437z" />
    <glyph glyph-name="uni2A0E" unicode="&#x2a0e;" horiz-adv-x="304" 
d="M299 745l-6 -18c-122 0 -139 -176 -137 -376h130v-17h-130l2 -70c0 -11 1 -22 1 -34h127v-17h-127c1 -168 -23 -433 -209 -432l6 18c162 0 182 251 185 414h-134v17h134v35v69h-134v17h134c0 210 10 394 158 394z" />
    <glyph glyph-name="uni2A1B" unicode="&#x2a1b;" horiz-adv-x="328" 
d="M323 813h-295v17h295v-17zM299 745l-6 -18c-139 0 -142 -230 -135 -463c5 -158 -2 -484 -208 -483l6 18c181 0 185 311 185 466c0 243 -10 480 158 480z" />
    <glyph glyph-name="uni2A1C" unicode="&#x2a1c;" horiz-adv-x="304" 
d="M299 745l-6 -18c-139 0 -142 -230 -135 -463c5 -158 -2 -484 -208 -483l6 18c181 0 185 311 185 466c0 243 -10 480 158 480zM251 -298h-295v17h295v-17z" />
    <glyph glyph-name="less" unicode="&#x3c;" horiz-adv-x="638" 
d="M558 506l-447 -217v-2l447 -217v-18l-463 224v24l463 224v-18z" />
    <glyph glyph-name="lessequal" unicode="&#x2264;" horiz-adv-x="625" 
d="M545 519l-434 -187v-2l434 -187v-18l-450 194v24l450 194v-18zM545 0h-450v18h450v-18z" />
    <glyph glyph-name="logicalnot" unicode="&#xac;" horiz-adv-x="636" 
d="M556 89h-19v267h-442v18h461v-285z" />
    <glyph glyph-name="uni00B5" unicode="&#xb5;" horiz-adv-x="504" 
d="M424 0h-18v91h-2c-19 -49 -66 -103 -151 -103c-73 0 -127 14 -153 97h-2v-305h-18v745h18v-308c2 -179 61 -210 155 -210c108 0 153 107 153 159v359h18v-525z" />
    <glyph glyph-name="minus" unicode="&#x2212;" horiz-adv-x="675" 
d="M595 216h-500v18h500v-18z" />
    <glyph glyph-name="uni2A2A" unicode="&#x2a2a;" horiz-adv-x="675" 
d="M595 216h-500v18h500v-18zM345 101c13 0 20 -7 20 -20s-7 -20 -20 -20s-20 7 -20 20s7 20 20 20z" />
    </font>
</defs>
</svg>
